G04 #@! TF.GenerationSoftware,KiCad,Pcbnew,6.0.2+dfsg-1*
G04 #@! TF.CreationDate,2023-02-02T22:28:34+01:00*
G04 #@! TF.ProjectId,keyboard,6b657962-6f61-4726-942e-6b696361645f,rev?*
G04 #@! TF.SameCoordinates,Original*
G04 #@! TF.FileFunction,Legend,Top*
G04 #@! TF.FilePolarity,Positive*
%FSLAX46Y46*%
G04 Gerber Fmt 4.6, Leading zero omitted, Abs format (unit mm)*
G04 Created by KiCad (PCBNEW 6.0.2+dfsg-1) date 2023-02-02 22:28:34*
%MOMM*%
%LPD*%
G01*
G04 APERTURE LIST*
%ADD10C,0.300000*%
%ADD11C,0.150000*%
%ADD12C,0.000000*%
%ADD13C,0.200000*%
%ADD14C,0.381000*%
%ADD15C,0.100000*%
%ADD16R,1.600000X1.600000*%
%ADD17C,1.600000*%
%ADD18R,1.752600X1.752600*%
%ADD19C,1.752600*%
G04 APERTURE END LIST*
D10*
X116285476Y-124634761D02*
X116285476Y-126063333D01*
X116190238Y-126349047D01*
X115999761Y-126539523D01*
X115714047Y-126634761D01*
X115523571Y-126634761D01*
X117999761Y-126539523D02*
X117809285Y-126634761D01*
X117428333Y-126634761D01*
X117237857Y-126539523D01*
X117142619Y-126349047D01*
X117142619Y-125587142D01*
X117237857Y-125396666D01*
X117428333Y-125301428D01*
X117809285Y-125301428D01*
X117999761Y-125396666D01*
X118095000Y-125587142D01*
X118095000Y-125777619D01*
X117142619Y-125968095D01*
X119237857Y-126634761D02*
X119047380Y-126539523D01*
X118952142Y-126349047D01*
X118952142Y-124634761D01*
X120285476Y-126634761D02*
X120095000Y-126539523D01*
X119999761Y-126349047D01*
X119999761Y-124634761D01*
X120856904Y-125301428D02*
X121333095Y-126634761D01*
X121809285Y-125301428D02*
X121333095Y-126634761D01*
X121142619Y-127110952D01*
X121047380Y-127206190D01*
X120856904Y-127301428D01*
X122571190Y-126634761D02*
X122571190Y-124634761D01*
X122761666Y-125872857D02*
X123333095Y-126634761D01*
X123333095Y-125301428D02*
X122571190Y-126063333D01*
X124952142Y-126539523D02*
X124761666Y-126634761D01*
X124380714Y-126634761D01*
X124190238Y-126539523D01*
X124095000Y-126349047D01*
X124095000Y-125587142D01*
X124190238Y-125396666D01*
X124380714Y-125301428D01*
X124761666Y-125301428D01*
X124952142Y-125396666D01*
X125047380Y-125587142D01*
X125047380Y-125777619D01*
X124095000Y-125968095D01*
X125714047Y-125301428D02*
X126190238Y-126634761D01*
X126666428Y-125301428D02*
X126190238Y-126634761D01*
X125999761Y-127110952D01*
X125904523Y-127206190D01*
X125714047Y-127301428D01*
X128666428Y-124634761D02*
X129333095Y-126634761D01*
X129999761Y-124634761D01*
X131047380Y-124634761D02*
X131237857Y-124634761D01*
X131428333Y-124730000D01*
X131523571Y-124825238D01*
X131618809Y-125015714D01*
X131714047Y-125396666D01*
X131714047Y-125872857D01*
X131618809Y-126253809D01*
X131523571Y-126444285D01*
X131428333Y-126539523D01*
X131237857Y-126634761D01*
X131047380Y-126634761D01*
X130856904Y-126539523D01*
X130761666Y-126444285D01*
X130666428Y-126253809D01*
X130571190Y-125872857D01*
X130571190Y-125396666D01*
X130666428Y-125015714D01*
X130761666Y-124825238D01*
X130856904Y-124730000D01*
X131047380Y-124634761D01*
X132571190Y-126444285D02*
X132666428Y-126539523D01*
X132571190Y-126634761D01*
X132475952Y-126539523D01*
X132571190Y-126444285D01*
X132571190Y-126634761D01*
X134571190Y-126634761D02*
X133428333Y-126634761D01*
X133999761Y-126634761D02*
X133999761Y-124634761D01*
X133809285Y-124920476D01*
X133618809Y-125110952D01*
X133428333Y-125206190D01*
D11*
X319786904Y-41916190D02*
X318986904Y-41916190D01*
X318986904Y-41725714D01*
X319025000Y-41611428D01*
X319101190Y-41535238D01*
X319177380Y-41497142D01*
X319329761Y-41459047D01*
X319444047Y-41459047D01*
X319596428Y-41497142D01*
X319672619Y-41535238D01*
X319748809Y-41611428D01*
X319786904Y-41725714D01*
X319786904Y-41916190D01*
X319863095Y-41306666D02*
X319863095Y-40697142D01*
X319786904Y-40087619D02*
X319786904Y-40544761D01*
X319786904Y-40316190D02*
X318986904Y-40316190D01*
X319101190Y-40392380D01*
X319177380Y-40468571D01*
X319215476Y-40544761D01*
X319253571Y-39401904D02*
X319786904Y-39401904D01*
X318948809Y-39592380D02*
X319520238Y-39782857D01*
X319520238Y-39287619D01*
X319786904Y-118116190D02*
X318986904Y-118116190D01*
X318986904Y-117925714D01*
X319025000Y-117811428D01*
X319101190Y-117735238D01*
X319177380Y-117697142D01*
X319329761Y-117659047D01*
X319444047Y-117659047D01*
X319596428Y-117697142D01*
X319672619Y-117735238D01*
X319748809Y-117811428D01*
X319786904Y-117925714D01*
X319786904Y-118116190D01*
X319863095Y-117506666D02*
X319863095Y-116897142D01*
X318986904Y-116363809D02*
X318986904Y-116516190D01*
X319025000Y-116592380D01*
X319063095Y-116630476D01*
X319177380Y-116706666D01*
X319329761Y-116744761D01*
X319634523Y-116744761D01*
X319710714Y-116706666D01*
X319748809Y-116668571D01*
X319786904Y-116592380D01*
X319786904Y-116440000D01*
X319748809Y-116363809D01*
X319710714Y-116325714D01*
X319634523Y-116287619D01*
X319444047Y-116287619D01*
X319367857Y-116325714D01*
X319329761Y-116363809D01*
X319291666Y-116440000D01*
X319291666Y-116592380D01*
X319329761Y-116668571D01*
X319367857Y-116706666D01*
X319444047Y-116744761D01*
X318986904Y-115601904D02*
X318986904Y-115754285D01*
X319025000Y-115830476D01*
X319063095Y-115868571D01*
X319177380Y-115944761D01*
X319329761Y-115982857D01*
X319634523Y-115982857D01*
X319710714Y-115944761D01*
X319748809Y-115906666D01*
X319786904Y-115830476D01*
X319786904Y-115678095D01*
X319748809Y-115601904D01*
X319710714Y-115563809D01*
X319634523Y-115525714D01*
X319444047Y-115525714D01*
X319367857Y-115563809D01*
X319329761Y-115601904D01*
X319291666Y-115678095D01*
X319291666Y-115830476D01*
X319329761Y-115906666D01*
X319367857Y-115944761D01*
X319444047Y-115982857D01*
X302006904Y-118116190D02*
X301206904Y-118116190D01*
X301206904Y-117925714D01*
X301245000Y-117811428D01*
X301321190Y-117735238D01*
X301397380Y-117697142D01*
X301549761Y-117659047D01*
X301664047Y-117659047D01*
X301816428Y-117697142D01*
X301892619Y-117735238D01*
X301968809Y-117811428D01*
X302006904Y-117925714D01*
X302006904Y-118116190D01*
X302083095Y-117506666D02*
X302083095Y-116897142D01*
X301206904Y-116363809D02*
X301206904Y-116516190D01*
X301245000Y-116592380D01*
X301283095Y-116630476D01*
X301397380Y-116706666D01*
X301549761Y-116744761D01*
X301854523Y-116744761D01*
X301930714Y-116706666D01*
X301968809Y-116668571D01*
X302006904Y-116592380D01*
X302006904Y-116440000D01*
X301968809Y-116363809D01*
X301930714Y-116325714D01*
X301854523Y-116287619D01*
X301664047Y-116287619D01*
X301587857Y-116325714D01*
X301549761Y-116363809D01*
X301511666Y-116440000D01*
X301511666Y-116592380D01*
X301549761Y-116668571D01*
X301587857Y-116706666D01*
X301664047Y-116744761D01*
X301206904Y-115563809D02*
X301206904Y-115944761D01*
X301587857Y-115982857D01*
X301549761Y-115944761D01*
X301511666Y-115868571D01*
X301511666Y-115678095D01*
X301549761Y-115601904D01*
X301587857Y-115563809D01*
X301664047Y-115525714D01*
X301854523Y-115525714D01*
X301930714Y-115563809D01*
X301968809Y-115601904D01*
X302006904Y-115678095D01*
X302006904Y-115868571D01*
X301968809Y-115944761D01*
X301930714Y-115982857D01*
X281686904Y-118116190D02*
X280886904Y-118116190D01*
X280886904Y-117925714D01*
X280925000Y-117811428D01*
X281001190Y-117735238D01*
X281077380Y-117697142D01*
X281229761Y-117659047D01*
X281344047Y-117659047D01*
X281496428Y-117697142D01*
X281572619Y-117735238D01*
X281648809Y-117811428D01*
X281686904Y-117925714D01*
X281686904Y-118116190D01*
X281763095Y-117506666D02*
X281763095Y-116897142D01*
X280886904Y-116363809D02*
X280886904Y-116516190D01*
X280925000Y-116592380D01*
X280963095Y-116630476D01*
X281077380Y-116706666D01*
X281229761Y-116744761D01*
X281534523Y-116744761D01*
X281610714Y-116706666D01*
X281648809Y-116668571D01*
X281686904Y-116592380D01*
X281686904Y-116440000D01*
X281648809Y-116363809D01*
X281610714Y-116325714D01*
X281534523Y-116287619D01*
X281344047Y-116287619D01*
X281267857Y-116325714D01*
X281229761Y-116363809D01*
X281191666Y-116440000D01*
X281191666Y-116592380D01*
X281229761Y-116668571D01*
X281267857Y-116706666D01*
X281344047Y-116744761D01*
X281153571Y-115601904D02*
X281686904Y-115601904D01*
X280848809Y-115792380D02*
X281420238Y-115982857D01*
X281420238Y-115487619D01*
X251206904Y-118116190D02*
X250406904Y-118116190D01*
X250406904Y-117925714D01*
X250445000Y-117811428D01*
X250521190Y-117735238D01*
X250597380Y-117697142D01*
X250749761Y-117659047D01*
X250864047Y-117659047D01*
X251016428Y-117697142D01*
X251092619Y-117735238D01*
X251168809Y-117811428D01*
X251206904Y-117925714D01*
X251206904Y-118116190D01*
X251283095Y-117506666D02*
X251283095Y-116897142D01*
X250406904Y-116363809D02*
X250406904Y-116516190D01*
X250445000Y-116592380D01*
X250483095Y-116630476D01*
X250597380Y-116706666D01*
X250749761Y-116744761D01*
X251054523Y-116744761D01*
X251130714Y-116706666D01*
X251168809Y-116668571D01*
X251206904Y-116592380D01*
X251206904Y-116440000D01*
X251168809Y-116363809D01*
X251130714Y-116325714D01*
X251054523Y-116287619D01*
X250864047Y-116287619D01*
X250787857Y-116325714D01*
X250749761Y-116363809D01*
X250711666Y-116440000D01*
X250711666Y-116592380D01*
X250749761Y-116668571D01*
X250787857Y-116706666D01*
X250864047Y-116744761D01*
X250406904Y-116020952D02*
X250406904Y-115525714D01*
X250711666Y-115792380D01*
X250711666Y-115678095D01*
X250749761Y-115601904D01*
X250787857Y-115563809D01*
X250864047Y-115525714D01*
X251054523Y-115525714D01*
X251130714Y-115563809D01*
X251168809Y-115601904D01*
X251206904Y-115678095D01*
X251206904Y-115906666D01*
X251168809Y-115982857D01*
X251130714Y-116020952D01*
X228346904Y-118116190D02*
X227546904Y-118116190D01*
X227546904Y-117925714D01*
X227585000Y-117811428D01*
X227661190Y-117735238D01*
X227737380Y-117697142D01*
X227889761Y-117659047D01*
X228004047Y-117659047D01*
X228156428Y-117697142D01*
X228232619Y-117735238D01*
X228308809Y-117811428D01*
X228346904Y-117925714D01*
X228346904Y-118116190D01*
X228423095Y-117506666D02*
X228423095Y-116897142D01*
X227546904Y-116363809D02*
X227546904Y-116516190D01*
X227585000Y-116592380D01*
X227623095Y-116630476D01*
X227737380Y-116706666D01*
X227889761Y-116744761D01*
X228194523Y-116744761D01*
X228270714Y-116706666D01*
X228308809Y-116668571D01*
X228346904Y-116592380D01*
X228346904Y-116440000D01*
X228308809Y-116363809D01*
X228270714Y-116325714D01*
X228194523Y-116287619D01*
X228004047Y-116287619D01*
X227927857Y-116325714D01*
X227889761Y-116363809D01*
X227851666Y-116440000D01*
X227851666Y-116592380D01*
X227889761Y-116668571D01*
X227927857Y-116706666D01*
X228004047Y-116744761D01*
X227623095Y-115982857D02*
X227585000Y-115944761D01*
X227546904Y-115868571D01*
X227546904Y-115678095D01*
X227585000Y-115601904D01*
X227623095Y-115563809D01*
X227699285Y-115525714D01*
X227775476Y-115525714D01*
X227889761Y-115563809D01*
X228346904Y-116020952D01*
X228346904Y-115525714D01*
X157226904Y-118116190D02*
X156426904Y-118116190D01*
X156426904Y-117925714D01*
X156465000Y-117811428D01*
X156541190Y-117735238D01*
X156617380Y-117697142D01*
X156769761Y-117659047D01*
X156884047Y-117659047D01*
X157036428Y-117697142D01*
X157112619Y-117735238D01*
X157188809Y-117811428D01*
X157226904Y-117925714D01*
X157226904Y-118116190D01*
X157303095Y-117506666D02*
X157303095Y-116897142D01*
X156426904Y-116363809D02*
X156426904Y-116516190D01*
X156465000Y-116592380D01*
X156503095Y-116630476D01*
X156617380Y-116706666D01*
X156769761Y-116744761D01*
X157074523Y-116744761D01*
X157150714Y-116706666D01*
X157188809Y-116668571D01*
X157226904Y-116592380D01*
X157226904Y-116440000D01*
X157188809Y-116363809D01*
X157150714Y-116325714D01*
X157074523Y-116287619D01*
X156884047Y-116287619D01*
X156807857Y-116325714D01*
X156769761Y-116363809D01*
X156731666Y-116440000D01*
X156731666Y-116592380D01*
X156769761Y-116668571D01*
X156807857Y-116706666D01*
X156884047Y-116744761D01*
X157226904Y-115525714D02*
X157226904Y-115982857D01*
X157226904Y-115754285D02*
X156426904Y-115754285D01*
X156541190Y-115830476D01*
X156617380Y-115906666D01*
X156655476Y-115982857D01*
X86106904Y-118116190D02*
X85306904Y-118116190D01*
X85306904Y-117925714D01*
X85345000Y-117811428D01*
X85421190Y-117735238D01*
X85497380Y-117697142D01*
X85649761Y-117659047D01*
X85764047Y-117659047D01*
X85916428Y-117697142D01*
X85992619Y-117735238D01*
X86068809Y-117811428D01*
X86106904Y-117925714D01*
X86106904Y-118116190D01*
X86183095Y-117506666D02*
X86183095Y-116897142D01*
X85306904Y-116363809D02*
X85306904Y-116516190D01*
X85345000Y-116592380D01*
X85383095Y-116630476D01*
X85497380Y-116706666D01*
X85649761Y-116744761D01*
X85954523Y-116744761D01*
X86030714Y-116706666D01*
X86068809Y-116668571D01*
X86106904Y-116592380D01*
X86106904Y-116440000D01*
X86068809Y-116363809D01*
X86030714Y-116325714D01*
X85954523Y-116287619D01*
X85764047Y-116287619D01*
X85687857Y-116325714D01*
X85649761Y-116363809D01*
X85611666Y-116440000D01*
X85611666Y-116592380D01*
X85649761Y-116668571D01*
X85687857Y-116706666D01*
X85764047Y-116744761D01*
X85306904Y-115792380D02*
X85306904Y-115716190D01*
X85345000Y-115640000D01*
X85383095Y-115601904D01*
X85459285Y-115563809D01*
X85611666Y-115525714D01*
X85802142Y-115525714D01*
X85954523Y-115563809D01*
X86030714Y-115601904D01*
X86068809Y-115640000D01*
X86106904Y-115716190D01*
X86106904Y-115792380D01*
X86068809Y-115868571D01*
X86030714Y-115906666D01*
X85954523Y-115944761D01*
X85802142Y-115982857D01*
X85611666Y-115982857D01*
X85459285Y-115944761D01*
X85383095Y-115906666D01*
X85345000Y-115868571D01*
X85306904Y-115792380D01*
X60706904Y-118116190D02*
X59906904Y-118116190D01*
X59906904Y-117925714D01*
X59945000Y-117811428D01*
X60021190Y-117735238D01*
X60097380Y-117697142D01*
X60249761Y-117659047D01*
X60364047Y-117659047D01*
X60516428Y-117697142D01*
X60592619Y-117735238D01*
X60668809Y-117811428D01*
X60706904Y-117925714D01*
X60706904Y-118116190D01*
X60783095Y-117506666D02*
X60783095Y-116897142D01*
X59906904Y-116325714D02*
X59906904Y-116706666D01*
X60287857Y-116744761D01*
X60249761Y-116706666D01*
X60211666Y-116630476D01*
X60211666Y-116440000D01*
X60249761Y-116363809D01*
X60287857Y-116325714D01*
X60364047Y-116287619D01*
X60554523Y-116287619D01*
X60630714Y-116325714D01*
X60668809Y-116363809D01*
X60706904Y-116440000D01*
X60706904Y-116630476D01*
X60668809Y-116706666D01*
X60630714Y-116744761D01*
X60706904Y-115906666D02*
X60706904Y-115754285D01*
X60668809Y-115678095D01*
X60630714Y-115640000D01*
X60516428Y-115563809D01*
X60364047Y-115525714D01*
X60059285Y-115525714D01*
X59983095Y-115563809D01*
X59945000Y-115601904D01*
X59906904Y-115678095D01*
X59906904Y-115830476D01*
X59945000Y-115906666D01*
X59983095Y-115944761D01*
X60059285Y-115982857D01*
X60249761Y-115982857D01*
X60325952Y-115944761D01*
X60364047Y-115906666D01*
X60402142Y-115830476D01*
X60402142Y-115678095D01*
X60364047Y-115601904D01*
X60325952Y-115563809D01*
X60249761Y-115525714D01*
X37846904Y-118116190D02*
X37046904Y-118116190D01*
X37046904Y-117925714D01*
X37085000Y-117811428D01*
X37161190Y-117735238D01*
X37237380Y-117697142D01*
X37389761Y-117659047D01*
X37504047Y-117659047D01*
X37656428Y-117697142D01*
X37732619Y-117735238D01*
X37808809Y-117811428D01*
X37846904Y-117925714D01*
X37846904Y-118116190D01*
X37923095Y-117506666D02*
X37923095Y-116897142D01*
X37046904Y-116325714D02*
X37046904Y-116706666D01*
X37427857Y-116744761D01*
X37389761Y-116706666D01*
X37351666Y-116630476D01*
X37351666Y-116440000D01*
X37389761Y-116363809D01*
X37427857Y-116325714D01*
X37504047Y-116287619D01*
X37694523Y-116287619D01*
X37770714Y-116325714D01*
X37808809Y-116363809D01*
X37846904Y-116440000D01*
X37846904Y-116630476D01*
X37808809Y-116706666D01*
X37770714Y-116744761D01*
X37389761Y-115830476D02*
X37351666Y-115906666D01*
X37313571Y-115944761D01*
X37237380Y-115982857D01*
X37199285Y-115982857D01*
X37123095Y-115944761D01*
X37085000Y-115906666D01*
X37046904Y-115830476D01*
X37046904Y-115678095D01*
X37085000Y-115601904D01*
X37123095Y-115563809D01*
X37199285Y-115525714D01*
X37237380Y-115525714D01*
X37313571Y-115563809D01*
X37351666Y-115601904D01*
X37389761Y-115678095D01*
X37389761Y-115830476D01*
X37427857Y-115906666D01*
X37465952Y-115944761D01*
X37542142Y-115982857D01*
X37694523Y-115982857D01*
X37770714Y-115944761D01*
X37808809Y-115906666D01*
X37846904Y-115830476D01*
X37846904Y-115678095D01*
X37808809Y-115601904D01*
X37770714Y-115563809D01*
X37694523Y-115525714D01*
X37542142Y-115525714D01*
X37465952Y-115563809D01*
X37427857Y-115601904D01*
X37389761Y-115678095D01*
X319786904Y-100336190D02*
X318986904Y-100336190D01*
X318986904Y-100145714D01*
X319025000Y-100031428D01*
X319101190Y-99955238D01*
X319177380Y-99917142D01*
X319329761Y-99879047D01*
X319444047Y-99879047D01*
X319596428Y-99917142D01*
X319672619Y-99955238D01*
X319748809Y-100031428D01*
X319786904Y-100145714D01*
X319786904Y-100336190D01*
X319863095Y-99726666D02*
X319863095Y-99117142D01*
X318986904Y-98545714D02*
X318986904Y-98926666D01*
X319367857Y-98964761D01*
X319329761Y-98926666D01*
X319291666Y-98850476D01*
X319291666Y-98660000D01*
X319329761Y-98583809D01*
X319367857Y-98545714D01*
X319444047Y-98507619D01*
X319634523Y-98507619D01*
X319710714Y-98545714D01*
X319748809Y-98583809D01*
X319786904Y-98660000D01*
X319786904Y-98850476D01*
X319748809Y-98926666D01*
X319710714Y-98964761D01*
X318986904Y-98240952D02*
X318986904Y-97707619D01*
X319786904Y-98050476D01*
X299466904Y-100336190D02*
X298666904Y-100336190D01*
X298666904Y-100145714D01*
X298705000Y-100031428D01*
X298781190Y-99955238D01*
X298857380Y-99917142D01*
X299009761Y-99879047D01*
X299124047Y-99879047D01*
X299276428Y-99917142D01*
X299352619Y-99955238D01*
X299428809Y-100031428D01*
X299466904Y-100145714D01*
X299466904Y-100336190D01*
X299543095Y-99726666D02*
X299543095Y-99117142D01*
X298666904Y-98545714D02*
X298666904Y-98926666D01*
X299047857Y-98964761D01*
X299009761Y-98926666D01*
X298971666Y-98850476D01*
X298971666Y-98660000D01*
X299009761Y-98583809D01*
X299047857Y-98545714D01*
X299124047Y-98507619D01*
X299314523Y-98507619D01*
X299390714Y-98545714D01*
X299428809Y-98583809D01*
X299466904Y-98660000D01*
X299466904Y-98850476D01*
X299428809Y-98926666D01*
X299390714Y-98964761D01*
X298666904Y-97821904D02*
X298666904Y-97974285D01*
X298705000Y-98050476D01*
X298743095Y-98088571D01*
X298857380Y-98164761D01*
X299009761Y-98202857D01*
X299314523Y-98202857D01*
X299390714Y-98164761D01*
X299428809Y-98126666D01*
X299466904Y-98050476D01*
X299466904Y-97898095D01*
X299428809Y-97821904D01*
X299390714Y-97783809D01*
X299314523Y-97745714D01*
X299124047Y-97745714D01*
X299047857Y-97783809D01*
X299009761Y-97821904D01*
X298971666Y-97898095D01*
X298971666Y-98050476D01*
X299009761Y-98126666D01*
X299047857Y-98164761D01*
X299124047Y-98202857D01*
X276606904Y-100336190D02*
X275806904Y-100336190D01*
X275806904Y-100145714D01*
X275845000Y-100031428D01*
X275921190Y-99955238D01*
X275997380Y-99917142D01*
X276149761Y-99879047D01*
X276264047Y-99879047D01*
X276416428Y-99917142D01*
X276492619Y-99955238D01*
X276568809Y-100031428D01*
X276606904Y-100145714D01*
X276606904Y-100336190D01*
X276683095Y-99726666D02*
X276683095Y-99117142D01*
X275806904Y-98545714D02*
X275806904Y-98926666D01*
X276187857Y-98964761D01*
X276149761Y-98926666D01*
X276111666Y-98850476D01*
X276111666Y-98660000D01*
X276149761Y-98583809D01*
X276187857Y-98545714D01*
X276264047Y-98507619D01*
X276454523Y-98507619D01*
X276530714Y-98545714D01*
X276568809Y-98583809D01*
X276606904Y-98660000D01*
X276606904Y-98850476D01*
X276568809Y-98926666D01*
X276530714Y-98964761D01*
X275806904Y-97783809D02*
X275806904Y-98164761D01*
X276187857Y-98202857D01*
X276149761Y-98164761D01*
X276111666Y-98088571D01*
X276111666Y-97898095D01*
X276149761Y-97821904D01*
X276187857Y-97783809D01*
X276264047Y-97745714D01*
X276454523Y-97745714D01*
X276530714Y-97783809D01*
X276568809Y-97821904D01*
X276606904Y-97898095D01*
X276606904Y-98088571D01*
X276568809Y-98164761D01*
X276530714Y-98202857D01*
X248666904Y-100336190D02*
X247866904Y-100336190D01*
X247866904Y-100145714D01*
X247905000Y-100031428D01*
X247981190Y-99955238D01*
X248057380Y-99917142D01*
X248209761Y-99879047D01*
X248324047Y-99879047D01*
X248476428Y-99917142D01*
X248552619Y-99955238D01*
X248628809Y-100031428D01*
X248666904Y-100145714D01*
X248666904Y-100336190D01*
X248743095Y-99726666D02*
X248743095Y-99117142D01*
X247866904Y-98545714D02*
X247866904Y-98926666D01*
X248247857Y-98964761D01*
X248209761Y-98926666D01*
X248171666Y-98850476D01*
X248171666Y-98660000D01*
X248209761Y-98583809D01*
X248247857Y-98545714D01*
X248324047Y-98507619D01*
X248514523Y-98507619D01*
X248590714Y-98545714D01*
X248628809Y-98583809D01*
X248666904Y-98660000D01*
X248666904Y-98850476D01*
X248628809Y-98926666D01*
X248590714Y-98964761D01*
X248133571Y-97821904D02*
X248666904Y-97821904D01*
X247828809Y-98012380D02*
X248400238Y-98202857D01*
X248400238Y-97707619D01*
X230886904Y-100336190D02*
X230086904Y-100336190D01*
X230086904Y-100145714D01*
X230125000Y-100031428D01*
X230201190Y-99955238D01*
X230277380Y-99917142D01*
X230429761Y-99879047D01*
X230544047Y-99879047D01*
X230696428Y-99917142D01*
X230772619Y-99955238D01*
X230848809Y-100031428D01*
X230886904Y-100145714D01*
X230886904Y-100336190D01*
X230963095Y-99726666D02*
X230963095Y-99117142D01*
X230086904Y-98545714D02*
X230086904Y-98926666D01*
X230467857Y-98964761D01*
X230429761Y-98926666D01*
X230391666Y-98850476D01*
X230391666Y-98660000D01*
X230429761Y-98583809D01*
X230467857Y-98545714D01*
X230544047Y-98507619D01*
X230734523Y-98507619D01*
X230810714Y-98545714D01*
X230848809Y-98583809D01*
X230886904Y-98660000D01*
X230886904Y-98850476D01*
X230848809Y-98926666D01*
X230810714Y-98964761D01*
X230086904Y-98240952D02*
X230086904Y-97745714D01*
X230391666Y-98012380D01*
X230391666Y-97898095D01*
X230429761Y-97821904D01*
X230467857Y-97783809D01*
X230544047Y-97745714D01*
X230734523Y-97745714D01*
X230810714Y-97783809D01*
X230848809Y-97821904D01*
X230886904Y-97898095D01*
X230886904Y-98126666D01*
X230848809Y-98202857D01*
X230810714Y-98240952D01*
X210566904Y-100336190D02*
X209766904Y-100336190D01*
X209766904Y-100145714D01*
X209805000Y-100031428D01*
X209881190Y-99955238D01*
X209957380Y-99917142D01*
X210109761Y-99879047D01*
X210224047Y-99879047D01*
X210376428Y-99917142D01*
X210452619Y-99955238D01*
X210528809Y-100031428D01*
X210566904Y-100145714D01*
X210566904Y-100336190D01*
X210643095Y-99726666D02*
X210643095Y-99117142D01*
X209766904Y-98545714D02*
X209766904Y-98926666D01*
X210147857Y-98964761D01*
X210109761Y-98926666D01*
X210071666Y-98850476D01*
X210071666Y-98660000D01*
X210109761Y-98583809D01*
X210147857Y-98545714D01*
X210224047Y-98507619D01*
X210414523Y-98507619D01*
X210490714Y-98545714D01*
X210528809Y-98583809D01*
X210566904Y-98660000D01*
X210566904Y-98850476D01*
X210528809Y-98926666D01*
X210490714Y-98964761D01*
X209843095Y-98202857D02*
X209805000Y-98164761D01*
X209766904Y-98088571D01*
X209766904Y-97898095D01*
X209805000Y-97821904D01*
X209843095Y-97783809D01*
X209919285Y-97745714D01*
X209995476Y-97745714D01*
X210109761Y-97783809D01*
X210566904Y-98240952D01*
X210566904Y-97745714D01*
X192786904Y-99371190D02*
X191986904Y-99371190D01*
X191986904Y-99180714D01*
X192025000Y-99066428D01*
X192101190Y-98990238D01*
X192177380Y-98952142D01*
X192329761Y-98914047D01*
X192444047Y-98914047D01*
X192596428Y-98952142D01*
X192672619Y-98990238D01*
X192748809Y-99066428D01*
X192786904Y-99180714D01*
X192786904Y-99371190D01*
X192863095Y-98761666D02*
X192863095Y-98152142D01*
X191986904Y-97580714D02*
X191986904Y-97961666D01*
X192367857Y-97999761D01*
X192329761Y-97961666D01*
X192291666Y-97885476D01*
X192291666Y-97695000D01*
X192329761Y-97618809D01*
X192367857Y-97580714D01*
X192444047Y-97542619D01*
X192634523Y-97542619D01*
X192710714Y-97580714D01*
X192748809Y-97618809D01*
X192786904Y-97695000D01*
X192786904Y-97885476D01*
X192748809Y-97961666D01*
X192710714Y-97999761D01*
X192786904Y-96780714D02*
X192786904Y-97237857D01*
X192786904Y-97009285D02*
X191986904Y-97009285D01*
X192101190Y-97085476D01*
X192177380Y-97161666D01*
X192215476Y-97237857D01*
X172466904Y-99371190D02*
X171666904Y-99371190D01*
X171666904Y-99180714D01*
X171705000Y-99066428D01*
X171781190Y-98990238D01*
X171857380Y-98952142D01*
X172009761Y-98914047D01*
X172124047Y-98914047D01*
X172276428Y-98952142D01*
X172352619Y-98990238D01*
X172428809Y-99066428D01*
X172466904Y-99180714D01*
X172466904Y-99371190D01*
X172543095Y-98761666D02*
X172543095Y-98152142D01*
X171666904Y-97580714D02*
X171666904Y-97961666D01*
X172047857Y-97999761D01*
X172009761Y-97961666D01*
X171971666Y-97885476D01*
X171971666Y-97695000D01*
X172009761Y-97618809D01*
X172047857Y-97580714D01*
X172124047Y-97542619D01*
X172314523Y-97542619D01*
X172390714Y-97580714D01*
X172428809Y-97618809D01*
X172466904Y-97695000D01*
X172466904Y-97885476D01*
X172428809Y-97961666D01*
X172390714Y-97999761D01*
X171666904Y-97047380D02*
X171666904Y-96971190D01*
X171705000Y-96895000D01*
X171743095Y-96856904D01*
X171819285Y-96818809D01*
X171971666Y-96780714D01*
X172162142Y-96780714D01*
X172314523Y-96818809D01*
X172390714Y-96856904D01*
X172428809Y-96895000D01*
X172466904Y-96971190D01*
X172466904Y-97047380D01*
X172428809Y-97123571D01*
X172390714Y-97161666D01*
X172314523Y-97199761D01*
X172162142Y-97237857D01*
X171971666Y-97237857D01*
X171819285Y-97199761D01*
X171743095Y-97161666D01*
X171705000Y-97123571D01*
X171666904Y-97047380D01*
X154686904Y-99371190D02*
X153886904Y-99371190D01*
X153886904Y-99180714D01*
X153925000Y-99066428D01*
X154001190Y-98990238D01*
X154077380Y-98952142D01*
X154229761Y-98914047D01*
X154344047Y-98914047D01*
X154496428Y-98952142D01*
X154572619Y-98990238D01*
X154648809Y-99066428D01*
X154686904Y-99180714D01*
X154686904Y-99371190D01*
X154763095Y-98761666D02*
X154763095Y-98152142D01*
X154153571Y-97618809D02*
X154686904Y-97618809D01*
X153848809Y-97809285D02*
X154420238Y-97999761D01*
X154420238Y-97504523D01*
X154686904Y-97161666D02*
X154686904Y-97009285D01*
X154648809Y-96933095D01*
X154610714Y-96895000D01*
X154496428Y-96818809D01*
X154344047Y-96780714D01*
X154039285Y-96780714D01*
X153963095Y-96818809D01*
X153925000Y-96856904D01*
X153886904Y-96933095D01*
X153886904Y-97085476D01*
X153925000Y-97161666D01*
X153963095Y-97199761D01*
X154039285Y-97237857D01*
X154229761Y-97237857D01*
X154305952Y-97199761D01*
X154344047Y-97161666D01*
X154382142Y-97085476D01*
X154382142Y-96933095D01*
X154344047Y-96856904D01*
X154305952Y-96818809D01*
X154229761Y-96780714D01*
X134366904Y-100336190D02*
X133566904Y-100336190D01*
X133566904Y-100145714D01*
X133605000Y-100031428D01*
X133681190Y-99955238D01*
X133757380Y-99917142D01*
X133909761Y-99879047D01*
X134024047Y-99879047D01*
X134176428Y-99917142D01*
X134252619Y-99955238D01*
X134328809Y-100031428D01*
X134366904Y-100145714D01*
X134366904Y-100336190D01*
X134443095Y-99726666D02*
X134443095Y-99117142D01*
X133833571Y-98583809D02*
X134366904Y-98583809D01*
X133528809Y-98774285D02*
X134100238Y-98964761D01*
X134100238Y-98469523D01*
X133909761Y-98050476D02*
X133871666Y-98126666D01*
X133833571Y-98164761D01*
X133757380Y-98202857D01*
X133719285Y-98202857D01*
X133643095Y-98164761D01*
X133605000Y-98126666D01*
X133566904Y-98050476D01*
X133566904Y-97898095D01*
X133605000Y-97821904D01*
X133643095Y-97783809D01*
X133719285Y-97745714D01*
X133757380Y-97745714D01*
X133833571Y-97783809D01*
X133871666Y-97821904D01*
X133909761Y-97898095D01*
X133909761Y-98050476D01*
X133947857Y-98126666D01*
X133985952Y-98164761D01*
X134062142Y-98202857D01*
X134214523Y-98202857D01*
X134290714Y-98164761D01*
X134328809Y-98126666D01*
X134366904Y-98050476D01*
X134366904Y-97898095D01*
X134328809Y-97821904D01*
X134290714Y-97783809D01*
X134214523Y-97745714D01*
X134062142Y-97745714D01*
X133985952Y-97783809D01*
X133947857Y-97821904D01*
X133909761Y-97898095D01*
X116586904Y-100336190D02*
X115786904Y-100336190D01*
X115786904Y-100145714D01*
X115825000Y-100031428D01*
X115901190Y-99955238D01*
X115977380Y-99917142D01*
X116129761Y-99879047D01*
X116244047Y-99879047D01*
X116396428Y-99917142D01*
X116472619Y-99955238D01*
X116548809Y-100031428D01*
X116586904Y-100145714D01*
X116586904Y-100336190D01*
X116663095Y-99726666D02*
X116663095Y-99117142D01*
X116053571Y-98583809D02*
X116586904Y-98583809D01*
X115748809Y-98774285D02*
X116320238Y-98964761D01*
X116320238Y-98469523D01*
X115786904Y-98240952D02*
X115786904Y-97707619D01*
X116586904Y-98050476D01*
X96266904Y-100336190D02*
X95466904Y-100336190D01*
X95466904Y-100145714D01*
X95505000Y-100031428D01*
X95581190Y-99955238D01*
X95657380Y-99917142D01*
X95809761Y-99879047D01*
X95924047Y-99879047D01*
X96076428Y-99917142D01*
X96152619Y-99955238D01*
X96228809Y-100031428D01*
X96266904Y-100145714D01*
X96266904Y-100336190D01*
X96343095Y-99726666D02*
X96343095Y-99117142D01*
X95733571Y-98583809D02*
X96266904Y-98583809D01*
X95428809Y-98774285D02*
X96000238Y-98964761D01*
X96000238Y-98469523D01*
X95466904Y-97821904D02*
X95466904Y-97974285D01*
X95505000Y-98050476D01*
X95543095Y-98088571D01*
X95657380Y-98164761D01*
X95809761Y-98202857D01*
X96114523Y-98202857D01*
X96190714Y-98164761D01*
X96228809Y-98126666D01*
X96266904Y-98050476D01*
X96266904Y-97898095D01*
X96228809Y-97821904D01*
X96190714Y-97783809D01*
X96114523Y-97745714D01*
X95924047Y-97745714D01*
X95847857Y-97783809D01*
X95809761Y-97821904D01*
X95771666Y-97898095D01*
X95771666Y-98050476D01*
X95809761Y-98126666D01*
X95847857Y-98164761D01*
X95924047Y-98202857D01*
X78486904Y-100336190D02*
X77686904Y-100336190D01*
X77686904Y-100145714D01*
X77725000Y-100031428D01*
X77801190Y-99955238D01*
X77877380Y-99917142D01*
X78029761Y-99879047D01*
X78144047Y-99879047D01*
X78296428Y-99917142D01*
X78372619Y-99955238D01*
X78448809Y-100031428D01*
X78486904Y-100145714D01*
X78486904Y-100336190D01*
X78563095Y-99726666D02*
X78563095Y-99117142D01*
X77953571Y-98583809D02*
X78486904Y-98583809D01*
X77648809Y-98774285D02*
X78220238Y-98964761D01*
X78220238Y-98469523D01*
X77686904Y-97783809D02*
X77686904Y-98164761D01*
X78067857Y-98202857D01*
X78029761Y-98164761D01*
X77991666Y-98088571D01*
X77991666Y-97898095D01*
X78029761Y-97821904D01*
X78067857Y-97783809D01*
X78144047Y-97745714D01*
X78334523Y-97745714D01*
X78410714Y-97783809D01*
X78448809Y-97821904D01*
X78486904Y-97898095D01*
X78486904Y-98088571D01*
X78448809Y-98164761D01*
X78410714Y-98202857D01*
X48006904Y-100336190D02*
X47206904Y-100336190D01*
X47206904Y-100145714D01*
X47245000Y-100031428D01*
X47321190Y-99955238D01*
X47397380Y-99917142D01*
X47549761Y-99879047D01*
X47664047Y-99879047D01*
X47816428Y-99917142D01*
X47892619Y-99955238D01*
X47968809Y-100031428D01*
X48006904Y-100145714D01*
X48006904Y-100336190D01*
X48083095Y-99726666D02*
X48083095Y-99117142D01*
X47473571Y-98583809D02*
X48006904Y-98583809D01*
X47168809Y-98774285D02*
X47740238Y-98964761D01*
X47740238Y-98469523D01*
X47473571Y-97821904D02*
X48006904Y-97821904D01*
X47168809Y-98012380D02*
X47740238Y-98202857D01*
X47740238Y-97707619D01*
X319786904Y-80016190D02*
X318986904Y-80016190D01*
X318986904Y-79825714D01*
X319025000Y-79711428D01*
X319101190Y-79635238D01*
X319177380Y-79597142D01*
X319329761Y-79559047D01*
X319444047Y-79559047D01*
X319596428Y-79597142D01*
X319672619Y-79635238D01*
X319748809Y-79711428D01*
X319786904Y-79825714D01*
X319786904Y-80016190D01*
X319863095Y-79406666D02*
X319863095Y-78797142D01*
X319253571Y-78263809D02*
X319786904Y-78263809D01*
X318948809Y-78454285D02*
X319520238Y-78644761D01*
X319520238Y-78149523D01*
X318986904Y-77920952D02*
X318986904Y-77425714D01*
X319291666Y-77692380D01*
X319291666Y-77578095D01*
X319329761Y-77501904D01*
X319367857Y-77463809D01*
X319444047Y-77425714D01*
X319634523Y-77425714D01*
X319710714Y-77463809D01*
X319748809Y-77501904D01*
X319786904Y-77578095D01*
X319786904Y-77806666D01*
X319748809Y-77882857D01*
X319710714Y-77920952D01*
X289306904Y-80016190D02*
X288506904Y-80016190D01*
X288506904Y-79825714D01*
X288545000Y-79711428D01*
X288621190Y-79635238D01*
X288697380Y-79597142D01*
X288849761Y-79559047D01*
X288964047Y-79559047D01*
X289116428Y-79597142D01*
X289192619Y-79635238D01*
X289268809Y-79711428D01*
X289306904Y-79825714D01*
X289306904Y-80016190D01*
X289383095Y-79406666D02*
X289383095Y-78797142D01*
X288773571Y-78263809D02*
X289306904Y-78263809D01*
X288468809Y-78454285D02*
X289040238Y-78644761D01*
X289040238Y-78149523D01*
X288583095Y-77882857D02*
X288545000Y-77844761D01*
X288506904Y-77768571D01*
X288506904Y-77578095D01*
X288545000Y-77501904D01*
X288583095Y-77463809D01*
X288659285Y-77425714D01*
X288735476Y-77425714D01*
X288849761Y-77463809D01*
X289306904Y-77920952D01*
X289306904Y-77425714D01*
X258826904Y-80016190D02*
X258026904Y-80016190D01*
X258026904Y-79825714D01*
X258065000Y-79711428D01*
X258141190Y-79635238D01*
X258217380Y-79597142D01*
X258369761Y-79559047D01*
X258484047Y-79559047D01*
X258636428Y-79597142D01*
X258712619Y-79635238D01*
X258788809Y-79711428D01*
X258826904Y-79825714D01*
X258826904Y-80016190D01*
X258903095Y-79406666D02*
X258903095Y-78797142D01*
X258293571Y-78263809D02*
X258826904Y-78263809D01*
X257988809Y-78454285D02*
X258560238Y-78644761D01*
X258560238Y-78149523D01*
X258826904Y-77425714D02*
X258826904Y-77882857D01*
X258826904Y-77654285D02*
X258026904Y-77654285D01*
X258141190Y-77730476D01*
X258217380Y-77806666D01*
X258255476Y-77882857D01*
X238506904Y-80016190D02*
X237706904Y-80016190D01*
X237706904Y-79825714D01*
X237745000Y-79711428D01*
X237821190Y-79635238D01*
X237897380Y-79597142D01*
X238049761Y-79559047D01*
X238164047Y-79559047D01*
X238316428Y-79597142D01*
X238392619Y-79635238D01*
X238468809Y-79711428D01*
X238506904Y-79825714D01*
X238506904Y-80016190D01*
X238583095Y-79406666D02*
X238583095Y-78797142D01*
X237973571Y-78263809D02*
X238506904Y-78263809D01*
X237668809Y-78454285D02*
X238240238Y-78644761D01*
X238240238Y-78149523D01*
X237706904Y-77692380D02*
X237706904Y-77616190D01*
X237745000Y-77540000D01*
X237783095Y-77501904D01*
X237859285Y-77463809D01*
X238011666Y-77425714D01*
X238202142Y-77425714D01*
X238354523Y-77463809D01*
X238430714Y-77501904D01*
X238468809Y-77540000D01*
X238506904Y-77616190D01*
X238506904Y-77692380D01*
X238468809Y-77768571D01*
X238430714Y-77806666D01*
X238354523Y-77844761D01*
X238202142Y-77882857D01*
X238011666Y-77882857D01*
X237859285Y-77844761D01*
X237783095Y-77806666D01*
X237745000Y-77768571D01*
X237706904Y-77692380D01*
X220726904Y-80016190D02*
X219926904Y-80016190D01*
X219926904Y-79825714D01*
X219965000Y-79711428D01*
X220041190Y-79635238D01*
X220117380Y-79597142D01*
X220269761Y-79559047D01*
X220384047Y-79559047D01*
X220536428Y-79597142D01*
X220612619Y-79635238D01*
X220688809Y-79711428D01*
X220726904Y-79825714D01*
X220726904Y-80016190D01*
X220803095Y-79406666D02*
X220803095Y-78797142D01*
X219926904Y-78682857D02*
X219926904Y-78187619D01*
X220231666Y-78454285D01*
X220231666Y-78340000D01*
X220269761Y-78263809D01*
X220307857Y-78225714D01*
X220384047Y-78187619D01*
X220574523Y-78187619D01*
X220650714Y-78225714D01*
X220688809Y-78263809D01*
X220726904Y-78340000D01*
X220726904Y-78568571D01*
X220688809Y-78644761D01*
X220650714Y-78682857D01*
X220726904Y-77806666D02*
X220726904Y-77654285D01*
X220688809Y-77578095D01*
X220650714Y-77540000D01*
X220536428Y-77463809D01*
X220384047Y-77425714D01*
X220079285Y-77425714D01*
X220003095Y-77463809D01*
X219965000Y-77501904D01*
X219926904Y-77578095D01*
X219926904Y-77730476D01*
X219965000Y-77806666D01*
X220003095Y-77844761D01*
X220079285Y-77882857D01*
X220269761Y-77882857D01*
X220345952Y-77844761D01*
X220384047Y-77806666D01*
X220422142Y-77730476D01*
X220422142Y-77578095D01*
X220384047Y-77501904D01*
X220345952Y-77463809D01*
X220269761Y-77425714D01*
X200406904Y-80016190D02*
X199606904Y-80016190D01*
X199606904Y-79825714D01*
X199645000Y-79711428D01*
X199721190Y-79635238D01*
X199797380Y-79597142D01*
X199949761Y-79559047D01*
X200064047Y-79559047D01*
X200216428Y-79597142D01*
X200292619Y-79635238D01*
X200368809Y-79711428D01*
X200406904Y-79825714D01*
X200406904Y-80016190D01*
X200483095Y-79406666D02*
X200483095Y-78797142D01*
X199606904Y-78682857D02*
X199606904Y-78187619D01*
X199911666Y-78454285D01*
X199911666Y-78340000D01*
X199949761Y-78263809D01*
X199987857Y-78225714D01*
X200064047Y-78187619D01*
X200254523Y-78187619D01*
X200330714Y-78225714D01*
X200368809Y-78263809D01*
X200406904Y-78340000D01*
X200406904Y-78568571D01*
X200368809Y-78644761D01*
X200330714Y-78682857D01*
X199949761Y-77730476D02*
X199911666Y-77806666D01*
X199873571Y-77844761D01*
X199797380Y-77882857D01*
X199759285Y-77882857D01*
X199683095Y-77844761D01*
X199645000Y-77806666D01*
X199606904Y-77730476D01*
X199606904Y-77578095D01*
X199645000Y-77501904D01*
X199683095Y-77463809D01*
X199759285Y-77425714D01*
X199797380Y-77425714D01*
X199873571Y-77463809D01*
X199911666Y-77501904D01*
X199949761Y-77578095D01*
X199949761Y-77730476D01*
X199987857Y-77806666D01*
X200025952Y-77844761D01*
X200102142Y-77882857D01*
X200254523Y-77882857D01*
X200330714Y-77844761D01*
X200368809Y-77806666D01*
X200406904Y-77730476D01*
X200406904Y-77578095D01*
X200368809Y-77501904D01*
X200330714Y-77463809D01*
X200254523Y-77425714D01*
X200102142Y-77425714D01*
X200025952Y-77463809D01*
X199987857Y-77501904D01*
X199949761Y-77578095D01*
X182626904Y-80016190D02*
X181826904Y-80016190D01*
X181826904Y-79825714D01*
X181865000Y-79711428D01*
X181941190Y-79635238D01*
X182017380Y-79597142D01*
X182169761Y-79559047D01*
X182284047Y-79559047D01*
X182436428Y-79597142D01*
X182512619Y-79635238D01*
X182588809Y-79711428D01*
X182626904Y-79825714D01*
X182626904Y-80016190D01*
X182703095Y-79406666D02*
X182703095Y-78797142D01*
X181826904Y-78682857D02*
X181826904Y-78187619D01*
X182131666Y-78454285D01*
X182131666Y-78340000D01*
X182169761Y-78263809D01*
X182207857Y-78225714D01*
X182284047Y-78187619D01*
X182474523Y-78187619D01*
X182550714Y-78225714D01*
X182588809Y-78263809D01*
X182626904Y-78340000D01*
X182626904Y-78568571D01*
X182588809Y-78644761D01*
X182550714Y-78682857D01*
X181826904Y-77920952D02*
X181826904Y-77387619D01*
X182626904Y-77730476D01*
X162306904Y-80016190D02*
X161506904Y-80016190D01*
X161506904Y-79825714D01*
X161545000Y-79711428D01*
X161621190Y-79635238D01*
X161697380Y-79597142D01*
X161849761Y-79559047D01*
X161964047Y-79559047D01*
X162116428Y-79597142D01*
X162192619Y-79635238D01*
X162268809Y-79711428D01*
X162306904Y-79825714D01*
X162306904Y-80016190D01*
X162383095Y-79406666D02*
X162383095Y-78797142D01*
X161506904Y-78682857D02*
X161506904Y-78187619D01*
X161811666Y-78454285D01*
X161811666Y-78340000D01*
X161849761Y-78263809D01*
X161887857Y-78225714D01*
X161964047Y-78187619D01*
X162154523Y-78187619D01*
X162230714Y-78225714D01*
X162268809Y-78263809D01*
X162306904Y-78340000D01*
X162306904Y-78568571D01*
X162268809Y-78644761D01*
X162230714Y-78682857D01*
X161506904Y-77501904D02*
X161506904Y-77654285D01*
X161545000Y-77730476D01*
X161583095Y-77768571D01*
X161697380Y-77844761D01*
X161849761Y-77882857D01*
X162154523Y-77882857D01*
X162230714Y-77844761D01*
X162268809Y-77806666D01*
X162306904Y-77730476D01*
X162306904Y-77578095D01*
X162268809Y-77501904D01*
X162230714Y-77463809D01*
X162154523Y-77425714D01*
X161964047Y-77425714D01*
X161887857Y-77463809D01*
X161849761Y-77501904D01*
X161811666Y-77578095D01*
X161811666Y-77730476D01*
X161849761Y-77806666D01*
X161887857Y-77844761D01*
X161964047Y-77882857D01*
X144526904Y-80016190D02*
X143726904Y-80016190D01*
X143726904Y-79825714D01*
X143765000Y-79711428D01*
X143841190Y-79635238D01*
X143917380Y-79597142D01*
X144069761Y-79559047D01*
X144184047Y-79559047D01*
X144336428Y-79597142D01*
X144412619Y-79635238D01*
X144488809Y-79711428D01*
X144526904Y-79825714D01*
X144526904Y-80016190D01*
X144603095Y-79406666D02*
X144603095Y-78797142D01*
X143726904Y-78682857D02*
X143726904Y-78187619D01*
X144031666Y-78454285D01*
X144031666Y-78340000D01*
X144069761Y-78263809D01*
X144107857Y-78225714D01*
X144184047Y-78187619D01*
X144374523Y-78187619D01*
X144450714Y-78225714D01*
X144488809Y-78263809D01*
X144526904Y-78340000D01*
X144526904Y-78568571D01*
X144488809Y-78644761D01*
X144450714Y-78682857D01*
X143726904Y-77463809D02*
X143726904Y-77844761D01*
X144107857Y-77882857D01*
X144069761Y-77844761D01*
X144031666Y-77768571D01*
X144031666Y-77578095D01*
X144069761Y-77501904D01*
X144107857Y-77463809D01*
X144184047Y-77425714D01*
X144374523Y-77425714D01*
X144450714Y-77463809D01*
X144488809Y-77501904D01*
X144526904Y-77578095D01*
X144526904Y-77768571D01*
X144488809Y-77844761D01*
X144450714Y-77882857D01*
X124206904Y-80016190D02*
X123406904Y-80016190D01*
X123406904Y-79825714D01*
X123445000Y-79711428D01*
X123521190Y-79635238D01*
X123597380Y-79597142D01*
X123749761Y-79559047D01*
X123864047Y-79559047D01*
X124016428Y-79597142D01*
X124092619Y-79635238D01*
X124168809Y-79711428D01*
X124206904Y-79825714D01*
X124206904Y-80016190D01*
X124283095Y-79406666D02*
X124283095Y-78797142D01*
X123406904Y-78682857D02*
X123406904Y-78187619D01*
X123711666Y-78454285D01*
X123711666Y-78340000D01*
X123749761Y-78263809D01*
X123787857Y-78225714D01*
X123864047Y-78187619D01*
X124054523Y-78187619D01*
X124130714Y-78225714D01*
X124168809Y-78263809D01*
X124206904Y-78340000D01*
X124206904Y-78568571D01*
X124168809Y-78644761D01*
X124130714Y-78682857D01*
X123673571Y-77501904D02*
X124206904Y-77501904D01*
X123368809Y-77692380D02*
X123940238Y-77882857D01*
X123940238Y-77387619D01*
X106426904Y-80116690D02*
X105626904Y-80116690D01*
X105626904Y-79926214D01*
X105665000Y-79811928D01*
X105741190Y-79735738D01*
X105817380Y-79697642D01*
X105969761Y-79659547D01*
X106084047Y-79659547D01*
X106236428Y-79697642D01*
X106312619Y-79735738D01*
X106388809Y-79811928D01*
X106426904Y-79926214D01*
X106426904Y-80116690D01*
X106503095Y-79507166D02*
X106503095Y-78897642D01*
X105626904Y-78783357D02*
X105626904Y-78288119D01*
X105931666Y-78554785D01*
X105931666Y-78440500D01*
X105969761Y-78364309D01*
X106007857Y-78326214D01*
X106084047Y-78288119D01*
X106274523Y-78288119D01*
X106350714Y-78326214D01*
X106388809Y-78364309D01*
X106426904Y-78440500D01*
X106426904Y-78669071D01*
X106388809Y-78745261D01*
X106350714Y-78783357D01*
X105626904Y-78021452D02*
X105626904Y-77526214D01*
X105931666Y-77792880D01*
X105931666Y-77678595D01*
X105969761Y-77602404D01*
X106007857Y-77564309D01*
X106084047Y-77526214D01*
X106274523Y-77526214D01*
X106350714Y-77564309D01*
X106388809Y-77602404D01*
X106426904Y-77678595D01*
X106426904Y-77907166D01*
X106388809Y-77983357D01*
X106350714Y-78021452D01*
X86106904Y-80016190D02*
X85306904Y-80016190D01*
X85306904Y-79825714D01*
X85345000Y-79711428D01*
X85421190Y-79635238D01*
X85497380Y-79597142D01*
X85649761Y-79559047D01*
X85764047Y-79559047D01*
X85916428Y-79597142D01*
X85992619Y-79635238D01*
X86068809Y-79711428D01*
X86106904Y-79825714D01*
X86106904Y-80016190D01*
X86183095Y-79406666D02*
X86183095Y-78797142D01*
X85306904Y-78682857D02*
X85306904Y-78187619D01*
X85611666Y-78454285D01*
X85611666Y-78340000D01*
X85649761Y-78263809D01*
X85687857Y-78225714D01*
X85764047Y-78187619D01*
X85954523Y-78187619D01*
X86030714Y-78225714D01*
X86068809Y-78263809D01*
X86106904Y-78340000D01*
X86106904Y-78568571D01*
X86068809Y-78644761D01*
X86030714Y-78682857D01*
X85383095Y-77882857D02*
X85345000Y-77844761D01*
X85306904Y-77768571D01*
X85306904Y-77578095D01*
X85345000Y-77501904D01*
X85383095Y-77463809D01*
X85459285Y-77425714D01*
X85535476Y-77425714D01*
X85649761Y-77463809D01*
X86106904Y-77920952D01*
X86106904Y-77425714D01*
X68326904Y-80016190D02*
X67526904Y-80016190D01*
X67526904Y-79825714D01*
X67565000Y-79711428D01*
X67641190Y-79635238D01*
X67717380Y-79597142D01*
X67869761Y-79559047D01*
X67984047Y-79559047D01*
X68136428Y-79597142D01*
X68212619Y-79635238D01*
X68288809Y-79711428D01*
X68326904Y-79825714D01*
X68326904Y-80016190D01*
X68403095Y-79406666D02*
X68403095Y-78797142D01*
X67526904Y-78682857D02*
X67526904Y-78187619D01*
X67831666Y-78454285D01*
X67831666Y-78340000D01*
X67869761Y-78263809D01*
X67907857Y-78225714D01*
X67984047Y-78187619D01*
X68174523Y-78187619D01*
X68250714Y-78225714D01*
X68288809Y-78263809D01*
X68326904Y-78340000D01*
X68326904Y-78568571D01*
X68288809Y-78644761D01*
X68250714Y-78682857D01*
X68326904Y-77425714D02*
X68326904Y-77882857D01*
X68326904Y-77654285D02*
X67526904Y-77654285D01*
X67641190Y-77730476D01*
X67717380Y-77806666D01*
X67755476Y-77882857D01*
X42926904Y-80016190D02*
X42126904Y-80016190D01*
X42126904Y-79825714D01*
X42165000Y-79711428D01*
X42241190Y-79635238D01*
X42317380Y-79597142D01*
X42469761Y-79559047D01*
X42584047Y-79559047D01*
X42736428Y-79597142D01*
X42812619Y-79635238D01*
X42888809Y-79711428D01*
X42926904Y-79825714D01*
X42926904Y-80016190D01*
X43003095Y-79406666D02*
X43003095Y-78797142D01*
X42126904Y-78682857D02*
X42126904Y-78187619D01*
X42431666Y-78454285D01*
X42431666Y-78340000D01*
X42469761Y-78263809D01*
X42507857Y-78225714D01*
X42584047Y-78187619D01*
X42774523Y-78187619D01*
X42850714Y-78225714D01*
X42888809Y-78263809D01*
X42926904Y-78340000D01*
X42926904Y-78568571D01*
X42888809Y-78644761D01*
X42850714Y-78682857D01*
X42126904Y-77692380D02*
X42126904Y-77616190D01*
X42165000Y-77540000D01*
X42203095Y-77501904D01*
X42279285Y-77463809D01*
X42431666Y-77425714D01*
X42622142Y-77425714D01*
X42774523Y-77463809D01*
X42850714Y-77501904D01*
X42888809Y-77540000D01*
X42926904Y-77616190D01*
X42926904Y-77692380D01*
X42888809Y-77768571D01*
X42850714Y-77806666D01*
X42774523Y-77844761D01*
X42622142Y-77882857D01*
X42431666Y-77882857D01*
X42279285Y-77844761D01*
X42203095Y-77806666D01*
X42165000Y-77768571D01*
X42126904Y-77692380D01*
X319786904Y-62236190D02*
X318986904Y-62236190D01*
X318986904Y-62045714D01*
X319025000Y-61931428D01*
X319101190Y-61855238D01*
X319177380Y-61817142D01*
X319329761Y-61779047D01*
X319444047Y-61779047D01*
X319596428Y-61817142D01*
X319672619Y-61855238D01*
X319748809Y-61931428D01*
X319786904Y-62045714D01*
X319786904Y-62236190D01*
X319863095Y-61626666D02*
X319863095Y-61017142D01*
X319063095Y-60864761D02*
X319025000Y-60826666D01*
X318986904Y-60750476D01*
X318986904Y-60560000D01*
X319025000Y-60483809D01*
X319063095Y-60445714D01*
X319139285Y-60407619D01*
X319215476Y-60407619D01*
X319329761Y-60445714D01*
X319786904Y-60902857D01*
X319786904Y-60407619D01*
X319786904Y-60026666D02*
X319786904Y-59874285D01*
X319748809Y-59798095D01*
X319710714Y-59760000D01*
X319596428Y-59683809D01*
X319444047Y-59645714D01*
X319139285Y-59645714D01*
X319063095Y-59683809D01*
X319025000Y-59721904D01*
X318986904Y-59798095D01*
X318986904Y-59950476D01*
X319025000Y-60026666D01*
X319063095Y-60064761D01*
X319139285Y-60102857D01*
X319329761Y-60102857D01*
X319405952Y-60064761D01*
X319444047Y-60026666D01*
X319482142Y-59950476D01*
X319482142Y-59798095D01*
X319444047Y-59721904D01*
X319405952Y-59683809D01*
X319329761Y-59645714D01*
X296926904Y-62236190D02*
X296126904Y-62236190D01*
X296126904Y-62045714D01*
X296165000Y-61931428D01*
X296241190Y-61855238D01*
X296317380Y-61817142D01*
X296469761Y-61779047D01*
X296584047Y-61779047D01*
X296736428Y-61817142D01*
X296812619Y-61855238D01*
X296888809Y-61931428D01*
X296926904Y-62045714D01*
X296926904Y-62236190D01*
X297003095Y-61626666D02*
X297003095Y-61017142D01*
X296203095Y-60864761D02*
X296165000Y-60826666D01*
X296126904Y-60750476D01*
X296126904Y-60560000D01*
X296165000Y-60483809D01*
X296203095Y-60445714D01*
X296279285Y-60407619D01*
X296355476Y-60407619D01*
X296469761Y-60445714D01*
X296926904Y-60902857D01*
X296926904Y-60407619D01*
X296469761Y-59950476D02*
X296431666Y-60026666D01*
X296393571Y-60064761D01*
X296317380Y-60102857D01*
X296279285Y-60102857D01*
X296203095Y-60064761D01*
X296165000Y-60026666D01*
X296126904Y-59950476D01*
X296126904Y-59798095D01*
X296165000Y-59721904D01*
X296203095Y-59683809D01*
X296279285Y-59645714D01*
X296317380Y-59645714D01*
X296393571Y-59683809D01*
X296431666Y-59721904D01*
X296469761Y-59798095D01*
X296469761Y-59950476D01*
X296507857Y-60026666D01*
X296545952Y-60064761D01*
X296622142Y-60102857D01*
X296774523Y-60102857D01*
X296850714Y-60064761D01*
X296888809Y-60026666D01*
X296926904Y-59950476D01*
X296926904Y-59798095D01*
X296888809Y-59721904D01*
X296850714Y-59683809D01*
X296774523Y-59645714D01*
X296622142Y-59645714D01*
X296545952Y-59683809D01*
X296507857Y-59721904D01*
X296469761Y-59798095D01*
X274066904Y-63201190D02*
X273266904Y-63201190D01*
X273266904Y-63010714D01*
X273305000Y-62896428D01*
X273381190Y-62820238D01*
X273457380Y-62782142D01*
X273609761Y-62744047D01*
X273724047Y-62744047D01*
X273876428Y-62782142D01*
X273952619Y-62820238D01*
X274028809Y-62896428D01*
X274066904Y-63010714D01*
X274066904Y-63201190D01*
X274143095Y-62591666D02*
X274143095Y-61982142D01*
X273343095Y-61829761D02*
X273305000Y-61791666D01*
X273266904Y-61715476D01*
X273266904Y-61525000D01*
X273305000Y-61448809D01*
X273343095Y-61410714D01*
X273419285Y-61372619D01*
X273495476Y-61372619D01*
X273609761Y-61410714D01*
X274066904Y-61867857D01*
X274066904Y-61372619D01*
X273266904Y-61105952D02*
X273266904Y-60572619D01*
X274066904Y-60915476D01*
X253746904Y-62236190D02*
X252946904Y-62236190D01*
X252946904Y-62045714D01*
X252985000Y-61931428D01*
X253061190Y-61855238D01*
X253137380Y-61817142D01*
X253289761Y-61779047D01*
X253404047Y-61779047D01*
X253556428Y-61817142D01*
X253632619Y-61855238D01*
X253708809Y-61931428D01*
X253746904Y-62045714D01*
X253746904Y-62236190D01*
X253823095Y-61626666D02*
X253823095Y-61017142D01*
X253023095Y-60864761D02*
X252985000Y-60826666D01*
X252946904Y-60750476D01*
X252946904Y-60560000D01*
X252985000Y-60483809D01*
X253023095Y-60445714D01*
X253099285Y-60407619D01*
X253175476Y-60407619D01*
X253289761Y-60445714D01*
X253746904Y-60902857D01*
X253746904Y-60407619D01*
X252946904Y-59721904D02*
X252946904Y-59874285D01*
X252985000Y-59950476D01*
X253023095Y-59988571D01*
X253137380Y-60064761D01*
X253289761Y-60102857D01*
X253594523Y-60102857D01*
X253670714Y-60064761D01*
X253708809Y-60026666D01*
X253746904Y-59950476D01*
X253746904Y-59798095D01*
X253708809Y-59721904D01*
X253670714Y-59683809D01*
X253594523Y-59645714D01*
X253404047Y-59645714D01*
X253327857Y-59683809D01*
X253289761Y-59721904D01*
X253251666Y-59798095D01*
X253251666Y-59950476D01*
X253289761Y-60026666D01*
X253327857Y-60064761D01*
X253404047Y-60102857D01*
X233426904Y-62236190D02*
X232626904Y-62236190D01*
X232626904Y-62045714D01*
X232665000Y-61931428D01*
X232741190Y-61855238D01*
X232817380Y-61817142D01*
X232969761Y-61779047D01*
X233084047Y-61779047D01*
X233236428Y-61817142D01*
X233312619Y-61855238D01*
X233388809Y-61931428D01*
X233426904Y-62045714D01*
X233426904Y-62236190D01*
X233503095Y-61626666D02*
X233503095Y-61017142D01*
X232703095Y-60864761D02*
X232665000Y-60826666D01*
X232626904Y-60750476D01*
X232626904Y-60560000D01*
X232665000Y-60483809D01*
X232703095Y-60445714D01*
X232779285Y-60407619D01*
X232855476Y-60407619D01*
X232969761Y-60445714D01*
X233426904Y-60902857D01*
X233426904Y-60407619D01*
X232626904Y-59683809D02*
X232626904Y-60064761D01*
X233007857Y-60102857D01*
X232969761Y-60064761D01*
X232931666Y-59988571D01*
X232931666Y-59798095D01*
X232969761Y-59721904D01*
X233007857Y-59683809D01*
X233084047Y-59645714D01*
X233274523Y-59645714D01*
X233350714Y-59683809D01*
X233388809Y-59721904D01*
X233426904Y-59798095D01*
X233426904Y-59988571D01*
X233388809Y-60064761D01*
X233350714Y-60102857D01*
X215646904Y-62236190D02*
X214846904Y-62236190D01*
X214846904Y-62045714D01*
X214885000Y-61931428D01*
X214961190Y-61855238D01*
X215037380Y-61817142D01*
X215189761Y-61779047D01*
X215304047Y-61779047D01*
X215456428Y-61817142D01*
X215532619Y-61855238D01*
X215608809Y-61931428D01*
X215646904Y-62045714D01*
X215646904Y-62236190D01*
X215723095Y-61626666D02*
X215723095Y-61017142D01*
X214923095Y-60864761D02*
X214885000Y-60826666D01*
X214846904Y-60750476D01*
X214846904Y-60560000D01*
X214885000Y-60483809D01*
X214923095Y-60445714D01*
X214999285Y-60407619D01*
X215075476Y-60407619D01*
X215189761Y-60445714D01*
X215646904Y-60902857D01*
X215646904Y-60407619D01*
X215113571Y-59721904D02*
X215646904Y-59721904D01*
X214808809Y-59912380D02*
X215380238Y-60102857D01*
X215380238Y-59607619D01*
X197866904Y-62236190D02*
X197066904Y-62236190D01*
X197066904Y-62045714D01*
X197105000Y-61931428D01*
X197181190Y-61855238D01*
X197257380Y-61817142D01*
X197409761Y-61779047D01*
X197524047Y-61779047D01*
X197676428Y-61817142D01*
X197752619Y-61855238D01*
X197828809Y-61931428D01*
X197866904Y-62045714D01*
X197866904Y-62236190D01*
X197943095Y-61626666D02*
X197943095Y-61017142D01*
X197143095Y-60864761D02*
X197105000Y-60826666D01*
X197066904Y-60750476D01*
X197066904Y-60560000D01*
X197105000Y-60483809D01*
X197143095Y-60445714D01*
X197219285Y-60407619D01*
X197295476Y-60407619D01*
X197409761Y-60445714D01*
X197866904Y-60902857D01*
X197866904Y-60407619D01*
X197066904Y-60140952D02*
X197066904Y-59645714D01*
X197371666Y-59912380D01*
X197371666Y-59798095D01*
X197409761Y-59721904D01*
X197447857Y-59683809D01*
X197524047Y-59645714D01*
X197714523Y-59645714D01*
X197790714Y-59683809D01*
X197828809Y-59721904D01*
X197866904Y-59798095D01*
X197866904Y-60026666D01*
X197828809Y-60102857D01*
X197790714Y-60140952D01*
X177546904Y-62236190D02*
X176746904Y-62236190D01*
X176746904Y-62045714D01*
X176785000Y-61931428D01*
X176861190Y-61855238D01*
X176937380Y-61817142D01*
X177089761Y-61779047D01*
X177204047Y-61779047D01*
X177356428Y-61817142D01*
X177432619Y-61855238D01*
X177508809Y-61931428D01*
X177546904Y-62045714D01*
X177546904Y-62236190D01*
X177623095Y-61626666D02*
X177623095Y-61017142D01*
X176823095Y-60864761D02*
X176785000Y-60826666D01*
X176746904Y-60750476D01*
X176746904Y-60560000D01*
X176785000Y-60483809D01*
X176823095Y-60445714D01*
X176899285Y-60407619D01*
X176975476Y-60407619D01*
X177089761Y-60445714D01*
X177546904Y-60902857D01*
X177546904Y-60407619D01*
X176823095Y-60102857D02*
X176785000Y-60064761D01*
X176746904Y-59988571D01*
X176746904Y-59798095D01*
X176785000Y-59721904D01*
X176823095Y-59683809D01*
X176899285Y-59645714D01*
X176975476Y-59645714D01*
X177089761Y-59683809D01*
X177546904Y-60140952D01*
X177546904Y-59645714D01*
X159766904Y-62236190D02*
X158966904Y-62236190D01*
X158966904Y-62045714D01*
X159005000Y-61931428D01*
X159081190Y-61855238D01*
X159157380Y-61817142D01*
X159309761Y-61779047D01*
X159424047Y-61779047D01*
X159576428Y-61817142D01*
X159652619Y-61855238D01*
X159728809Y-61931428D01*
X159766904Y-62045714D01*
X159766904Y-62236190D01*
X159843095Y-61626666D02*
X159843095Y-61017142D01*
X159043095Y-60864761D02*
X159005000Y-60826666D01*
X158966904Y-60750476D01*
X158966904Y-60560000D01*
X159005000Y-60483809D01*
X159043095Y-60445714D01*
X159119285Y-60407619D01*
X159195476Y-60407619D01*
X159309761Y-60445714D01*
X159766904Y-60902857D01*
X159766904Y-60407619D01*
X159766904Y-59645714D02*
X159766904Y-60102857D01*
X159766904Y-59874285D02*
X158966904Y-59874285D01*
X159081190Y-59950476D01*
X159157380Y-60026666D01*
X159195476Y-60102857D01*
X139446904Y-62236190D02*
X138646904Y-62236190D01*
X138646904Y-62045714D01*
X138685000Y-61931428D01*
X138761190Y-61855238D01*
X138837380Y-61817142D01*
X138989761Y-61779047D01*
X139104047Y-61779047D01*
X139256428Y-61817142D01*
X139332619Y-61855238D01*
X139408809Y-61931428D01*
X139446904Y-62045714D01*
X139446904Y-62236190D01*
X139523095Y-61626666D02*
X139523095Y-61017142D01*
X138723095Y-60864761D02*
X138685000Y-60826666D01*
X138646904Y-60750476D01*
X138646904Y-60560000D01*
X138685000Y-60483809D01*
X138723095Y-60445714D01*
X138799285Y-60407619D01*
X138875476Y-60407619D01*
X138989761Y-60445714D01*
X139446904Y-60902857D01*
X139446904Y-60407619D01*
X138646904Y-59912380D02*
X138646904Y-59836190D01*
X138685000Y-59760000D01*
X138723095Y-59721904D01*
X138799285Y-59683809D01*
X138951666Y-59645714D01*
X139142142Y-59645714D01*
X139294523Y-59683809D01*
X139370714Y-59721904D01*
X139408809Y-59760000D01*
X139446904Y-59836190D01*
X139446904Y-59912380D01*
X139408809Y-59988571D01*
X139370714Y-60026666D01*
X139294523Y-60064761D01*
X139142142Y-60102857D01*
X138951666Y-60102857D01*
X138799285Y-60064761D01*
X138723095Y-60026666D01*
X138685000Y-59988571D01*
X138646904Y-59912380D01*
X121666904Y-62236190D02*
X120866904Y-62236190D01*
X120866904Y-62045714D01*
X120905000Y-61931428D01*
X120981190Y-61855238D01*
X121057380Y-61817142D01*
X121209761Y-61779047D01*
X121324047Y-61779047D01*
X121476428Y-61817142D01*
X121552619Y-61855238D01*
X121628809Y-61931428D01*
X121666904Y-62045714D01*
X121666904Y-62236190D01*
X121743095Y-61626666D02*
X121743095Y-61017142D01*
X121666904Y-60407619D02*
X121666904Y-60864761D01*
X121666904Y-60636190D02*
X120866904Y-60636190D01*
X120981190Y-60712380D01*
X121057380Y-60788571D01*
X121095476Y-60864761D01*
X121666904Y-60026666D02*
X121666904Y-59874285D01*
X121628809Y-59798095D01*
X121590714Y-59760000D01*
X121476428Y-59683809D01*
X121324047Y-59645714D01*
X121019285Y-59645714D01*
X120943095Y-59683809D01*
X120905000Y-59721904D01*
X120866904Y-59798095D01*
X120866904Y-59950476D01*
X120905000Y-60026666D01*
X120943095Y-60064761D01*
X121019285Y-60102857D01*
X121209761Y-60102857D01*
X121285952Y-60064761D01*
X121324047Y-60026666D01*
X121362142Y-59950476D01*
X121362142Y-59798095D01*
X121324047Y-59721904D01*
X121285952Y-59683809D01*
X121209761Y-59645714D01*
X101346904Y-62236190D02*
X100546904Y-62236190D01*
X100546904Y-62045714D01*
X100585000Y-61931428D01*
X100661190Y-61855238D01*
X100737380Y-61817142D01*
X100889761Y-61779047D01*
X101004047Y-61779047D01*
X101156428Y-61817142D01*
X101232619Y-61855238D01*
X101308809Y-61931428D01*
X101346904Y-62045714D01*
X101346904Y-62236190D01*
X101423095Y-61626666D02*
X101423095Y-61017142D01*
X101346904Y-60407619D02*
X101346904Y-60864761D01*
X101346904Y-60636190D02*
X100546904Y-60636190D01*
X100661190Y-60712380D01*
X100737380Y-60788571D01*
X100775476Y-60864761D01*
X100889761Y-59950476D02*
X100851666Y-60026666D01*
X100813571Y-60064761D01*
X100737380Y-60102857D01*
X100699285Y-60102857D01*
X100623095Y-60064761D01*
X100585000Y-60026666D01*
X100546904Y-59950476D01*
X100546904Y-59798095D01*
X100585000Y-59721904D01*
X100623095Y-59683809D01*
X100699285Y-59645714D01*
X100737380Y-59645714D01*
X100813571Y-59683809D01*
X100851666Y-59721904D01*
X100889761Y-59798095D01*
X100889761Y-59950476D01*
X100927857Y-60026666D01*
X100965952Y-60064761D01*
X101042142Y-60102857D01*
X101194523Y-60102857D01*
X101270714Y-60064761D01*
X101308809Y-60026666D01*
X101346904Y-59950476D01*
X101346904Y-59798095D01*
X101308809Y-59721904D01*
X101270714Y-59683809D01*
X101194523Y-59645714D01*
X101042142Y-59645714D01*
X100965952Y-59683809D01*
X100927857Y-59721904D01*
X100889761Y-59798095D01*
X83566904Y-62641690D02*
X82766904Y-62641690D01*
X82766904Y-62451214D01*
X82805000Y-62336928D01*
X82881190Y-62260738D01*
X82957380Y-62222642D01*
X83109761Y-62184547D01*
X83224047Y-62184547D01*
X83376428Y-62222642D01*
X83452619Y-62260738D01*
X83528809Y-62336928D01*
X83566904Y-62451214D01*
X83566904Y-62641690D01*
X83643095Y-62032166D02*
X83643095Y-61422642D01*
X83566904Y-60813119D02*
X83566904Y-61270261D01*
X83566904Y-61041690D02*
X82766904Y-61041690D01*
X82881190Y-61117880D01*
X82957380Y-61194071D01*
X82995476Y-61270261D01*
X82766904Y-60546452D02*
X82766904Y-60013119D01*
X83566904Y-60355976D01*
X63246904Y-62236190D02*
X62446904Y-62236190D01*
X62446904Y-62045714D01*
X62485000Y-61931428D01*
X62561190Y-61855238D01*
X62637380Y-61817142D01*
X62789761Y-61779047D01*
X62904047Y-61779047D01*
X63056428Y-61817142D01*
X63132619Y-61855238D01*
X63208809Y-61931428D01*
X63246904Y-62045714D01*
X63246904Y-62236190D01*
X63323095Y-61626666D02*
X63323095Y-61017142D01*
X63246904Y-60407619D02*
X63246904Y-60864761D01*
X63246904Y-60636190D02*
X62446904Y-60636190D01*
X62561190Y-60712380D01*
X62637380Y-60788571D01*
X62675476Y-60864761D01*
X62446904Y-59721904D02*
X62446904Y-59874285D01*
X62485000Y-59950476D01*
X62523095Y-59988571D01*
X62637380Y-60064761D01*
X62789761Y-60102857D01*
X63094523Y-60102857D01*
X63170714Y-60064761D01*
X63208809Y-60026666D01*
X63246904Y-59950476D01*
X63246904Y-59798095D01*
X63208809Y-59721904D01*
X63170714Y-59683809D01*
X63094523Y-59645714D01*
X62904047Y-59645714D01*
X62827857Y-59683809D01*
X62789761Y-59721904D01*
X62751666Y-59798095D01*
X62751666Y-59950476D01*
X62789761Y-60026666D01*
X62827857Y-60064761D01*
X62904047Y-60102857D01*
X40386904Y-62236190D02*
X39586904Y-62236190D01*
X39586904Y-62045714D01*
X39625000Y-61931428D01*
X39701190Y-61855238D01*
X39777380Y-61817142D01*
X39929761Y-61779047D01*
X40044047Y-61779047D01*
X40196428Y-61817142D01*
X40272619Y-61855238D01*
X40348809Y-61931428D01*
X40386904Y-62045714D01*
X40386904Y-62236190D01*
X40463095Y-61626666D02*
X40463095Y-61017142D01*
X40386904Y-60407619D02*
X40386904Y-60864761D01*
X40386904Y-60636190D02*
X39586904Y-60636190D01*
X39701190Y-60712380D01*
X39777380Y-60788571D01*
X39815476Y-60864761D01*
X39586904Y-59683809D02*
X39586904Y-60064761D01*
X39967857Y-60102857D01*
X39929761Y-60064761D01*
X39891666Y-59988571D01*
X39891666Y-59798095D01*
X39929761Y-59721904D01*
X39967857Y-59683809D01*
X40044047Y-59645714D01*
X40234523Y-59645714D01*
X40310714Y-59683809D01*
X40348809Y-59721904D01*
X40386904Y-59798095D01*
X40386904Y-59988571D01*
X40348809Y-60064761D01*
X40310714Y-60102857D01*
X291846904Y-41916190D02*
X291046904Y-41916190D01*
X291046904Y-41725714D01*
X291085000Y-41611428D01*
X291161190Y-41535238D01*
X291237380Y-41497142D01*
X291389761Y-41459047D01*
X291504047Y-41459047D01*
X291656428Y-41497142D01*
X291732619Y-41535238D01*
X291808809Y-41611428D01*
X291846904Y-41725714D01*
X291846904Y-41916190D01*
X291923095Y-41306666D02*
X291923095Y-40697142D01*
X291846904Y-40087619D02*
X291846904Y-40544761D01*
X291846904Y-40316190D02*
X291046904Y-40316190D01*
X291161190Y-40392380D01*
X291237380Y-40468571D01*
X291275476Y-40544761D01*
X291046904Y-39820952D02*
X291046904Y-39325714D01*
X291351666Y-39592380D01*
X291351666Y-39478095D01*
X291389761Y-39401904D01*
X291427857Y-39363809D01*
X291504047Y-39325714D01*
X291694523Y-39325714D01*
X291770714Y-39363809D01*
X291808809Y-39401904D01*
X291846904Y-39478095D01*
X291846904Y-39706666D01*
X291808809Y-39782857D01*
X291770714Y-39820952D01*
X263906904Y-41916190D02*
X263106904Y-41916190D01*
X263106904Y-41725714D01*
X263145000Y-41611428D01*
X263221190Y-41535238D01*
X263297380Y-41497142D01*
X263449761Y-41459047D01*
X263564047Y-41459047D01*
X263716428Y-41497142D01*
X263792619Y-41535238D01*
X263868809Y-41611428D01*
X263906904Y-41725714D01*
X263906904Y-41916190D01*
X263983095Y-41306666D02*
X263983095Y-40697142D01*
X263906904Y-40087619D02*
X263906904Y-40544761D01*
X263906904Y-40316190D02*
X263106904Y-40316190D01*
X263221190Y-40392380D01*
X263297380Y-40468571D01*
X263335476Y-40544761D01*
X263183095Y-39782857D02*
X263145000Y-39744761D01*
X263106904Y-39668571D01*
X263106904Y-39478095D01*
X263145000Y-39401904D01*
X263183095Y-39363809D01*
X263259285Y-39325714D01*
X263335476Y-39325714D01*
X263449761Y-39363809D01*
X263906904Y-39820952D01*
X263906904Y-39325714D01*
X243586904Y-41916190D02*
X242786904Y-41916190D01*
X242786904Y-41725714D01*
X242825000Y-41611428D01*
X242901190Y-41535238D01*
X242977380Y-41497142D01*
X243129761Y-41459047D01*
X243244047Y-41459047D01*
X243396428Y-41497142D01*
X243472619Y-41535238D01*
X243548809Y-41611428D01*
X243586904Y-41725714D01*
X243586904Y-41916190D01*
X243663095Y-41306666D02*
X243663095Y-40697142D01*
X243586904Y-40087619D02*
X243586904Y-40544761D01*
X243586904Y-40316190D02*
X242786904Y-40316190D01*
X242901190Y-40392380D01*
X242977380Y-40468571D01*
X243015476Y-40544761D01*
X243586904Y-39325714D02*
X243586904Y-39782857D01*
X243586904Y-39554285D02*
X242786904Y-39554285D01*
X242901190Y-39630476D01*
X242977380Y-39706666D01*
X243015476Y-39782857D01*
X225806904Y-41916190D02*
X225006904Y-41916190D01*
X225006904Y-41725714D01*
X225045000Y-41611428D01*
X225121190Y-41535238D01*
X225197380Y-41497142D01*
X225349761Y-41459047D01*
X225464047Y-41459047D01*
X225616428Y-41497142D01*
X225692619Y-41535238D01*
X225768809Y-41611428D01*
X225806904Y-41725714D01*
X225806904Y-41916190D01*
X225883095Y-41306666D02*
X225883095Y-40697142D01*
X225806904Y-40087619D02*
X225806904Y-40544761D01*
X225806904Y-40316190D02*
X225006904Y-40316190D01*
X225121190Y-40392380D01*
X225197380Y-40468571D01*
X225235476Y-40544761D01*
X225006904Y-39592380D02*
X225006904Y-39516190D01*
X225045000Y-39440000D01*
X225083095Y-39401904D01*
X225159285Y-39363809D01*
X225311666Y-39325714D01*
X225502142Y-39325714D01*
X225654523Y-39363809D01*
X225730714Y-39401904D01*
X225768809Y-39440000D01*
X225806904Y-39516190D01*
X225806904Y-39592380D01*
X225768809Y-39668571D01*
X225730714Y-39706666D01*
X225654523Y-39744761D01*
X225502142Y-39782857D01*
X225311666Y-39782857D01*
X225159285Y-39744761D01*
X225083095Y-39706666D01*
X225045000Y-39668571D01*
X225006904Y-39592380D01*
X205486904Y-41535238D02*
X204686904Y-41535238D01*
X204686904Y-41344761D01*
X204725000Y-41230476D01*
X204801190Y-41154285D01*
X204877380Y-41116190D01*
X205029761Y-41078095D01*
X205144047Y-41078095D01*
X205296428Y-41116190D01*
X205372619Y-41154285D01*
X205448809Y-41230476D01*
X205486904Y-41344761D01*
X205486904Y-41535238D01*
X205563095Y-40925714D02*
X205563095Y-40316190D01*
X205486904Y-40087619D02*
X205486904Y-39935238D01*
X205448809Y-39859047D01*
X205410714Y-39820952D01*
X205296428Y-39744761D01*
X205144047Y-39706666D01*
X204839285Y-39706666D01*
X204763095Y-39744761D01*
X204725000Y-39782857D01*
X204686904Y-39859047D01*
X204686904Y-40011428D01*
X204725000Y-40087619D01*
X204763095Y-40125714D01*
X204839285Y-40163809D01*
X205029761Y-40163809D01*
X205105952Y-40125714D01*
X205144047Y-40087619D01*
X205182142Y-40011428D01*
X205182142Y-39859047D01*
X205144047Y-39782857D01*
X205105952Y-39744761D01*
X205029761Y-39706666D01*
X187706904Y-41535238D02*
X186906904Y-41535238D01*
X186906904Y-41344761D01*
X186945000Y-41230476D01*
X187021190Y-41154285D01*
X187097380Y-41116190D01*
X187249761Y-41078095D01*
X187364047Y-41078095D01*
X187516428Y-41116190D01*
X187592619Y-41154285D01*
X187668809Y-41230476D01*
X187706904Y-41344761D01*
X187706904Y-41535238D01*
X187783095Y-40925714D02*
X187783095Y-40316190D01*
X187249761Y-40011428D02*
X187211666Y-40087619D01*
X187173571Y-40125714D01*
X187097380Y-40163809D01*
X187059285Y-40163809D01*
X186983095Y-40125714D01*
X186945000Y-40087619D01*
X186906904Y-40011428D01*
X186906904Y-39859047D01*
X186945000Y-39782857D01*
X186983095Y-39744761D01*
X187059285Y-39706666D01*
X187097380Y-39706666D01*
X187173571Y-39744761D01*
X187211666Y-39782857D01*
X187249761Y-39859047D01*
X187249761Y-40011428D01*
X187287857Y-40087619D01*
X187325952Y-40125714D01*
X187402142Y-40163809D01*
X187554523Y-40163809D01*
X187630714Y-40125714D01*
X187668809Y-40087619D01*
X187706904Y-40011428D01*
X187706904Y-39859047D01*
X187668809Y-39782857D01*
X187630714Y-39744761D01*
X187554523Y-39706666D01*
X187402142Y-39706666D01*
X187325952Y-39744761D01*
X187287857Y-39782857D01*
X187249761Y-39859047D01*
X167386904Y-41535238D02*
X166586904Y-41535238D01*
X166586904Y-41344761D01*
X166625000Y-41230476D01*
X166701190Y-41154285D01*
X166777380Y-41116190D01*
X166929761Y-41078095D01*
X167044047Y-41078095D01*
X167196428Y-41116190D01*
X167272619Y-41154285D01*
X167348809Y-41230476D01*
X167386904Y-41344761D01*
X167386904Y-41535238D01*
X167463095Y-40925714D02*
X167463095Y-40316190D01*
X166586904Y-40201904D02*
X166586904Y-39668571D01*
X167386904Y-40011428D01*
X149606904Y-41535238D02*
X148806904Y-41535238D01*
X148806904Y-41344761D01*
X148845000Y-41230476D01*
X148921190Y-41154285D01*
X148997380Y-41116190D01*
X149149761Y-41078095D01*
X149264047Y-41078095D01*
X149416428Y-41116190D01*
X149492619Y-41154285D01*
X149568809Y-41230476D01*
X149606904Y-41344761D01*
X149606904Y-41535238D01*
X149683095Y-40925714D02*
X149683095Y-40316190D01*
X148806904Y-39782857D02*
X148806904Y-39935238D01*
X148845000Y-40011428D01*
X148883095Y-40049523D01*
X148997380Y-40125714D01*
X149149761Y-40163809D01*
X149454523Y-40163809D01*
X149530714Y-40125714D01*
X149568809Y-40087619D01*
X149606904Y-40011428D01*
X149606904Y-39859047D01*
X149568809Y-39782857D01*
X149530714Y-39744761D01*
X149454523Y-39706666D01*
X149264047Y-39706666D01*
X149187857Y-39744761D01*
X149149761Y-39782857D01*
X149111666Y-39859047D01*
X149111666Y-40011428D01*
X149149761Y-40087619D01*
X149187857Y-40125714D01*
X149264047Y-40163809D01*
X129286904Y-41535238D02*
X128486904Y-41535238D01*
X128486904Y-41344761D01*
X128525000Y-41230476D01*
X128601190Y-41154285D01*
X128677380Y-41116190D01*
X128829761Y-41078095D01*
X128944047Y-41078095D01*
X129096428Y-41116190D01*
X129172619Y-41154285D01*
X129248809Y-41230476D01*
X129286904Y-41344761D01*
X129286904Y-41535238D01*
X129363095Y-40925714D02*
X129363095Y-40316190D01*
X128486904Y-39744761D02*
X128486904Y-40125714D01*
X128867857Y-40163809D01*
X128829761Y-40125714D01*
X128791666Y-40049523D01*
X128791666Y-39859047D01*
X128829761Y-39782857D01*
X128867857Y-39744761D01*
X128944047Y-39706666D01*
X129134523Y-39706666D01*
X129210714Y-39744761D01*
X129248809Y-39782857D01*
X129286904Y-39859047D01*
X129286904Y-40049523D01*
X129248809Y-40125714D01*
X129210714Y-40163809D01*
X111506904Y-41535238D02*
X110706904Y-41535238D01*
X110706904Y-41344761D01*
X110745000Y-41230476D01*
X110821190Y-41154285D01*
X110897380Y-41116190D01*
X111049761Y-41078095D01*
X111164047Y-41078095D01*
X111316428Y-41116190D01*
X111392619Y-41154285D01*
X111468809Y-41230476D01*
X111506904Y-41344761D01*
X111506904Y-41535238D01*
X111583095Y-40925714D02*
X111583095Y-40316190D01*
X110973571Y-39782857D02*
X111506904Y-39782857D01*
X110668809Y-39973333D02*
X111240238Y-40163809D01*
X111240238Y-39668571D01*
X91186904Y-41535238D02*
X90386904Y-41535238D01*
X90386904Y-41344761D01*
X90425000Y-41230476D01*
X90501190Y-41154285D01*
X90577380Y-41116190D01*
X90729761Y-41078095D01*
X90844047Y-41078095D01*
X90996428Y-41116190D01*
X91072619Y-41154285D01*
X91148809Y-41230476D01*
X91186904Y-41344761D01*
X91186904Y-41535238D01*
X91263095Y-40925714D02*
X91263095Y-40316190D01*
X90386904Y-40201904D02*
X90386904Y-39706666D01*
X90691666Y-39973333D01*
X90691666Y-39859047D01*
X90729761Y-39782857D01*
X90767857Y-39744761D01*
X90844047Y-39706666D01*
X91034523Y-39706666D01*
X91110714Y-39744761D01*
X91148809Y-39782857D01*
X91186904Y-39859047D01*
X91186904Y-40087619D01*
X91148809Y-40163809D01*
X91110714Y-40201904D01*
X73406904Y-41535238D02*
X72606904Y-41535238D01*
X72606904Y-41344761D01*
X72645000Y-41230476D01*
X72721190Y-41154285D01*
X72797380Y-41116190D01*
X72949761Y-41078095D01*
X73064047Y-41078095D01*
X73216428Y-41116190D01*
X73292619Y-41154285D01*
X73368809Y-41230476D01*
X73406904Y-41344761D01*
X73406904Y-41535238D01*
X73483095Y-40925714D02*
X73483095Y-40316190D01*
X72683095Y-40163809D02*
X72645000Y-40125714D01*
X72606904Y-40049523D01*
X72606904Y-39859047D01*
X72645000Y-39782857D01*
X72683095Y-39744761D01*
X72759285Y-39706666D01*
X72835476Y-39706666D01*
X72949761Y-39744761D01*
X73406904Y-40201904D01*
X73406904Y-39706666D01*
X53086904Y-41535238D02*
X52286904Y-41535238D01*
X52286904Y-41344761D01*
X52325000Y-41230476D01*
X52401190Y-41154285D01*
X52477380Y-41116190D01*
X52629761Y-41078095D01*
X52744047Y-41078095D01*
X52896428Y-41116190D01*
X52972619Y-41154285D01*
X53048809Y-41230476D01*
X53086904Y-41344761D01*
X53086904Y-41535238D01*
X53163095Y-40925714D02*
X53163095Y-40316190D01*
X53086904Y-39706666D02*
X53086904Y-40163809D01*
X53086904Y-39935238D02*
X52286904Y-39935238D01*
X52401190Y-40011428D01*
X52477380Y-40087619D01*
X52515476Y-40163809D01*
X35306904Y-41535238D02*
X34506904Y-41535238D01*
X34506904Y-41344761D01*
X34545000Y-41230476D01*
X34621190Y-41154285D01*
X34697380Y-41116190D01*
X34849761Y-41078095D01*
X34964047Y-41078095D01*
X35116428Y-41116190D01*
X35192619Y-41154285D01*
X35268809Y-41230476D01*
X35306904Y-41344761D01*
X35306904Y-41535238D01*
X35383095Y-40925714D02*
X35383095Y-40316190D01*
X34506904Y-39973333D02*
X34506904Y-39897142D01*
X34545000Y-39820952D01*
X34583095Y-39782857D01*
X34659285Y-39744761D01*
X34811666Y-39706666D01*
X35002142Y-39706666D01*
X35154523Y-39744761D01*
X35230714Y-39782857D01*
X35268809Y-39820952D01*
X35306904Y-39897142D01*
X35306904Y-39973333D01*
X35268809Y-40049523D01*
X35230714Y-40087619D01*
X35154523Y-40125714D01*
X35002142Y-40163809D01*
X34811666Y-40163809D01*
X34659285Y-40125714D01*
X34583095Y-40087619D01*
X34545000Y-40049523D01*
X34506904Y-39973333D01*
X177850000Y-115113333D02*
X177850000Y-115346666D01*
X178216666Y-115346666D02*
X177516666Y-115346666D01*
X177516666Y-115013333D01*
X177516666Y-114613333D02*
X177516666Y-114546666D01*
X177550000Y-114480000D01*
X177583333Y-114446666D01*
X177650000Y-114413333D01*
X177783333Y-114380000D01*
X177950000Y-114380000D01*
X178083333Y-114413333D01*
X178150000Y-114446666D01*
X178183333Y-114480000D01*
X178216666Y-114546666D01*
X178216666Y-114613333D01*
X178183333Y-114680000D01*
X178150000Y-114713333D01*
X178083333Y-114746666D01*
X177950000Y-114780000D01*
X177783333Y-114780000D01*
X177650000Y-114746666D01*
X177583333Y-114713333D01*
X177550000Y-114680000D01*
X177516666Y-114613333D01*
D12*
X196850000Y-124841000D02*
X196850000Y-124841000D01*
X196850000Y-124841000D01*
X196850000Y-124841000D01*
X196850000Y-124841000D01*
X196850000Y-124841000D01*
X196850000Y-124841000D01*
X196850000Y-124841000D01*
X196850000Y-124841000D01*
X196850000Y-124841000D01*
X196850000Y-124841000D01*
X196850000Y-124841000D01*
X196850000Y-124841000D01*
X196850000Y-124841000D01*
X196850000Y-124841000D01*
X196850000Y-124841000D01*
X196850000Y-124841000D01*
X196850000Y-124841000D02*
X196850000Y-124841000D01*
X196850000Y-124841000D01*
X196850000Y-124841000D01*
X196850000Y-124841000D02*
X196850000Y-124841000D01*
X196850000Y-124841000D01*
X196850000Y-124841000D01*
X196850000Y-124841000D01*
X196850000Y-124841000D01*
X196850000Y-124841000D01*
X196850000Y-124841000D01*
X196850000Y-124841000D01*
X196850000Y-124841000D01*
X196850000Y-124841000D01*
X196850000Y-124841000D01*
X196850000Y-124841000D01*
D11*
X181552857Y-114242809D02*
X181590952Y-114128523D01*
X181629047Y-114090428D01*
X181705238Y-114052333D01*
X181819523Y-114052333D01*
X181895714Y-114090428D01*
X181933809Y-114128523D01*
X181971904Y-114204714D01*
X181971904Y-114509476D01*
X181171904Y-114509476D01*
X181171904Y-114242809D01*
X181210000Y-114166619D01*
X181248095Y-114128523D01*
X181324285Y-114090428D01*
X181400476Y-114090428D01*
X181476666Y-114128523D01*
X181514761Y-114166619D01*
X181552857Y-114242809D01*
X181552857Y-114509476D01*
X181171904Y-113785666D02*
X181171904Y-113290428D01*
X181476666Y-113557095D01*
X181476666Y-113442809D01*
X181514761Y-113366619D01*
X181552857Y-113328523D01*
X181629047Y-113290428D01*
X181819523Y-113290428D01*
X181895714Y-113328523D01*
X181933809Y-113366619D01*
X181971904Y-113442809D01*
X181971904Y-113671380D01*
X181933809Y-113747571D01*
X181895714Y-113785666D01*
X204031904Y-125142348D02*
X204031904Y-124685205D01*
X204831904Y-124913776D02*
X204031904Y-124913776D01*
X204031904Y-124494729D02*
X204831904Y-123961395D01*
X204031904Y-123961395D02*
X204831904Y-124494729D01*
X204031904Y-123504252D02*
X204031904Y-123428062D01*
X204070000Y-123351872D01*
X204108095Y-123313776D01*
X204184285Y-123275681D01*
X204336666Y-123237586D01*
X204527142Y-123237586D01*
X204679523Y-123275681D01*
X204755714Y-123313776D01*
X204793809Y-123351872D01*
X204831904Y-123428062D01*
X204831904Y-123504252D01*
X204793809Y-123580443D01*
X204755714Y-123618538D01*
X204679523Y-123656633D01*
X204527142Y-123694729D01*
X204336666Y-123694729D01*
X204184285Y-123656633D01*
X204108095Y-123618538D01*
X204070000Y-123580443D01*
X204031904Y-123504252D01*
X203993809Y-122323300D02*
X205022380Y-123009014D01*
X204831904Y-122056633D02*
X204031904Y-122056633D01*
X204031904Y-121866157D01*
X204070000Y-121751872D01*
X204146190Y-121675681D01*
X204222380Y-121637586D01*
X204374761Y-121599491D01*
X204489047Y-121599491D01*
X204641428Y-121637586D01*
X204717619Y-121675681D01*
X204793809Y-121751872D01*
X204831904Y-121866157D01*
X204831904Y-122056633D01*
X204031904Y-121332824D02*
X204031904Y-120837586D01*
X204336666Y-121104252D01*
X204336666Y-120989967D01*
X204374761Y-120913776D01*
X204412857Y-120875681D01*
X204489047Y-120837586D01*
X204679523Y-120837586D01*
X204755714Y-120875681D01*
X204793809Y-120913776D01*
X204831904Y-120989967D01*
X204831904Y-121218538D01*
X204793809Y-121294729D01*
X204755714Y-121332824D01*
X177850000Y-124163333D02*
X177883333Y-124063333D01*
X177916666Y-124030000D01*
X177983333Y-123996666D01*
X178083333Y-123996666D01*
X178150000Y-124030000D01*
X178183333Y-124063333D01*
X178216666Y-124130000D01*
X178216666Y-124396666D01*
X177516666Y-124396666D01*
X177516666Y-124163333D01*
X177550000Y-124096666D01*
X177583333Y-124063333D01*
X177650000Y-124030000D01*
X177716666Y-124030000D01*
X177783333Y-124063333D01*
X177816666Y-124096666D01*
X177850000Y-124163333D01*
X177850000Y-124396666D01*
X177516666Y-123763333D02*
X177516666Y-123296666D01*
X178216666Y-123596666D01*
D12*
X193861904Y-124380000D02*
X193061904Y-124380000D01*
X193061904Y-124380000D01*
X193100000Y-124380000D01*
X193176190Y-124380000D01*
X193252380Y-124380000D01*
X193404761Y-124380000D01*
X193519047Y-124380000D01*
X193671428Y-124380000D01*
X193747619Y-124380000D01*
X193823809Y-124380000D01*
X193861904Y-124380000D01*
X193861904Y-124380000D01*
X193861904Y-124380000D02*
X193861904Y-124380000D01*
X193861904Y-124380000D02*
X193061904Y-124380000D01*
X193176190Y-124380000D01*
X193252380Y-124380000D01*
X193290476Y-124380000D01*
D11*
X199733809Y-114873333D02*
X199771904Y-114759047D01*
X199771904Y-114568571D01*
X199733809Y-114492380D01*
X199695714Y-114454285D01*
X199619523Y-114416190D01*
X199543333Y-114416190D01*
X199467142Y-114454285D01*
X199429047Y-114492380D01*
X199390952Y-114568571D01*
X199352857Y-114720952D01*
X199314761Y-114797142D01*
X199276666Y-114835238D01*
X199200476Y-114873333D01*
X199124285Y-114873333D01*
X199048095Y-114835238D01*
X199010000Y-114797142D01*
X198971904Y-114720952D01*
X198971904Y-114530476D01*
X199010000Y-114416190D01*
X198971904Y-114187619D02*
X198971904Y-113730476D01*
X199771904Y-113959047D02*
X198971904Y-113959047D01*
X189591904Y-125431476D02*
X188791904Y-125431476D01*
X188791904Y-125241000D01*
X188830000Y-125126714D01*
X188906190Y-125050523D01*
X188982380Y-125012428D01*
X189134761Y-124974333D01*
X189249047Y-124974333D01*
X189401428Y-125012428D01*
X189477619Y-125050523D01*
X189553809Y-125126714D01*
X189591904Y-125241000D01*
X189591904Y-125431476D01*
X189058571Y-124288619D02*
X189591904Y-124288619D01*
X188753809Y-124479095D02*
X189325238Y-124669571D01*
X189325238Y-124174333D01*
X189172857Y-114185666D02*
X189172857Y-114452333D01*
X189591904Y-114452333D02*
X188791904Y-114452333D01*
X188791904Y-114071380D01*
X188791904Y-113423761D02*
X188791904Y-113576142D01*
X188830000Y-113652333D01*
X188868095Y-113690428D01*
X188982380Y-113766619D01*
X189134761Y-113804714D01*
X189439523Y-113804714D01*
X189515714Y-113766619D01*
X189553809Y-113728523D01*
X189591904Y-113652333D01*
X189591904Y-113499952D01*
X189553809Y-113423761D01*
X189515714Y-113385666D01*
X189439523Y-113347571D01*
X189249047Y-113347571D01*
X189172857Y-113385666D01*
X189134761Y-113423761D01*
X189096666Y-113499952D01*
X189096666Y-113652333D01*
X189134761Y-113728523D01*
X189172857Y-113766619D01*
X189249047Y-113804714D01*
X191712857Y-114185666D02*
X191712857Y-114452333D01*
X192131904Y-114452333D02*
X191331904Y-114452333D01*
X191331904Y-114071380D01*
X191331904Y-113385666D02*
X191331904Y-113766619D01*
X191712857Y-113804714D01*
X191674761Y-113766619D01*
X191636666Y-113690428D01*
X191636666Y-113499952D01*
X191674761Y-113423761D01*
X191712857Y-113385666D01*
X191789047Y-113347571D01*
X191979523Y-113347571D01*
X192055714Y-113385666D01*
X192093809Y-113423761D01*
X192131904Y-113499952D01*
X192131904Y-113690428D01*
X192093809Y-113766619D01*
X192055714Y-113804714D01*
X204412857Y-114242809D02*
X204450952Y-114128523D01*
X204489047Y-114090428D01*
X204565238Y-114052333D01*
X204679523Y-114052333D01*
X204755714Y-114090428D01*
X204793809Y-114128523D01*
X204831904Y-114204714D01*
X204831904Y-114509476D01*
X204031904Y-114509476D01*
X204031904Y-114242809D01*
X204070000Y-114166619D01*
X204108095Y-114128523D01*
X204184285Y-114090428D01*
X204260476Y-114090428D01*
X204336666Y-114128523D01*
X204374761Y-114166619D01*
X204412857Y-114242809D01*
X204412857Y-114509476D01*
X204031904Y-113557095D02*
X204031904Y-113480904D01*
X204070000Y-113404714D01*
X204108095Y-113366619D01*
X204184285Y-113328523D01*
X204336666Y-113290428D01*
X204527142Y-113290428D01*
X204679523Y-113328523D01*
X204755714Y-113366619D01*
X204793809Y-113404714D01*
X204831904Y-113480904D01*
X204831904Y-113557095D01*
X204793809Y-113633285D01*
X204755714Y-113671380D01*
X204679523Y-113709476D01*
X204527142Y-113747571D01*
X204336666Y-113747571D01*
X204184285Y-113709476D01*
X204108095Y-113671380D01*
X204070000Y-113633285D01*
X204031904Y-113557095D01*
X181552857Y-125393380D02*
X181552857Y-125126714D01*
X181971904Y-125012428D02*
X181971904Y-125393380D01*
X181171904Y-125393380D01*
X181171904Y-125012428D01*
X181171904Y-124326714D02*
X181171904Y-124479095D01*
X181210000Y-124555285D01*
X181248095Y-124593380D01*
X181362380Y-124669571D01*
X181514761Y-124707666D01*
X181819523Y-124707666D01*
X181895714Y-124669571D01*
X181933809Y-124631476D01*
X181971904Y-124555285D01*
X181971904Y-124402904D01*
X181933809Y-124326714D01*
X181895714Y-124288619D01*
X181819523Y-124250523D01*
X181629047Y-124250523D01*
X181552857Y-124288619D01*
X181514761Y-124326714D01*
X181476666Y-124402904D01*
X181476666Y-124555285D01*
X181514761Y-124631476D01*
X181552857Y-124669571D01*
X181629047Y-124707666D01*
X178461904Y-122510476D02*
X177661904Y-122510476D01*
X177661904Y-122320000D01*
X177700000Y-122205714D01*
X177776190Y-122129523D01*
X177852380Y-122091428D01*
X178004761Y-122053333D01*
X178119047Y-122053333D01*
X178271428Y-122091428D01*
X178347619Y-122129523D01*
X178423809Y-122205714D01*
X178461904Y-122320000D01*
X178461904Y-122510476D01*
X177661904Y-121329523D02*
X177661904Y-121710476D01*
X178042857Y-121748571D01*
X178004761Y-121710476D01*
X177966666Y-121634285D01*
X177966666Y-121443809D01*
X178004761Y-121367619D01*
X178042857Y-121329523D01*
X178119047Y-121291428D01*
X178309523Y-121291428D01*
X178385714Y-121329523D01*
X178423809Y-121367619D01*
X178461904Y-121443809D01*
X178461904Y-121634285D01*
X178423809Y-121710476D01*
X178385714Y-121748571D01*
X198990000Y-125450523D02*
X198951904Y-125526714D01*
X198951904Y-125641000D01*
X198990000Y-125755285D01*
X199066190Y-125831476D01*
X199142380Y-125869571D01*
X199294761Y-125907666D01*
X199409047Y-125907666D01*
X199561428Y-125869571D01*
X199637619Y-125831476D01*
X199713809Y-125755285D01*
X199751904Y-125641000D01*
X199751904Y-125564809D01*
X199713809Y-125450523D01*
X199675714Y-125412428D01*
X199409047Y-125412428D01*
X199409047Y-125564809D01*
X199751904Y-125069571D02*
X198951904Y-125069571D01*
X199751904Y-124612428D01*
X198951904Y-124612428D01*
X199751904Y-124231476D02*
X198951904Y-124231476D01*
X198951904Y-124041000D01*
X198990000Y-123926714D01*
X199066190Y-123850523D01*
X199142380Y-123812428D01*
X199294761Y-123774333D01*
X199409047Y-123774333D01*
X199561428Y-123812428D01*
X199637619Y-123850523D01*
X199713809Y-123926714D01*
X199751904Y-124041000D01*
X199751904Y-124231476D01*
X179012857Y-125164809D02*
X179050952Y-125050523D01*
X179089047Y-125012428D01*
X179165238Y-124974333D01*
X179279523Y-124974333D01*
X179355714Y-125012428D01*
X179393809Y-125050523D01*
X179431904Y-125126714D01*
X179431904Y-125431476D01*
X178631904Y-125431476D01*
X178631904Y-125164809D01*
X178670000Y-125088619D01*
X178708095Y-125050523D01*
X178784285Y-125012428D01*
X178860476Y-125012428D01*
X178936666Y-125050523D01*
X178974761Y-125088619D01*
X179012857Y-125164809D01*
X179012857Y-125431476D01*
X178898571Y-124288619D02*
X179431904Y-124288619D01*
X178593809Y-124479095D02*
X179165238Y-124669571D01*
X179165238Y-124174333D01*
D12*
X201500000Y-124380000D02*
X201500000Y-124380000D01*
X201500000Y-124380000D01*
X201500000Y-124380000D01*
X201500000Y-124380000D01*
X201500000Y-124380000D01*
X201500000Y-124380000D01*
X201500000Y-124380000D01*
X201500000Y-124380000D01*
X201500000Y-124380000D01*
X201500000Y-124380000D01*
X201500000Y-124380000D01*
X201500000Y-124380000D01*
X201500000Y-124380000D02*
X201500000Y-124380000D01*
X201500000Y-124380000D01*
X201500000Y-124380000D01*
X201500000Y-124380000D01*
X201500000Y-124380000D01*
X201500000Y-124380000D01*
X201500000Y-124380000D01*
X201500000Y-124380000D01*
X201500000Y-124380000D01*
X201500000Y-124380000D01*
D11*
X186632857Y-114185666D02*
X186632857Y-114452333D01*
X187051904Y-114452333D02*
X186251904Y-114452333D01*
X186251904Y-114071380D01*
X186251904Y-113842809D02*
X186251904Y-113309476D01*
X187051904Y-113652333D01*
X196411904Y-114985666D02*
X197211904Y-114719000D01*
X196411904Y-114452333D01*
X197135714Y-113728523D02*
X197173809Y-113766619D01*
X197211904Y-113880904D01*
X197211904Y-113957095D01*
X197173809Y-114071380D01*
X197097619Y-114147571D01*
X197021428Y-114185666D01*
X196869047Y-114223761D01*
X196754761Y-114223761D01*
X196602380Y-114185666D01*
X196526190Y-114147571D01*
X196450000Y-114071380D01*
X196411904Y-113957095D01*
X196411904Y-113880904D01*
X196450000Y-113766619D01*
X196488095Y-113728523D01*
X197135714Y-112928523D02*
X197173809Y-112966619D01*
X197211904Y-113080904D01*
X197211904Y-113157095D01*
X197173809Y-113271380D01*
X197097619Y-113347571D01*
X197021428Y-113385666D01*
X196869047Y-113423761D01*
X196754761Y-113423761D01*
X196602380Y-113385666D01*
X196526190Y-113347571D01*
X196450000Y-113271380D01*
X196411904Y-113157095D01*
X196411904Y-113080904D01*
X196450000Y-112966619D01*
X196488095Y-112928523D01*
X184092857Y-114242809D02*
X184130952Y-114128523D01*
X184169047Y-114090428D01*
X184245238Y-114052333D01*
X184359523Y-114052333D01*
X184435714Y-114090428D01*
X184473809Y-114128523D01*
X184511904Y-114204714D01*
X184511904Y-114509476D01*
X183711904Y-114509476D01*
X183711904Y-114242809D01*
X183750000Y-114166619D01*
X183788095Y-114128523D01*
X183864285Y-114090428D01*
X183940476Y-114090428D01*
X184016666Y-114128523D01*
X184054761Y-114166619D01*
X184092857Y-114242809D01*
X184092857Y-114509476D01*
X184511904Y-113290428D02*
X184511904Y-113747571D01*
X184511904Y-113519000D02*
X183711904Y-113519000D01*
X183826190Y-113595190D01*
X183902380Y-113671380D01*
X183940476Y-113747571D01*
X178035702Y-112815008D02*
X177941421Y-112862148D01*
X177894280Y-112862148D01*
X177823570Y-112838578D01*
X177752859Y-112767867D01*
X177729289Y-112697157D01*
X177729289Y-112650016D01*
X177752859Y-112579306D01*
X177941421Y-112390744D01*
X178436396Y-112885719D01*
X178271404Y-113050710D01*
X178200693Y-113074280D01*
X178153553Y-113074280D01*
X178082842Y-113050710D01*
X178035702Y-113003570D01*
X178012132Y-112932859D01*
X178012132Y-112885719D01*
X178035702Y-112815008D01*
X178200693Y-112650016D01*
X177729289Y-113592825D02*
X177823570Y-113498544D01*
X177847140Y-113427834D01*
X177847140Y-113380693D01*
X177823570Y-113262842D01*
X177752859Y-113144991D01*
X177564297Y-112956429D01*
X177493587Y-112932859D01*
X177446446Y-112932859D01*
X177375735Y-112956429D01*
X177281455Y-113050710D01*
X177257884Y-113121421D01*
X177257884Y-113168561D01*
X177281455Y-113239272D01*
X177399306Y-113357123D01*
X177470016Y-113380693D01*
X177517157Y-113380693D01*
X177587867Y-113357123D01*
X177682148Y-113262842D01*
X177705719Y-113192132D01*
X177705719Y-113144991D01*
X177682148Y-113074280D01*
D12*
X191770000Y-124841000D02*
X191770000Y-124841000D01*
X191770000Y-124841000D01*
X191770000Y-124841000D01*
X191770000Y-124841000D01*
X191770000Y-124841000D01*
X191770000Y-124841000D01*
X191770000Y-124841000D01*
X191770000Y-124841000D01*
X191770000Y-124841000D01*
X191770000Y-124841000D01*
X191770000Y-124841000D01*
X191770000Y-124841000D01*
X191770000Y-124841000D02*
X191770000Y-124841000D01*
X191770000Y-124841000D01*
X191770000Y-124841000D01*
X191770000Y-124841000D01*
X191770000Y-124841000D01*
X191770000Y-124841000D01*
X191770000Y-124841000D01*
X191770000Y-124841000D01*
X191770000Y-124841000D01*
X191770000Y-124841000D01*
X191770000Y-124841000D01*
X191770000Y-124841000D01*
X191770000Y-124841000D01*
X191770000Y-124841000D01*
X191770000Y-124841000D01*
X191770000Y-124841000D01*
X191770000Y-124841000D01*
X191770000Y-124841000D01*
X191770000Y-124841000D01*
X191770000Y-124841000D01*
D11*
X178385714Y-119513333D02*
X178423809Y-119551428D01*
X178461904Y-119665714D01*
X178461904Y-119741904D01*
X178423809Y-119856190D01*
X178347619Y-119932380D01*
X178271428Y-119970476D01*
X178119047Y-120008571D01*
X178004761Y-120008571D01*
X177852380Y-119970476D01*
X177776190Y-119932380D01*
X177700000Y-119856190D01*
X177661904Y-119741904D01*
X177661904Y-119665714D01*
X177700000Y-119551428D01*
X177738095Y-119513333D01*
X177661904Y-119246666D02*
X177661904Y-118713333D01*
X178461904Y-119056190D01*
X184511904Y-125431476D02*
X183711904Y-125431476D01*
X183711904Y-125241000D01*
X183750000Y-125126714D01*
X183826190Y-125050523D01*
X183902380Y-125012428D01*
X184054761Y-124974333D01*
X184169047Y-124974333D01*
X184321428Y-125012428D01*
X184397619Y-125050523D01*
X184473809Y-125126714D01*
X184511904Y-125241000D01*
X184511904Y-125431476D01*
X183711904Y-124707666D02*
X183711904Y-124174333D01*
X184511904Y-124517190D01*
X179012857Y-114242809D02*
X179050952Y-114128523D01*
X179089047Y-114090428D01*
X179165238Y-114052333D01*
X179279523Y-114052333D01*
X179355714Y-114090428D01*
X179393809Y-114128523D01*
X179431904Y-114204714D01*
X179431904Y-114509476D01*
X178631904Y-114509476D01*
X178631904Y-114242809D01*
X178670000Y-114166619D01*
X178708095Y-114128523D01*
X178784285Y-114090428D01*
X178860476Y-114090428D01*
X178936666Y-114128523D01*
X178974761Y-114166619D01*
X179012857Y-114242809D01*
X179012857Y-114509476D01*
X178708095Y-113747571D02*
X178670000Y-113709476D01*
X178631904Y-113633285D01*
X178631904Y-113442809D01*
X178670000Y-113366619D01*
X178708095Y-113328523D01*
X178784285Y-113290428D01*
X178860476Y-113290428D01*
X178974761Y-113328523D01*
X179431904Y-113785666D01*
X179431904Y-113290428D01*
X177964991Y-126015702D02*
X177917851Y-125921421D01*
X177917851Y-125874280D01*
X177941421Y-125803570D01*
X178012132Y-125732859D01*
X178082842Y-125709289D01*
X178129983Y-125709289D01*
X178200693Y-125732859D01*
X178389255Y-125921421D01*
X177894280Y-126416396D01*
X177729289Y-126251404D01*
X177705719Y-126180693D01*
X177705719Y-126133553D01*
X177729289Y-126062842D01*
X177776429Y-126015702D01*
X177847140Y-125992132D01*
X177894280Y-125992132D01*
X177964991Y-126015702D01*
X178129983Y-126180693D01*
X177163603Y-125685719D02*
X177399306Y-125921421D01*
X177658578Y-125709289D01*
X177611438Y-125709289D01*
X177540727Y-125685719D01*
X177422876Y-125567867D01*
X177399306Y-125497157D01*
X177399306Y-125450016D01*
X177422876Y-125379306D01*
X177540727Y-125261455D01*
X177611438Y-125237884D01*
X177658578Y-125237884D01*
X177729289Y-125261455D01*
X177847140Y-125379306D01*
X177870710Y-125450016D01*
X177870710Y-125497157D01*
X194252857Y-114185666D02*
X194252857Y-114452333D01*
X194671904Y-114452333D02*
X193871904Y-114452333D01*
X193871904Y-114071380D01*
X194138571Y-113423761D02*
X194671904Y-113423761D01*
X193833809Y-113614238D02*
X194405238Y-113804714D01*
X194405238Y-113309476D01*
X201530000Y-114528523D02*
X201491904Y-114604714D01*
X201491904Y-114719000D01*
X201530000Y-114833285D01*
X201606190Y-114909476D01*
X201682380Y-114947571D01*
X201834761Y-114985666D01*
X201949047Y-114985666D01*
X202101428Y-114947571D01*
X202177619Y-114909476D01*
X202253809Y-114833285D01*
X202291904Y-114719000D01*
X202291904Y-114642809D01*
X202253809Y-114528523D01*
X202215714Y-114490428D01*
X201949047Y-114490428D01*
X201949047Y-114642809D01*
X202291904Y-114147571D02*
X201491904Y-114147571D01*
X202291904Y-113690428D01*
X201491904Y-113690428D01*
X202291904Y-113309476D02*
X201491904Y-113309476D01*
X201491904Y-113119000D01*
X201530000Y-113004714D01*
X201606190Y-112928523D01*
X201682380Y-112890428D01*
X201834761Y-112852333D01*
X201949047Y-112852333D01*
X202101428Y-112890428D01*
X202177619Y-112928523D01*
X202253809Y-113004714D01*
X202291904Y-113119000D01*
X202291904Y-113309476D01*
X186975714Y-124974333D02*
X187013809Y-125012428D01*
X187051904Y-125126714D01*
X187051904Y-125202904D01*
X187013809Y-125317190D01*
X186937619Y-125393380D01*
X186861428Y-125431476D01*
X186709047Y-125469571D01*
X186594761Y-125469571D01*
X186442380Y-125431476D01*
X186366190Y-125393380D01*
X186290000Y-125317190D01*
X186251904Y-125202904D01*
X186251904Y-125126714D01*
X186290000Y-125012428D01*
X186328095Y-124974333D01*
X186251904Y-124288619D02*
X186251904Y-124441000D01*
X186290000Y-124517190D01*
X186328095Y-124555285D01*
X186442380Y-124631476D01*
X186594761Y-124669571D01*
X186899523Y-124669571D01*
X186975714Y-124631476D01*
X187013809Y-124593380D01*
X187051904Y-124517190D01*
X187051904Y-124364809D01*
X187013809Y-124288619D01*
X186975714Y-124250523D01*
X186899523Y-124212428D01*
X186709047Y-124212428D01*
X186632857Y-124250523D01*
X186594761Y-124288619D01*
X186556666Y-124364809D01*
X186556666Y-124517190D01*
X186594761Y-124593380D01*
X186632857Y-124631476D01*
X186709047Y-124669571D01*
X178042857Y-117106666D02*
X178042857Y-117373333D01*
X178461904Y-117373333D02*
X177661904Y-117373333D01*
X177661904Y-116992380D01*
X178461904Y-116268571D02*
X178461904Y-116725714D01*
X178461904Y-116497142D02*
X177661904Y-116497142D01*
X177776190Y-116573333D01*
X177852380Y-116649523D01*
X177890476Y-116725714D01*
G36*
X118614127Y-115724680D02*
G01*
X118628412Y-115499348D01*
X118648606Y-115309327D01*
X118653160Y-115277900D01*
X118764219Y-114712511D01*
X118920661Y-114166048D01*
X119120540Y-113640666D01*
X119361913Y-113138519D01*
X119642835Y-112661762D01*
X119961361Y-112212551D01*
X120315546Y-111793040D01*
X120703447Y-111405385D01*
X121123118Y-111051740D01*
X121572616Y-110734260D01*
X122049994Y-110455100D01*
X122553310Y-110216415D01*
X123080617Y-110020361D01*
X123507500Y-109898374D01*
X123746369Y-109841367D01*
X123959043Y-109797102D01*
X124158165Y-109764128D01*
X124356378Y-109740991D01*
X124566327Y-109726241D01*
X124800655Y-109718426D01*
X125072006Y-109716095D01*
X125095000Y-109716101D01*
X125372249Y-109718548D01*
X125611421Y-109726376D01*
X125825084Y-109741029D01*
X126025808Y-109763950D01*
X126226162Y-109796583D01*
X126438714Y-109840369D01*
X126676035Y-109896752D01*
X126682500Y-109898362D01*
X127224712Y-110059182D01*
X127746113Y-110265017D01*
X128244418Y-110513582D01*
X128717341Y-110802593D01*
X129162595Y-111129762D01*
X129577896Y-111492803D01*
X129960957Y-111889433D01*
X130309492Y-112317363D01*
X130621217Y-112774310D01*
X130893845Y-113257986D01*
X131125090Y-113766107D01*
X131312667Y-114296386D01*
X131401625Y-114617500D01*
X131458632Y-114856369D01*
X131502897Y-115069043D01*
X131535871Y-115268165D01*
X131559008Y-115466378D01*
X131573758Y-115676327D01*
X131581573Y-115910655D01*
X131583904Y-116182006D01*
X131583898Y-116205000D01*
X131581451Y-116482249D01*
X131573623Y-116721421D01*
X131558970Y-116935084D01*
X131536049Y-117135808D01*
X131503416Y-117336162D01*
X131459630Y-117548714D01*
X131403247Y-117786035D01*
X131401637Y-117792500D01*
X131240574Y-118335419D01*
X131034127Y-118858010D01*
X130784430Y-119357908D01*
X130493614Y-119832746D01*
X130163816Y-120280159D01*
X129797167Y-120697781D01*
X129395801Y-121083247D01*
X128961853Y-121434191D01*
X128497456Y-121748248D01*
X128004743Y-122023052D01*
X127485848Y-122256237D01*
X127317500Y-122320625D01*
X127113928Y-122388972D01*
X126876636Y-122458300D01*
X126622432Y-122524350D01*
X126368127Y-122582868D01*
X126130528Y-122629596D01*
X126034800Y-122645449D01*
X125902864Y-122661015D01*
X125731788Y-122674150D01*
X125533139Y-122684602D01*
X125318483Y-122692124D01*
X125099385Y-122696464D01*
X124887413Y-122697373D01*
X124694133Y-122694601D01*
X124531111Y-122687898D01*
X124434600Y-122680024D01*
X123856663Y-122591618D01*
X123296054Y-122456100D01*
X122754603Y-122274342D01*
X122234140Y-122047218D01*
X121736496Y-121775601D01*
X121263503Y-121460362D01*
X120816990Y-121102376D01*
X120497086Y-120802862D01*
X120106915Y-120377535D01*
X119759157Y-119924571D01*
X119454445Y-119445228D01*
X119193412Y-118940768D01*
X118976692Y-118412451D01*
X118804917Y-117861536D01*
X118678720Y-117289283D01*
X118652670Y-117132100D01*
X118631438Y-116952191D01*
X118616133Y-116734082D01*
X118606753Y-116490024D01*
X118603294Y-116232270D01*
X118603553Y-116205000D01*
X118987659Y-116205000D01*
X118990663Y-116488093D01*
X119000772Y-116734736D01*
X119019634Y-116958983D01*
X119048897Y-117174888D01*
X119090208Y-117396508D01*
X119145215Y-117637897D01*
X119164955Y-117717546D01*
X119322006Y-118239660D01*
X119524022Y-118741124D01*
X119768595Y-119219632D01*
X120053319Y-119672881D01*
X120375785Y-120098567D01*
X120733589Y-120494385D01*
X121124322Y-120858031D01*
X121545577Y-121187202D01*
X121994948Y-121479592D01*
X122470028Y-121732899D01*
X122968409Y-121944818D01*
X123487686Y-122113044D01*
X123848062Y-122200581D01*
X123995239Y-122231030D01*
X124095633Y-122247881D01*
X124152181Y-122247972D01*
X124167815Y-122228137D01*
X124145472Y-122185213D01*
X124088086Y-122116037D01*
X124008200Y-122027950D01*
X123918124Y-121932063D01*
X123796987Y-121806971D01*
X123650615Y-121658396D01*
X123484831Y-121492064D01*
X123305460Y-121313701D01*
X123118326Y-121129029D01*
X122929253Y-120943775D01*
X122744065Y-120763663D01*
X122568587Y-120594417D01*
X122408643Y-120441763D01*
X122270056Y-120311426D01*
X122158652Y-120209130D01*
X122148600Y-120200097D01*
X122035861Y-120098996D01*
X121930126Y-120004054D01*
X121839915Y-119922930D01*
X121773750Y-119863284D01*
X121748550Y-119840457D01*
X121666000Y-119765352D01*
X121666000Y-117717392D01*
X122026177Y-117717392D01*
X122026272Y-118052276D01*
X122026553Y-118361325D01*
X122027015Y-118641536D01*
X122027653Y-118889903D01*
X122028461Y-119103422D01*
X122029434Y-119279088D01*
X122030567Y-119413897D01*
X122031854Y-119504845D01*
X122033290Y-119548926D01*
X122033764Y-119552603D01*
X122044425Y-119558789D01*
X122073323Y-119564104D01*
X122123403Y-119568584D01*
X122197611Y-119572266D01*
X122298895Y-119575185D01*
X122430199Y-119577379D01*
X122594472Y-119578884D01*
X122794657Y-119579735D01*
X123033703Y-119579970D01*
X123314555Y-119579624D01*
X123640159Y-119578734D01*
X124013462Y-119577335D01*
X124034195Y-119577250D01*
X124399099Y-119575704D01*
X124716854Y-119574235D01*
X124991107Y-119572735D01*
X125225509Y-119571100D01*
X125423709Y-119569225D01*
X125589357Y-119567003D01*
X125726101Y-119564329D01*
X125837591Y-119561097D01*
X125927477Y-119557203D01*
X125999409Y-119552540D01*
X126057035Y-119547003D01*
X126104004Y-119540486D01*
X126143967Y-119532884D01*
X126180573Y-119524092D01*
X126217056Y-119514120D01*
X126551827Y-119399582D01*
X126849881Y-119255454D01*
X127109648Y-119083222D01*
X127329558Y-118884374D01*
X127508042Y-118660397D01*
X127643531Y-118412778D01*
X127734454Y-118143006D01*
X127752626Y-118058926D01*
X127780999Y-117779171D01*
X127760877Y-117505712D01*
X127694548Y-117243477D01*
X127584299Y-116997394D01*
X127432416Y-116772391D01*
X127241188Y-116573396D01*
X127012901Y-116405337D01*
X126974600Y-116382520D01*
X126804936Y-116273698D01*
X126685140Y-116170592D01*
X126614980Y-116070518D01*
X126594222Y-115970791D01*
X126622636Y-115868725D01*
X126699988Y-115761636D01*
X126826045Y-115646840D01*
X126905705Y-115586832D01*
X127031289Y-115491315D01*
X127126338Y-115403619D01*
X127205447Y-115308248D01*
X127283214Y-115189704D01*
X127289377Y-115179483D01*
X127398714Y-114958676D01*
X127472685Y-114724640D01*
X127510612Y-114486390D01*
X127511818Y-114252942D01*
X127475626Y-114033311D01*
X127401359Y-113836512D01*
X127391650Y-113818138D01*
X127260072Y-113624324D01*
X127085365Y-113441600D01*
X126874852Y-113275099D01*
X126635854Y-113129955D01*
X126375691Y-113011300D01*
X126125397Y-112930326D01*
X126042834Y-112910199D01*
X125957219Y-112892763D01*
X125864550Y-112877855D01*
X125760826Y-112865313D01*
X125642045Y-112854975D01*
X125504205Y-112846680D01*
X125343303Y-112840264D01*
X125155338Y-112835567D01*
X124936308Y-112832426D01*
X124682211Y-112830679D01*
X124389044Y-112830164D01*
X124052807Y-112830720D01*
X123698000Y-112832054D01*
X122034300Y-112839500D01*
X122027768Y-116179600D01*
X122027064Y-116587777D01*
X122026568Y-116982138D01*
X122026274Y-117359678D01*
X122026177Y-117717392D01*
X121666000Y-117717392D01*
X121666000Y-116204636D01*
X121665999Y-112643920D01*
X121840704Y-112469215D01*
X125945900Y-112484855D01*
X126188484Y-112551479D01*
X126321832Y-112591329D01*
X126463525Y-112638827D01*
X126588603Y-112685474D01*
X126620284Y-112698511D01*
X126685289Y-112726288D01*
X126745219Y-112752950D01*
X126802367Y-112780573D01*
X126859025Y-112811231D01*
X126917486Y-112847002D01*
X126980044Y-112889960D01*
X127048990Y-112942181D01*
X127126619Y-113005742D01*
X127215222Y-113082719D01*
X127317093Y-113175186D01*
X127434525Y-113285220D01*
X127569810Y-113414896D01*
X127725241Y-113566291D01*
X127903111Y-113741480D01*
X128105714Y-113942539D01*
X128335342Y-114171544D01*
X128594287Y-114430570D01*
X128884843Y-114721694D01*
X129162374Y-114999939D01*
X129472029Y-115310375D01*
X129747817Y-115586721D01*
X129991726Y-115830876D01*
X130205741Y-116044738D01*
X130391848Y-116230207D01*
X130552034Y-116389180D01*
X130688285Y-116523559D01*
X130802588Y-116635240D01*
X130896929Y-116726123D01*
X130973294Y-116798108D01*
X131033670Y-116853092D01*
X131080042Y-116892975D01*
X131114398Y-116919656D01*
X131138723Y-116935034D01*
X131155003Y-116941008D01*
X131165226Y-116939476D01*
X131171378Y-116932337D01*
X131174737Y-116923757D01*
X131181271Y-116878831D01*
X131187314Y-116791167D01*
X131192562Y-116668826D01*
X131196713Y-116519871D01*
X131199463Y-116352363D01*
X131200329Y-116243100D01*
X131199249Y-115968143D01*
X131192254Y-115730989D01*
X131177897Y-115518837D01*
X131154732Y-115318886D01*
X131121311Y-115118337D01*
X131076188Y-114904388D01*
X131025044Y-114692453D01*
X130868102Y-114170952D01*
X130665965Y-113669535D01*
X130421077Y-113190648D01*
X130135883Y-112736736D01*
X129812826Y-112310245D01*
X129454351Y-111913619D01*
X129062902Y-111549305D01*
X128640923Y-111219747D01*
X128190859Y-110927392D01*
X127715154Y-110674684D01*
X127216251Y-110464068D01*
X126696596Y-110297991D01*
X126609939Y-110275270D01*
X126361567Y-110215714D01*
X126135719Y-110170314D01*
X125918581Y-110137452D01*
X125696342Y-110115507D01*
X125455189Y-110102861D01*
X125181309Y-110097894D01*
X125095000Y-110097659D01*
X124811906Y-110100663D01*
X124565263Y-110110772D01*
X124341016Y-110129634D01*
X124125111Y-110158897D01*
X123903491Y-110200208D01*
X123662102Y-110255215D01*
X123582453Y-110274955D01*
X123060952Y-110431897D01*
X122559535Y-110634034D01*
X122080648Y-110878922D01*
X121626736Y-111164116D01*
X121200245Y-111487173D01*
X120803619Y-111845648D01*
X120439305Y-112237097D01*
X120109747Y-112659076D01*
X119817392Y-113109140D01*
X119564684Y-113584845D01*
X119354068Y-114083748D01*
X119187991Y-114603403D01*
X119165270Y-114690060D01*
X119105714Y-114938432D01*
X119060314Y-115164280D01*
X119027452Y-115381418D01*
X119005507Y-115603657D01*
X118992861Y-115844810D01*
X118987894Y-116118690D01*
X118987659Y-116205000D01*
X118603553Y-116205000D01*
X118605753Y-115973071D01*
X118614127Y-115724680D01*
G37*
G36*
X124489209Y-116637175D02*
G01*
X124765080Y-116637626D01*
X124995011Y-116638865D01*
X125183858Y-116641046D01*
X125336480Y-116644319D01*
X125457731Y-116648838D01*
X125552468Y-116654754D01*
X125625549Y-116662220D01*
X125681829Y-116671389D01*
X125698736Y-116675094D01*
X125924115Y-116749826D01*
X126113406Y-116858802D01*
X126265333Y-117001061D01*
X126378621Y-117175646D01*
X126386379Y-117191841D01*
X126419377Y-117269743D01*
X126439468Y-117341725D01*
X126449631Y-117425016D01*
X126452843Y-117536842D01*
X126452900Y-117576600D01*
X126450873Y-117697489D01*
X126443400Y-117783740D01*
X126427543Y-117851454D01*
X126400366Y-117916730D01*
X126385515Y-117946059D01*
X126265843Y-118122724D01*
X126108312Y-118266318D01*
X125912316Y-118377285D01*
X125692913Y-118452126D01*
X125645705Y-118462131D01*
X125586108Y-118470339D01*
X125509143Y-118476910D01*
X125409832Y-118482005D01*
X125283197Y-118485786D01*
X125124261Y-118488412D01*
X124928046Y-118490046D01*
X124689574Y-118490847D01*
X124490223Y-118491000D01*
X123438920Y-118491000D01*
X123266200Y-118318280D01*
X123266200Y-116809520D01*
X123352559Y-116723160D01*
X123438919Y-116636800D01*
X124489209Y-116637175D01*
G37*
G36*
X124133309Y-113794538D02*
G01*
X124360017Y-113795836D01*
X124517495Y-113796994D01*
X125514100Y-113804700D01*
X125682333Y-113884410D01*
X125872430Y-113995190D01*
X126021302Y-114129748D01*
X126135246Y-114293896D01*
X126144448Y-114311176D01*
X126180792Y-114384555D01*
X126204124Y-114446391D01*
X126217326Y-114511766D01*
X126223278Y-114595764D01*
X126224860Y-114713468D01*
X126224896Y-114732398D01*
X126223984Y-114855810D01*
X126218885Y-114944123D01*
X126206611Y-115013025D01*
X126184174Y-115078203D01*
X126148587Y-115155343D01*
X126141651Y-115169482D01*
X126034722Y-115339730D01*
X125898898Y-115470285D01*
X125728059Y-115566861D01*
X125706615Y-115575756D01*
X125669779Y-115589941D01*
X125633102Y-115601600D01*
X125591313Y-115611020D01*
X125539142Y-115618490D01*
X125471319Y-115624298D01*
X125382574Y-115628732D01*
X125267638Y-115632080D01*
X125121239Y-115634629D01*
X124938109Y-115636668D01*
X124712977Y-115638485D01*
X124536200Y-115639721D01*
X124277095Y-115641304D01*
X124063851Y-115642090D01*
X123891534Y-115641922D01*
X123755209Y-115640643D01*
X123649940Y-115638098D01*
X123570793Y-115634131D01*
X123512832Y-115628586D01*
X123471125Y-115621306D01*
X123440734Y-115612137D01*
X123423631Y-115604550D01*
X123379911Y-115580667D01*
X123345128Y-115553997D01*
X123318264Y-115518805D01*
X123298298Y-115469353D01*
X123284209Y-115399904D01*
X123274979Y-115304721D01*
X123269586Y-115178068D01*
X123267012Y-115014207D01*
X123266235Y-114807401D01*
X123266200Y-114719100D01*
X123266562Y-114494690D01*
X123268356Y-114315362D01*
X123272641Y-114175400D01*
X123280475Y-114069086D01*
X123292918Y-113990704D01*
X123311029Y-113934537D01*
X123335867Y-113894868D01*
X123368491Y-113865982D01*
X123409961Y-113842160D01*
X123430526Y-113832169D01*
X123457731Y-113821264D01*
X123492115Y-113812460D01*
X123538751Y-113805591D01*
X123602713Y-113800494D01*
X123689075Y-113797004D01*
X123802913Y-113794958D01*
X123949299Y-113794191D01*
X124133309Y-113794538D01*
G37*
D13*
X316300000Y-42915000D02*
X318700000Y-42915000D01*
X316300000Y-43090000D02*
X318700000Y-43090000D01*
X316300000Y-43265000D02*
X318700000Y-43265000D01*
X318700000Y-43665000D02*
X316300000Y-43665000D01*
X316300000Y-43440000D02*
X318700000Y-43440000D01*
X316300000Y-43565000D02*
X318700000Y-43565000D01*
X316300000Y-43640000D02*
X316300000Y-37840000D01*
X316300000Y-37840000D02*
X318700000Y-37840000D01*
X318700000Y-37840000D02*
X318700000Y-43640000D01*
X316300000Y-119115000D02*
X318700000Y-119115000D01*
X316300000Y-119290000D02*
X318700000Y-119290000D01*
X316300000Y-119465000D02*
X318700000Y-119465000D01*
X318700000Y-119865000D02*
X316300000Y-119865000D01*
X316300000Y-119640000D02*
X318700000Y-119640000D01*
X316300000Y-119765000D02*
X318700000Y-119765000D01*
X316300000Y-119840000D02*
X316300000Y-114040000D01*
X316300000Y-114040000D02*
X318700000Y-114040000D01*
X318700000Y-114040000D02*
X318700000Y-119840000D01*
X298520000Y-119115000D02*
X300920000Y-119115000D01*
X298520000Y-119290000D02*
X300920000Y-119290000D01*
X298520000Y-119465000D02*
X300920000Y-119465000D01*
X300920000Y-119865000D02*
X298520000Y-119865000D01*
X298520000Y-119640000D02*
X300920000Y-119640000D01*
X298520000Y-119765000D02*
X300920000Y-119765000D01*
X298520000Y-119840000D02*
X298520000Y-114040000D01*
X298520000Y-114040000D02*
X300920000Y-114040000D01*
X300920000Y-114040000D02*
X300920000Y-119840000D01*
X278200000Y-119115000D02*
X280600000Y-119115000D01*
X278200000Y-119290000D02*
X280600000Y-119290000D01*
X278200000Y-119465000D02*
X280600000Y-119465000D01*
X280600000Y-119865000D02*
X278200000Y-119865000D01*
X278200000Y-119640000D02*
X280600000Y-119640000D01*
X278200000Y-119765000D02*
X280600000Y-119765000D01*
X278200000Y-119840000D02*
X278200000Y-114040000D01*
X278200000Y-114040000D02*
X280600000Y-114040000D01*
X280600000Y-114040000D02*
X280600000Y-119840000D01*
X247720000Y-119115000D02*
X250120000Y-119115000D01*
X247720000Y-119290000D02*
X250120000Y-119290000D01*
X247720000Y-119465000D02*
X250120000Y-119465000D01*
X250120000Y-119865000D02*
X247720000Y-119865000D01*
X247720000Y-119640000D02*
X250120000Y-119640000D01*
X247720000Y-119765000D02*
X250120000Y-119765000D01*
X247720000Y-119840000D02*
X247720000Y-114040000D01*
X247720000Y-114040000D02*
X250120000Y-114040000D01*
X250120000Y-114040000D02*
X250120000Y-119840000D01*
X224860000Y-119115000D02*
X227260000Y-119115000D01*
X224860000Y-119290000D02*
X227260000Y-119290000D01*
X224860000Y-119465000D02*
X227260000Y-119465000D01*
X227260000Y-119865000D02*
X224860000Y-119865000D01*
X224860000Y-119640000D02*
X227260000Y-119640000D01*
X224860000Y-119765000D02*
X227260000Y-119765000D01*
X224860000Y-119840000D02*
X224860000Y-114040000D01*
X224860000Y-114040000D02*
X227260000Y-114040000D01*
X227260000Y-114040000D02*
X227260000Y-119840000D01*
X153740000Y-119115000D02*
X156140000Y-119115000D01*
X153740000Y-119290000D02*
X156140000Y-119290000D01*
X153740000Y-119465000D02*
X156140000Y-119465000D01*
X156140000Y-119865000D02*
X153740000Y-119865000D01*
X153740000Y-119640000D02*
X156140000Y-119640000D01*
X153740000Y-119765000D02*
X156140000Y-119765000D01*
X153740000Y-119840000D02*
X153740000Y-114040000D01*
X153740000Y-114040000D02*
X156140000Y-114040000D01*
X156140000Y-114040000D02*
X156140000Y-119840000D01*
X82620000Y-119115000D02*
X85020000Y-119115000D01*
X82620000Y-119290000D02*
X85020000Y-119290000D01*
X82620000Y-119465000D02*
X85020000Y-119465000D01*
X85020000Y-119865000D02*
X82620000Y-119865000D01*
X82620000Y-119640000D02*
X85020000Y-119640000D01*
X82620000Y-119765000D02*
X85020000Y-119765000D01*
X82620000Y-119840000D02*
X82620000Y-114040000D01*
X82620000Y-114040000D02*
X85020000Y-114040000D01*
X85020000Y-114040000D02*
X85020000Y-119840000D01*
X57220000Y-119115000D02*
X59620000Y-119115000D01*
X57220000Y-119290000D02*
X59620000Y-119290000D01*
X57220000Y-119465000D02*
X59620000Y-119465000D01*
X59620000Y-119865000D02*
X57220000Y-119865000D01*
X57220000Y-119640000D02*
X59620000Y-119640000D01*
X57220000Y-119765000D02*
X59620000Y-119765000D01*
X57220000Y-119840000D02*
X57220000Y-114040000D01*
X57220000Y-114040000D02*
X59620000Y-114040000D01*
X59620000Y-114040000D02*
X59620000Y-119840000D01*
X34360000Y-119115000D02*
X36760000Y-119115000D01*
X34360000Y-119290000D02*
X36760000Y-119290000D01*
X34360000Y-119465000D02*
X36760000Y-119465000D01*
X36760000Y-119865000D02*
X34360000Y-119865000D01*
X34360000Y-119640000D02*
X36760000Y-119640000D01*
X34360000Y-119765000D02*
X36760000Y-119765000D01*
X34360000Y-119840000D02*
X34360000Y-114040000D01*
X34360000Y-114040000D02*
X36760000Y-114040000D01*
X36760000Y-114040000D02*
X36760000Y-119840000D01*
X316300000Y-101335000D02*
X318700000Y-101335000D01*
X316300000Y-101510000D02*
X318700000Y-101510000D01*
X316300000Y-101685000D02*
X318700000Y-101685000D01*
X318700000Y-102085000D02*
X316300000Y-102085000D01*
X316300000Y-101860000D02*
X318700000Y-101860000D01*
X316300000Y-101985000D02*
X318700000Y-101985000D01*
X316300000Y-102060000D02*
X316300000Y-96260000D01*
X316300000Y-96260000D02*
X318700000Y-96260000D01*
X318700000Y-96260000D02*
X318700000Y-102060000D01*
X295980000Y-101335000D02*
X298380000Y-101335000D01*
X295980000Y-101510000D02*
X298380000Y-101510000D01*
X295980000Y-101685000D02*
X298380000Y-101685000D01*
X298380000Y-102085000D02*
X295980000Y-102085000D01*
X295980000Y-101860000D02*
X298380000Y-101860000D01*
X295980000Y-101985000D02*
X298380000Y-101985000D01*
X295980000Y-102060000D02*
X295980000Y-96260000D01*
X295980000Y-96260000D02*
X298380000Y-96260000D01*
X298380000Y-96260000D02*
X298380000Y-102060000D01*
X273120000Y-101335000D02*
X275520000Y-101335000D01*
X273120000Y-101510000D02*
X275520000Y-101510000D01*
X273120000Y-101685000D02*
X275520000Y-101685000D01*
X275520000Y-102085000D02*
X273120000Y-102085000D01*
X273120000Y-101860000D02*
X275520000Y-101860000D01*
X273120000Y-101985000D02*
X275520000Y-101985000D01*
X273120000Y-102060000D02*
X273120000Y-96260000D01*
X273120000Y-96260000D02*
X275520000Y-96260000D01*
X275520000Y-96260000D02*
X275520000Y-102060000D01*
X245180000Y-101335000D02*
X247580000Y-101335000D01*
X245180000Y-101510000D02*
X247580000Y-101510000D01*
X245180000Y-101685000D02*
X247580000Y-101685000D01*
X247580000Y-102085000D02*
X245180000Y-102085000D01*
X245180000Y-101860000D02*
X247580000Y-101860000D01*
X245180000Y-101985000D02*
X247580000Y-101985000D01*
X245180000Y-102060000D02*
X245180000Y-96260000D01*
X245180000Y-96260000D02*
X247580000Y-96260000D01*
X247580000Y-96260000D02*
X247580000Y-102060000D01*
X227400000Y-101335000D02*
X229800000Y-101335000D01*
X227400000Y-101510000D02*
X229800000Y-101510000D01*
X227400000Y-101685000D02*
X229800000Y-101685000D01*
X229800000Y-102085000D02*
X227400000Y-102085000D01*
X227400000Y-101860000D02*
X229800000Y-101860000D01*
X227400000Y-101985000D02*
X229800000Y-101985000D01*
X227400000Y-102060000D02*
X227400000Y-96260000D01*
X227400000Y-96260000D02*
X229800000Y-96260000D01*
X229800000Y-96260000D02*
X229800000Y-102060000D01*
X207080000Y-101335000D02*
X209480000Y-101335000D01*
X207080000Y-101510000D02*
X209480000Y-101510000D01*
X207080000Y-101685000D02*
X209480000Y-101685000D01*
X209480000Y-102085000D02*
X207080000Y-102085000D01*
X207080000Y-101860000D02*
X209480000Y-101860000D01*
X207080000Y-101985000D02*
X209480000Y-101985000D01*
X207080000Y-102060000D02*
X207080000Y-96260000D01*
X207080000Y-96260000D02*
X209480000Y-96260000D01*
X209480000Y-96260000D02*
X209480000Y-102060000D01*
X189300000Y-100370000D02*
X191700000Y-100370000D01*
X189300000Y-100545000D02*
X191700000Y-100545000D01*
X189300000Y-100720000D02*
X191700000Y-100720000D01*
X191700000Y-101120000D02*
X189300000Y-101120000D01*
X189300000Y-100895000D02*
X191700000Y-100895000D01*
X189300000Y-101020000D02*
X191700000Y-101020000D01*
X189300000Y-101095000D02*
X189300000Y-95295000D01*
X189300000Y-95295000D02*
X191700000Y-95295000D01*
X191700000Y-95295000D02*
X191700000Y-101095000D01*
X168980000Y-100370000D02*
X171380000Y-100370000D01*
X168980000Y-100545000D02*
X171380000Y-100545000D01*
X168980000Y-100720000D02*
X171380000Y-100720000D01*
X171380000Y-101120000D02*
X168980000Y-101120000D01*
X168980000Y-100895000D02*
X171380000Y-100895000D01*
X168980000Y-101020000D02*
X171380000Y-101020000D01*
X168980000Y-101095000D02*
X168980000Y-95295000D01*
X168980000Y-95295000D02*
X171380000Y-95295000D01*
X171380000Y-95295000D02*
X171380000Y-101095000D01*
X151200000Y-100370000D02*
X153600000Y-100370000D01*
X151200000Y-100545000D02*
X153600000Y-100545000D01*
X151200000Y-100720000D02*
X153600000Y-100720000D01*
X153600000Y-101120000D02*
X151200000Y-101120000D01*
X151200000Y-100895000D02*
X153600000Y-100895000D01*
X151200000Y-101020000D02*
X153600000Y-101020000D01*
X151200000Y-101095000D02*
X151200000Y-95295000D01*
X151200000Y-95295000D02*
X153600000Y-95295000D01*
X153600000Y-95295000D02*
X153600000Y-101095000D01*
X130880000Y-101335000D02*
X133280000Y-101335000D01*
X130880000Y-101510000D02*
X133280000Y-101510000D01*
X130880000Y-101685000D02*
X133280000Y-101685000D01*
X133280000Y-102085000D02*
X130880000Y-102085000D01*
X130880000Y-101860000D02*
X133280000Y-101860000D01*
X130880000Y-101985000D02*
X133280000Y-101985000D01*
X130880000Y-102060000D02*
X130880000Y-96260000D01*
X130880000Y-96260000D02*
X133280000Y-96260000D01*
X133280000Y-96260000D02*
X133280000Y-102060000D01*
X113100000Y-101335000D02*
X115500000Y-101335000D01*
X113100000Y-101510000D02*
X115500000Y-101510000D01*
X113100000Y-101685000D02*
X115500000Y-101685000D01*
X115500000Y-102085000D02*
X113100000Y-102085000D01*
X113100000Y-101860000D02*
X115500000Y-101860000D01*
X113100000Y-101985000D02*
X115500000Y-101985000D01*
X113100000Y-102060000D02*
X113100000Y-96260000D01*
X113100000Y-96260000D02*
X115500000Y-96260000D01*
X115500000Y-96260000D02*
X115500000Y-102060000D01*
X92780000Y-101335000D02*
X95180000Y-101335000D01*
X92780000Y-101510000D02*
X95180000Y-101510000D01*
X92780000Y-101685000D02*
X95180000Y-101685000D01*
X95180000Y-102085000D02*
X92780000Y-102085000D01*
X92780000Y-101860000D02*
X95180000Y-101860000D01*
X92780000Y-101985000D02*
X95180000Y-101985000D01*
X92780000Y-102060000D02*
X92780000Y-96260000D01*
X92780000Y-96260000D02*
X95180000Y-96260000D01*
X95180000Y-96260000D02*
X95180000Y-102060000D01*
X75000000Y-101335000D02*
X77400000Y-101335000D01*
X75000000Y-101510000D02*
X77400000Y-101510000D01*
X75000000Y-101685000D02*
X77400000Y-101685000D01*
X77400000Y-102085000D02*
X75000000Y-102085000D01*
X75000000Y-101860000D02*
X77400000Y-101860000D01*
X75000000Y-101985000D02*
X77400000Y-101985000D01*
X75000000Y-102060000D02*
X75000000Y-96260000D01*
X75000000Y-96260000D02*
X77400000Y-96260000D01*
X77400000Y-96260000D02*
X77400000Y-102060000D01*
X44520000Y-101335000D02*
X46920000Y-101335000D01*
X44520000Y-101510000D02*
X46920000Y-101510000D01*
X44520000Y-101685000D02*
X46920000Y-101685000D01*
X46920000Y-102085000D02*
X44520000Y-102085000D01*
X44520000Y-101860000D02*
X46920000Y-101860000D01*
X44520000Y-101985000D02*
X46920000Y-101985000D01*
X44520000Y-102060000D02*
X44520000Y-96260000D01*
X44520000Y-96260000D02*
X46920000Y-96260000D01*
X46920000Y-96260000D02*
X46920000Y-102060000D01*
X316300000Y-81015000D02*
X318700000Y-81015000D01*
X316300000Y-81190000D02*
X318700000Y-81190000D01*
X316300000Y-81365000D02*
X318700000Y-81365000D01*
X318700000Y-81765000D02*
X316300000Y-81765000D01*
X316300000Y-81540000D02*
X318700000Y-81540000D01*
X316300000Y-81665000D02*
X318700000Y-81665000D01*
X316300000Y-81740000D02*
X316300000Y-75940000D01*
X316300000Y-75940000D02*
X318700000Y-75940000D01*
X318700000Y-75940000D02*
X318700000Y-81740000D01*
X285820000Y-81015000D02*
X288220000Y-81015000D01*
X285820000Y-81190000D02*
X288220000Y-81190000D01*
X285820000Y-81365000D02*
X288220000Y-81365000D01*
X288220000Y-81765000D02*
X285820000Y-81765000D01*
X285820000Y-81540000D02*
X288220000Y-81540000D01*
X285820000Y-81665000D02*
X288220000Y-81665000D01*
X285820000Y-81740000D02*
X285820000Y-75940000D01*
X285820000Y-75940000D02*
X288220000Y-75940000D01*
X288220000Y-75940000D02*
X288220000Y-81740000D01*
X255340000Y-81015000D02*
X257740000Y-81015000D01*
X255340000Y-81190000D02*
X257740000Y-81190000D01*
X255340000Y-81365000D02*
X257740000Y-81365000D01*
X257740000Y-81765000D02*
X255340000Y-81765000D01*
X255340000Y-81540000D02*
X257740000Y-81540000D01*
X255340000Y-81665000D02*
X257740000Y-81665000D01*
X255340000Y-81740000D02*
X255340000Y-75940000D01*
X255340000Y-75940000D02*
X257740000Y-75940000D01*
X257740000Y-75940000D02*
X257740000Y-81740000D01*
X235020000Y-81015000D02*
X237420000Y-81015000D01*
X235020000Y-81190000D02*
X237420000Y-81190000D01*
X235020000Y-81365000D02*
X237420000Y-81365000D01*
X237420000Y-81765000D02*
X235020000Y-81765000D01*
X235020000Y-81540000D02*
X237420000Y-81540000D01*
X235020000Y-81665000D02*
X237420000Y-81665000D01*
X235020000Y-81740000D02*
X235020000Y-75940000D01*
X235020000Y-75940000D02*
X237420000Y-75940000D01*
X237420000Y-75940000D02*
X237420000Y-81740000D01*
X217240000Y-81015000D02*
X219640000Y-81015000D01*
X217240000Y-81190000D02*
X219640000Y-81190000D01*
X217240000Y-81365000D02*
X219640000Y-81365000D01*
X219640000Y-81765000D02*
X217240000Y-81765000D01*
X217240000Y-81540000D02*
X219640000Y-81540000D01*
X217240000Y-81665000D02*
X219640000Y-81665000D01*
X217240000Y-81740000D02*
X217240000Y-75940000D01*
X217240000Y-75940000D02*
X219640000Y-75940000D01*
X219640000Y-75940000D02*
X219640000Y-81740000D01*
X196920000Y-81015000D02*
X199320000Y-81015000D01*
X196920000Y-81190000D02*
X199320000Y-81190000D01*
X196920000Y-81365000D02*
X199320000Y-81365000D01*
X199320000Y-81765000D02*
X196920000Y-81765000D01*
X196920000Y-81540000D02*
X199320000Y-81540000D01*
X196920000Y-81665000D02*
X199320000Y-81665000D01*
X196920000Y-81740000D02*
X196920000Y-75940000D01*
X196920000Y-75940000D02*
X199320000Y-75940000D01*
X199320000Y-75940000D02*
X199320000Y-81740000D01*
X179140000Y-81015000D02*
X181540000Y-81015000D01*
X179140000Y-81190000D02*
X181540000Y-81190000D01*
X179140000Y-81365000D02*
X181540000Y-81365000D01*
X181540000Y-81765000D02*
X179140000Y-81765000D01*
X179140000Y-81540000D02*
X181540000Y-81540000D01*
X179140000Y-81665000D02*
X181540000Y-81665000D01*
X179140000Y-81740000D02*
X179140000Y-75940000D01*
X179140000Y-75940000D02*
X181540000Y-75940000D01*
X181540000Y-75940000D02*
X181540000Y-81740000D01*
X158820000Y-81015000D02*
X161220000Y-81015000D01*
X158820000Y-81190000D02*
X161220000Y-81190000D01*
X158820000Y-81365000D02*
X161220000Y-81365000D01*
X161220000Y-81765000D02*
X158820000Y-81765000D01*
X158820000Y-81540000D02*
X161220000Y-81540000D01*
X158820000Y-81665000D02*
X161220000Y-81665000D01*
X158820000Y-81740000D02*
X158820000Y-75940000D01*
X158820000Y-75940000D02*
X161220000Y-75940000D01*
X161220000Y-75940000D02*
X161220000Y-81740000D01*
X141040000Y-81015000D02*
X143440000Y-81015000D01*
X141040000Y-81190000D02*
X143440000Y-81190000D01*
X141040000Y-81365000D02*
X143440000Y-81365000D01*
X143440000Y-81765000D02*
X141040000Y-81765000D01*
X141040000Y-81540000D02*
X143440000Y-81540000D01*
X141040000Y-81665000D02*
X143440000Y-81665000D01*
X141040000Y-81740000D02*
X141040000Y-75940000D01*
X141040000Y-75940000D02*
X143440000Y-75940000D01*
X143440000Y-75940000D02*
X143440000Y-81740000D01*
X120720000Y-81015000D02*
X123120000Y-81015000D01*
X120720000Y-81190000D02*
X123120000Y-81190000D01*
X120720000Y-81365000D02*
X123120000Y-81365000D01*
X123120000Y-81765000D02*
X120720000Y-81765000D01*
X120720000Y-81540000D02*
X123120000Y-81540000D01*
X120720000Y-81665000D02*
X123120000Y-81665000D01*
X120720000Y-81740000D02*
X120720000Y-75940000D01*
X120720000Y-75940000D02*
X123120000Y-75940000D01*
X123120000Y-75940000D02*
X123120000Y-81740000D01*
X102940000Y-81115500D02*
X105340000Y-81115500D01*
X102940000Y-81290500D02*
X105340000Y-81290500D01*
X102940000Y-81465500D02*
X105340000Y-81465500D01*
X105340000Y-81865500D02*
X102940000Y-81865500D01*
X102940000Y-81640500D02*
X105340000Y-81640500D01*
X102940000Y-81765500D02*
X105340000Y-81765500D01*
X102940000Y-81840500D02*
X102940000Y-76040500D01*
X102940000Y-76040500D02*
X105340000Y-76040500D01*
X105340000Y-76040500D02*
X105340000Y-81840500D01*
X82620000Y-81015000D02*
X85020000Y-81015000D01*
X82620000Y-81190000D02*
X85020000Y-81190000D01*
X82620000Y-81365000D02*
X85020000Y-81365000D01*
X85020000Y-81765000D02*
X82620000Y-81765000D01*
X82620000Y-81540000D02*
X85020000Y-81540000D01*
X82620000Y-81665000D02*
X85020000Y-81665000D01*
X82620000Y-81740000D02*
X82620000Y-75940000D01*
X82620000Y-75940000D02*
X85020000Y-75940000D01*
X85020000Y-75940000D02*
X85020000Y-81740000D01*
X64840000Y-81015000D02*
X67240000Y-81015000D01*
X64840000Y-81190000D02*
X67240000Y-81190000D01*
X64840000Y-81365000D02*
X67240000Y-81365000D01*
X67240000Y-81765000D02*
X64840000Y-81765000D01*
X64840000Y-81540000D02*
X67240000Y-81540000D01*
X64840000Y-81665000D02*
X67240000Y-81665000D01*
X64840000Y-81740000D02*
X64840000Y-75940000D01*
X64840000Y-75940000D02*
X67240000Y-75940000D01*
X67240000Y-75940000D02*
X67240000Y-81740000D01*
X39440000Y-81015000D02*
X41840000Y-81015000D01*
X39440000Y-81190000D02*
X41840000Y-81190000D01*
X39440000Y-81365000D02*
X41840000Y-81365000D01*
X41840000Y-81765000D02*
X39440000Y-81765000D01*
X39440000Y-81540000D02*
X41840000Y-81540000D01*
X39440000Y-81665000D02*
X41840000Y-81665000D01*
X39440000Y-81740000D02*
X39440000Y-75940000D01*
X39440000Y-75940000D02*
X41840000Y-75940000D01*
X41840000Y-75940000D02*
X41840000Y-81740000D01*
X316300000Y-63235000D02*
X318700000Y-63235000D01*
X316300000Y-63410000D02*
X318700000Y-63410000D01*
X316300000Y-63585000D02*
X318700000Y-63585000D01*
X318700000Y-63985000D02*
X316300000Y-63985000D01*
X316300000Y-63760000D02*
X318700000Y-63760000D01*
X316300000Y-63885000D02*
X318700000Y-63885000D01*
X316300000Y-63960000D02*
X316300000Y-58160000D01*
X316300000Y-58160000D02*
X318700000Y-58160000D01*
X318700000Y-58160000D02*
X318700000Y-63960000D01*
X293440000Y-63235000D02*
X295840000Y-63235000D01*
X293440000Y-63410000D02*
X295840000Y-63410000D01*
X293440000Y-63585000D02*
X295840000Y-63585000D01*
X295840000Y-63985000D02*
X293440000Y-63985000D01*
X293440000Y-63760000D02*
X295840000Y-63760000D01*
X293440000Y-63885000D02*
X295840000Y-63885000D01*
X293440000Y-63960000D02*
X293440000Y-58160000D01*
X293440000Y-58160000D02*
X295840000Y-58160000D01*
X295840000Y-58160000D02*
X295840000Y-63960000D01*
X270580000Y-64200000D02*
X272980000Y-64200000D01*
X270580000Y-64375000D02*
X272980000Y-64375000D01*
X270580000Y-64550000D02*
X272980000Y-64550000D01*
X272980000Y-64950000D02*
X270580000Y-64950000D01*
X270580000Y-64725000D02*
X272980000Y-64725000D01*
X270580000Y-64850000D02*
X272980000Y-64850000D01*
X270580000Y-64925000D02*
X270580000Y-59125000D01*
X270580000Y-59125000D02*
X272980000Y-59125000D01*
X272980000Y-59125000D02*
X272980000Y-64925000D01*
X250260000Y-63235000D02*
X252660000Y-63235000D01*
X250260000Y-63410000D02*
X252660000Y-63410000D01*
X250260000Y-63585000D02*
X252660000Y-63585000D01*
X252660000Y-63985000D02*
X250260000Y-63985000D01*
X250260000Y-63760000D02*
X252660000Y-63760000D01*
X250260000Y-63885000D02*
X252660000Y-63885000D01*
X250260000Y-63960000D02*
X250260000Y-58160000D01*
X250260000Y-58160000D02*
X252660000Y-58160000D01*
X252660000Y-58160000D02*
X252660000Y-63960000D01*
X232340000Y-58160000D02*
X232340000Y-63960000D01*
X229940000Y-58160000D02*
X232340000Y-58160000D01*
X229940000Y-63960000D02*
X229940000Y-58160000D01*
X229940000Y-63885000D02*
X232340000Y-63885000D01*
X229940000Y-63760000D02*
X232340000Y-63760000D01*
X232340000Y-63985000D02*
X229940000Y-63985000D01*
X229940000Y-63585000D02*
X232340000Y-63585000D01*
X229940000Y-63410000D02*
X232340000Y-63410000D01*
X229940000Y-63235000D02*
X232340000Y-63235000D01*
X212160000Y-63235000D02*
X214560000Y-63235000D01*
X212160000Y-63410000D02*
X214560000Y-63410000D01*
X212160000Y-63585000D02*
X214560000Y-63585000D01*
X214560000Y-63985000D02*
X212160000Y-63985000D01*
X212160000Y-63760000D02*
X214560000Y-63760000D01*
X212160000Y-63885000D02*
X214560000Y-63885000D01*
X212160000Y-63960000D02*
X212160000Y-58160000D01*
X212160000Y-58160000D02*
X214560000Y-58160000D01*
X214560000Y-58160000D02*
X214560000Y-63960000D01*
X194380000Y-63235000D02*
X196780000Y-63235000D01*
X194380000Y-63410000D02*
X196780000Y-63410000D01*
X194380000Y-63585000D02*
X196780000Y-63585000D01*
X196780000Y-63985000D02*
X194380000Y-63985000D01*
X194380000Y-63760000D02*
X196780000Y-63760000D01*
X194380000Y-63885000D02*
X196780000Y-63885000D01*
X194380000Y-63960000D02*
X194380000Y-58160000D01*
X194380000Y-58160000D02*
X196780000Y-58160000D01*
X196780000Y-58160000D02*
X196780000Y-63960000D01*
X174060000Y-63235000D02*
X176460000Y-63235000D01*
X174060000Y-63410000D02*
X176460000Y-63410000D01*
X174060000Y-63585000D02*
X176460000Y-63585000D01*
X176460000Y-63985000D02*
X174060000Y-63985000D01*
X174060000Y-63760000D02*
X176460000Y-63760000D01*
X174060000Y-63885000D02*
X176460000Y-63885000D01*
X174060000Y-63960000D02*
X174060000Y-58160000D01*
X174060000Y-58160000D02*
X176460000Y-58160000D01*
X176460000Y-58160000D02*
X176460000Y-63960000D01*
X156280000Y-63235000D02*
X158680000Y-63235000D01*
X156280000Y-63410000D02*
X158680000Y-63410000D01*
X156280000Y-63585000D02*
X158680000Y-63585000D01*
X158680000Y-63985000D02*
X156280000Y-63985000D01*
X156280000Y-63760000D02*
X158680000Y-63760000D01*
X156280000Y-63885000D02*
X158680000Y-63885000D01*
X156280000Y-63960000D02*
X156280000Y-58160000D01*
X156280000Y-58160000D02*
X158680000Y-58160000D01*
X158680000Y-58160000D02*
X158680000Y-63960000D01*
X135960000Y-63235000D02*
X138360000Y-63235000D01*
X135960000Y-63410000D02*
X138360000Y-63410000D01*
X135960000Y-63585000D02*
X138360000Y-63585000D01*
X138360000Y-63985000D02*
X135960000Y-63985000D01*
X135960000Y-63760000D02*
X138360000Y-63760000D01*
X135960000Y-63885000D02*
X138360000Y-63885000D01*
X135960000Y-63960000D02*
X135960000Y-58160000D01*
X135960000Y-58160000D02*
X138360000Y-58160000D01*
X138360000Y-58160000D02*
X138360000Y-63960000D01*
X120580000Y-58160000D02*
X120580000Y-63960000D01*
X118180000Y-58160000D02*
X120580000Y-58160000D01*
X118180000Y-63960000D02*
X118180000Y-58160000D01*
X118180000Y-63885000D02*
X120580000Y-63885000D01*
X118180000Y-63760000D02*
X120580000Y-63760000D01*
X120580000Y-63985000D02*
X118180000Y-63985000D01*
X118180000Y-63585000D02*
X120580000Y-63585000D01*
X118180000Y-63410000D02*
X120580000Y-63410000D01*
X118180000Y-63235000D02*
X120580000Y-63235000D01*
X97860000Y-63235000D02*
X100260000Y-63235000D01*
X97860000Y-63410000D02*
X100260000Y-63410000D01*
X97860000Y-63585000D02*
X100260000Y-63585000D01*
X100260000Y-63985000D02*
X97860000Y-63985000D01*
X97860000Y-63760000D02*
X100260000Y-63760000D01*
X97860000Y-63885000D02*
X100260000Y-63885000D01*
X97860000Y-63960000D02*
X97860000Y-58160000D01*
X97860000Y-58160000D02*
X100260000Y-58160000D01*
X100260000Y-58160000D02*
X100260000Y-63960000D01*
X80080000Y-63640500D02*
X82480000Y-63640500D01*
X80080000Y-63815500D02*
X82480000Y-63815500D01*
X80080000Y-63990500D02*
X82480000Y-63990500D01*
X82480000Y-64390500D02*
X80080000Y-64390500D01*
X80080000Y-64165500D02*
X82480000Y-64165500D01*
X80080000Y-64290500D02*
X82480000Y-64290500D01*
X80080000Y-64365500D02*
X80080000Y-58565500D01*
X80080000Y-58565500D02*
X82480000Y-58565500D01*
X82480000Y-58565500D02*
X82480000Y-64365500D01*
X59760000Y-63235000D02*
X62160000Y-63235000D01*
X59760000Y-63410000D02*
X62160000Y-63410000D01*
X59760000Y-63585000D02*
X62160000Y-63585000D01*
X62160000Y-63985000D02*
X59760000Y-63985000D01*
X59760000Y-63760000D02*
X62160000Y-63760000D01*
X59760000Y-63885000D02*
X62160000Y-63885000D01*
X59760000Y-63960000D02*
X59760000Y-58160000D01*
X59760000Y-58160000D02*
X62160000Y-58160000D01*
X62160000Y-58160000D02*
X62160000Y-63960000D01*
X36900000Y-63235000D02*
X39300000Y-63235000D01*
X36900000Y-63410000D02*
X39300000Y-63410000D01*
X36900000Y-63585000D02*
X39300000Y-63585000D01*
X39300000Y-63985000D02*
X36900000Y-63985000D01*
X36900000Y-63760000D02*
X39300000Y-63760000D01*
X36900000Y-63885000D02*
X39300000Y-63885000D01*
X36900000Y-63960000D02*
X36900000Y-58160000D01*
X36900000Y-58160000D02*
X39300000Y-58160000D01*
X39300000Y-58160000D02*
X39300000Y-63960000D01*
X288360000Y-42915000D02*
X290760000Y-42915000D01*
X288360000Y-43090000D02*
X290760000Y-43090000D01*
X288360000Y-43265000D02*
X290760000Y-43265000D01*
X290760000Y-43665000D02*
X288360000Y-43665000D01*
X288360000Y-43440000D02*
X290760000Y-43440000D01*
X288360000Y-43565000D02*
X290760000Y-43565000D01*
X288360000Y-43640000D02*
X288360000Y-37840000D01*
X288360000Y-37840000D02*
X290760000Y-37840000D01*
X290760000Y-37840000D02*
X290760000Y-43640000D01*
X260420000Y-42915000D02*
X262820000Y-42915000D01*
X260420000Y-43090000D02*
X262820000Y-43090000D01*
X260420000Y-43265000D02*
X262820000Y-43265000D01*
X262820000Y-43665000D02*
X260420000Y-43665000D01*
X260420000Y-43440000D02*
X262820000Y-43440000D01*
X260420000Y-43565000D02*
X262820000Y-43565000D01*
X260420000Y-43640000D02*
X260420000Y-37840000D01*
X260420000Y-37840000D02*
X262820000Y-37840000D01*
X262820000Y-37840000D02*
X262820000Y-43640000D01*
X240100000Y-42915000D02*
X242500000Y-42915000D01*
X240100000Y-43090000D02*
X242500000Y-43090000D01*
X240100000Y-43265000D02*
X242500000Y-43265000D01*
X242500000Y-43665000D02*
X240100000Y-43665000D01*
X240100000Y-43440000D02*
X242500000Y-43440000D01*
X240100000Y-43565000D02*
X242500000Y-43565000D01*
X240100000Y-43640000D02*
X240100000Y-37840000D01*
X240100000Y-37840000D02*
X242500000Y-37840000D01*
X242500000Y-37840000D02*
X242500000Y-43640000D01*
X222320000Y-42915000D02*
X224720000Y-42915000D01*
X222320000Y-43090000D02*
X224720000Y-43090000D01*
X222320000Y-43265000D02*
X224720000Y-43265000D01*
X224720000Y-43665000D02*
X222320000Y-43665000D01*
X222320000Y-43440000D02*
X224720000Y-43440000D01*
X222320000Y-43565000D02*
X224720000Y-43565000D01*
X222320000Y-43640000D02*
X222320000Y-37840000D01*
X222320000Y-37840000D02*
X224720000Y-37840000D01*
X224720000Y-37840000D02*
X224720000Y-43640000D01*
X202000000Y-42915000D02*
X204400000Y-42915000D01*
X202000000Y-43090000D02*
X204400000Y-43090000D01*
X202000000Y-43265000D02*
X204400000Y-43265000D01*
X204400000Y-43665000D02*
X202000000Y-43665000D01*
X202000000Y-43440000D02*
X204400000Y-43440000D01*
X202000000Y-43565000D02*
X204400000Y-43565000D01*
X202000000Y-43640000D02*
X202000000Y-37840000D01*
X202000000Y-37840000D02*
X204400000Y-37840000D01*
X204400000Y-37840000D02*
X204400000Y-43640000D01*
X184220000Y-42915000D02*
X186620000Y-42915000D01*
X184220000Y-43090000D02*
X186620000Y-43090000D01*
X184220000Y-43265000D02*
X186620000Y-43265000D01*
X186620000Y-43665000D02*
X184220000Y-43665000D01*
X184220000Y-43440000D02*
X186620000Y-43440000D01*
X184220000Y-43565000D02*
X186620000Y-43565000D01*
X184220000Y-43640000D02*
X184220000Y-37840000D01*
X184220000Y-37840000D02*
X186620000Y-37840000D01*
X186620000Y-37840000D02*
X186620000Y-43640000D01*
X163900000Y-42915000D02*
X166300000Y-42915000D01*
X163900000Y-43090000D02*
X166300000Y-43090000D01*
X163900000Y-43265000D02*
X166300000Y-43265000D01*
X166300000Y-43665000D02*
X163900000Y-43665000D01*
X163900000Y-43440000D02*
X166300000Y-43440000D01*
X163900000Y-43565000D02*
X166300000Y-43565000D01*
X163900000Y-43640000D02*
X163900000Y-37840000D01*
X163900000Y-37840000D02*
X166300000Y-37840000D01*
X166300000Y-37840000D02*
X166300000Y-43640000D01*
X146120000Y-42915000D02*
X148520000Y-42915000D01*
X146120000Y-43090000D02*
X148520000Y-43090000D01*
X146120000Y-43265000D02*
X148520000Y-43265000D01*
X148520000Y-43665000D02*
X146120000Y-43665000D01*
X146120000Y-43440000D02*
X148520000Y-43440000D01*
X146120000Y-43565000D02*
X148520000Y-43565000D01*
X146120000Y-43640000D02*
X146120000Y-37840000D01*
X146120000Y-37840000D02*
X148520000Y-37840000D01*
X148520000Y-37840000D02*
X148520000Y-43640000D01*
X125800000Y-42915000D02*
X128200000Y-42915000D01*
X125800000Y-43090000D02*
X128200000Y-43090000D01*
X125800000Y-43265000D02*
X128200000Y-43265000D01*
X128200000Y-43665000D02*
X125800000Y-43665000D01*
X125800000Y-43440000D02*
X128200000Y-43440000D01*
X125800000Y-43565000D02*
X128200000Y-43565000D01*
X125800000Y-43640000D02*
X125800000Y-37840000D01*
X125800000Y-37840000D02*
X128200000Y-37840000D01*
X128200000Y-37840000D02*
X128200000Y-43640000D01*
X108020000Y-42915000D02*
X110420000Y-42915000D01*
X108020000Y-43090000D02*
X110420000Y-43090000D01*
X108020000Y-43265000D02*
X110420000Y-43265000D01*
X110420000Y-43665000D02*
X108020000Y-43665000D01*
X108020000Y-43440000D02*
X110420000Y-43440000D01*
X108020000Y-43565000D02*
X110420000Y-43565000D01*
X108020000Y-43640000D02*
X108020000Y-37840000D01*
X108020000Y-37840000D02*
X110420000Y-37840000D01*
X110420000Y-37840000D02*
X110420000Y-43640000D01*
X87700000Y-42915000D02*
X90100000Y-42915000D01*
X87700000Y-43090000D02*
X90100000Y-43090000D01*
X87700000Y-43265000D02*
X90100000Y-43265000D01*
X90100000Y-43665000D02*
X87700000Y-43665000D01*
X87700000Y-43440000D02*
X90100000Y-43440000D01*
X87700000Y-43565000D02*
X90100000Y-43565000D01*
X87700000Y-43640000D02*
X87700000Y-37840000D01*
X87700000Y-37840000D02*
X90100000Y-37840000D01*
X90100000Y-37840000D02*
X90100000Y-43640000D01*
X69920000Y-42915000D02*
X72320000Y-42915000D01*
X69920000Y-43090000D02*
X72320000Y-43090000D01*
X69920000Y-43265000D02*
X72320000Y-43265000D01*
X72320000Y-43665000D02*
X69920000Y-43665000D01*
X69920000Y-43440000D02*
X72320000Y-43440000D01*
X69920000Y-43565000D02*
X72320000Y-43565000D01*
X69920000Y-43640000D02*
X69920000Y-37840000D01*
X69920000Y-37840000D02*
X72320000Y-37840000D01*
X72320000Y-37840000D02*
X72320000Y-43640000D01*
X49600000Y-42915000D02*
X52000000Y-42915000D01*
X49600000Y-43090000D02*
X52000000Y-43090000D01*
X49600000Y-43265000D02*
X52000000Y-43265000D01*
X52000000Y-43665000D02*
X49600000Y-43665000D01*
X49600000Y-43440000D02*
X52000000Y-43440000D01*
X49600000Y-43565000D02*
X52000000Y-43565000D01*
X49600000Y-43640000D02*
X49600000Y-37840000D01*
X49600000Y-37840000D02*
X52000000Y-37840000D01*
X52000000Y-37840000D02*
X52000000Y-43640000D01*
X31820000Y-42915000D02*
X34220000Y-42915000D01*
X31820000Y-43090000D02*
X34220000Y-43090000D01*
X31820000Y-43265000D02*
X34220000Y-43265000D01*
X34220000Y-43665000D02*
X31820000Y-43665000D01*
X31820000Y-43440000D02*
X34220000Y-43440000D01*
X31820000Y-43565000D02*
X34220000Y-43565000D01*
X31820000Y-43640000D02*
X31820000Y-37840000D01*
X31820000Y-37840000D02*
X34220000Y-37840000D01*
X34220000Y-37840000D02*
X34220000Y-43640000D01*
D14*
X175260000Y-128270000D02*
X175260000Y-110490000D01*
D15*
X203200000Y-125730000D02*
X202500000Y-127380000D01*
D14*
X175260000Y-110490000D02*
X208280000Y-110490000D01*
X205740000Y-125730000D02*
X205740000Y-128270000D01*
X208280000Y-128270000D02*
X175260000Y-128270000D01*
X208280000Y-110490000D02*
X208280000Y-128270000D01*
D15*
X205500000Y-125380000D02*
X202500000Y-125380000D01*
D11*
X199850970Y-113535365D02*
X199750970Y-113535365D01*
X199750970Y-113535365D02*
X199750970Y-113035365D01*
X199750970Y-113035365D02*
X199850970Y-113035365D01*
X199850970Y-113035365D02*
X199850970Y-113535365D01*
G36*
X199850970Y-113535365D02*
G01*
X199750970Y-113535365D01*
X199750970Y-113035365D01*
X199850970Y-113035365D01*
X199850970Y-113535365D01*
G37*
X199850970Y-113535365D02*
X199750970Y-113535365D01*
X199750970Y-113035365D01*
X199850970Y-113035365D01*
X199850970Y-113535365D01*
X199850970Y-113535365D02*
X199550970Y-113535365D01*
X199550970Y-113535365D02*
X199550970Y-113435365D01*
X199550970Y-113435365D02*
X199850970Y-113435365D01*
X199850970Y-113435365D02*
X199850970Y-113535365D01*
G36*
X199850970Y-113535365D02*
G01*
X199550970Y-113535365D01*
X199550970Y-113435365D01*
X199850970Y-113435365D01*
X199850970Y-113535365D01*
G37*
X199850970Y-113535365D02*
X199550970Y-113535365D01*
X199550970Y-113435365D01*
X199850970Y-113435365D01*
X199850970Y-113535365D01*
X199850970Y-113135365D02*
X199050970Y-113135365D01*
X199050970Y-113135365D02*
X199050970Y-113035365D01*
X199050970Y-113035365D02*
X199850970Y-113035365D01*
X199850970Y-113035365D02*
X199850970Y-113135365D01*
G36*
X199850970Y-113135365D02*
G01*
X199050970Y-113135365D01*
X199050970Y-113035365D01*
X199850970Y-113035365D01*
X199850970Y-113135365D01*
G37*
X199850970Y-113135365D02*
X199050970Y-113135365D01*
X199050970Y-113035365D01*
X199850970Y-113035365D01*
X199850970Y-113135365D01*
X199250970Y-113535365D02*
X199050970Y-113535365D01*
X199050970Y-113535365D02*
X199050970Y-113435365D01*
X199050970Y-113435365D02*
X199250970Y-113435365D01*
X199250970Y-113435365D02*
X199250970Y-113535365D01*
G36*
X199250970Y-113535365D02*
G01*
X199050970Y-113535365D01*
X199050970Y-113435365D01*
X199250970Y-113435365D01*
X199250970Y-113535365D01*
G37*
X199250970Y-113535365D02*
X199050970Y-113535365D01*
X199050970Y-113435365D01*
X199250970Y-113435365D01*
X199250970Y-113535365D01*
X199450970Y-113335365D02*
X199350970Y-113335365D01*
X199350970Y-113335365D02*
X199350970Y-113235365D01*
X199350970Y-113235365D02*
X199450970Y-113235365D01*
X199450970Y-113235365D02*
X199450970Y-113335365D01*
G36*
X199450970Y-113335365D02*
G01*
X199350970Y-113335365D01*
X199350970Y-113235365D01*
X199450970Y-113235365D01*
X199450970Y-113335365D01*
G37*
X199450970Y-113335365D02*
X199350970Y-113335365D01*
X199350970Y-113235365D01*
X199450970Y-113235365D01*
X199450970Y-113335365D01*
D16*
X317500000Y-44540000D03*
D17*
X317500000Y-36740000D03*
D16*
X317500000Y-120740000D03*
D17*
X317500000Y-112940000D03*
D16*
X299720000Y-120740000D03*
D17*
X299720000Y-112940000D03*
D16*
X279400000Y-120740000D03*
D17*
X279400000Y-112940000D03*
D16*
X248920000Y-120740000D03*
D17*
X248920000Y-112940000D03*
D16*
X226060000Y-120740000D03*
D17*
X226060000Y-112940000D03*
D16*
X154940000Y-120740000D03*
D17*
X154940000Y-112940000D03*
D16*
X83820000Y-120740000D03*
D17*
X83820000Y-112940000D03*
D16*
X58420000Y-120740000D03*
D17*
X58420000Y-112940000D03*
D16*
X35560000Y-120740000D03*
D17*
X35560000Y-112940000D03*
D16*
X317500000Y-102960000D03*
D17*
X317500000Y-95160000D03*
D16*
X297180000Y-102960000D03*
D17*
X297180000Y-95160000D03*
D16*
X274320000Y-102960000D03*
D17*
X274320000Y-95160000D03*
D16*
X246380000Y-102960000D03*
D17*
X246380000Y-95160000D03*
D16*
X228600000Y-102960000D03*
D17*
X228600000Y-95160000D03*
D16*
X208280000Y-102960000D03*
D17*
X208280000Y-95160000D03*
D16*
X190500000Y-101995000D03*
D17*
X190500000Y-94195000D03*
D16*
X170180000Y-101995000D03*
D17*
X170180000Y-94195000D03*
D16*
X152400000Y-101995000D03*
D17*
X152400000Y-94195000D03*
D16*
X132080000Y-102960000D03*
D17*
X132080000Y-95160000D03*
D16*
X114300000Y-102960000D03*
D17*
X114300000Y-95160000D03*
D16*
X93980000Y-102960000D03*
D17*
X93980000Y-95160000D03*
D16*
X76200000Y-102960000D03*
D17*
X76200000Y-95160000D03*
D16*
X45720000Y-102960000D03*
D17*
X45720000Y-95160000D03*
D16*
X317500000Y-82640000D03*
D17*
X317500000Y-74840000D03*
D16*
X287020000Y-82640000D03*
D17*
X287020000Y-74840000D03*
D16*
X256540000Y-82640000D03*
D17*
X256540000Y-74840000D03*
D16*
X236220000Y-82640000D03*
D17*
X236220000Y-74840000D03*
D16*
X218440000Y-82640000D03*
D17*
X218440000Y-74840000D03*
D16*
X198120000Y-82640000D03*
D17*
X198120000Y-74840000D03*
D16*
X180340000Y-82640000D03*
D17*
X180340000Y-74840000D03*
D16*
X160020000Y-82640000D03*
D17*
X160020000Y-74840000D03*
D16*
X142240000Y-82640000D03*
D17*
X142240000Y-74840000D03*
D16*
X121920000Y-82640000D03*
D17*
X121920000Y-74840000D03*
D16*
X104140000Y-82740500D03*
D17*
X104140000Y-74940500D03*
D16*
X83820000Y-82640000D03*
D17*
X83820000Y-74840000D03*
D16*
X66040000Y-82640000D03*
D17*
X66040000Y-74840000D03*
D16*
X40640000Y-82640000D03*
D17*
X40640000Y-74840000D03*
D16*
X317500000Y-64860000D03*
D17*
X317500000Y-57060000D03*
D16*
X294640000Y-64860000D03*
D17*
X294640000Y-57060000D03*
D16*
X271780000Y-65825000D03*
D17*
X271780000Y-58025000D03*
D16*
X251460000Y-64860000D03*
D17*
X251460000Y-57060000D03*
X231140000Y-57060000D03*
D16*
X231140000Y-64860000D03*
X213360000Y-64860000D03*
D17*
X213360000Y-57060000D03*
D16*
X195580000Y-64860000D03*
D17*
X195580000Y-57060000D03*
D16*
X175260000Y-64860000D03*
D17*
X175260000Y-57060000D03*
D16*
X157480000Y-64860000D03*
D17*
X157480000Y-57060000D03*
D16*
X137160000Y-64860000D03*
D17*
X137160000Y-57060000D03*
X119380000Y-57060000D03*
D16*
X119380000Y-64860000D03*
X99060000Y-64860000D03*
D17*
X99060000Y-57060000D03*
D16*
X81280000Y-65265500D03*
D17*
X81280000Y-57465500D03*
D16*
X60960000Y-64860000D03*
D17*
X60960000Y-57060000D03*
D16*
X38100000Y-64860000D03*
D17*
X38100000Y-57060000D03*
D16*
X289560000Y-44540000D03*
D17*
X289560000Y-36740000D03*
D16*
X261620000Y-44540000D03*
D17*
X261620000Y-36740000D03*
D16*
X241300000Y-44540000D03*
D17*
X241300000Y-36740000D03*
D16*
X223520000Y-44540000D03*
D17*
X223520000Y-36740000D03*
D16*
X203200000Y-44540000D03*
D17*
X203200000Y-36740000D03*
D16*
X185420000Y-44540000D03*
D17*
X185420000Y-36740000D03*
D16*
X165100000Y-44540000D03*
D17*
X165100000Y-36740000D03*
D16*
X147320000Y-44540000D03*
D17*
X147320000Y-36740000D03*
D16*
X127000000Y-44540000D03*
D17*
X127000000Y-36740000D03*
D16*
X109220000Y-44540000D03*
D17*
X109220000Y-36740000D03*
D16*
X88900000Y-44540000D03*
D17*
X88900000Y-36740000D03*
D16*
X71120000Y-44540000D03*
D17*
X71120000Y-36740000D03*
D16*
X50800000Y-44540000D03*
D17*
X50800000Y-36740000D03*
D16*
X33020000Y-44540000D03*
D17*
X33020000Y-36740000D03*
D18*
X204470000Y-127000000D03*
D19*
X201930000Y-127000000D03*
X199390000Y-127000000D03*
X196850000Y-127000000D03*
X194310000Y-127000000D03*
X191770000Y-127000000D03*
X189230000Y-127000000D03*
X186690000Y-127000000D03*
X184150000Y-127000000D03*
X181610000Y-127000000D03*
X179070000Y-127000000D03*
X176530000Y-126771400D03*
X176530000Y-111760000D03*
X179070000Y-111760000D03*
X181610000Y-111760000D03*
X184150000Y-111760000D03*
X186690000Y-111760000D03*
X189230000Y-111760000D03*
X191770000Y-111760000D03*
X194310000Y-111760000D03*
X196850000Y-111760000D03*
X199390000Y-111760000D03*
X201930000Y-111760000D03*
X204470000Y-111760000D03*
X176530000Y-124460000D03*
X176530000Y-121920000D03*
X176530000Y-119380000D03*
X176530000Y-116840000D03*
X176530000Y-114300000D03*
M02*
