G04 #@! TF.GenerationSoftware,KiCad,Pcbnew,6.0.2+dfsg-1*
G04 #@! TF.CreationDate,2023-02-02T22:28:34+01:00*
G04 #@! TF.ProjectId,keyboard,6b657962-6f61-4726-942e-6b696361645f,rev?*
G04 #@! TF.SameCoordinates,Original*
G04 #@! TF.FileFunction,Legend,Bot*
G04 #@! TF.FilePolarity,Positive*
%FSLAX46Y46*%
G04 Gerber Fmt 4.6, Leading zero omitted, Abs format (unit mm)*
G04 Created by KiCad (PCBNEW 6.0.2+dfsg-1) date 2023-02-02 22:28:34*
%MOMM*%
%LPD*%
G01*
G04 APERTURE LIST*
%ADD10C,0.150000*%
%ADD11C,0.381000*%
%ADD12R,1.752600X1.752600*%
%ADD13C,1.752600*%
G04 APERTURE END LIST*
D10*
X177564297Y-125615008D02*
X177658578Y-125662148D01*
X177705719Y-125662148D01*
X177776429Y-125638578D01*
X177847140Y-125567867D01*
X177870710Y-125497157D01*
X177870710Y-125450016D01*
X177847140Y-125379306D01*
X177658578Y-125190744D01*
X177163603Y-125685719D01*
X177328595Y-125850710D01*
X177399306Y-125874280D01*
X177446446Y-125874280D01*
X177517157Y-125850710D01*
X177564297Y-125803570D01*
X177587867Y-125732859D01*
X177587867Y-125685719D01*
X177564297Y-125615008D01*
X177399306Y-125450016D01*
X177894280Y-126416396D02*
X177658578Y-126180693D01*
X177870710Y-125921421D01*
X177870710Y-125968561D01*
X177894280Y-126039272D01*
X178012132Y-126157123D01*
X178082842Y-126180693D01*
X178129983Y-126180693D01*
X178200693Y-126157123D01*
X178318544Y-126039272D01*
X178342115Y-125968561D01*
X178342115Y-125921421D01*
X178318544Y-125850710D01*
X178200693Y-125732859D01*
X178129983Y-125709289D01*
X178082842Y-125709289D01*
X186632857Y-113652333D02*
X186632857Y-113385666D01*
X187051904Y-113385666D02*
X186251904Y-113385666D01*
X186251904Y-113766619D01*
X186251904Y-113995190D02*
X186251904Y-114528523D01*
X187051904Y-114185666D01*
X179012857Y-113595190D02*
X179050952Y-113709476D01*
X179089047Y-113747571D01*
X179165238Y-113785666D01*
X179279523Y-113785666D01*
X179355714Y-113747571D01*
X179393809Y-113709476D01*
X179431904Y-113633285D01*
X179431904Y-113328523D01*
X178631904Y-113328523D01*
X178631904Y-113595190D01*
X178670000Y-113671380D01*
X178708095Y-113709476D01*
X178784285Y-113747571D01*
X178860476Y-113747571D01*
X178936666Y-113709476D01*
X178974761Y-113671380D01*
X179012857Y-113595190D01*
X179012857Y-113328523D01*
X178708095Y-114090428D02*
X178670000Y-114128523D01*
X178631904Y-114204714D01*
X178631904Y-114395190D01*
X178670000Y-114471380D01*
X178708095Y-114509476D01*
X178784285Y-114547571D01*
X178860476Y-114547571D01*
X178974761Y-114509476D01*
X179431904Y-114052333D01*
X179431904Y-114547571D01*
X186975714Y-124707666D02*
X187013809Y-124669571D01*
X187051904Y-124555285D01*
X187051904Y-124479095D01*
X187013809Y-124364809D01*
X186937619Y-124288619D01*
X186861428Y-124250523D01*
X186709047Y-124212428D01*
X186594761Y-124212428D01*
X186442380Y-124250523D01*
X186366190Y-124288619D01*
X186290000Y-124364809D01*
X186251904Y-124479095D01*
X186251904Y-124555285D01*
X186290000Y-124669571D01*
X186328095Y-124707666D01*
X186251904Y-125393380D02*
X186251904Y-125241000D01*
X186290000Y-125164809D01*
X186328095Y-125126714D01*
X186442380Y-125050523D01*
X186594761Y-125012428D01*
X186899523Y-125012428D01*
X186975714Y-125050523D01*
X187013809Y-125088619D01*
X187051904Y-125164809D01*
X187051904Y-125317190D01*
X187013809Y-125393380D01*
X186975714Y-125431476D01*
X186899523Y-125469571D01*
X186709047Y-125469571D01*
X186632857Y-125431476D01*
X186594761Y-125393380D01*
X186556666Y-125317190D01*
X186556666Y-125164809D01*
X186594761Y-125088619D01*
X186632857Y-125050523D01*
X186709047Y-125012428D01*
X184511904Y-124250523D02*
X183711904Y-124250523D01*
X183711904Y-124441000D01*
X183750000Y-124555285D01*
X183826190Y-124631476D01*
X183902380Y-124669571D01*
X184054761Y-124707666D01*
X184169047Y-124707666D01*
X184321428Y-124669571D01*
X184397619Y-124631476D01*
X184473809Y-124555285D01*
X184511904Y-124441000D01*
X184511904Y-124250523D01*
X183711904Y-124974333D02*
X183711904Y-125507666D01*
X184511904Y-125164809D01*
X198990000Y-124231476D02*
X198951904Y-124155285D01*
X198951904Y-124041000D01*
X198990000Y-123926714D01*
X199066190Y-123850523D01*
X199142380Y-123812428D01*
X199294761Y-123774333D01*
X199409047Y-123774333D01*
X199561428Y-123812428D01*
X199637619Y-123850523D01*
X199713809Y-123926714D01*
X199751904Y-124041000D01*
X199751904Y-124117190D01*
X199713809Y-124231476D01*
X199675714Y-124269571D01*
X199409047Y-124269571D01*
X199409047Y-124117190D01*
X199751904Y-124612428D02*
X198951904Y-124612428D01*
X199751904Y-125069571D01*
X198951904Y-125069571D01*
X199751904Y-125450523D02*
X198951904Y-125450523D01*
X198951904Y-125641000D01*
X198990000Y-125755285D01*
X199066190Y-125831476D01*
X199142380Y-125869571D01*
X199294761Y-125907666D01*
X199409047Y-125907666D01*
X199561428Y-125869571D01*
X199637619Y-125831476D01*
X199713809Y-125755285D01*
X199751904Y-125641000D01*
X199751904Y-125450523D01*
X199743809Y-113113546D02*
X199781904Y-113227832D01*
X199781904Y-113418308D01*
X199743809Y-113494499D01*
X199705714Y-113532594D01*
X199629523Y-113570689D01*
X199553333Y-113570689D01*
X199477142Y-113532594D01*
X199439047Y-113494499D01*
X199400952Y-113418308D01*
X199362857Y-113265927D01*
X199324761Y-113189737D01*
X199286666Y-113151641D01*
X199210476Y-113113546D01*
X199134285Y-113113546D01*
X199058095Y-113151641D01*
X199020000Y-113189737D01*
X198981904Y-113265927D01*
X198981904Y-113456403D01*
X199020000Y-113570689D01*
X198981904Y-113799260D02*
X198981904Y-114256403D01*
X199781904Y-114027832D02*
X198981904Y-114027832D01*
X177850000Y-114646666D02*
X177850000Y-114413333D01*
X178216666Y-114413333D02*
X177516666Y-114413333D01*
X177516666Y-114746666D01*
X177516666Y-115146666D02*
X177516666Y-115213333D01*
X177550000Y-115280000D01*
X177583333Y-115313333D01*
X177650000Y-115346666D01*
X177783333Y-115380000D01*
X177950000Y-115380000D01*
X178083333Y-115346666D01*
X178150000Y-115313333D01*
X178183333Y-115280000D01*
X178216666Y-115213333D01*
X178216666Y-115146666D01*
X178183333Y-115080000D01*
X178150000Y-115046666D01*
X178083333Y-115013333D01*
X177950000Y-114980000D01*
X177783333Y-114980000D01*
X177650000Y-115013333D01*
X177583333Y-115046666D01*
X177550000Y-115080000D01*
X177516666Y-115146666D01*
X196411904Y-112852333D02*
X197211904Y-113119000D01*
X196411904Y-113385666D01*
X197135714Y-114109476D02*
X197173809Y-114071380D01*
X197211904Y-113957095D01*
X197211904Y-113880904D01*
X197173809Y-113766619D01*
X197097619Y-113690428D01*
X197021428Y-113652333D01*
X196869047Y-113614238D01*
X196754761Y-113614238D01*
X196602380Y-113652333D01*
X196526190Y-113690428D01*
X196450000Y-113766619D01*
X196411904Y-113880904D01*
X196411904Y-113957095D01*
X196450000Y-114071380D01*
X196488095Y-114109476D01*
X197135714Y-114909476D02*
X197173809Y-114871380D01*
X197211904Y-114757095D01*
X197211904Y-114680904D01*
X197173809Y-114566619D01*
X197097619Y-114490428D01*
X197021428Y-114452333D01*
X196869047Y-114414238D01*
X196754761Y-114414238D01*
X196602380Y-114452333D01*
X196526190Y-114490428D01*
X196450000Y-114566619D01*
X196411904Y-114680904D01*
X196411904Y-114757095D01*
X196450000Y-114871380D01*
X196488095Y-114909476D01*
X178461904Y-121329523D02*
X177661904Y-121329523D01*
X177661904Y-121520000D01*
X177700000Y-121634285D01*
X177776190Y-121710476D01*
X177852380Y-121748571D01*
X178004761Y-121786666D01*
X178119047Y-121786666D01*
X178271428Y-121748571D01*
X178347619Y-121710476D01*
X178423809Y-121634285D01*
X178461904Y-121520000D01*
X178461904Y-121329523D01*
X177661904Y-122510476D02*
X177661904Y-122129523D01*
X178042857Y-122091428D01*
X178004761Y-122129523D01*
X177966666Y-122205714D01*
X177966666Y-122396190D01*
X178004761Y-122472380D01*
X178042857Y-122510476D01*
X178119047Y-122548571D01*
X178309523Y-122548571D01*
X178385714Y-122510476D01*
X178423809Y-122472380D01*
X178461904Y-122396190D01*
X178461904Y-122205714D01*
X178423809Y-122129523D01*
X178385714Y-122091428D01*
X202291904Y-124250523D02*
X201491904Y-124250523D01*
X201491904Y-124441000D01*
X201530000Y-124555285D01*
X201606190Y-124631476D01*
X201682380Y-124669571D01*
X201834761Y-124707666D01*
X201949047Y-124707666D01*
X202101428Y-124669571D01*
X202177619Y-124631476D01*
X202253809Y-124555285D01*
X202291904Y-124441000D01*
X202291904Y-124250523D01*
X201568095Y-125012428D02*
X201530000Y-125050523D01*
X201491904Y-125126714D01*
X201491904Y-125317190D01*
X201530000Y-125393380D01*
X201568095Y-125431476D01*
X201644285Y-125469571D01*
X201720476Y-125469571D01*
X201834761Y-125431476D01*
X202291904Y-124974333D01*
X202291904Y-125469571D01*
X189591904Y-124250523D02*
X188791904Y-124250523D01*
X188791904Y-124441000D01*
X188830000Y-124555285D01*
X188906190Y-124631476D01*
X188982380Y-124669571D01*
X189134761Y-124707666D01*
X189249047Y-124707666D01*
X189401428Y-124669571D01*
X189477619Y-124631476D01*
X189553809Y-124555285D01*
X189591904Y-124441000D01*
X189591904Y-124250523D01*
X189058571Y-125393380D02*
X189591904Y-125393380D01*
X188753809Y-125202904D02*
X189325238Y-125012428D01*
X189325238Y-125507666D01*
X194252857Y-113652333D02*
X194252857Y-113385666D01*
X194671904Y-113385666D02*
X193871904Y-113385666D01*
X193871904Y-113766619D01*
X194138571Y-114414238D02*
X194671904Y-114414238D01*
X193833809Y-114223761D02*
X194405238Y-114033285D01*
X194405238Y-114528523D01*
X191712857Y-113652333D02*
X191712857Y-113385666D01*
X192131904Y-113385666D02*
X191331904Y-113385666D01*
X191331904Y-113766619D01*
X191331904Y-114452333D02*
X191331904Y-114071380D01*
X191712857Y-114033285D01*
X191674761Y-114071380D01*
X191636666Y-114147571D01*
X191636666Y-114338047D01*
X191674761Y-114414238D01*
X191712857Y-114452333D01*
X191789047Y-114490428D01*
X191979523Y-114490428D01*
X192055714Y-114452333D01*
X192093809Y-114414238D01*
X192131904Y-114338047D01*
X192131904Y-114147571D01*
X192093809Y-114071380D01*
X192055714Y-114033285D01*
X196450000Y-124231476D02*
X196411904Y-124155285D01*
X196411904Y-124041000D01*
X196450000Y-123926714D01*
X196526190Y-123850523D01*
X196602380Y-123812428D01*
X196754761Y-123774333D01*
X196869047Y-123774333D01*
X197021428Y-123812428D01*
X197097619Y-123850523D01*
X197173809Y-123926714D01*
X197211904Y-124041000D01*
X197211904Y-124117190D01*
X197173809Y-124231476D01*
X197135714Y-124269571D01*
X196869047Y-124269571D01*
X196869047Y-124117190D01*
X197211904Y-124612428D02*
X196411904Y-124612428D01*
X197211904Y-125069571D01*
X196411904Y-125069571D01*
X197211904Y-125450523D02*
X196411904Y-125450523D01*
X196411904Y-125641000D01*
X196450000Y-125755285D01*
X196526190Y-125831476D01*
X196602380Y-125869571D01*
X196754761Y-125907666D01*
X196869047Y-125907666D01*
X197021428Y-125869571D01*
X197097619Y-125831476D01*
X197173809Y-125755285D01*
X197211904Y-125641000D01*
X197211904Y-125450523D01*
X177850000Y-123596666D02*
X177883333Y-123696666D01*
X177916666Y-123730000D01*
X177983333Y-123763333D01*
X178083333Y-123763333D01*
X178150000Y-123730000D01*
X178183333Y-123696666D01*
X178216666Y-123630000D01*
X178216666Y-123363333D01*
X177516666Y-123363333D01*
X177516666Y-123596666D01*
X177550000Y-123663333D01*
X177583333Y-123696666D01*
X177650000Y-123730000D01*
X177716666Y-123730000D01*
X177783333Y-123696666D01*
X177816666Y-123663333D01*
X177850000Y-123596666D01*
X177850000Y-123363333D01*
X177516666Y-123996666D02*
X177516666Y-124463333D01*
X178216666Y-124163333D01*
X184092857Y-113595190D02*
X184130952Y-113709476D01*
X184169047Y-113747571D01*
X184245238Y-113785666D01*
X184359523Y-113785666D01*
X184435714Y-113747571D01*
X184473809Y-113709476D01*
X184511904Y-113633285D01*
X184511904Y-113328523D01*
X183711904Y-113328523D01*
X183711904Y-113595190D01*
X183750000Y-113671380D01*
X183788095Y-113709476D01*
X183864285Y-113747571D01*
X183940476Y-113747571D01*
X184016666Y-113709476D01*
X184054761Y-113671380D01*
X184092857Y-113595190D01*
X184092857Y-113328523D01*
X184511904Y-114547571D02*
X184511904Y-114090428D01*
X184511904Y-114319000D02*
X183711904Y-114319000D01*
X183826190Y-114242809D01*
X183902380Y-114166619D01*
X183940476Y-114090428D01*
X194671904Y-124250523D02*
X193871904Y-124250523D01*
X193871904Y-124441000D01*
X193910000Y-124555285D01*
X193986190Y-124631476D01*
X194062380Y-124669571D01*
X194214761Y-124707666D01*
X194329047Y-124707666D01*
X194481428Y-124669571D01*
X194557619Y-124631476D01*
X194633809Y-124555285D01*
X194671904Y-124441000D01*
X194671904Y-124250523D01*
X194671904Y-125469571D02*
X194671904Y-125012428D01*
X194671904Y-125241000D02*
X193871904Y-125241000D01*
X193986190Y-125164809D01*
X194062380Y-125088619D01*
X194100476Y-125012428D01*
X179012857Y-124517190D02*
X179050952Y-124631476D01*
X179089047Y-124669571D01*
X179165238Y-124707666D01*
X179279523Y-124707666D01*
X179355714Y-124669571D01*
X179393809Y-124631476D01*
X179431904Y-124555285D01*
X179431904Y-124250523D01*
X178631904Y-124250523D01*
X178631904Y-124517190D01*
X178670000Y-124593380D01*
X178708095Y-124631476D01*
X178784285Y-124669571D01*
X178860476Y-124669571D01*
X178936666Y-124631476D01*
X178974761Y-124593380D01*
X179012857Y-124517190D01*
X179012857Y-124250523D01*
X178898571Y-125393380D02*
X179431904Y-125393380D01*
X178593809Y-125202904D02*
X179165238Y-125012428D01*
X179165238Y-125507666D01*
X178385714Y-119246666D02*
X178423809Y-119208571D01*
X178461904Y-119094285D01*
X178461904Y-119018095D01*
X178423809Y-118903809D01*
X178347619Y-118827619D01*
X178271428Y-118789523D01*
X178119047Y-118751428D01*
X178004761Y-118751428D01*
X177852380Y-118789523D01*
X177776190Y-118827619D01*
X177700000Y-118903809D01*
X177661904Y-119018095D01*
X177661904Y-119094285D01*
X177700000Y-119208571D01*
X177738095Y-119246666D01*
X177661904Y-119513333D02*
X177661904Y-120046666D01*
X178461904Y-119703809D01*
X181552857Y-124288619D02*
X181552857Y-124555285D01*
X181971904Y-124669571D02*
X181971904Y-124288619D01*
X181171904Y-124288619D01*
X181171904Y-124669571D01*
X181171904Y-125355285D02*
X181171904Y-125202904D01*
X181210000Y-125126714D01*
X181248095Y-125088619D01*
X181362380Y-125012428D01*
X181514761Y-124974333D01*
X181819523Y-124974333D01*
X181895714Y-125012428D01*
X181933809Y-125050523D01*
X181971904Y-125126714D01*
X181971904Y-125279095D01*
X181933809Y-125355285D01*
X181895714Y-125393380D01*
X181819523Y-125431476D01*
X181629047Y-125431476D01*
X181552857Y-125393380D01*
X181514761Y-125355285D01*
X181476666Y-125279095D01*
X181476666Y-125126714D01*
X181514761Y-125050523D01*
X181552857Y-125012428D01*
X181629047Y-124974333D01*
X178042857Y-116573333D02*
X178042857Y-116306666D01*
X178461904Y-116306666D02*
X177661904Y-116306666D01*
X177661904Y-116687619D01*
X178461904Y-117411428D02*
X178461904Y-116954285D01*
X178461904Y-117182857D02*
X177661904Y-117182857D01*
X177776190Y-117106666D01*
X177852380Y-117030476D01*
X177890476Y-116954285D01*
X204031904Y-120761395D02*
X204031904Y-121218538D01*
X204831904Y-120989967D02*
X204031904Y-120989967D01*
X204031904Y-121409014D02*
X204831904Y-121942348D01*
X204031904Y-121942348D02*
X204831904Y-121409014D01*
X204031904Y-122399491D02*
X204031904Y-122475681D01*
X204070000Y-122551872D01*
X204108095Y-122589967D01*
X204184285Y-122628062D01*
X204336666Y-122666157D01*
X204527142Y-122666157D01*
X204679523Y-122628062D01*
X204755714Y-122589967D01*
X204793809Y-122551872D01*
X204831904Y-122475681D01*
X204831904Y-122399491D01*
X204793809Y-122323300D01*
X204755714Y-122285205D01*
X204679523Y-122247110D01*
X204527142Y-122209014D01*
X204336666Y-122209014D01*
X204184285Y-122247110D01*
X204108095Y-122285205D01*
X204070000Y-122323300D01*
X204031904Y-122399491D01*
X203993809Y-123580443D02*
X205022380Y-122894729D01*
X204831904Y-123847110D02*
X204031904Y-123847110D01*
X204031904Y-124037586D01*
X204070000Y-124151872D01*
X204146190Y-124228062D01*
X204222380Y-124266157D01*
X204374761Y-124304252D01*
X204489047Y-124304252D01*
X204641428Y-124266157D01*
X204717619Y-124228062D01*
X204793809Y-124151872D01*
X204831904Y-124037586D01*
X204831904Y-123847110D01*
X204031904Y-124570919D02*
X204031904Y-125066157D01*
X204336666Y-124799491D01*
X204336666Y-124913776D01*
X204374761Y-124989967D01*
X204412857Y-125028062D01*
X204489047Y-125066157D01*
X204679523Y-125066157D01*
X204755714Y-125028062D01*
X204793809Y-124989967D01*
X204831904Y-124913776D01*
X204831904Y-124685205D01*
X204793809Y-124609014D01*
X204755714Y-124570919D01*
X192131904Y-124250523D02*
X191331904Y-124250523D01*
X191331904Y-124441000D01*
X191370000Y-124555285D01*
X191446190Y-124631476D01*
X191522380Y-124669571D01*
X191674761Y-124707666D01*
X191789047Y-124707666D01*
X191941428Y-124669571D01*
X192017619Y-124631476D01*
X192093809Y-124555285D01*
X192131904Y-124441000D01*
X192131904Y-124250523D01*
X191331904Y-125202904D02*
X191331904Y-125279095D01*
X191370000Y-125355285D01*
X191408095Y-125393380D01*
X191484285Y-125431476D01*
X191636666Y-125469571D01*
X191827142Y-125469571D01*
X191979523Y-125431476D01*
X192055714Y-125393380D01*
X192093809Y-125355285D01*
X192131904Y-125279095D01*
X192131904Y-125202904D01*
X192093809Y-125126714D01*
X192055714Y-125088619D01*
X191979523Y-125050523D01*
X191827142Y-125012428D01*
X191636666Y-125012428D01*
X191484285Y-125050523D01*
X191408095Y-125088619D01*
X191370000Y-125126714D01*
X191331904Y-125202904D01*
X189172857Y-113652333D02*
X189172857Y-113385666D01*
X189591904Y-113385666D02*
X188791904Y-113385666D01*
X188791904Y-113766619D01*
X188791904Y-114414238D02*
X188791904Y-114261857D01*
X188830000Y-114185666D01*
X188868095Y-114147571D01*
X188982380Y-114071380D01*
X189134761Y-114033285D01*
X189439523Y-114033285D01*
X189515714Y-114071380D01*
X189553809Y-114109476D01*
X189591904Y-114185666D01*
X189591904Y-114338047D01*
X189553809Y-114414238D01*
X189515714Y-114452333D01*
X189439523Y-114490428D01*
X189249047Y-114490428D01*
X189172857Y-114452333D01*
X189134761Y-114414238D01*
X189096666Y-114338047D01*
X189096666Y-114185666D01*
X189134761Y-114109476D01*
X189172857Y-114071380D01*
X189249047Y-114033285D01*
X204412857Y-113595190D02*
X204450952Y-113709476D01*
X204489047Y-113747571D01*
X204565238Y-113785666D01*
X204679523Y-113785666D01*
X204755714Y-113747571D01*
X204793809Y-113709476D01*
X204831904Y-113633285D01*
X204831904Y-113328523D01*
X204031904Y-113328523D01*
X204031904Y-113595190D01*
X204070000Y-113671380D01*
X204108095Y-113709476D01*
X204184285Y-113747571D01*
X204260476Y-113747571D01*
X204336666Y-113709476D01*
X204374761Y-113671380D01*
X204412857Y-113595190D01*
X204412857Y-113328523D01*
X204031904Y-114280904D02*
X204031904Y-114357095D01*
X204070000Y-114433285D01*
X204108095Y-114471380D01*
X204184285Y-114509476D01*
X204336666Y-114547571D01*
X204527142Y-114547571D01*
X204679523Y-114509476D01*
X204755714Y-114471380D01*
X204793809Y-114433285D01*
X204831904Y-114357095D01*
X204831904Y-114280904D01*
X204793809Y-114204714D01*
X204755714Y-114166619D01*
X204679523Y-114128523D01*
X204527142Y-114090428D01*
X204336666Y-114090428D01*
X204184285Y-114128523D01*
X204108095Y-114166619D01*
X204070000Y-114204714D01*
X204031904Y-114280904D01*
X181552857Y-113595190D02*
X181590952Y-113709476D01*
X181629047Y-113747571D01*
X181705238Y-113785666D01*
X181819523Y-113785666D01*
X181895714Y-113747571D01*
X181933809Y-113709476D01*
X181971904Y-113633285D01*
X181971904Y-113328523D01*
X181171904Y-113328523D01*
X181171904Y-113595190D01*
X181210000Y-113671380D01*
X181248095Y-113709476D01*
X181324285Y-113747571D01*
X181400476Y-113747571D01*
X181476666Y-113709476D01*
X181514761Y-113671380D01*
X181552857Y-113595190D01*
X181552857Y-113328523D01*
X181171904Y-114052333D02*
X181171904Y-114547571D01*
X181476666Y-114280904D01*
X181476666Y-114395190D01*
X181514761Y-114471380D01*
X181552857Y-114509476D01*
X181629047Y-114547571D01*
X181819523Y-114547571D01*
X181895714Y-114509476D01*
X181933809Y-114471380D01*
X181971904Y-114395190D01*
X181971904Y-114166619D01*
X181933809Y-114090428D01*
X181895714Y-114052333D01*
X177635008Y-113215702D02*
X177682148Y-113121421D01*
X177682148Y-113074280D01*
X177658578Y-113003570D01*
X177587867Y-112932859D01*
X177517157Y-112909289D01*
X177470016Y-112909289D01*
X177399306Y-112932859D01*
X177210744Y-113121421D01*
X177705719Y-113616396D01*
X177870710Y-113451404D01*
X177894280Y-113380693D01*
X177894280Y-113333553D01*
X177870710Y-113262842D01*
X177823570Y-113215702D01*
X177752859Y-113192132D01*
X177705719Y-113192132D01*
X177635008Y-113215702D01*
X177470016Y-113380693D01*
X178412825Y-112909289D02*
X178318544Y-113003570D01*
X178247834Y-113027140D01*
X178200693Y-113027140D01*
X178082842Y-113003570D01*
X177964991Y-112932859D01*
X177776429Y-112744297D01*
X177752859Y-112673587D01*
X177752859Y-112626446D01*
X177776429Y-112555735D01*
X177870710Y-112461455D01*
X177941421Y-112437884D01*
X177988561Y-112437884D01*
X178059272Y-112461455D01*
X178177123Y-112579306D01*
X178200693Y-112650016D01*
X178200693Y-112697157D01*
X178177123Y-112767867D01*
X178082842Y-112862148D01*
X178012132Y-112885719D01*
X177964991Y-112885719D01*
X177894280Y-112862148D01*
X201530000Y-113309476D02*
X201491904Y-113233285D01*
X201491904Y-113119000D01*
X201530000Y-113004714D01*
X201606190Y-112928523D01*
X201682380Y-112890428D01*
X201834761Y-112852333D01*
X201949047Y-112852333D01*
X202101428Y-112890428D01*
X202177619Y-112928523D01*
X202253809Y-113004714D01*
X202291904Y-113119000D01*
X202291904Y-113195190D01*
X202253809Y-113309476D01*
X202215714Y-113347571D01*
X201949047Y-113347571D01*
X201949047Y-113195190D01*
X202291904Y-113690428D02*
X201491904Y-113690428D01*
X202291904Y-114147571D01*
X201491904Y-114147571D01*
X202291904Y-114528523D02*
X201491904Y-114528523D01*
X201491904Y-114719000D01*
X201530000Y-114833285D01*
X201606190Y-114909476D01*
X201682380Y-114947571D01*
X201834761Y-114985666D01*
X201949047Y-114985666D01*
X202101428Y-114947571D01*
X202177619Y-114909476D01*
X202253809Y-114833285D01*
X202291904Y-114719000D01*
X202291904Y-114528523D01*
D11*
X203200000Y-125730000D02*
X203200000Y-128270000D01*
X205740000Y-125730000D02*
X203200000Y-125730000D01*
X205740000Y-110490000D02*
X208280000Y-110490000D01*
X205740000Y-128270000D02*
X175260000Y-128270000D01*
X208280000Y-128270000D02*
X205740000Y-128270000D01*
X175260000Y-110490000D02*
X205740000Y-110490000D01*
X175260000Y-128270000D02*
X175260000Y-110490000D01*
X205740000Y-125730000D02*
X205740000Y-128270000D01*
X208280000Y-110490000D02*
X208280000Y-128270000D01*
D10*
X199260640Y-114448432D02*
X199060640Y-114448432D01*
X199060640Y-114448432D02*
X199060640Y-114548432D01*
X199060640Y-114548432D02*
X199260640Y-114548432D01*
X199260640Y-114548432D02*
X199260640Y-114448432D01*
G36*
X199260640Y-114548432D02*
G01*
X199060640Y-114548432D01*
X199060640Y-114448432D01*
X199260640Y-114448432D01*
X199260640Y-114548432D01*
G37*
X199260640Y-114548432D02*
X199060640Y-114548432D01*
X199060640Y-114448432D01*
X199260640Y-114448432D01*
X199260640Y-114548432D01*
X199860640Y-114448432D02*
X199760640Y-114448432D01*
X199760640Y-114448432D02*
X199760640Y-114948432D01*
X199760640Y-114948432D02*
X199860640Y-114948432D01*
X199860640Y-114948432D02*
X199860640Y-114448432D01*
G36*
X199860640Y-114948432D02*
G01*
X199760640Y-114948432D01*
X199760640Y-114448432D01*
X199860640Y-114448432D01*
X199860640Y-114948432D01*
G37*
X199860640Y-114948432D02*
X199760640Y-114948432D01*
X199760640Y-114448432D01*
X199860640Y-114448432D01*
X199860640Y-114948432D01*
X199860640Y-114848432D02*
X199060640Y-114848432D01*
X199060640Y-114848432D02*
X199060640Y-114948432D01*
X199060640Y-114948432D02*
X199860640Y-114948432D01*
X199860640Y-114948432D02*
X199860640Y-114848432D01*
G36*
X199860640Y-114948432D02*
G01*
X199060640Y-114948432D01*
X199060640Y-114848432D01*
X199860640Y-114848432D01*
X199860640Y-114948432D01*
G37*
X199860640Y-114948432D02*
X199060640Y-114948432D01*
X199060640Y-114848432D01*
X199860640Y-114848432D01*
X199860640Y-114948432D01*
X199460640Y-114648432D02*
X199360640Y-114648432D01*
X199360640Y-114648432D02*
X199360640Y-114748432D01*
X199360640Y-114748432D02*
X199460640Y-114748432D01*
X199460640Y-114748432D02*
X199460640Y-114648432D01*
G36*
X199460640Y-114748432D02*
G01*
X199360640Y-114748432D01*
X199360640Y-114648432D01*
X199460640Y-114648432D01*
X199460640Y-114748432D01*
G37*
X199460640Y-114748432D02*
X199360640Y-114748432D01*
X199360640Y-114648432D01*
X199460640Y-114648432D01*
X199460640Y-114748432D01*
X199860640Y-114448432D02*
X199560640Y-114448432D01*
X199560640Y-114448432D02*
X199560640Y-114548432D01*
X199560640Y-114548432D02*
X199860640Y-114548432D01*
X199860640Y-114548432D02*
X199860640Y-114448432D01*
G36*
X199860640Y-114548432D02*
G01*
X199560640Y-114548432D01*
X199560640Y-114448432D01*
X199860640Y-114448432D01*
X199860640Y-114548432D01*
G37*
X199860640Y-114548432D02*
X199560640Y-114548432D01*
X199560640Y-114448432D01*
X199860640Y-114448432D01*
X199860640Y-114548432D01*
D12*
X204470000Y-127000000D03*
D13*
X201930000Y-127000000D03*
X199390000Y-127000000D03*
X196850000Y-127000000D03*
X194310000Y-127000000D03*
X191770000Y-127000000D03*
X189230000Y-127000000D03*
X186690000Y-127000000D03*
X184150000Y-127000000D03*
X181610000Y-127000000D03*
X179070000Y-127000000D03*
X176530000Y-126771400D03*
X176530000Y-111760000D03*
X179070000Y-111760000D03*
X181610000Y-111760000D03*
X184150000Y-111760000D03*
X186690000Y-111760000D03*
X189230000Y-111760000D03*
X191770000Y-111760000D03*
X194310000Y-111760000D03*
X196850000Y-111760000D03*
X199390000Y-111760000D03*
X201930000Y-111760000D03*
X204470000Y-111760000D03*
X176530000Y-124460000D03*
X176530000Y-121920000D03*
X176530000Y-119380000D03*
X176530000Y-116840000D03*
X176530000Y-114300000D03*
M02*
