M48
; DRILL file {KiCad 6.0.2+dfsg-1} date do 02 feb 2023 22:28:39 CET
; FORMAT={-:-/ absolute / inch / decimal}
; #@! TF.CreationDate,2023-02-02T22:28:39+01:00
; #@! TF.GenerationSoftware,Kicad,Pcbnew,6.0.2+dfsg-1
; #@! TF.FileFunction,NonPlated,1,2,NPTH
FMAT,2
INCH
; #@! TA.AperFunction,NonPlated,NPTH,ComponentDrill
T1C0.0472
; #@! TA.AperFunction,NonPlated,NPTH,ComponentDrill
T2C0.0748
; #@! TA.AperFunction,NonPlated,NPTH,ComponentDrill
T3C0.1339
%
G90
G05
T1
X1.4366Y-1.8313
X1.5303Y-4.8313
X1.6241Y-2.5813
X1.7178Y-3.3313
X1.9053Y-4.0813
X2.1866Y-1.8313
X2.4678Y-4.8313
X2.5616Y-2.5813
X2.7491Y-3.3313
X2.9366Y-1.8313
X3.1241Y-4.0813
X3.3116Y-2.5813
X3.4053Y-4.8313
X3.4991Y-3.3313
X3.6866Y-1.8313
X3.8741Y-4.0813
X4.0616Y-2.5813
X4.2491Y-3.3313
X4.4366Y-1.8313
X4.6241Y-4.0813
X4.8116Y-2.5813
X4.9991Y-3.3313
X5.1866Y-1.8313
X5.3741Y-4.0813
X5.5616Y-2.5813
X5.7491Y-3.3313
X5.9366Y-1.8313
X6.1241Y-4.0813
X6.2178Y-4.8313
X6.3116Y-2.5813
X6.4991Y-3.3313
X6.6866Y-1.8313
X6.8741Y-4.0813
X7.0616Y-2.5813
X7.2491Y-3.3313
X7.4366Y-1.8313
X7.6241Y-4.0813
X7.8116Y-2.5813
X7.9991Y-3.3313
X8.1866Y-1.8313
X8.3741Y-4.0813
X8.5616Y-2.5813
X8.7491Y-3.3313
X8.9366Y-1.8313
X9.0303Y-4.8313
X9.1241Y-4.0813
X9.3116Y-2.5813
X9.4991Y-3.3313
X9.6866Y-1.8313
X9.8741Y-4.0813
X9.9678Y-4.8313
X10.0616Y-2.5813
X10.2491Y-3.3313
X10.4366Y-1.8313
X10.8116Y-2.5813
X10.9053Y-4.0813
X11.1866Y-4.8313
X11.4678Y-3.3313
X11.5616Y-1.8313
X11.7491Y-2.5813
X11.9366Y-4.0813
X11.9366Y-4.8313
X12.6866Y-1.8313
X12.6866Y-2.5813
X12.6866Y-3.3313
X12.6866Y-4.0813
X12.6866Y-4.8313
T2
X1.4256Y-1.666
X1.5193Y-4.666
X1.6131Y-2.416
X1.7068Y-3.166
X1.8586Y-1.666
X1.8943Y-3.916
X1.9524Y-4.666
X2.0461Y-2.416
X2.1399Y-3.166
X2.1756Y-1.666
X2.3274Y-3.916
X2.4568Y-4.666
X2.5506Y-2.416
X2.6086Y-1.666
X2.7381Y-3.166
X2.8899Y-4.666
X2.9256Y-1.666
X2.9836Y-2.416
X3.1131Y-3.916
X3.1711Y-3.166
X3.3006Y-2.416
X3.3586Y-1.666
X3.3943Y-4.666
X3.4881Y-3.166
X3.5461Y-3.916
X3.6756Y-1.666
X3.7336Y-2.416
X3.8274Y-4.666
X3.8631Y-3.916
X3.9211Y-3.166
X4.0506Y-2.416
X4.1086Y-1.666
X4.2381Y-3.166
X4.2961Y-3.916
X4.4256Y-1.666
X4.4836Y-2.416
X4.6131Y-3.916
X4.6711Y-3.166
X4.8006Y-2.416
X4.8586Y-1.666
X4.9881Y-3.166
X5.0461Y-3.916
X5.1756Y-1.666
X5.2336Y-2.416
X5.3631Y-3.916
X5.4211Y-3.166
X5.5506Y-2.416
X5.6086Y-1.666
X5.7381Y-3.166
X5.7961Y-3.916
X5.9256Y-1.666
X5.9836Y-2.416
X6.1131Y-3.916
X6.1711Y-3.166
X6.2068Y-4.666
X6.3006Y-2.416
X6.3586Y-1.666
X6.4881Y-3.166
X6.5461Y-3.916
X6.6399Y-4.666
X6.6756Y-1.666
X6.7336Y-2.416
X6.8631Y-3.916
X6.9211Y-3.166
X7.0506Y-2.416
X7.1086Y-1.666
X7.2381Y-3.166
X7.2961Y-3.916
X7.4256Y-1.666
X7.4836Y-2.416
X7.6131Y-3.916
X7.6711Y-3.166
X7.8006Y-2.416
X7.8586Y-1.666
X7.9881Y-3.166
X8.0461Y-3.916
X8.1756Y-1.666
X8.2336Y-2.416
X8.3631Y-3.916
X8.4211Y-3.166
X8.5506Y-2.416
X8.6086Y-1.666
X8.7381Y-3.166
X8.7961Y-3.916
X8.9256Y-1.666
X8.9836Y-2.416
X9.0193Y-4.666
X9.1131Y-3.916
X9.1711Y-3.166
X9.3006Y-2.416
X9.3586Y-1.666
X9.4524Y-4.666
X9.4881Y-3.166
X9.5461Y-3.916
X9.6756Y-1.666
X9.7336Y-2.416
X9.8631Y-3.916
X9.9211Y-3.166
X9.9568Y-4.666
X10.0506Y-2.416
X10.1086Y-1.666
X10.2381Y-3.166
X10.2961Y-3.916
X10.3899Y-4.666
X10.4256Y-1.666
X10.4836Y-2.416
X10.6711Y-3.166
X10.8006Y-2.416
X10.8586Y-1.666
X10.8943Y-3.916
X11.1756Y-4.666
X11.2336Y-2.416
X11.3274Y-3.916
X11.4568Y-3.166
X11.5506Y-1.666
X11.6086Y-4.666
X11.7381Y-2.416
X11.8899Y-3.166
X11.9256Y-3.916
X11.9256Y-4.666
X11.9836Y-1.666
X12.1711Y-2.416
X12.3586Y-3.916
X12.3586Y-4.666
X12.6756Y-1.666
X12.6756Y-2.416
X12.6756Y-3.166
X12.6756Y-3.916
X12.6756Y-4.666
X13.1086Y-1.666
X13.1086Y-2.416
X13.1086Y-3.166
X13.1086Y-3.916
X13.1086Y-4.666
T3
X1.6421Y-1.666
X1.7358Y-4.666
X1.8296Y-2.416
X1.9233Y-3.166
X2.1108Y-3.916
X2.3921Y-1.666
X2.6733Y-4.666
X2.7671Y-2.416
X2.9546Y-3.166
X3.1421Y-1.666
X3.3296Y-3.916
X3.5171Y-2.416
X3.6108Y-4.666
X3.7046Y-3.166
X3.8921Y-1.666
X4.0796Y-3.916
X4.2671Y-2.416
X4.4546Y-3.166
X4.6421Y-1.666
X4.8296Y-3.916
X5.0171Y-2.416
X5.2046Y-3.166
X5.3921Y-1.666
X5.5796Y-3.916
X5.7671Y-2.416
X5.9546Y-3.166
X6.1421Y-1.666
X6.3296Y-3.916
X6.4233Y-4.666
X6.5171Y-2.416
X6.7046Y-3.166
X6.8921Y-1.666
X7.0796Y-3.916
X7.2671Y-2.416
X7.4546Y-3.166
X7.6421Y-1.666
X7.8296Y-3.916
X8.0171Y-2.416
X8.2046Y-3.166
X8.3921Y-1.666
X8.5796Y-3.916
X8.7671Y-2.416
X8.9546Y-3.166
X9.1421Y-1.666
X9.2358Y-4.666
X9.3296Y-3.916
X9.5171Y-2.416
X9.7046Y-3.166
X9.8921Y-1.666
X10.0796Y-3.916
X10.1733Y-4.666
X10.2671Y-2.416
X10.4546Y-3.166
X10.6421Y-1.666
X11.0171Y-2.416
X11.1108Y-3.916
X11.3921Y-4.666
X11.6733Y-3.166
X11.7671Y-1.666
X11.9546Y-2.416
X12.1421Y-3.916
X12.1421Y-4.666
X12.8921Y-1.666
X12.8921Y-2.416
X12.8921Y-3.166
X12.8921Y-3.916
X12.8921Y-4.666
T0
M30
