G04 #@! TF.GenerationSoftware,KiCad,Pcbnew,6.0.2+dfsg-1*
G04 #@! TF.CreationDate,2023-02-02T22:28:34+01:00*
G04 #@! TF.ProjectId,keyboard,6b657962-6f61-4726-942e-6b696361645f,rev?*
G04 #@! TF.SameCoordinates,Original*
G04 #@! TF.FileFunction,Copper,L2,Bot*
G04 #@! TF.FilePolarity,Positive*
%FSLAX46Y46*%
G04 Gerber Fmt 4.6, Leading zero omitted, Abs format (unit mm)*
G04 Created by KiCad (PCBNEW 6.0.2+dfsg-1) date 2023-02-02 22:28:34*
%MOMM*%
%LPD*%
G01*
G04 APERTURE LIST*
G04 #@! TA.AperFunction,ComponentPad*
%ADD10C,2.000000*%
G04 #@! TD*
G04 #@! TA.AperFunction,ComponentPad*
%ADD11C,1.905000*%
G04 #@! TD*
G04 #@! TA.AperFunction,ComponentPad*
%ADD12R,1.905000X1.905000*%
G04 #@! TD*
G04 #@! TA.AperFunction,ComponentPad*
%ADD13R,1.600000X1.600000*%
G04 #@! TD*
G04 #@! TA.AperFunction,ComponentPad*
%ADD14C,1.600000*%
G04 #@! TD*
G04 #@! TA.AperFunction,ComponentPad*
%ADD15R,1.752600X1.752600*%
G04 #@! TD*
G04 #@! TA.AperFunction,ComponentPad*
%ADD16C,1.752600*%
G04 #@! TD*
G04 #@! TA.AperFunction,ViaPad*
%ADD17C,0.800000*%
G04 #@! TD*
G04 #@! TA.AperFunction,Conductor*
%ADD18C,0.250000*%
G04 #@! TD*
G04 APERTURE END LIST*
D10*
X194346500Y-76615500D03*
X189346500Y-74515500D03*
D11*
X188076500Y-85115500D03*
D12*
X190616500Y-85115500D03*
D10*
X168152750Y-114715500D03*
X163152750Y-112615500D03*
D11*
X161882750Y-123215500D03*
D12*
X164422750Y-123215500D03*
D10*
X258402750Y-112615500D03*
X263402750Y-114715500D03*
D11*
X257132750Y-123215500D03*
D12*
X259672750Y-123215500D03*
D10*
X234590250Y-112615500D03*
X239590250Y-114715500D03*
D11*
X233320250Y-123215500D03*
D12*
X235860250Y-123215500D03*
D10*
X91715250Y-112615500D03*
X96715250Y-114715500D03*
D11*
X90445250Y-123215500D03*
D12*
X92985250Y-123215500D03*
D10*
X67902750Y-112615500D03*
X72902750Y-114715500D03*
D11*
X66632750Y-123215500D03*
D12*
X69172750Y-123215500D03*
D10*
X44090250Y-112615500D03*
X49090250Y-114715500D03*
D11*
X42820250Y-123215500D03*
D12*
X45360250Y-123215500D03*
D10*
X282215250Y-93565500D03*
X287215250Y-95665500D03*
D11*
X280945250Y-104165500D03*
D12*
X283485250Y-104165500D03*
D10*
X53615250Y-93565500D03*
X58615250Y-95665500D03*
D11*
X52345250Y-104165500D03*
D12*
X54885250Y-104165500D03*
D10*
X296502750Y-74515500D03*
X301502750Y-76615500D03*
D11*
X295232750Y-85115500D03*
D12*
X297772750Y-85115500D03*
D10*
X48852750Y-74515500D03*
X53852750Y-76615500D03*
D11*
X47582750Y-85115500D03*
D12*
X50122750Y-85115500D03*
D10*
X303646500Y-55465500D03*
X308646500Y-57565500D03*
D11*
X302376500Y-66065500D03*
D12*
X304916500Y-66065500D03*
D10*
X46471500Y-55465500D03*
X51471500Y-57565500D03*
D11*
X45201500Y-66065500D03*
D12*
X47741500Y-66065500D03*
D10*
X298884000Y-36415500D03*
X303884000Y-38515500D03*
D11*
X297614000Y-47015500D03*
D12*
X300154000Y-47015500D03*
D13*
X317500000Y-44540000D03*
D14*
X317500000Y-36740000D03*
D13*
X317500000Y-120740000D03*
D14*
X317500000Y-112940000D03*
D13*
X299720000Y-120740000D03*
D14*
X299720000Y-112940000D03*
D13*
X279400000Y-120740000D03*
D14*
X279400000Y-112940000D03*
D13*
X248920000Y-120740000D03*
D14*
X248920000Y-112940000D03*
D13*
X226060000Y-120740000D03*
D14*
X226060000Y-112940000D03*
D13*
X154940000Y-120740000D03*
D14*
X154940000Y-112940000D03*
D13*
X83820000Y-120740000D03*
D14*
X83820000Y-112940000D03*
D13*
X58420000Y-120740000D03*
D14*
X58420000Y-112940000D03*
D13*
X35560000Y-120740000D03*
D14*
X35560000Y-112940000D03*
D13*
X317500000Y-102960000D03*
D14*
X317500000Y-95160000D03*
D13*
X297180000Y-102960000D03*
D14*
X297180000Y-95160000D03*
D13*
X274320000Y-102960000D03*
D14*
X274320000Y-95160000D03*
D13*
X246380000Y-102960000D03*
D14*
X246380000Y-95160000D03*
D13*
X228600000Y-102960000D03*
D14*
X228600000Y-95160000D03*
D13*
X208280000Y-102960000D03*
D14*
X208280000Y-95160000D03*
D13*
X190500000Y-101995000D03*
D14*
X190500000Y-94195000D03*
D13*
X170180000Y-101995000D03*
D14*
X170180000Y-94195000D03*
D13*
X152400000Y-101995000D03*
D14*
X152400000Y-94195000D03*
D13*
X132080000Y-102960000D03*
D14*
X132080000Y-95160000D03*
D13*
X114300000Y-102960000D03*
D14*
X114300000Y-95160000D03*
D13*
X93980000Y-102960000D03*
D14*
X93980000Y-95160000D03*
D13*
X76200000Y-102960000D03*
D14*
X76200000Y-95160000D03*
D13*
X45720000Y-102960000D03*
D14*
X45720000Y-95160000D03*
D13*
X317500000Y-82640000D03*
D14*
X317500000Y-74840000D03*
D13*
X287020000Y-82640000D03*
D14*
X287020000Y-74840000D03*
D13*
X256540000Y-82640000D03*
D14*
X256540000Y-74840000D03*
D13*
X236220000Y-82640000D03*
D14*
X236220000Y-74840000D03*
D13*
X218440000Y-82640000D03*
D14*
X218440000Y-74840000D03*
D13*
X198120000Y-82640000D03*
D14*
X198120000Y-74840000D03*
D13*
X180340000Y-82640000D03*
D14*
X180340000Y-74840000D03*
D13*
X160020000Y-82640000D03*
D14*
X160020000Y-74840000D03*
D13*
X142240000Y-82640000D03*
D14*
X142240000Y-74840000D03*
D13*
X121920000Y-82640000D03*
D14*
X121920000Y-74840000D03*
D13*
X104140000Y-82740500D03*
D14*
X104140000Y-74940500D03*
D13*
X83820000Y-82640000D03*
D14*
X83820000Y-74840000D03*
D13*
X66040000Y-82640000D03*
D14*
X66040000Y-74840000D03*
D13*
X40640000Y-82640000D03*
D14*
X40640000Y-74840000D03*
D13*
X317500000Y-64860000D03*
D14*
X317500000Y-57060000D03*
D13*
X294640000Y-64860000D03*
D14*
X294640000Y-57060000D03*
D13*
X271780000Y-65825000D03*
D14*
X271780000Y-58025000D03*
D13*
X251460000Y-64860000D03*
D14*
X251460000Y-57060000D03*
X231140000Y-57060000D03*
D13*
X231140000Y-64860000D03*
X213360000Y-64860000D03*
D14*
X213360000Y-57060000D03*
D13*
X195580000Y-64860000D03*
D14*
X195580000Y-57060000D03*
D13*
X175260000Y-64860000D03*
D14*
X175260000Y-57060000D03*
D13*
X157480000Y-64860000D03*
D14*
X157480000Y-57060000D03*
D13*
X137160000Y-64860000D03*
D14*
X137160000Y-57060000D03*
X119380000Y-57060000D03*
D13*
X119380000Y-64860000D03*
X99060000Y-64860000D03*
D14*
X99060000Y-57060000D03*
D13*
X81280000Y-65265500D03*
D14*
X81280000Y-57465500D03*
D13*
X60960000Y-64860000D03*
D14*
X60960000Y-57060000D03*
D13*
X38100000Y-64860000D03*
D14*
X38100000Y-57060000D03*
D13*
X289560000Y-44540000D03*
D14*
X289560000Y-36740000D03*
D13*
X261620000Y-44540000D03*
D14*
X261620000Y-36740000D03*
D13*
X241300000Y-44540000D03*
D14*
X241300000Y-36740000D03*
D13*
X223520000Y-44540000D03*
D14*
X223520000Y-36740000D03*
D13*
X203200000Y-44540000D03*
D14*
X203200000Y-36740000D03*
D13*
X185420000Y-44540000D03*
D14*
X185420000Y-36740000D03*
D13*
X165100000Y-44540000D03*
D14*
X165100000Y-36740000D03*
D13*
X147320000Y-44540000D03*
D14*
X147320000Y-36740000D03*
D13*
X127000000Y-44540000D03*
D14*
X127000000Y-36740000D03*
D13*
X109220000Y-44540000D03*
D14*
X109220000Y-36740000D03*
D13*
X88900000Y-44540000D03*
D14*
X88900000Y-36740000D03*
D13*
X71120000Y-44540000D03*
D14*
X71120000Y-36740000D03*
D13*
X50800000Y-44540000D03*
D14*
X50800000Y-36740000D03*
D13*
X33020000Y-44540000D03*
D14*
X33020000Y-36740000D03*
D10*
X84809000Y-38515500D03*
X79809000Y-36415500D03*
D11*
X78539000Y-47015500D03*
D12*
X81079000Y-47015500D03*
D10*
X89571500Y-95665500D03*
X84571500Y-93565500D03*
D11*
X83301500Y-104165500D03*
D12*
X85841500Y-104165500D03*
D10*
X265784000Y-57565500D03*
X260784000Y-55465500D03*
D11*
X259514000Y-66065500D03*
D12*
X262054000Y-66065500D03*
D10*
X284834000Y-57565500D03*
X279834000Y-55465500D03*
D11*
X278564000Y-66065500D03*
D12*
X281104000Y-66065500D03*
D10*
X332459000Y-114715500D03*
X327459000Y-112615500D03*
D11*
X326189000Y-123215500D03*
D12*
X328729000Y-123215500D03*
D10*
X199109000Y-38515500D03*
X194109000Y-36415500D03*
D11*
X192839000Y-47015500D03*
D12*
X195379000Y-47015500D03*
D10*
X180059000Y-38515500D03*
X175059000Y-36415500D03*
D11*
X173789000Y-47015500D03*
D12*
X176329000Y-47015500D03*
D10*
X261021500Y-95665500D03*
X256021500Y-93565500D03*
D11*
X254751500Y-104165500D03*
D12*
X257291500Y-104165500D03*
D10*
X208634000Y-57565500D03*
X203634000Y-55465500D03*
D11*
X202364000Y-66065500D03*
D12*
X204904000Y-66065500D03*
D10*
X218159000Y-38515500D03*
X213159000Y-36415500D03*
D11*
X211889000Y-47015500D03*
D12*
X214429000Y-47015500D03*
D10*
X294359000Y-114715500D03*
X289359000Y-112615500D03*
D11*
X288089000Y-123215500D03*
D12*
X290629000Y-123215500D03*
D10*
X127671500Y-95665500D03*
X122671500Y-93565500D03*
D11*
X121401500Y-104165500D03*
D12*
X123941500Y-104165500D03*
D10*
X332459000Y-57565500D03*
X327459000Y-55465500D03*
D11*
X326189000Y-66065500D03*
D12*
X328729000Y-66065500D03*
D10*
X251496500Y-76615500D03*
X246496500Y-74515500D03*
D11*
X245226500Y-85115500D03*
D12*
X247766500Y-85115500D03*
D10*
X122909000Y-38515500D03*
X117909000Y-36415500D03*
D11*
X116639000Y-47015500D03*
D12*
X119179000Y-47015500D03*
D15*
X204470000Y-127000000D03*
D16*
X201930000Y-127000000D03*
X199390000Y-127000000D03*
X196850000Y-127000000D03*
X194310000Y-127000000D03*
X191770000Y-127000000D03*
X189230000Y-127000000D03*
X186690000Y-127000000D03*
X184150000Y-127000000D03*
X181610000Y-127000000D03*
X179070000Y-127000000D03*
X176530000Y-126771400D03*
X176530000Y-111760000D03*
X179070000Y-111760000D03*
X181610000Y-111760000D03*
X184150000Y-111760000D03*
X186690000Y-111760000D03*
X189230000Y-111760000D03*
X191770000Y-111760000D03*
X194310000Y-111760000D03*
X196850000Y-111760000D03*
X199390000Y-111760000D03*
X201930000Y-111760000D03*
X204470000Y-111760000D03*
X176530000Y-124460000D03*
X176530000Y-121920000D03*
X176530000Y-119380000D03*
X176530000Y-116840000D03*
X176530000Y-114300000D03*
D10*
X213396500Y-76615500D03*
X208396500Y-74515500D03*
D11*
X207126500Y-85115500D03*
D12*
X209666500Y-85115500D03*
D10*
X161009000Y-38515500D03*
X156009000Y-36415500D03*
D11*
X154739000Y-47015500D03*
D12*
X157279000Y-47015500D03*
D10*
X99096500Y-76615500D03*
X94096500Y-74515500D03*
D11*
X92826500Y-85115500D03*
D12*
X95366500Y-85115500D03*
D10*
X184821500Y-95665500D03*
X179821500Y-93565500D03*
D11*
X178551500Y-104165500D03*
D12*
X181091500Y-104165500D03*
D10*
X132434000Y-57565500D03*
X127434000Y-55465500D03*
D11*
X126164000Y-66065500D03*
D12*
X128704000Y-66065500D03*
D10*
X227684000Y-57565500D03*
X222684000Y-55465500D03*
D11*
X221414000Y-66065500D03*
D12*
X223954000Y-66065500D03*
D10*
X146721500Y-95665500D03*
X141721500Y-93565500D03*
D11*
X140451500Y-104165500D03*
D12*
X142991500Y-104165500D03*
D10*
X313409000Y-114715500D03*
X308409000Y-112615500D03*
D11*
X307139000Y-123215500D03*
D12*
X309679000Y-123215500D03*
D10*
X165771500Y-95665500D03*
X160771500Y-93565500D03*
D11*
X159501500Y-104165500D03*
D12*
X162041500Y-104165500D03*
D10*
X156246500Y-76615500D03*
X151246500Y-74515500D03*
D11*
X149976500Y-85115500D03*
D12*
X152516500Y-85115500D03*
D10*
X203871500Y-95665500D03*
X198871500Y-93565500D03*
D11*
X197601500Y-104165500D03*
D12*
X200141500Y-104165500D03*
D10*
X313409000Y-95665500D03*
X308409000Y-93565500D03*
D11*
X307139000Y-104165500D03*
D12*
X309679000Y-104165500D03*
D10*
X103859000Y-38515500D03*
X98859000Y-36415500D03*
D11*
X97589000Y-47015500D03*
D12*
X100129000Y-47015500D03*
D10*
X246734000Y-57565500D03*
X241734000Y-55465500D03*
D11*
X240464000Y-66065500D03*
D12*
X243004000Y-66065500D03*
D10*
X118146500Y-76615500D03*
X113146500Y-74515500D03*
D11*
X111876500Y-85115500D03*
D12*
X114416500Y-85115500D03*
D10*
X75284000Y-57565500D03*
X70284000Y-55465500D03*
D11*
X69014000Y-66065500D03*
D12*
X71554000Y-66065500D03*
D10*
X141959000Y-38515500D03*
X136959000Y-36415500D03*
D11*
X135689000Y-47015500D03*
D12*
X138229000Y-47015500D03*
D10*
X80046500Y-76615500D03*
X75046500Y-74515500D03*
D11*
X73776500Y-85115500D03*
D12*
X76316500Y-85115500D03*
D10*
X151484000Y-57565500D03*
X146484000Y-55465500D03*
D11*
X145214000Y-66065500D03*
D12*
X147754000Y-66065500D03*
D10*
X94334000Y-57565500D03*
X89334000Y-55465500D03*
D11*
X88064000Y-66065500D03*
D12*
X90604000Y-66065500D03*
D10*
X332459000Y-38515500D03*
X327459000Y-36415500D03*
D11*
X326189000Y-47015500D03*
D12*
X328729000Y-47015500D03*
D10*
X108621500Y-95665500D03*
X103621500Y-93565500D03*
D11*
X102351500Y-104165500D03*
D12*
X104891500Y-104165500D03*
D10*
X256259000Y-38515500D03*
X251259000Y-36415500D03*
D11*
X249989000Y-47015500D03*
D12*
X252529000Y-47015500D03*
D10*
X175296500Y-76615500D03*
X170296500Y-74515500D03*
D11*
X169026500Y-85115500D03*
D12*
X171566500Y-85115500D03*
D10*
X170534000Y-57565500D03*
X165534000Y-55465500D03*
D11*
X164264000Y-66065500D03*
D12*
X166804000Y-66065500D03*
D10*
X189584000Y-57565500D03*
X184584000Y-55465500D03*
D11*
X183314000Y-66065500D03*
D12*
X185854000Y-66065500D03*
D10*
X65759000Y-38515500D03*
X60759000Y-36415500D03*
D11*
X59489000Y-47015500D03*
D12*
X62029000Y-47015500D03*
D10*
X222921500Y-95665500D03*
X217921500Y-93565500D03*
D11*
X216651500Y-104165500D03*
D12*
X219191500Y-104165500D03*
D10*
X241971500Y-95665500D03*
X236971500Y-93565500D03*
D11*
X235701500Y-104165500D03*
D12*
X238241500Y-104165500D03*
D10*
X113384000Y-57565500D03*
X108384000Y-55465500D03*
D11*
X107114000Y-66065500D03*
D12*
X109654000Y-66065500D03*
D10*
X332459000Y-95665500D03*
X327459000Y-93565500D03*
D11*
X326189000Y-104165500D03*
D12*
X328729000Y-104165500D03*
D10*
X270546500Y-76615500D03*
X265546500Y-74515500D03*
D11*
X264276500Y-85115500D03*
D12*
X266816500Y-85115500D03*
D10*
X46709000Y-38515500D03*
X41709000Y-36415500D03*
D11*
X40439000Y-47015500D03*
D12*
X42979000Y-47015500D03*
D10*
X332459000Y-76615500D03*
X327459000Y-74515500D03*
D11*
X326189000Y-85115500D03*
D12*
X328729000Y-85115500D03*
D10*
X237209000Y-38515500D03*
X232209000Y-36415500D03*
D11*
X230939000Y-47015500D03*
D12*
X233479000Y-47015500D03*
D10*
X275309000Y-38515500D03*
X270309000Y-36415500D03*
D11*
X269039000Y-47015500D03*
D12*
X271579000Y-47015500D03*
D10*
X137196500Y-76615500D03*
X132196500Y-74515500D03*
D11*
X130926500Y-85115500D03*
D12*
X133466500Y-85115500D03*
D10*
X232446500Y-76615500D03*
X227446500Y-74515500D03*
D11*
X226176500Y-85115500D03*
D12*
X228716500Y-85115500D03*
D17*
X313055000Y-125730000D03*
X243205000Y-125730000D03*
X252095000Y-125730000D03*
X160020000Y-114935000D03*
X171132500Y-123507500D03*
X172085000Y-115570000D03*
X172085000Y-118745000D03*
X189230000Y-87630000D03*
X194310000Y-87630000D03*
X199390000Y-87630000D03*
X182880000Y-87630000D03*
X186690000Y-104775000D03*
X191770000Y-104775000D03*
X194945000Y-107950000D03*
X161290000Y-108585000D03*
X167640000Y-107950000D03*
X182245000Y-130175000D03*
X187325000Y-60960000D03*
D18*
X252095000Y-125730000D02*
X313055000Y-125730000D01*
X243205000Y-125730000D02*
X252095000Y-125730000D01*
X198120000Y-125730000D02*
X243205000Y-125730000D01*
X196850000Y-127000000D02*
X198120000Y-125730000D01*
X161290000Y-113665000D02*
X160020000Y-114935000D01*
X161290000Y-108585000D02*
X161290000Y-113665000D01*
X182245000Y-130175000D02*
X177800000Y-130175000D01*
X177800000Y-130175000D02*
X171132500Y-123507500D01*
X172085000Y-115570000D02*
X172085000Y-118745000D01*
X172085000Y-112395000D02*
X172085000Y-115570000D01*
X167640000Y-107950000D02*
X172085000Y-112395000D01*
X187325000Y-60960000D02*
X187325000Y-46445000D01*
X187325000Y-46445000D02*
X185420000Y-44540000D01*
X189230000Y-87630000D02*
X194310000Y-87630000D01*
X194310000Y-87630000D02*
X199390000Y-87630000D01*
X182880000Y-87630000D02*
X189230000Y-87630000D01*
X191770000Y-104775000D02*
X186690000Y-104775000D01*
X194945000Y-107950000D02*
X198120000Y-107950000D01*
X198120000Y-107950000D02*
X201930000Y-111760000D01*
X194945000Y-107950000D02*
X191770000Y-104775000D01*
X161290000Y-108585000D02*
X161167307Y-108462307D01*
X167640000Y-107950000D02*
X166915489Y-108674511D01*
X166915489Y-108674511D02*
X161379511Y-108674511D01*
X161379511Y-108674511D02*
X161290000Y-108585000D01*
X193675000Y-130175000D02*
X182245000Y-130175000D01*
X196850000Y-127000000D02*
X193675000Y-130175000D01*
X226060000Y-120740000D02*
X177890000Y-120740000D01*
X177890000Y-120740000D02*
X176530000Y-119380000D01*
X154940000Y-120740000D02*
X175170000Y-120740000D01*
X175170000Y-120740000D02*
X176530000Y-119380000D01*
X176060989Y-111290989D02*
X176530000Y-111760000D01*
X176114500Y-114715500D02*
X176530000Y-114300000D01*
X248920000Y-120740000D02*
X226060000Y-120740000D01*
X279400000Y-120740000D02*
X248920000Y-120740000D01*
X299720000Y-120740000D02*
X279400000Y-120740000D01*
X317500000Y-120740000D02*
X299720000Y-120740000D01*
X83820000Y-120740000D02*
X154940000Y-120740000D01*
X58420000Y-120740000D02*
X83820000Y-120740000D01*
X35560000Y-120740000D02*
X58420000Y-120740000D01*
X76200000Y-102960000D02*
X75930979Y-102690979D01*
X75930979Y-102690979D02*
X45989021Y-102690979D01*
X45989021Y-102690979D02*
X45720000Y-102960000D01*
X93980000Y-102960000D02*
X93710979Y-102690979D01*
X93710979Y-102690979D02*
X76469021Y-102690979D01*
X76469021Y-102690979D02*
X76200000Y-102960000D01*
X114300000Y-102960000D02*
X114030979Y-102690979D01*
X114030979Y-102690979D02*
X94249021Y-102690979D01*
X94249021Y-102690979D02*
X93980000Y-102960000D01*
X132080000Y-102960000D02*
X131810979Y-102690979D01*
X131810979Y-102690979D02*
X114569021Y-102690979D01*
X114569021Y-102690979D02*
X114300000Y-102960000D01*
X152400000Y-101995000D02*
X133045000Y-101995000D01*
X133045000Y-101995000D02*
X132080000Y-102960000D01*
X170180000Y-101995000D02*
X152400000Y-101995000D01*
X190500000Y-101995000D02*
X170180000Y-101995000D01*
X208280000Y-102960000D02*
X207315000Y-101995000D01*
X207315000Y-101995000D02*
X190500000Y-101995000D01*
X228600000Y-102960000D02*
X228330979Y-102690979D01*
X228330979Y-102690979D02*
X208549021Y-102690979D01*
X208549021Y-102690979D02*
X208280000Y-102960000D01*
X246380000Y-102960000D02*
X246110979Y-102690979D01*
X246110979Y-102690979D02*
X228869021Y-102690979D01*
X228869021Y-102690979D02*
X228600000Y-102960000D01*
X274320000Y-102960000D02*
X274050979Y-102690979D01*
X274050979Y-102690979D02*
X246649021Y-102690979D01*
X246649021Y-102690979D02*
X246380000Y-102960000D01*
X297180000Y-102960000D02*
X296910979Y-102690979D01*
X296910979Y-102690979D02*
X274589021Y-102690979D01*
X274589021Y-102690979D02*
X274320000Y-102960000D01*
X317500000Y-102960000D02*
X317230979Y-102690979D01*
X317230979Y-102690979D02*
X297449021Y-102690979D01*
X297449021Y-102690979D02*
X297180000Y-102960000D01*
X287020000Y-82640000D02*
X317500000Y-82640000D01*
X256540000Y-82640000D02*
X287020000Y-82640000D01*
X236220000Y-82640000D02*
X256540000Y-82640000D01*
X218440000Y-82640000D02*
X236220000Y-82640000D01*
X198120000Y-82640000D02*
X218440000Y-82640000D01*
X180340000Y-82640000D02*
X198120000Y-82640000D01*
X160020000Y-82640000D02*
X180340000Y-82640000D01*
X142240000Y-82640000D02*
X160020000Y-82640000D01*
X121920000Y-82640000D02*
X142240000Y-82640000D01*
X104140000Y-82740500D02*
X121819500Y-82740500D01*
X121819500Y-82740500D02*
X121920000Y-82640000D01*
X83820000Y-82640000D02*
X104039500Y-82640000D01*
X104039500Y-82640000D02*
X104140000Y-82740500D01*
X66040000Y-82640000D02*
X83820000Y-82640000D01*
X40640000Y-82640000D02*
X66040000Y-82640000D01*
X60960000Y-64860000D02*
X60690979Y-64590979D01*
X60690979Y-64590979D02*
X38369021Y-64590979D01*
X38369021Y-64590979D02*
X38100000Y-64860000D01*
X81280000Y-65265500D02*
X80605479Y-64590979D01*
X80605479Y-64590979D02*
X61229021Y-64590979D01*
X61229021Y-64590979D02*
X60960000Y-64860000D01*
X99060000Y-64860000D02*
X96577489Y-67342511D01*
X96577489Y-67342511D02*
X83357011Y-67342511D01*
X83357011Y-67342511D02*
X81280000Y-65265500D01*
X119380000Y-64860000D02*
X116897489Y-67342511D01*
X116897489Y-67342511D02*
X101542511Y-67342511D01*
X101542511Y-67342511D02*
X99060000Y-64860000D01*
X137160000Y-64860000D02*
X134677489Y-67342511D01*
X134677489Y-67342511D02*
X121862511Y-67342511D01*
X121862511Y-67342511D02*
X119380000Y-64860000D01*
X157480000Y-64860000D02*
X157210979Y-64590979D01*
X157210979Y-64590979D02*
X137429021Y-64590979D01*
X137429021Y-64590979D02*
X137160000Y-64860000D01*
X175260000Y-64860000D02*
X172777489Y-67342511D01*
X172777489Y-67342511D02*
X159962511Y-67342511D01*
X159962511Y-67342511D02*
X157480000Y-64860000D01*
X195580000Y-64860000D02*
X193097489Y-67342511D01*
X177742511Y-67342511D02*
X175260000Y-64860000D01*
X193097489Y-67342511D02*
X177742511Y-67342511D01*
X213360000Y-64860000D02*
X210877489Y-67342511D01*
X210877489Y-67342511D02*
X198062511Y-67342511D01*
X198062511Y-67342511D02*
X195580000Y-64860000D01*
X231140000Y-64860000D02*
X230870979Y-64590979D01*
X230870979Y-64590979D02*
X213629021Y-64590979D01*
X213629021Y-64590979D02*
X213360000Y-64860000D01*
X251460000Y-64860000D02*
X251190979Y-64590979D01*
X251190979Y-64590979D02*
X231409021Y-64590979D01*
X231409021Y-64590979D02*
X231140000Y-64860000D01*
X271780000Y-65825000D02*
X270545979Y-64590979D01*
X270545979Y-64590979D02*
X251729021Y-64590979D01*
X251729021Y-64590979D02*
X251460000Y-64860000D01*
X294640000Y-64860000D02*
X292157489Y-67342511D01*
X292157489Y-67342511D02*
X273297511Y-67342511D01*
X273297511Y-67342511D02*
X271780000Y-65825000D01*
X317500000Y-64860000D02*
X317230979Y-64590979D01*
X317230979Y-64590979D02*
X294909021Y-64590979D01*
X294909021Y-64590979D02*
X294640000Y-64860000D01*
X289560000Y-44540000D02*
X317500000Y-44540000D01*
X261620000Y-44540000D02*
X289560000Y-44540000D01*
X241300000Y-44540000D02*
X261620000Y-44540000D01*
X223520000Y-44540000D02*
X241300000Y-44540000D01*
X203200000Y-44540000D02*
X223520000Y-44540000D01*
X185420000Y-44540000D02*
X203200000Y-44540000D01*
X165100000Y-44540000D02*
X185420000Y-44540000D01*
X147320000Y-44540000D02*
X165100000Y-44540000D01*
X127000000Y-44540000D02*
X147320000Y-44540000D01*
X109220000Y-44540000D02*
X127000000Y-44540000D01*
X88900000Y-44540000D02*
X109220000Y-44540000D01*
X71120000Y-44540000D02*
X88900000Y-44540000D01*
X50800000Y-44540000D02*
X71120000Y-44540000D01*
X33020000Y-44540000D02*
X50800000Y-44540000D01*
M02*
