G04 #@! TF.GenerationSoftware,KiCad,Pcbnew,6.0.2+dfsg-1*
G04 #@! TF.CreationDate,2023-02-02T22:28:34+01:00*
G04 #@! TF.ProjectId,keyboard,6b657962-6f61-4726-942e-6b696361645f,rev?*
G04 #@! TF.SameCoordinates,Original*
G04 #@! TF.FileFunction,Soldermask,Bot*
G04 #@! TF.FilePolarity,Negative*
%FSLAX46Y46*%
G04 Gerber Fmt 4.6, Leading zero omitted, Abs format (unit mm)*
G04 Created by KiCad (PCBNEW 6.0.2+dfsg-1) date 2023-02-02 22:28:34*
%MOMM*%
%LPD*%
G01*
G04 APERTURE LIST*
%ADD10C,1.900000*%
%ADD11C,3.400000*%
%ADD12C,1.200000*%
%ADD13C,2.000000*%
%ADD14C,1.905000*%
%ADD15R,1.905000X1.905000*%
%ADD16R,1.600000X1.600000*%
%ADD17C,1.600000*%
%ADD18R,1.752600X1.752600*%
%ADD19C,1.752600*%
G04 APERTURE END LIST*
D10*
X194846500Y-80415500D03*
D11*
X189346500Y-80415500D03*
D12*
X184126500Y-84615500D03*
D10*
X183846500Y-80415500D03*
D13*
X194346500Y-76615500D03*
X189346500Y-74515500D03*
D14*
X188076500Y-85115500D03*
D15*
X190616500Y-85115500D03*
D12*
X157932750Y-122715500D03*
D11*
X163152750Y-118515500D03*
D10*
X168652750Y-118515500D03*
X157652750Y-118515500D03*
D13*
X168152750Y-114715500D03*
X163152750Y-112615500D03*
D14*
X161882750Y-123215500D03*
D15*
X164422750Y-123215500D03*
D13*
X258402750Y-112615500D03*
D11*
X258402750Y-118515500D03*
D13*
X263402750Y-114715500D03*
D10*
X252902750Y-118515500D03*
X263902750Y-118515500D03*
D12*
X253182750Y-122715500D03*
D14*
X257132750Y-123215500D03*
D15*
X259672750Y-123215500D03*
D13*
X234590250Y-112615500D03*
D11*
X234590250Y-118515500D03*
D13*
X239590250Y-114715500D03*
D10*
X229090250Y-118515500D03*
X240090250Y-118515500D03*
D12*
X229370250Y-122715500D03*
D14*
X233320250Y-123215500D03*
D15*
X235860250Y-123215500D03*
D13*
X91715250Y-112615500D03*
D11*
X91715250Y-118515500D03*
D13*
X96715250Y-114715500D03*
D10*
X86215250Y-118515500D03*
X97215250Y-118515500D03*
D12*
X86495250Y-122715500D03*
D14*
X90445250Y-123215500D03*
D15*
X92985250Y-123215500D03*
D13*
X67902750Y-112615500D03*
D11*
X67902750Y-118515500D03*
D13*
X72902750Y-114715500D03*
D10*
X62402750Y-118515500D03*
X73402750Y-118515500D03*
D12*
X62682750Y-122715500D03*
D14*
X66632750Y-123215500D03*
D15*
X69172750Y-123215500D03*
D13*
X44090250Y-112615500D03*
D11*
X44090250Y-118515500D03*
D13*
X49090250Y-114715500D03*
D10*
X38590250Y-118515500D03*
X49590250Y-118515500D03*
D12*
X38870250Y-122715500D03*
D14*
X42820250Y-123215500D03*
D15*
X45360250Y-123215500D03*
D13*
X282215250Y-93565500D03*
D11*
X282215250Y-99465500D03*
D13*
X287215250Y-95665500D03*
D10*
X276715250Y-99465500D03*
X287715250Y-99465500D03*
D12*
X276995250Y-103665500D03*
D14*
X280945250Y-104165500D03*
D15*
X283485250Y-104165500D03*
D13*
X53615250Y-93565500D03*
D11*
X53615250Y-99465500D03*
D13*
X58615250Y-95665500D03*
D10*
X48115250Y-99465500D03*
X59115250Y-99465500D03*
D12*
X48395250Y-103665500D03*
D14*
X52345250Y-104165500D03*
D15*
X54885250Y-104165500D03*
D13*
X296502750Y-74515500D03*
D11*
X296502750Y-80415500D03*
D13*
X301502750Y-76615500D03*
D10*
X291002750Y-80415500D03*
X302002750Y-80415500D03*
D12*
X291282750Y-84615500D03*
D14*
X295232750Y-85115500D03*
D15*
X297772750Y-85115500D03*
D13*
X48852750Y-74515500D03*
D11*
X48852750Y-80415500D03*
D13*
X53852750Y-76615500D03*
D10*
X43352750Y-80415500D03*
X54352750Y-80415500D03*
D12*
X43632750Y-84615500D03*
D14*
X47582750Y-85115500D03*
D15*
X50122750Y-85115500D03*
D13*
X303646500Y-55465500D03*
D11*
X303646500Y-61365500D03*
D13*
X308646500Y-57565500D03*
D10*
X298146500Y-61365500D03*
X309146500Y-61365500D03*
D12*
X298426500Y-65565500D03*
D14*
X302376500Y-66065500D03*
D15*
X304916500Y-66065500D03*
D13*
X46471500Y-55465500D03*
D11*
X46471500Y-61365500D03*
D13*
X51471500Y-57565500D03*
D10*
X40971500Y-61365500D03*
X51971500Y-61365500D03*
D12*
X41251500Y-65565500D03*
D14*
X45201500Y-66065500D03*
D15*
X47741500Y-66065500D03*
D13*
X298884000Y-36415500D03*
D11*
X298884000Y-42315500D03*
D13*
X303884000Y-38515500D03*
D10*
X293384000Y-42315500D03*
X304384000Y-42315500D03*
D12*
X293664000Y-46515500D03*
D14*
X297614000Y-47015500D03*
D15*
X300154000Y-47015500D03*
D16*
X317500000Y-44540000D03*
D17*
X317500000Y-36740000D03*
D16*
X317500000Y-120740000D03*
D17*
X317500000Y-112940000D03*
D16*
X299720000Y-120740000D03*
D17*
X299720000Y-112940000D03*
D16*
X279400000Y-120740000D03*
D17*
X279400000Y-112940000D03*
D16*
X248920000Y-120740000D03*
D17*
X248920000Y-112940000D03*
D16*
X226060000Y-120740000D03*
D17*
X226060000Y-112940000D03*
D16*
X154940000Y-120740000D03*
D17*
X154940000Y-112940000D03*
D16*
X83820000Y-120740000D03*
D17*
X83820000Y-112940000D03*
D16*
X58420000Y-120740000D03*
D17*
X58420000Y-112940000D03*
D16*
X35560000Y-120740000D03*
D17*
X35560000Y-112940000D03*
D16*
X317500000Y-102960000D03*
D17*
X317500000Y-95160000D03*
D16*
X297180000Y-102960000D03*
D17*
X297180000Y-95160000D03*
D16*
X274320000Y-102960000D03*
D17*
X274320000Y-95160000D03*
D16*
X246380000Y-102960000D03*
D17*
X246380000Y-95160000D03*
D16*
X228600000Y-102960000D03*
D17*
X228600000Y-95160000D03*
D16*
X208280000Y-102960000D03*
D17*
X208280000Y-95160000D03*
D16*
X190500000Y-101995000D03*
D17*
X190500000Y-94195000D03*
D16*
X170180000Y-101995000D03*
D17*
X170180000Y-94195000D03*
D16*
X152400000Y-101995000D03*
D17*
X152400000Y-94195000D03*
D16*
X132080000Y-102960000D03*
D17*
X132080000Y-95160000D03*
D16*
X114300000Y-102960000D03*
D17*
X114300000Y-95160000D03*
D16*
X93980000Y-102960000D03*
D17*
X93980000Y-95160000D03*
D16*
X76200000Y-102960000D03*
D17*
X76200000Y-95160000D03*
D16*
X45720000Y-102960000D03*
D17*
X45720000Y-95160000D03*
D16*
X317500000Y-82640000D03*
D17*
X317500000Y-74840000D03*
D16*
X287020000Y-82640000D03*
D17*
X287020000Y-74840000D03*
D16*
X256540000Y-82640000D03*
D17*
X256540000Y-74840000D03*
D16*
X236220000Y-82640000D03*
D17*
X236220000Y-74840000D03*
D16*
X218440000Y-82640000D03*
D17*
X218440000Y-74840000D03*
D16*
X198120000Y-82640000D03*
D17*
X198120000Y-74840000D03*
D16*
X180340000Y-82640000D03*
D17*
X180340000Y-74840000D03*
D16*
X160020000Y-82640000D03*
D17*
X160020000Y-74840000D03*
D16*
X142240000Y-82640000D03*
D17*
X142240000Y-74840000D03*
D16*
X121920000Y-82640000D03*
D17*
X121920000Y-74840000D03*
D16*
X104140000Y-82740500D03*
D17*
X104140000Y-74940500D03*
D16*
X83820000Y-82640000D03*
D17*
X83820000Y-74840000D03*
D16*
X66040000Y-82640000D03*
D17*
X66040000Y-74840000D03*
D16*
X40640000Y-82640000D03*
D17*
X40640000Y-74840000D03*
D16*
X317500000Y-64860000D03*
D17*
X317500000Y-57060000D03*
D16*
X294640000Y-64860000D03*
D17*
X294640000Y-57060000D03*
D16*
X271780000Y-65825000D03*
D17*
X271780000Y-58025000D03*
D16*
X251460000Y-64860000D03*
D17*
X251460000Y-57060000D03*
X231140000Y-57060000D03*
D16*
X231140000Y-64860000D03*
X213360000Y-64860000D03*
D17*
X213360000Y-57060000D03*
D16*
X195580000Y-64860000D03*
D17*
X195580000Y-57060000D03*
D16*
X175260000Y-64860000D03*
D17*
X175260000Y-57060000D03*
D16*
X157480000Y-64860000D03*
D17*
X157480000Y-57060000D03*
D16*
X137160000Y-64860000D03*
D17*
X137160000Y-57060000D03*
X119380000Y-57060000D03*
D16*
X119380000Y-64860000D03*
X99060000Y-64860000D03*
D17*
X99060000Y-57060000D03*
D16*
X81280000Y-65265500D03*
D17*
X81280000Y-57465500D03*
D16*
X60960000Y-64860000D03*
D17*
X60960000Y-57060000D03*
D16*
X38100000Y-64860000D03*
D17*
X38100000Y-57060000D03*
D16*
X289560000Y-44540000D03*
D17*
X289560000Y-36740000D03*
D16*
X261620000Y-44540000D03*
D17*
X261620000Y-36740000D03*
D16*
X241300000Y-44540000D03*
D17*
X241300000Y-36740000D03*
D16*
X223520000Y-44540000D03*
D17*
X223520000Y-36740000D03*
D16*
X203200000Y-44540000D03*
D17*
X203200000Y-36740000D03*
D16*
X185420000Y-44540000D03*
D17*
X185420000Y-36740000D03*
D16*
X165100000Y-44540000D03*
D17*
X165100000Y-36740000D03*
D16*
X147320000Y-44540000D03*
D17*
X147320000Y-36740000D03*
D16*
X127000000Y-44540000D03*
D17*
X127000000Y-36740000D03*
D16*
X109220000Y-44540000D03*
D17*
X109220000Y-36740000D03*
D16*
X88900000Y-44540000D03*
D17*
X88900000Y-36740000D03*
D16*
X71120000Y-44540000D03*
D17*
X71120000Y-36740000D03*
D16*
X50800000Y-44540000D03*
D17*
X50800000Y-36740000D03*
D16*
X33020000Y-44540000D03*
D17*
X33020000Y-36740000D03*
D12*
X74589000Y-46515500D03*
D10*
X74309000Y-42315500D03*
X85309000Y-42315500D03*
D11*
X79809000Y-42315500D03*
D13*
X84809000Y-38515500D03*
X79809000Y-36415500D03*
D14*
X78539000Y-47015500D03*
D15*
X81079000Y-47015500D03*
D12*
X79351500Y-103665500D03*
D10*
X90071500Y-99465500D03*
D11*
X84571500Y-99465500D03*
D10*
X79071500Y-99465500D03*
D13*
X89571500Y-95665500D03*
X84571500Y-93565500D03*
D14*
X83301500Y-104165500D03*
D15*
X85841500Y-104165500D03*
D12*
X255564000Y-65565500D03*
D11*
X260784000Y-61365500D03*
D10*
X255284000Y-61365500D03*
X266284000Y-61365500D03*
D13*
X265784000Y-57565500D03*
X260784000Y-55465500D03*
D14*
X259514000Y-66065500D03*
D15*
X262054000Y-66065500D03*
D11*
X279834000Y-61365500D03*
D10*
X274334000Y-61365500D03*
X285334000Y-61365500D03*
D12*
X274614000Y-65565500D03*
D13*
X284834000Y-57565500D03*
X279834000Y-55465500D03*
D14*
X278564000Y-66065500D03*
D15*
X281104000Y-66065500D03*
D11*
X327459000Y-118515500D03*
D12*
X322239000Y-122715500D03*
D10*
X321959000Y-118515500D03*
X332959000Y-118515500D03*
D13*
X332459000Y-114715500D03*
X327459000Y-112615500D03*
D14*
X326189000Y-123215500D03*
D15*
X328729000Y-123215500D03*
D12*
X188889000Y-46515500D03*
D11*
X194109000Y-42315500D03*
D10*
X199609000Y-42315500D03*
X188609000Y-42315500D03*
D13*
X199109000Y-38515500D03*
X194109000Y-36415500D03*
D14*
X192839000Y-47015500D03*
D15*
X195379000Y-47015500D03*
D11*
X175059000Y-42315500D03*
D10*
X180559000Y-42315500D03*
X169559000Y-42315500D03*
D12*
X169839000Y-46515500D03*
D13*
X180059000Y-38515500D03*
X175059000Y-36415500D03*
D14*
X173789000Y-47015500D03*
D15*
X176329000Y-47015500D03*
D10*
X250521500Y-99465500D03*
D11*
X256021500Y-99465500D03*
D10*
X261521500Y-99465500D03*
D12*
X250801500Y-103665500D03*
D13*
X261021500Y-95665500D03*
X256021500Y-93565500D03*
D14*
X254751500Y-104165500D03*
D15*
X257291500Y-104165500D03*
D12*
X198414000Y-65565500D03*
D11*
X203634000Y-61365500D03*
D10*
X198134000Y-61365500D03*
X209134000Y-61365500D03*
D13*
X208634000Y-57565500D03*
X203634000Y-55465500D03*
D14*
X202364000Y-66065500D03*
D15*
X204904000Y-66065500D03*
D11*
X213159000Y-42315500D03*
D10*
X218659000Y-42315500D03*
D12*
X207939000Y-46515500D03*
D10*
X207659000Y-42315500D03*
D13*
X218159000Y-38515500D03*
X213159000Y-36415500D03*
D14*
X211889000Y-47015500D03*
D15*
X214429000Y-47015500D03*
D11*
X289359000Y-118515500D03*
D12*
X284139000Y-122715500D03*
D10*
X294859000Y-118515500D03*
X283859000Y-118515500D03*
D13*
X294359000Y-114715500D03*
X289359000Y-112615500D03*
D14*
X288089000Y-123215500D03*
D15*
X290629000Y-123215500D03*
D12*
X117451500Y-103665500D03*
D10*
X128171500Y-99465500D03*
X117171500Y-99465500D03*
D11*
X122671500Y-99465500D03*
D13*
X127671500Y-95665500D03*
X122671500Y-93565500D03*
D14*
X121401500Y-104165500D03*
D15*
X123941500Y-104165500D03*
D10*
X332959000Y-61365500D03*
X321959000Y-61365500D03*
D11*
X327459000Y-61365500D03*
D12*
X322239000Y-65565500D03*
D13*
X332459000Y-57565500D03*
X327459000Y-55465500D03*
D14*
X326189000Y-66065500D03*
D15*
X328729000Y-66065500D03*
D11*
X246496500Y-80415500D03*
D10*
X240996500Y-80415500D03*
D12*
X241276500Y-84615500D03*
D10*
X251996500Y-80415500D03*
D13*
X251496500Y-76615500D03*
X246496500Y-74515500D03*
D14*
X245226500Y-85115500D03*
D15*
X247766500Y-85115500D03*
D11*
X117909000Y-42315500D03*
D12*
X112689000Y-46515500D03*
D10*
X123409000Y-42315500D03*
X112409000Y-42315500D03*
D13*
X122909000Y-38515500D03*
X117909000Y-36415500D03*
D14*
X116639000Y-47015500D03*
D15*
X119179000Y-47015500D03*
D18*
X204470000Y-127000000D03*
D19*
X201930000Y-127000000D03*
X199390000Y-127000000D03*
X196850000Y-127000000D03*
X194310000Y-127000000D03*
X191770000Y-127000000D03*
X189230000Y-127000000D03*
X186690000Y-127000000D03*
X184150000Y-127000000D03*
X181610000Y-127000000D03*
X179070000Y-127000000D03*
X176530000Y-126771400D03*
X176530000Y-111760000D03*
X179070000Y-111760000D03*
X181610000Y-111760000D03*
X184150000Y-111760000D03*
X186690000Y-111760000D03*
X189230000Y-111760000D03*
X191770000Y-111760000D03*
X194310000Y-111760000D03*
X196850000Y-111760000D03*
X199390000Y-111760000D03*
X201930000Y-111760000D03*
X204470000Y-111760000D03*
X176530000Y-124460000D03*
X176530000Y-121920000D03*
X176530000Y-119380000D03*
X176530000Y-116840000D03*
X176530000Y-114300000D03*
D10*
X213896500Y-80415500D03*
X202896500Y-80415500D03*
D12*
X203176500Y-84615500D03*
D11*
X208396500Y-80415500D03*
D13*
X213396500Y-76615500D03*
X208396500Y-74515500D03*
D14*
X207126500Y-85115500D03*
D15*
X209666500Y-85115500D03*
D12*
X150789000Y-46515500D03*
D10*
X150509000Y-42315500D03*
D11*
X156009000Y-42315500D03*
D10*
X161509000Y-42315500D03*
D13*
X161009000Y-38515500D03*
X156009000Y-36415500D03*
D14*
X154739000Y-47015500D03*
D15*
X157279000Y-47015500D03*
D11*
X94096500Y-80415500D03*
D10*
X99596500Y-80415500D03*
X88596500Y-80415500D03*
D12*
X88876500Y-84615500D03*
D13*
X99096500Y-76615500D03*
X94096500Y-74515500D03*
D14*
X92826500Y-85115500D03*
D15*
X95366500Y-85115500D03*
D12*
X174601500Y-103665500D03*
D10*
X185321500Y-99465500D03*
X174321500Y-99465500D03*
D11*
X179821500Y-99465500D03*
D13*
X184821500Y-95665500D03*
X179821500Y-93565500D03*
D14*
X178551500Y-104165500D03*
D15*
X181091500Y-104165500D03*
D11*
X127434000Y-61365500D03*
D10*
X121934000Y-61365500D03*
X132934000Y-61365500D03*
D12*
X122214000Y-65565500D03*
D13*
X132434000Y-57565500D03*
X127434000Y-55465500D03*
D14*
X126164000Y-66065500D03*
D15*
X128704000Y-66065500D03*
D10*
X228184000Y-61365500D03*
X217184000Y-61365500D03*
D12*
X217464000Y-65565500D03*
D11*
X222684000Y-61365500D03*
D13*
X227684000Y-57565500D03*
X222684000Y-55465500D03*
D14*
X221414000Y-66065500D03*
D15*
X223954000Y-66065500D03*
D10*
X136221500Y-99465500D03*
X147221500Y-99465500D03*
D12*
X136501500Y-103665500D03*
D11*
X141721500Y-99465500D03*
D13*
X146721500Y-95665500D03*
X141721500Y-93565500D03*
D14*
X140451500Y-104165500D03*
D15*
X142991500Y-104165500D03*
D12*
X303189000Y-122715500D03*
D10*
X313909000Y-118515500D03*
D11*
X308409000Y-118515500D03*
D10*
X302909000Y-118515500D03*
D13*
X313409000Y-114715500D03*
X308409000Y-112615500D03*
D14*
X307139000Y-123215500D03*
D15*
X309679000Y-123215500D03*
D10*
X155271500Y-99465500D03*
D11*
X160771500Y-99465500D03*
D12*
X155551500Y-103665500D03*
D10*
X166271500Y-99465500D03*
D13*
X165771500Y-95665500D03*
X160771500Y-93565500D03*
D14*
X159501500Y-104165500D03*
D15*
X162041500Y-104165500D03*
D10*
X156746500Y-80415500D03*
D12*
X146026500Y-84615500D03*
D10*
X145746500Y-80415500D03*
D11*
X151246500Y-80415500D03*
D13*
X156246500Y-76615500D03*
X151246500Y-74515500D03*
D14*
X149976500Y-85115500D03*
D15*
X152516500Y-85115500D03*
D12*
X193651500Y-103665500D03*
D10*
X204371500Y-99465500D03*
X193371500Y-99465500D03*
D11*
X198871500Y-99465500D03*
D13*
X203871500Y-95665500D03*
X198871500Y-93565500D03*
D14*
X197601500Y-104165500D03*
D15*
X200141500Y-104165500D03*
D10*
X302909000Y-99465500D03*
D12*
X303189000Y-103665500D03*
D11*
X308409000Y-99465500D03*
D10*
X313909000Y-99465500D03*
D13*
X313409000Y-95665500D03*
X308409000Y-93565500D03*
D14*
X307139000Y-104165500D03*
D15*
X309679000Y-104165500D03*
D11*
X98859000Y-42315500D03*
D12*
X93639000Y-46515500D03*
D10*
X93359000Y-42315500D03*
X104359000Y-42315500D03*
D13*
X103859000Y-38515500D03*
X98859000Y-36415500D03*
D14*
X97589000Y-47015500D03*
D15*
X100129000Y-47015500D03*
D10*
X236234000Y-61365500D03*
D11*
X241734000Y-61365500D03*
D10*
X247234000Y-61365500D03*
D12*
X236514000Y-65565500D03*
D13*
X246734000Y-57565500D03*
X241734000Y-55465500D03*
D14*
X240464000Y-66065500D03*
D15*
X243004000Y-66065500D03*
D12*
X107926500Y-84615500D03*
D10*
X118646500Y-80415500D03*
D11*
X113146500Y-80415500D03*
D10*
X107646500Y-80415500D03*
D13*
X118146500Y-76615500D03*
X113146500Y-74515500D03*
D14*
X111876500Y-85115500D03*
D15*
X114416500Y-85115500D03*
D11*
X70284000Y-61365500D03*
D10*
X75784000Y-61365500D03*
D12*
X65064000Y-65565500D03*
D10*
X64784000Y-61365500D03*
D13*
X75284000Y-57565500D03*
X70284000Y-55465500D03*
D14*
X69014000Y-66065500D03*
D15*
X71554000Y-66065500D03*
D10*
X142459000Y-42315500D03*
X131459000Y-42315500D03*
D12*
X131739000Y-46515500D03*
D11*
X136959000Y-42315500D03*
D13*
X141959000Y-38515500D03*
X136959000Y-36415500D03*
D14*
X135689000Y-47015500D03*
D15*
X138229000Y-47015500D03*
D12*
X69826500Y-84615500D03*
D10*
X69546500Y-80415500D03*
D11*
X75046500Y-80415500D03*
D10*
X80546500Y-80415500D03*
D13*
X80046500Y-76615500D03*
X75046500Y-74515500D03*
D14*
X73776500Y-85115500D03*
D15*
X76316500Y-85115500D03*
D11*
X146484000Y-61365500D03*
D10*
X140984000Y-61365500D03*
X151984000Y-61365500D03*
D12*
X141264000Y-65565500D03*
D13*
X151484000Y-57565500D03*
X146484000Y-55465500D03*
D14*
X145214000Y-66065500D03*
D15*
X147754000Y-66065500D03*
D10*
X94834000Y-61365500D03*
D11*
X89334000Y-61365500D03*
D10*
X83834000Y-61365500D03*
D12*
X84114000Y-65565500D03*
D13*
X94334000Y-57565500D03*
X89334000Y-55465500D03*
D14*
X88064000Y-66065500D03*
D15*
X90604000Y-66065500D03*
D12*
X322239000Y-46515500D03*
D11*
X327459000Y-42315500D03*
D10*
X321959000Y-42315500D03*
X332959000Y-42315500D03*
D13*
X332459000Y-38515500D03*
X327459000Y-36415500D03*
D14*
X326189000Y-47015500D03*
D15*
X328729000Y-47015500D03*
D10*
X109121500Y-99465500D03*
D11*
X103621500Y-99465500D03*
D10*
X98121500Y-99465500D03*
D12*
X98401500Y-103665500D03*
D13*
X108621500Y-95665500D03*
X103621500Y-93565500D03*
D14*
X102351500Y-104165500D03*
D15*
X104891500Y-104165500D03*
D11*
X251259000Y-42315500D03*
D10*
X256759000Y-42315500D03*
X245759000Y-42315500D03*
D12*
X246039000Y-46515500D03*
D13*
X256259000Y-38515500D03*
X251259000Y-36415500D03*
D14*
X249989000Y-47015500D03*
D15*
X252529000Y-47015500D03*
D11*
X170296500Y-80415500D03*
D10*
X164796500Y-80415500D03*
D12*
X165076500Y-84615500D03*
D10*
X175796500Y-80415500D03*
D13*
X175296500Y-76615500D03*
X170296500Y-74515500D03*
D14*
X169026500Y-85115500D03*
D15*
X171566500Y-85115500D03*
D11*
X165534000Y-61365500D03*
D10*
X160034000Y-61365500D03*
D12*
X160314000Y-65565500D03*
D10*
X171034000Y-61365500D03*
D13*
X170534000Y-57565500D03*
X165534000Y-55465500D03*
D14*
X164264000Y-66065500D03*
D15*
X166804000Y-66065500D03*
D10*
X190084000Y-61365500D03*
X179084000Y-61365500D03*
D12*
X179364000Y-65565500D03*
D11*
X184584000Y-61365500D03*
D13*
X189584000Y-57565500D03*
X184584000Y-55465500D03*
D14*
X183314000Y-66065500D03*
D15*
X185854000Y-66065500D03*
D12*
X55539000Y-46515500D03*
D10*
X55259000Y-42315500D03*
D11*
X60759000Y-42315500D03*
D10*
X66259000Y-42315500D03*
D13*
X65759000Y-38515500D03*
X60759000Y-36415500D03*
D14*
X59489000Y-47015500D03*
D15*
X62029000Y-47015500D03*
D11*
X217921500Y-99465500D03*
D10*
X223421500Y-99465500D03*
D12*
X212701500Y-103665500D03*
D10*
X212421500Y-99465500D03*
D13*
X222921500Y-95665500D03*
X217921500Y-93565500D03*
D14*
X216651500Y-104165500D03*
D15*
X219191500Y-104165500D03*
D10*
X231471500Y-99465500D03*
D12*
X231751500Y-103665500D03*
D11*
X236971500Y-99465500D03*
D10*
X242471500Y-99465500D03*
D13*
X241971500Y-95665500D03*
X236971500Y-93565500D03*
D14*
X235701500Y-104165500D03*
D15*
X238241500Y-104165500D03*
D10*
X113884000Y-61365500D03*
X102884000Y-61365500D03*
D12*
X103164000Y-65565500D03*
D11*
X108384000Y-61365500D03*
D13*
X113384000Y-57565500D03*
X108384000Y-55465500D03*
D14*
X107114000Y-66065500D03*
D15*
X109654000Y-66065500D03*
D11*
X327459000Y-99465500D03*
D12*
X322239000Y-103665500D03*
D10*
X332959000Y-99465500D03*
X321959000Y-99465500D03*
D13*
X332459000Y-95665500D03*
X327459000Y-93565500D03*
D14*
X326189000Y-104165500D03*
D15*
X328729000Y-104165500D03*
D12*
X260326500Y-84615500D03*
D11*
X265546500Y-80415500D03*
D10*
X271046500Y-80415500D03*
X260046500Y-80415500D03*
D13*
X270546500Y-76615500D03*
X265546500Y-74515500D03*
D14*
X264276500Y-85115500D03*
D15*
X266816500Y-85115500D03*
D12*
X36489000Y-46515500D03*
D10*
X36209000Y-42315500D03*
X47209000Y-42315500D03*
D11*
X41709000Y-42315500D03*
D13*
X46709000Y-38515500D03*
X41709000Y-36415500D03*
D14*
X40439000Y-47015500D03*
D15*
X42979000Y-47015500D03*
D12*
X322239000Y-84615500D03*
D11*
X327459000Y-80415500D03*
D10*
X332959000Y-80415500D03*
X321959000Y-80415500D03*
D13*
X332459000Y-76615500D03*
X327459000Y-74515500D03*
D14*
X326189000Y-85115500D03*
D15*
X328729000Y-85115500D03*
D10*
X226709000Y-42315500D03*
X237709000Y-42315500D03*
D12*
X226989000Y-46515500D03*
D11*
X232209000Y-42315500D03*
D13*
X237209000Y-38515500D03*
X232209000Y-36415500D03*
D14*
X230939000Y-47015500D03*
D15*
X233479000Y-47015500D03*
D10*
X264809000Y-42315500D03*
D11*
X270309000Y-42315500D03*
D10*
X275809000Y-42315500D03*
D12*
X265089000Y-46515500D03*
D13*
X275309000Y-38515500D03*
X270309000Y-36415500D03*
D14*
X269039000Y-47015500D03*
D15*
X271579000Y-47015500D03*
D12*
X126976500Y-84615500D03*
D11*
X132196500Y-80415500D03*
D10*
X126696500Y-80415500D03*
X137696500Y-80415500D03*
D13*
X137196500Y-76615500D03*
X132196500Y-74515500D03*
D14*
X130926500Y-85115500D03*
D15*
X133466500Y-85115500D03*
D10*
X221946500Y-80415500D03*
X232946500Y-80415500D03*
D11*
X227446500Y-80415500D03*
D12*
X222226500Y-84615500D03*
D13*
X232446500Y-76615500D03*
X227446500Y-74515500D03*
D14*
X226176500Y-85115500D03*
D15*
X228716500Y-85115500D03*
M02*
