M48
; DRILL file {KiCad 6.0.2+dfsg-1} date do 02 feb 2023 22:28:39 CET
; FORMAT={-:-/ absolute / inch / decimal}
; #@! TF.CreationDate,2023-02-02T22:28:39+01:00
; #@! TF.GenerationSoftware,Kicad,Pcbnew,6.0.2+dfsg-1
; #@! TF.FileFunction,Plated,1,2,PTH
FMAT,2
INCH
; #@! TA.AperFunction,Plated,PTH,ViaDrill
T1C0.0157
; #@! TA.AperFunction,Plated,PTH,ComponentDrill
T2C0.0276
; #@! TA.AperFunction,Plated,PTH,ComponentDrill
T3C0.0409
; #@! TA.AperFunction,Plated,PTH,ComponentDrill
T4C0.0430
; #@! TA.AperFunction,Plated,PTH,ComponentDrill
T5C0.0472
%
G90
G05
T1
X6.3Y-4.525
X6.35Y-4.275
X6.6Y-4.25
X6.7375Y-4.8625
X6.775Y-4.55
X6.775Y-4.675
X7.175Y-5.125
X7.2Y-3.45
X7.35Y-4.125
X7.375Y-2.4
X7.45Y-3.45
X7.55Y-4.125
X7.65Y-3.45
X7.675Y-4.25
X7.85Y-3.45
X9.575Y-4.95
X9.925Y-4.95
X12.325Y-4.95
T2
X1.3Y-1.4465
X1.3Y-1.7535
X1.4Y-4.4465
X1.4Y-4.7535
X1.5Y-2.2465
X1.5Y-2.5535
X1.6Y-2.9465
X1.6Y-3.2535
X1.8Y-3.7465
X1.8Y-4.0535
X2.0Y-1.4465
X2.0Y-1.7535
X2.3Y-4.4465
X2.3Y-4.7535
X2.4Y-2.2465
X2.4Y-2.5535
X2.6Y-2.9465
X2.6Y-3.2535
X2.8Y-1.4465
X2.8Y-1.7535
X3.0Y-3.7465
X3.0Y-4.0535
X3.2Y-2.2624
X3.2Y-2.5695
X3.3Y-2.9465
X3.3Y-3.2535
X3.3Y-4.4465
X3.3Y-4.7535
X3.5Y-1.4465
X3.5Y-1.7535
X3.7Y-3.7465
X3.7Y-4.0535
X3.9Y-2.2465
X3.9Y-2.5535
X4.1Y-2.9504
X4.1Y-3.2575
X4.3Y-1.4465
X4.3Y-1.7535
X4.5Y-3.7465
X4.5Y-4.0535
X4.7Y-2.2465
X4.7Y-2.5535
X4.8Y-2.9465
X4.8Y-3.2535
X5.0Y-1.4465
X5.0Y-1.7535
X5.2Y-3.7465
X5.2Y-4.0535
X5.4Y-2.2465
X5.4Y-2.5535
X5.6Y-2.9465
X5.6Y-3.2535
X5.8Y-1.4465
X5.8Y-1.7535
X6.0Y-3.7085
X6.0Y-4.0156
X6.1Y-4.4465
X6.1Y-4.7535
X6.2Y-2.2465
X6.2Y-2.5535
X6.3Y-2.9465
X6.3Y-3.2535
X6.5Y-1.4465
X6.5Y-1.7535
X6.7Y-3.7085
X6.7Y-4.0156
X6.9Y-2.2465
X6.9Y-2.5535
X7.1Y-2.9465
X7.1Y-3.2535
X7.3Y-1.4465
X7.3Y-1.7535
X7.5Y-3.7085
X7.5Y-4.0156
X7.7Y-2.2465
X7.7Y-2.5535
X7.8Y-2.9465
X7.8Y-3.2535
X8.0Y-1.4465
X8.0Y-1.7535
X8.2Y-3.7465
X8.2Y-4.0535
X8.4Y-2.2465
X8.4Y-2.5535
X8.6Y-2.9465
X8.6Y-3.2535
X8.8Y-1.4465
X8.8Y-1.7535
X8.9Y-4.4465
X8.9Y-4.7535
X9.0Y-3.7465
X9.0Y-4.0535
X9.1Y-2.2465
X9.1Y-2.5535
X9.3Y-2.9465
X9.3Y-3.2535
X9.5Y-1.4465
X9.5Y-1.7535
X9.7Y-3.7465
X9.7Y-4.0535
X9.8Y-4.4465
X9.8Y-4.7535
X9.9Y-2.2465
X9.9Y-2.5535
X10.1Y-2.9465
X10.1Y-3.2535
X10.3Y-1.4465
X10.3Y-1.7535
X10.7Y-2.2844
X10.7Y-2.5915
X10.8Y-3.7465
X10.8Y-4.0535
X11.0Y-4.4465
X11.0Y-4.7535
X11.3Y-2.9465
X11.3Y-3.2535
X11.4Y-1.4465
X11.4Y-1.7535
X11.6Y-2.2465
X11.6Y-2.5535
X11.7Y-3.7465
X11.7Y-4.0535
X11.8Y-4.4465
X11.8Y-4.7535
X12.5Y-1.4465
X12.5Y-1.7535
X12.5Y-2.2465
X12.5Y-2.5535
X12.5Y-2.9465
X12.5Y-3.2535
X12.5Y-3.7465
X12.5Y-4.0535
X12.5Y-4.4465
X12.5Y-4.7535
T3
X1.5921Y-1.851
X1.6858Y-4.851
X1.6921Y-1.851
X1.7796Y-2.601
X1.7858Y-4.851
X1.8733Y-3.351
X1.8796Y-2.601
X1.9733Y-3.351
X2.0608Y-4.101
X2.1608Y-4.101
X2.3421Y-1.851
X2.4421Y-1.851
X2.6233Y-4.851
X2.7171Y-2.601
X2.7233Y-4.851
X2.8171Y-2.601
X2.9046Y-3.351
X3.0046Y-3.351
X3.0921Y-1.851
X3.1921Y-1.851
X3.2796Y-4.101
X3.3796Y-4.101
X3.4671Y-2.601
X3.5608Y-4.851
X3.5671Y-2.601
X3.6546Y-3.351
X3.6608Y-4.851
X3.7546Y-3.351
X3.8421Y-1.851
X3.9421Y-1.851
X4.0296Y-4.101
X4.1296Y-4.101
X4.2171Y-2.601
X4.3171Y-2.601
X4.4046Y-3.351
X4.5046Y-3.351
X4.5921Y-1.851
X4.6921Y-1.851
X4.7796Y-4.101
X4.8796Y-4.101
X4.9671Y-2.601
X5.0671Y-2.601
X5.1546Y-3.351
X5.2546Y-3.351
X5.3421Y-1.851
X5.4421Y-1.851
X5.5296Y-4.101
X5.6296Y-4.101
X5.7171Y-2.601
X5.8171Y-2.601
X5.9046Y-3.351
X6.0046Y-3.351
X6.0921Y-1.851
X6.1921Y-1.851
X6.2796Y-4.101
X6.3733Y-4.851
X6.3796Y-4.101
X6.4671Y-2.601
X6.4733Y-4.851
X6.5671Y-2.601
X6.6546Y-3.351
X6.7546Y-3.351
X6.8421Y-1.851
X6.9421Y-1.851
X7.0296Y-4.101
X7.1296Y-4.101
X7.2171Y-2.601
X7.3171Y-2.601
X7.4046Y-3.351
X7.5046Y-3.351
X7.5921Y-1.851
X7.6921Y-1.851
X7.7796Y-4.101
X7.8796Y-4.101
X7.9671Y-2.601
X8.0671Y-2.601
X8.1546Y-3.351
X8.2546Y-3.351
X8.3421Y-1.851
X8.4421Y-1.851
X8.5296Y-4.101
X8.6296Y-4.101
X8.7171Y-2.601
X8.8171Y-2.601
X8.9046Y-3.351
X9.0046Y-3.351
X9.0921Y-1.851
X9.1858Y-4.851
X9.1921Y-1.851
X9.2796Y-4.101
X9.2858Y-4.851
X9.3796Y-4.101
X9.4671Y-2.601
X9.5671Y-2.601
X9.6546Y-3.351
X9.7546Y-3.351
X9.8421Y-1.851
X9.9421Y-1.851
X10.0296Y-4.101
X10.1233Y-4.851
X10.1296Y-4.101
X10.2171Y-2.601
X10.2233Y-4.851
X10.3171Y-2.601
X10.4046Y-3.351
X10.5046Y-3.351
X10.5921Y-1.851
X10.6921Y-1.851
X10.9671Y-2.601
X11.0608Y-4.101
X11.0671Y-2.601
X11.1608Y-4.101
X11.3421Y-4.851
X11.4421Y-4.851
X11.6233Y-3.351
X11.7171Y-1.851
X11.7233Y-3.351
X11.8171Y-1.851
X11.9046Y-2.601
X12.0046Y-2.601
X12.0921Y-4.101
X12.0921Y-4.851
X12.1921Y-4.101
X12.1921Y-4.851
X12.8421Y-1.851
X12.8421Y-2.601
X12.8421Y-3.351
X12.8421Y-4.101
X12.8421Y-4.851
X12.9421Y-1.851
X12.9421Y-2.601
X12.9421Y-3.351
X12.9421Y-4.101
X12.9421Y-4.851
T4
X6.95Y-4.4
X6.95Y-4.5
X6.95Y-4.6
X6.95Y-4.7
X6.95Y-4.8
X6.95Y-4.9
X6.95Y-4.991
X7.05Y-4.4
X7.05Y-5.0
X7.15Y-4.4
X7.15Y-5.0
X7.25Y-4.4
X7.25Y-5.0
X7.35Y-4.4
X7.35Y-5.0
X7.45Y-4.4
X7.45Y-5.0
X7.55Y-4.4
X7.55Y-5.0
X7.65Y-4.4
X7.65Y-5.0
X7.75Y-4.4
X7.75Y-5.0
X7.85Y-4.4
X7.85Y-5.0
X7.95Y-4.4
X7.95Y-5.0
X8.05Y-4.4
X8.05Y-5.0
T5
X1.6421Y-1.4337
X1.7358Y-4.4337
X1.8296Y-2.1837
X1.8389Y-1.5164
X1.9233Y-2.9337
X1.9327Y-4.5164
X2.0264Y-2.2664
X2.1108Y-3.6837
X2.1202Y-3.0164
X2.3077Y-3.7664
X2.3921Y-1.4337
X2.5889Y-1.5164
X2.6733Y-4.4337
X2.7671Y-2.1837
X2.8702Y-4.5164
X2.9546Y-2.9337
X2.9639Y-2.2664
X3.1421Y-1.4337
X3.1514Y-3.0164
X3.3296Y-3.6837
X3.3389Y-1.5164
X3.5171Y-2.1837
X3.5264Y-3.7664
X3.6108Y-4.4337
X3.7046Y-2.9337
X3.7139Y-2.2664
X3.8077Y-4.5164
X3.8921Y-1.4337
X3.9014Y-3.0164
X4.0796Y-3.6837
X4.0889Y-1.5164
X4.2671Y-2.1837
X4.2764Y-3.7664
X4.4546Y-2.9337
X4.4639Y-2.2664
X4.6421Y-1.4337
X4.6514Y-3.0164
X4.8296Y-3.6837
X4.8389Y-1.5164
X5.0171Y-2.1837
X5.0264Y-3.7664
X5.2046Y-2.9337
X5.2139Y-2.2664
X5.3921Y-1.4337
X5.4014Y-3.0164
X5.5796Y-3.6837
X5.5889Y-1.5164
X5.7671Y-2.1837
X5.7764Y-3.7664
X5.9546Y-2.9337
X5.9639Y-2.2664
X6.1421Y-1.4337
X6.1514Y-3.0164
X6.3296Y-3.6837
X6.3389Y-1.5164
X6.4233Y-4.4337
X6.5171Y-2.1837
X6.5264Y-3.7664
X6.6202Y-4.5164
X6.7046Y-2.9337
X6.7139Y-2.2664
X6.8921Y-1.4337
X6.9014Y-3.0164
X7.0796Y-3.6837
X7.0889Y-1.5164
X7.2671Y-2.1837
X7.2764Y-3.7664
X7.4546Y-2.9337
X7.4639Y-2.2664
X7.6421Y-1.4337
X7.6514Y-3.0164
X7.8296Y-3.6837
X7.8389Y-1.5164
X8.0171Y-2.1837
X8.0264Y-3.7664
X8.2046Y-2.9337
X8.2139Y-2.2664
X8.3921Y-1.4337
X8.4014Y-3.0164
X8.5796Y-3.6837
X8.5889Y-1.5164
X8.7671Y-2.1837
X8.7764Y-3.7664
X8.9546Y-2.9337
X8.9639Y-2.2664
X9.1421Y-1.4337
X9.1514Y-3.0164
X9.2358Y-4.4337
X9.3296Y-3.6837
X9.3389Y-1.5164
X9.4327Y-4.5164
X9.5171Y-2.1837
X9.5264Y-3.7664
X9.7046Y-2.9337
X9.7139Y-2.2664
X9.8921Y-1.4337
X9.9014Y-3.0164
X10.0796Y-3.6837
X10.0889Y-1.5164
X10.1733Y-4.4337
X10.2671Y-2.1837
X10.2764Y-3.7664
X10.3702Y-4.5164
X10.4546Y-2.9337
X10.4639Y-2.2664
X10.6421Y-1.4337
X10.6514Y-3.0164
X10.8389Y-1.5164
X11.0171Y-2.1837
X11.1108Y-3.6837
X11.2139Y-2.2664
X11.3077Y-3.7664
X11.3921Y-4.4337
X11.5889Y-4.5164
X11.6733Y-2.9337
X11.7671Y-1.4337
X11.8702Y-3.0164
X11.9546Y-2.1837
X11.9639Y-1.5164
X12.1421Y-3.6837
X12.1421Y-4.4337
X12.1514Y-2.2664
X12.3389Y-3.7664
X12.3389Y-4.5164
X12.8921Y-1.4337
X12.8921Y-2.1837
X12.8921Y-2.9337
X12.8921Y-3.6837
X12.8921Y-4.4337
X13.0889Y-1.5164
X13.0889Y-2.2664
X13.0889Y-3.0164
X13.0889Y-3.7664
X13.0889Y-4.5164
T0
M30
