G04 #@! TF.GenerationSoftware,KiCad,Pcbnew,6.0.2+dfsg-1*
G04 #@! TF.CreationDate,2023-02-02T22:31:43+01:00*
G04 #@! TF.ProjectId,keyboard,6b657962-6f61-4726-942e-6b696361645f,rev?*
G04 #@! TF.SameCoordinates,Original*
G04 #@! TF.FileFunction,Legend,Bot*
G04 #@! TF.FilePolarity,Positive*
%FSLAX46Y46*%
G04 Gerber Fmt 4.6, Leading zero omitted, Abs format (unit mm)*
G04 Created by KiCad (PCBNEW 6.0.2+dfsg-1) date 2023-02-02 22:31:43*
%MOMM*%
%LPD*%
G01*
G04 APERTURE LIST*
%ADD10C,0.150000*%
%ADD11C,0.381000*%
%ADD12R,1.752600X1.752600*%
%ADD13C,1.752600*%
%ADD14C,1.900000*%
%ADD15C,3.400000*%
%ADD16C,1.200000*%
%ADD17C,2.000000*%
%ADD18C,1.905000*%
%ADD19R,1.905000X1.905000*%
%ADD20R,1.600000X1.600000*%
%ADD21C,1.600000*%
G04 APERTURE END LIST*
D10*
X177564297Y-125615008D02*
X177658578Y-125662148D01*
X177705719Y-125662148D01*
X177776429Y-125638578D01*
X177847140Y-125567867D01*
X177870710Y-125497157D01*
X177870710Y-125450016D01*
X177847140Y-125379306D01*
X177658578Y-125190744D01*
X177163603Y-125685719D01*
X177328595Y-125850710D01*
X177399306Y-125874280D01*
X177446446Y-125874280D01*
X177517157Y-125850710D01*
X177564297Y-125803570D01*
X177587867Y-125732859D01*
X177587867Y-125685719D01*
X177564297Y-125615008D01*
X177399306Y-125450016D01*
X177894280Y-126416396D02*
X177658578Y-126180693D01*
X177870710Y-125921421D01*
X177870710Y-125968561D01*
X177894280Y-126039272D01*
X178012132Y-126157123D01*
X178082842Y-126180693D01*
X178129983Y-126180693D01*
X178200693Y-126157123D01*
X178318544Y-126039272D01*
X178342115Y-125968561D01*
X178342115Y-125921421D01*
X178318544Y-125850710D01*
X178200693Y-125732859D01*
X178129983Y-125709289D01*
X178082842Y-125709289D01*
X186632857Y-113652333D02*
X186632857Y-113385666D01*
X187051904Y-113385666D02*
X186251904Y-113385666D01*
X186251904Y-113766619D01*
X186251904Y-113995190D02*
X186251904Y-114528523D01*
X187051904Y-114185666D01*
X179012857Y-113595190D02*
X179050952Y-113709476D01*
X179089047Y-113747571D01*
X179165238Y-113785666D01*
X179279523Y-113785666D01*
X179355714Y-113747571D01*
X179393809Y-113709476D01*
X179431904Y-113633285D01*
X179431904Y-113328523D01*
X178631904Y-113328523D01*
X178631904Y-113595190D01*
X178670000Y-113671380D01*
X178708095Y-113709476D01*
X178784285Y-113747571D01*
X178860476Y-113747571D01*
X178936666Y-113709476D01*
X178974761Y-113671380D01*
X179012857Y-113595190D01*
X179012857Y-113328523D01*
X178708095Y-114090428D02*
X178670000Y-114128523D01*
X178631904Y-114204714D01*
X178631904Y-114395190D01*
X178670000Y-114471380D01*
X178708095Y-114509476D01*
X178784285Y-114547571D01*
X178860476Y-114547571D01*
X178974761Y-114509476D01*
X179431904Y-114052333D01*
X179431904Y-114547571D01*
X186975714Y-124707666D02*
X187013809Y-124669571D01*
X187051904Y-124555285D01*
X187051904Y-124479095D01*
X187013809Y-124364809D01*
X186937619Y-124288619D01*
X186861428Y-124250523D01*
X186709047Y-124212428D01*
X186594761Y-124212428D01*
X186442380Y-124250523D01*
X186366190Y-124288619D01*
X186290000Y-124364809D01*
X186251904Y-124479095D01*
X186251904Y-124555285D01*
X186290000Y-124669571D01*
X186328095Y-124707666D01*
X186251904Y-125393380D02*
X186251904Y-125241000D01*
X186290000Y-125164809D01*
X186328095Y-125126714D01*
X186442380Y-125050523D01*
X186594761Y-125012428D01*
X186899523Y-125012428D01*
X186975714Y-125050523D01*
X187013809Y-125088619D01*
X187051904Y-125164809D01*
X187051904Y-125317190D01*
X187013809Y-125393380D01*
X186975714Y-125431476D01*
X186899523Y-125469571D01*
X186709047Y-125469571D01*
X186632857Y-125431476D01*
X186594761Y-125393380D01*
X186556666Y-125317190D01*
X186556666Y-125164809D01*
X186594761Y-125088619D01*
X186632857Y-125050523D01*
X186709047Y-125012428D01*
X184511904Y-124250523D02*
X183711904Y-124250523D01*
X183711904Y-124441000D01*
X183750000Y-124555285D01*
X183826190Y-124631476D01*
X183902380Y-124669571D01*
X184054761Y-124707666D01*
X184169047Y-124707666D01*
X184321428Y-124669571D01*
X184397619Y-124631476D01*
X184473809Y-124555285D01*
X184511904Y-124441000D01*
X184511904Y-124250523D01*
X183711904Y-124974333D02*
X183711904Y-125507666D01*
X184511904Y-125164809D01*
X198990000Y-124231476D02*
X198951904Y-124155285D01*
X198951904Y-124041000D01*
X198990000Y-123926714D01*
X199066190Y-123850523D01*
X199142380Y-123812428D01*
X199294761Y-123774333D01*
X199409047Y-123774333D01*
X199561428Y-123812428D01*
X199637619Y-123850523D01*
X199713809Y-123926714D01*
X199751904Y-124041000D01*
X199751904Y-124117190D01*
X199713809Y-124231476D01*
X199675714Y-124269571D01*
X199409047Y-124269571D01*
X199409047Y-124117190D01*
X199751904Y-124612428D02*
X198951904Y-124612428D01*
X199751904Y-125069571D01*
X198951904Y-125069571D01*
X199751904Y-125450523D02*
X198951904Y-125450523D01*
X198951904Y-125641000D01*
X198990000Y-125755285D01*
X199066190Y-125831476D01*
X199142380Y-125869571D01*
X199294761Y-125907666D01*
X199409047Y-125907666D01*
X199561428Y-125869571D01*
X199637619Y-125831476D01*
X199713809Y-125755285D01*
X199751904Y-125641000D01*
X199751904Y-125450523D01*
X199743809Y-113113546D02*
X199781904Y-113227832D01*
X199781904Y-113418308D01*
X199743809Y-113494499D01*
X199705714Y-113532594D01*
X199629523Y-113570689D01*
X199553333Y-113570689D01*
X199477142Y-113532594D01*
X199439047Y-113494499D01*
X199400952Y-113418308D01*
X199362857Y-113265927D01*
X199324761Y-113189737D01*
X199286666Y-113151641D01*
X199210476Y-113113546D01*
X199134285Y-113113546D01*
X199058095Y-113151641D01*
X199020000Y-113189737D01*
X198981904Y-113265927D01*
X198981904Y-113456403D01*
X199020000Y-113570689D01*
X198981904Y-113799260D02*
X198981904Y-114256403D01*
X199781904Y-114027832D02*
X198981904Y-114027832D01*
X177850000Y-114646666D02*
X177850000Y-114413333D01*
X178216666Y-114413333D02*
X177516666Y-114413333D01*
X177516666Y-114746666D01*
X177516666Y-115146666D02*
X177516666Y-115213333D01*
X177550000Y-115280000D01*
X177583333Y-115313333D01*
X177650000Y-115346666D01*
X177783333Y-115380000D01*
X177950000Y-115380000D01*
X178083333Y-115346666D01*
X178150000Y-115313333D01*
X178183333Y-115280000D01*
X178216666Y-115213333D01*
X178216666Y-115146666D01*
X178183333Y-115080000D01*
X178150000Y-115046666D01*
X178083333Y-115013333D01*
X177950000Y-114980000D01*
X177783333Y-114980000D01*
X177650000Y-115013333D01*
X177583333Y-115046666D01*
X177550000Y-115080000D01*
X177516666Y-115146666D01*
X196411904Y-112852333D02*
X197211904Y-113119000D01*
X196411904Y-113385666D01*
X197135714Y-114109476D02*
X197173809Y-114071380D01*
X197211904Y-113957095D01*
X197211904Y-113880904D01*
X197173809Y-113766619D01*
X197097619Y-113690428D01*
X197021428Y-113652333D01*
X196869047Y-113614238D01*
X196754761Y-113614238D01*
X196602380Y-113652333D01*
X196526190Y-113690428D01*
X196450000Y-113766619D01*
X196411904Y-113880904D01*
X196411904Y-113957095D01*
X196450000Y-114071380D01*
X196488095Y-114109476D01*
X197135714Y-114909476D02*
X197173809Y-114871380D01*
X197211904Y-114757095D01*
X197211904Y-114680904D01*
X197173809Y-114566619D01*
X197097619Y-114490428D01*
X197021428Y-114452333D01*
X196869047Y-114414238D01*
X196754761Y-114414238D01*
X196602380Y-114452333D01*
X196526190Y-114490428D01*
X196450000Y-114566619D01*
X196411904Y-114680904D01*
X196411904Y-114757095D01*
X196450000Y-114871380D01*
X196488095Y-114909476D01*
X178461904Y-121329523D02*
X177661904Y-121329523D01*
X177661904Y-121520000D01*
X177700000Y-121634285D01*
X177776190Y-121710476D01*
X177852380Y-121748571D01*
X178004761Y-121786666D01*
X178119047Y-121786666D01*
X178271428Y-121748571D01*
X178347619Y-121710476D01*
X178423809Y-121634285D01*
X178461904Y-121520000D01*
X178461904Y-121329523D01*
X177661904Y-122510476D02*
X177661904Y-122129523D01*
X178042857Y-122091428D01*
X178004761Y-122129523D01*
X177966666Y-122205714D01*
X177966666Y-122396190D01*
X178004761Y-122472380D01*
X178042857Y-122510476D01*
X178119047Y-122548571D01*
X178309523Y-122548571D01*
X178385714Y-122510476D01*
X178423809Y-122472380D01*
X178461904Y-122396190D01*
X178461904Y-122205714D01*
X178423809Y-122129523D01*
X178385714Y-122091428D01*
X202291904Y-124250523D02*
X201491904Y-124250523D01*
X201491904Y-124441000D01*
X201530000Y-124555285D01*
X201606190Y-124631476D01*
X201682380Y-124669571D01*
X201834761Y-124707666D01*
X201949047Y-124707666D01*
X202101428Y-124669571D01*
X202177619Y-124631476D01*
X202253809Y-124555285D01*
X202291904Y-124441000D01*
X202291904Y-124250523D01*
X201568095Y-125012428D02*
X201530000Y-125050523D01*
X201491904Y-125126714D01*
X201491904Y-125317190D01*
X201530000Y-125393380D01*
X201568095Y-125431476D01*
X201644285Y-125469571D01*
X201720476Y-125469571D01*
X201834761Y-125431476D01*
X202291904Y-124974333D01*
X202291904Y-125469571D01*
X189591904Y-124250523D02*
X188791904Y-124250523D01*
X188791904Y-124441000D01*
X188830000Y-124555285D01*
X188906190Y-124631476D01*
X188982380Y-124669571D01*
X189134761Y-124707666D01*
X189249047Y-124707666D01*
X189401428Y-124669571D01*
X189477619Y-124631476D01*
X189553809Y-124555285D01*
X189591904Y-124441000D01*
X189591904Y-124250523D01*
X189058571Y-125393380D02*
X189591904Y-125393380D01*
X188753809Y-125202904D02*
X189325238Y-125012428D01*
X189325238Y-125507666D01*
X194252857Y-113652333D02*
X194252857Y-113385666D01*
X194671904Y-113385666D02*
X193871904Y-113385666D01*
X193871904Y-113766619D01*
X194138571Y-114414238D02*
X194671904Y-114414238D01*
X193833809Y-114223761D02*
X194405238Y-114033285D01*
X194405238Y-114528523D01*
X191712857Y-113652333D02*
X191712857Y-113385666D01*
X192131904Y-113385666D02*
X191331904Y-113385666D01*
X191331904Y-113766619D01*
X191331904Y-114452333D02*
X191331904Y-114071380D01*
X191712857Y-114033285D01*
X191674761Y-114071380D01*
X191636666Y-114147571D01*
X191636666Y-114338047D01*
X191674761Y-114414238D01*
X191712857Y-114452333D01*
X191789047Y-114490428D01*
X191979523Y-114490428D01*
X192055714Y-114452333D01*
X192093809Y-114414238D01*
X192131904Y-114338047D01*
X192131904Y-114147571D01*
X192093809Y-114071380D01*
X192055714Y-114033285D01*
X196450000Y-124231476D02*
X196411904Y-124155285D01*
X196411904Y-124041000D01*
X196450000Y-123926714D01*
X196526190Y-123850523D01*
X196602380Y-123812428D01*
X196754761Y-123774333D01*
X196869047Y-123774333D01*
X197021428Y-123812428D01*
X197097619Y-123850523D01*
X197173809Y-123926714D01*
X197211904Y-124041000D01*
X197211904Y-124117190D01*
X197173809Y-124231476D01*
X197135714Y-124269571D01*
X196869047Y-124269571D01*
X196869047Y-124117190D01*
X197211904Y-124612428D02*
X196411904Y-124612428D01*
X197211904Y-125069571D01*
X196411904Y-125069571D01*
X197211904Y-125450523D02*
X196411904Y-125450523D01*
X196411904Y-125641000D01*
X196450000Y-125755285D01*
X196526190Y-125831476D01*
X196602380Y-125869571D01*
X196754761Y-125907666D01*
X196869047Y-125907666D01*
X197021428Y-125869571D01*
X197097619Y-125831476D01*
X197173809Y-125755285D01*
X197211904Y-125641000D01*
X197211904Y-125450523D01*
X177850000Y-123596666D02*
X177883333Y-123696666D01*
X177916666Y-123730000D01*
X177983333Y-123763333D01*
X178083333Y-123763333D01*
X178150000Y-123730000D01*
X178183333Y-123696666D01*
X178216666Y-123630000D01*
X178216666Y-123363333D01*
X177516666Y-123363333D01*
X177516666Y-123596666D01*
X177550000Y-123663333D01*
X177583333Y-123696666D01*
X177650000Y-123730000D01*
X177716666Y-123730000D01*
X177783333Y-123696666D01*
X177816666Y-123663333D01*
X177850000Y-123596666D01*
X177850000Y-123363333D01*
X177516666Y-123996666D02*
X177516666Y-124463333D01*
X178216666Y-124163333D01*
X184092857Y-113595190D02*
X184130952Y-113709476D01*
X184169047Y-113747571D01*
X184245238Y-113785666D01*
X184359523Y-113785666D01*
X184435714Y-113747571D01*
X184473809Y-113709476D01*
X184511904Y-113633285D01*
X184511904Y-113328523D01*
X183711904Y-113328523D01*
X183711904Y-113595190D01*
X183750000Y-113671380D01*
X183788095Y-113709476D01*
X183864285Y-113747571D01*
X183940476Y-113747571D01*
X184016666Y-113709476D01*
X184054761Y-113671380D01*
X184092857Y-113595190D01*
X184092857Y-113328523D01*
X184511904Y-114547571D02*
X184511904Y-114090428D01*
X184511904Y-114319000D02*
X183711904Y-114319000D01*
X183826190Y-114242809D01*
X183902380Y-114166619D01*
X183940476Y-114090428D01*
X194671904Y-124250523D02*
X193871904Y-124250523D01*
X193871904Y-124441000D01*
X193910000Y-124555285D01*
X193986190Y-124631476D01*
X194062380Y-124669571D01*
X194214761Y-124707666D01*
X194329047Y-124707666D01*
X194481428Y-124669571D01*
X194557619Y-124631476D01*
X194633809Y-124555285D01*
X194671904Y-124441000D01*
X194671904Y-124250523D01*
X194671904Y-125469571D02*
X194671904Y-125012428D01*
X194671904Y-125241000D02*
X193871904Y-125241000D01*
X193986190Y-125164809D01*
X194062380Y-125088619D01*
X194100476Y-125012428D01*
X179012857Y-124517190D02*
X179050952Y-124631476D01*
X179089047Y-124669571D01*
X179165238Y-124707666D01*
X179279523Y-124707666D01*
X179355714Y-124669571D01*
X179393809Y-124631476D01*
X179431904Y-124555285D01*
X179431904Y-124250523D01*
X178631904Y-124250523D01*
X178631904Y-124517190D01*
X178670000Y-124593380D01*
X178708095Y-124631476D01*
X178784285Y-124669571D01*
X178860476Y-124669571D01*
X178936666Y-124631476D01*
X178974761Y-124593380D01*
X179012857Y-124517190D01*
X179012857Y-124250523D01*
X178898571Y-125393380D02*
X179431904Y-125393380D01*
X178593809Y-125202904D02*
X179165238Y-125012428D01*
X179165238Y-125507666D01*
X178385714Y-119246666D02*
X178423809Y-119208571D01*
X178461904Y-119094285D01*
X178461904Y-119018095D01*
X178423809Y-118903809D01*
X178347619Y-118827619D01*
X178271428Y-118789523D01*
X178119047Y-118751428D01*
X178004761Y-118751428D01*
X177852380Y-118789523D01*
X177776190Y-118827619D01*
X177700000Y-118903809D01*
X177661904Y-119018095D01*
X177661904Y-119094285D01*
X177700000Y-119208571D01*
X177738095Y-119246666D01*
X177661904Y-119513333D02*
X177661904Y-120046666D01*
X178461904Y-119703809D01*
X181552857Y-124288619D02*
X181552857Y-124555285D01*
X181971904Y-124669571D02*
X181971904Y-124288619D01*
X181171904Y-124288619D01*
X181171904Y-124669571D01*
X181171904Y-125355285D02*
X181171904Y-125202904D01*
X181210000Y-125126714D01*
X181248095Y-125088619D01*
X181362380Y-125012428D01*
X181514761Y-124974333D01*
X181819523Y-124974333D01*
X181895714Y-125012428D01*
X181933809Y-125050523D01*
X181971904Y-125126714D01*
X181971904Y-125279095D01*
X181933809Y-125355285D01*
X181895714Y-125393380D01*
X181819523Y-125431476D01*
X181629047Y-125431476D01*
X181552857Y-125393380D01*
X181514761Y-125355285D01*
X181476666Y-125279095D01*
X181476666Y-125126714D01*
X181514761Y-125050523D01*
X181552857Y-125012428D01*
X181629047Y-124974333D01*
X178042857Y-116573333D02*
X178042857Y-116306666D01*
X178461904Y-116306666D02*
X177661904Y-116306666D01*
X177661904Y-116687619D01*
X178461904Y-117411428D02*
X178461904Y-116954285D01*
X178461904Y-117182857D02*
X177661904Y-117182857D01*
X177776190Y-117106666D01*
X177852380Y-117030476D01*
X177890476Y-116954285D01*
X204031904Y-120761395D02*
X204031904Y-121218538D01*
X204831904Y-120989967D02*
X204031904Y-120989967D01*
X204031904Y-121409014D02*
X204831904Y-121942348D01*
X204031904Y-121942348D02*
X204831904Y-121409014D01*
X204031904Y-122399491D02*
X204031904Y-122475681D01*
X204070000Y-122551872D01*
X204108095Y-122589967D01*
X204184285Y-122628062D01*
X204336666Y-122666157D01*
X204527142Y-122666157D01*
X204679523Y-122628062D01*
X204755714Y-122589967D01*
X204793809Y-122551872D01*
X204831904Y-122475681D01*
X204831904Y-122399491D01*
X204793809Y-122323300D01*
X204755714Y-122285205D01*
X204679523Y-122247110D01*
X204527142Y-122209014D01*
X204336666Y-122209014D01*
X204184285Y-122247110D01*
X204108095Y-122285205D01*
X204070000Y-122323300D01*
X204031904Y-122399491D01*
X203993809Y-123580443D02*
X205022380Y-122894729D01*
X204831904Y-123847110D02*
X204031904Y-123847110D01*
X204031904Y-124037586D01*
X204070000Y-124151872D01*
X204146190Y-124228062D01*
X204222380Y-124266157D01*
X204374761Y-124304252D01*
X204489047Y-124304252D01*
X204641428Y-124266157D01*
X204717619Y-124228062D01*
X204793809Y-124151872D01*
X204831904Y-124037586D01*
X204831904Y-123847110D01*
X204031904Y-124570919D02*
X204031904Y-125066157D01*
X204336666Y-124799491D01*
X204336666Y-124913776D01*
X204374761Y-124989967D01*
X204412857Y-125028062D01*
X204489047Y-125066157D01*
X204679523Y-125066157D01*
X204755714Y-125028062D01*
X204793809Y-124989967D01*
X204831904Y-124913776D01*
X204831904Y-124685205D01*
X204793809Y-124609014D01*
X204755714Y-124570919D01*
X192131904Y-124250523D02*
X191331904Y-124250523D01*
X191331904Y-124441000D01*
X191370000Y-124555285D01*
X191446190Y-124631476D01*
X191522380Y-124669571D01*
X191674761Y-124707666D01*
X191789047Y-124707666D01*
X191941428Y-124669571D01*
X192017619Y-124631476D01*
X192093809Y-124555285D01*
X192131904Y-124441000D01*
X192131904Y-124250523D01*
X191331904Y-125202904D02*
X191331904Y-125279095D01*
X191370000Y-125355285D01*
X191408095Y-125393380D01*
X191484285Y-125431476D01*
X191636666Y-125469571D01*
X191827142Y-125469571D01*
X191979523Y-125431476D01*
X192055714Y-125393380D01*
X192093809Y-125355285D01*
X192131904Y-125279095D01*
X192131904Y-125202904D01*
X192093809Y-125126714D01*
X192055714Y-125088619D01*
X191979523Y-125050523D01*
X191827142Y-125012428D01*
X191636666Y-125012428D01*
X191484285Y-125050523D01*
X191408095Y-125088619D01*
X191370000Y-125126714D01*
X191331904Y-125202904D01*
X189172857Y-113652333D02*
X189172857Y-113385666D01*
X189591904Y-113385666D02*
X188791904Y-113385666D01*
X188791904Y-113766619D01*
X188791904Y-114414238D02*
X188791904Y-114261857D01*
X188830000Y-114185666D01*
X188868095Y-114147571D01*
X188982380Y-114071380D01*
X189134761Y-114033285D01*
X189439523Y-114033285D01*
X189515714Y-114071380D01*
X189553809Y-114109476D01*
X189591904Y-114185666D01*
X189591904Y-114338047D01*
X189553809Y-114414238D01*
X189515714Y-114452333D01*
X189439523Y-114490428D01*
X189249047Y-114490428D01*
X189172857Y-114452333D01*
X189134761Y-114414238D01*
X189096666Y-114338047D01*
X189096666Y-114185666D01*
X189134761Y-114109476D01*
X189172857Y-114071380D01*
X189249047Y-114033285D01*
X204412857Y-113595190D02*
X204450952Y-113709476D01*
X204489047Y-113747571D01*
X204565238Y-113785666D01*
X204679523Y-113785666D01*
X204755714Y-113747571D01*
X204793809Y-113709476D01*
X204831904Y-113633285D01*
X204831904Y-113328523D01*
X204031904Y-113328523D01*
X204031904Y-113595190D01*
X204070000Y-113671380D01*
X204108095Y-113709476D01*
X204184285Y-113747571D01*
X204260476Y-113747571D01*
X204336666Y-113709476D01*
X204374761Y-113671380D01*
X204412857Y-113595190D01*
X204412857Y-113328523D01*
X204031904Y-114280904D02*
X204031904Y-114357095D01*
X204070000Y-114433285D01*
X204108095Y-114471380D01*
X204184285Y-114509476D01*
X204336666Y-114547571D01*
X204527142Y-114547571D01*
X204679523Y-114509476D01*
X204755714Y-114471380D01*
X204793809Y-114433285D01*
X204831904Y-114357095D01*
X204831904Y-114280904D01*
X204793809Y-114204714D01*
X204755714Y-114166619D01*
X204679523Y-114128523D01*
X204527142Y-114090428D01*
X204336666Y-114090428D01*
X204184285Y-114128523D01*
X204108095Y-114166619D01*
X204070000Y-114204714D01*
X204031904Y-114280904D01*
X181552857Y-113595190D02*
X181590952Y-113709476D01*
X181629047Y-113747571D01*
X181705238Y-113785666D01*
X181819523Y-113785666D01*
X181895714Y-113747571D01*
X181933809Y-113709476D01*
X181971904Y-113633285D01*
X181971904Y-113328523D01*
X181171904Y-113328523D01*
X181171904Y-113595190D01*
X181210000Y-113671380D01*
X181248095Y-113709476D01*
X181324285Y-113747571D01*
X181400476Y-113747571D01*
X181476666Y-113709476D01*
X181514761Y-113671380D01*
X181552857Y-113595190D01*
X181552857Y-113328523D01*
X181171904Y-114052333D02*
X181171904Y-114547571D01*
X181476666Y-114280904D01*
X181476666Y-114395190D01*
X181514761Y-114471380D01*
X181552857Y-114509476D01*
X181629047Y-114547571D01*
X181819523Y-114547571D01*
X181895714Y-114509476D01*
X181933809Y-114471380D01*
X181971904Y-114395190D01*
X181971904Y-114166619D01*
X181933809Y-114090428D01*
X181895714Y-114052333D01*
X177635008Y-113215702D02*
X177682148Y-113121421D01*
X177682148Y-113074280D01*
X177658578Y-113003570D01*
X177587867Y-112932859D01*
X177517157Y-112909289D01*
X177470016Y-112909289D01*
X177399306Y-112932859D01*
X177210744Y-113121421D01*
X177705719Y-113616396D01*
X177870710Y-113451404D01*
X177894280Y-113380693D01*
X177894280Y-113333553D01*
X177870710Y-113262842D01*
X177823570Y-113215702D01*
X177752859Y-113192132D01*
X177705719Y-113192132D01*
X177635008Y-113215702D01*
X177470016Y-113380693D01*
X178412825Y-112909289D02*
X178318544Y-113003570D01*
X178247834Y-113027140D01*
X178200693Y-113027140D01*
X178082842Y-113003570D01*
X177964991Y-112932859D01*
X177776429Y-112744297D01*
X177752859Y-112673587D01*
X177752859Y-112626446D01*
X177776429Y-112555735D01*
X177870710Y-112461455D01*
X177941421Y-112437884D01*
X177988561Y-112437884D01*
X178059272Y-112461455D01*
X178177123Y-112579306D01*
X178200693Y-112650016D01*
X178200693Y-112697157D01*
X178177123Y-112767867D01*
X178082842Y-112862148D01*
X178012132Y-112885719D01*
X177964991Y-112885719D01*
X177894280Y-112862148D01*
X201530000Y-113309476D02*
X201491904Y-113233285D01*
X201491904Y-113119000D01*
X201530000Y-113004714D01*
X201606190Y-112928523D01*
X201682380Y-112890428D01*
X201834761Y-112852333D01*
X201949047Y-112852333D01*
X202101428Y-112890428D01*
X202177619Y-112928523D01*
X202253809Y-113004714D01*
X202291904Y-113119000D01*
X202291904Y-113195190D01*
X202253809Y-113309476D01*
X202215714Y-113347571D01*
X201949047Y-113347571D01*
X201949047Y-113195190D01*
X202291904Y-113690428D02*
X201491904Y-113690428D01*
X202291904Y-114147571D01*
X201491904Y-114147571D01*
X202291904Y-114528523D02*
X201491904Y-114528523D01*
X201491904Y-114719000D01*
X201530000Y-114833285D01*
X201606190Y-114909476D01*
X201682380Y-114947571D01*
X201834761Y-114985666D01*
X201949047Y-114985666D01*
X202101428Y-114947571D01*
X202177619Y-114909476D01*
X202253809Y-114833285D01*
X202291904Y-114719000D01*
X202291904Y-114528523D01*
D11*
X203200000Y-125730000D02*
X203200000Y-128270000D01*
X205740000Y-125730000D02*
X203200000Y-125730000D01*
X205740000Y-110490000D02*
X208280000Y-110490000D01*
X205740000Y-128270000D02*
X175260000Y-128270000D01*
X208280000Y-128270000D02*
X205740000Y-128270000D01*
X175260000Y-110490000D02*
X205740000Y-110490000D01*
X175260000Y-128270000D02*
X175260000Y-110490000D01*
X205740000Y-125730000D02*
X205740000Y-128270000D01*
X208280000Y-110490000D02*
X208280000Y-128270000D01*
D10*
X199260640Y-114448432D02*
X199060640Y-114448432D01*
X199060640Y-114448432D02*
X199060640Y-114548432D01*
X199060640Y-114548432D02*
X199260640Y-114548432D01*
X199260640Y-114548432D02*
X199260640Y-114448432D01*
G36*
X199260640Y-114548432D02*
G01*
X199060640Y-114548432D01*
X199060640Y-114448432D01*
X199260640Y-114448432D01*
X199260640Y-114548432D01*
G37*
X199260640Y-114548432D02*
X199060640Y-114548432D01*
X199060640Y-114448432D01*
X199260640Y-114448432D01*
X199260640Y-114548432D01*
X199860640Y-114448432D02*
X199760640Y-114448432D01*
X199760640Y-114448432D02*
X199760640Y-114948432D01*
X199760640Y-114948432D02*
X199860640Y-114948432D01*
X199860640Y-114948432D02*
X199860640Y-114448432D01*
G36*
X199860640Y-114948432D02*
G01*
X199760640Y-114948432D01*
X199760640Y-114448432D01*
X199860640Y-114448432D01*
X199860640Y-114948432D01*
G37*
X199860640Y-114948432D02*
X199760640Y-114948432D01*
X199760640Y-114448432D01*
X199860640Y-114448432D01*
X199860640Y-114948432D01*
X199860640Y-114848432D02*
X199060640Y-114848432D01*
X199060640Y-114848432D02*
X199060640Y-114948432D01*
X199060640Y-114948432D02*
X199860640Y-114948432D01*
X199860640Y-114948432D02*
X199860640Y-114848432D01*
G36*
X199860640Y-114948432D02*
G01*
X199060640Y-114948432D01*
X199060640Y-114848432D01*
X199860640Y-114848432D01*
X199860640Y-114948432D01*
G37*
X199860640Y-114948432D02*
X199060640Y-114948432D01*
X199060640Y-114848432D01*
X199860640Y-114848432D01*
X199860640Y-114948432D01*
X199460640Y-114648432D02*
X199360640Y-114648432D01*
X199360640Y-114648432D02*
X199360640Y-114748432D01*
X199360640Y-114748432D02*
X199460640Y-114748432D01*
X199460640Y-114748432D02*
X199460640Y-114648432D01*
G36*
X199460640Y-114748432D02*
G01*
X199360640Y-114748432D01*
X199360640Y-114648432D01*
X199460640Y-114648432D01*
X199460640Y-114748432D01*
G37*
X199460640Y-114748432D02*
X199360640Y-114748432D01*
X199360640Y-114648432D01*
X199460640Y-114648432D01*
X199460640Y-114748432D01*
X199860640Y-114448432D02*
X199560640Y-114448432D01*
X199560640Y-114448432D02*
X199560640Y-114548432D01*
X199560640Y-114548432D02*
X199860640Y-114548432D01*
X199860640Y-114548432D02*
X199860640Y-114448432D01*
G36*
X199860640Y-114548432D02*
G01*
X199560640Y-114548432D01*
X199560640Y-114448432D01*
X199860640Y-114448432D01*
X199860640Y-114548432D01*
G37*
X199860640Y-114548432D02*
X199560640Y-114548432D01*
X199560640Y-114448432D01*
X199860640Y-114448432D01*
X199860640Y-114548432D01*
D12*
X204470000Y-127000000D03*
D13*
X201930000Y-127000000D03*
X199390000Y-127000000D03*
X196850000Y-127000000D03*
X194310000Y-127000000D03*
X191770000Y-127000000D03*
X189230000Y-127000000D03*
X186690000Y-127000000D03*
X184150000Y-127000000D03*
X181610000Y-127000000D03*
X179070000Y-127000000D03*
X176530000Y-126771400D03*
X176530000Y-111760000D03*
X179070000Y-111760000D03*
X181610000Y-111760000D03*
X184150000Y-111760000D03*
X186690000Y-111760000D03*
X189230000Y-111760000D03*
X191770000Y-111760000D03*
X194310000Y-111760000D03*
X196850000Y-111760000D03*
X199390000Y-111760000D03*
X201930000Y-111760000D03*
X204470000Y-111760000D03*
X176530000Y-124460000D03*
X176530000Y-121920000D03*
X176530000Y-119380000D03*
X176530000Y-116840000D03*
X176530000Y-114300000D03*
%LPC*%
D14*
X194846500Y-80415500D03*
D15*
X189346500Y-80415500D03*
D16*
X184126500Y-84615500D03*
D14*
X183846500Y-80415500D03*
D17*
X194346500Y-76615500D03*
X189346500Y-74515500D03*
D18*
X188076500Y-85115500D03*
D19*
X190616500Y-85115500D03*
D16*
X157932750Y-122715500D03*
D15*
X163152750Y-118515500D03*
D14*
X168652750Y-118515500D03*
X157652750Y-118515500D03*
D17*
X168152750Y-114715500D03*
X163152750Y-112615500D03*
D18*
X161882750Y-123215500D03*
D19*
X164422750Y-123215500D03*
D17*
X258402750Y-112615500D03*
D15*
X258402750Y-118515500D03*
D17*
X263402750Y-114715500D03*
D14*
X252902750Y-118515500D03*
X263902750Y-118515500D03*
D16*
X253182750Y-122715500D03*
D18*
X257132750Y-123215500D03*
D19*
X259672750Y-123215500D03*
D17*
X234590250Y-112615500D03*
D15*
X234590250Y-118515500D03*
D17*
X239590250Y-114715500D03*
D14*
X229090250Y-118515500D03*
X240090250Y-118515500D03*
D16*
X229370250Y-122715500D03*
D18*
X233320250Y-123215500D03*
D19*
X235860250Y-123215500D03*
D17*
X91715250Y-112615500D03*
D15*
X91715250Y-118515500D03*
D17*
X96715250Y-114715500D03*
D14*
X86215250Y-118515500D03*
X97215250Y-118515500D03*
D16*
X86495250Y-122715500D03*
D18*
X90445250Y-123215500D03*
D19*
X92985250Y-123215500D03*
D17*
X67902750Y-112615500D03*
D15*
X67902750Y-118515500D03*
D17*
X72902750Y-114715500D03*
D14*
X62402750Y-118515500D03*
X73402750Y-118515500D03*
D16*
X62682750Y-122715500D03*
D18*
X66632750Y-123215500D03*
D19*
X69172750Y-123215500D03*
D17*
X44090250Y-112615500D03*
D15*
X44090250Y-118515500D03*
D17*
X49090250Y-114715500D03*
D14*
X38590250Y-118515500D03*
X49590250Y-118515500D03*
D16*
X38870250Y-122715500D03*
D18*
X42820250Y-123215500D03*
D19*
X45360250Y-123215500D03*
D17*
X282215250Y-93565500D03*
D15*
X282215250Y-99465500D03*
D17*
X287215250Y-95665500D03*
D14*
X276715250Y-99465500D03*
X287715250Y-99465500D03*
D16*
X276995250Y-103665500D03*
D18*
X280945250Y-104165500D03*
D19*
X283485250Y-104165500D03*
D17*
X53615250Y-93565500D03*
D15*
X53615250Y-99465500D03*
D17*
X58615250Y-95665500D03*
D14*
X48115250Y-99465500D03*
X59115250Y-99465500D03*
D16*
X48395250Y-103665500D03*
D18*
X52345250Y-104165500D03*
D19*
X54885250Y-104165500D03*
D17*
X296502750Y-74515500D03*
D15*
X296502750Y-80415500D03*
D17*
X301502750Y-76615500D03*
D14*
X291002750Y-80415500D03*
X302002750Y-80415500D03*
D16*
X291282750Y-84615500D03*
D18*
X295232750Y-85115500D03*
D19*
X297772750Y-85115500D03*
D17*
X48852750Y-74515500D03*
D15*
X48852750Y-80415500D03*
D17*
X53852750Y-76615500D03*
D14*
X43352750Y-80415500D03*
X54352750Y-80415500D03*
D16*
X43632750Y-84615500D03*
D18*
X47582750Y-85115500D03*
D19*
X50122750Y-85115500D03*
D17*
X303646500Y-55465500D03*
D15*
X303646500Y-61365500D03*
D17*
X308646500Y-57565500D03*
D14*
X298146500Y-61365500D03*
X309146500Y-61365500D03*
D16*
X298426500Y-65565500D03*
D18*
X302376500Y-66065500D03*
D19*
X304916500Y-66065500D03*
D17*
X46471500Y-55465500D03*
D15*
X46471500Y-61365500D03*
D17*
X51471500Y-57565500D03*
D14*
X40971500Y-61365500D03*
X51971500Y-61365500D03*
D16*
X41251500Y-65565500D03*
D18*
X45201500Y-66065500D03*
D19*
X47741500Y-66065500D03*
D17*
X298884000Y-36415500D03*
D15*
X298884000Y-42315500D03*
D17*
X303884000Y-38515500D03*
D14*
X293384000Y-42315500D03*
X304384000Y-42315500D03*
D16*
X293664000Y-46515500D03*
D18*
X297614000Y-47015500D03*
D19*
X300154000Y-47015500D03*
D20*
X317500000Y-44540000D03*
D21*
X317500000Y-36740000D03*
D20*
X317500000Y-120740000D03*
D21*
X317500000Y-112940000D03*
D20*
X299720000Y-120740000D03*
D21*
X299720000Y-112940000D03*
D20*
X279400000Y-120740000D03*
D21*
X279400000Y-112940000D03*
D20*
X248920000Y-120740000D03*
D21*
X248920000Y-112940000D03*
D20*
X226060000Y-120740000D03*
D21*
X226060000Y-112940000D03*
D20*
X154940000Y-120740000D03*
D21*
X154940000Y-112940000D03*
D20*
X83820000Y-120740000D03*
D21*
X83820000Y-112940000D03*
D20*
X58420000Y-120740000D03*
D21*
X58420000Y-112940000D03*
D20*
X35560000Y-120740000D03*
D21*
X35560000Y-112940000D03*
D20*
X317500000Y-102960000D03*
D21*
X317500000Y-95160000D03*
D20*
X297180000Y-102960000D03*
D21*
X297180000Y-95160000D03*
D20*
X274320000Y-102960000D03*
D21*
X274320000Y-95160000D03*
D20*
X246380000Y-102960000D03*
D21*
X246380000Y-95160000D03*
D20*
X228600000Y-102960000D03*
D21*
X228600000Y-95160000D03*
D20*
X208280000Y-102960000D03*
D21*
X208280000Y-95160000D03*
D20*
X190500000Y-101995000D03*
D21*
X190500000Y-94195000D03*
D20*
X170180000Y-101995000D03*
D21*
X170180000Y-94195000D03*
D20*
X152400000Y-101995000D03*
D21*
X152400000Y-94195000D03*
D20*
X132080000Y-102960000D03*
D21*
X132080000Y-95160000D03*
D20*
X114300000Y-102960000D03*
D21*
X114300000Y-95160000D03*
D20*
X93980000Y-102960000D03*
D21*
X93980000Y-95160000D03*
D20*
X76200000Y-102960000D03*
D21*
X76200000Y-95160000D03*
D20*
X45720000Y-102960000D03*
D21*
X45720000Y-95160000D03*
D20*
X317500000Y-82640000D03*
D21*
X317500000Y-74840000D03*
D20*
X287020000Y-82640000D03*
D21*
X287020000Y-74840000D03*
D20*
X256540000Y-82640000D03*
D21*
X256540000Y-74840000D03*
D20*
X236220000Y-82640000D03*
D21*
X236220000Y-74840000D03*
D20*
X218440000Y-82640000D03*
D21*
X218440000Y-74840000D03*
D20*
X198120000Y-82640000D03*
D21*
X198120000Y-74840000D03*
D20*
X180340000Y-82640000D03*
D21*
X180340000Y-74840000D03*
D20*
X160020000Y-82640000D03*
D21*
X160020000Y-74840000D03*
D20*
X142240000Y-82640000D03*
D21*
X142240000Y-74840000D03*
D20*
X121920000Y-82640000D03*
D21*
X121920000Y-74840000D03*
D20*
X104140000Y-82740500D03*
D21*
X104140000Y-74940500D03*
D20*
X83820000Y-82640000D03*
D21*
X83820000Y-74840000D03*
D20*
X66040000Y-82640000D03*
D21*
X66040000Y-74840000D03*
D20*
X40640000Y-82640000D03*
D21*
X40640000Y-74840000D03*
D20*
X317500000Y-64860000D03*
D21*
X317500000Y-57060000D03*
D20*
X294640000Y-64860000D03*
D21*
X294640000Y-57060000D03*
D20*
X271780000Y-65825000D03*
D21*
X271780000Y-58025000D03*
D20*
X251460000Y-64860000D03*
D21*
X251460000Y-57060000D03*
X231140000Y-57060000D03*
D20*
X231140000Y-64860000D03*
X213360000Y-64860000D03*
D21*
X213360000Y-57060000D03*
D20*
X195580000Y-64860000D03*
D21*
X195580000Y-57060000D03*
D20*
X175260000Y-64860000D03*
D21*
X175260000Y-57060000D03*
D20*
X157480000Y-64860000D03*
D21*
X157480000Y-57060000D03*
D20*
X137160000Y-64860000D03*
D21*
X137160000Y-57060000D03*
X119380000Y-57060000D03*
D20*
X119380000Y-64860000D03*
X99060000Y-64860000D03*
D21*
X99060000Y-57060000D03*
D20*
X81280000Y-65265500D03*
D21*
X81280000Y-57465500D03*
D20*
X60960000Y-64860000D03*
D21*
X60960000Y-57060000D03*
D20*
X38100000Y-64860000D03*
D21*
X38100000Y-57060000D03*
D20*
X289560000Y-44540000D03*
D21*
X289560000Y-36740000D03*
D20*
X261620000Y-44540000D03*
D21*
X261620000Y-36740000D03*
D20*
X241300000Y-44540000D03*
D21*
X241300000Y-36740000D03*
D20*
X223520000Y-44540000D03*
D21*
X223520000Y-36740000D03*
D20*
X203200000Y-44540000D03*
D21*
X203200000Y-36740000D03*
D20*
X185420000Y-44540000D03*
D21*
X185420000Y-36740000D03*
D20*
X165100000Y-44540000D03*
D21*
X165100000Y-36740000D03*
D20*
X147320000Y-44540000D03*
D21*
X147320000Y-36740000D03*
D20*
X127000000Y-44540000D03*
D21*
X127000000Y-36740000D03*
D20*
X109220000Y-44540000D03*
D21*
X109220000Y-36740000D03*
D20*
X88900000Y-44540000D03*
D21*
X88900000Y-36740000D03*
D20*
X71120000Y-44540000D03*
D21*
X71120000Y-36740000D03*
D20*
X50800000Y-44540000D03*
D21*
X50800000Y-36740000D03*
D20*
X33020000Y-44540000D03*
D21*
X33020000Y-36740000D03*
D16*
X74589000Y-46515500D03*
D14*
X74309000Y-42315500D03*
X85309000Y-42315500D03*
D15*
X79809000Y-42315500D03*
D17*
X84809000Y-38515500D03*
X79809000Y-36415500D03*
D18*
X78539000Y-47015500D03*
D19*
X81079000Y-47015500D03*
D16*
X79351500Y-103665500D03*
D14*
X90071500Y-99465500D03*
D15*
X84571500Y-99465500D03*
D14*
X79071500Y-99465500D03*
D17*
X89571500Y-95665500D03*
X84571500Y-93565500D03*
D18*
X83301500Y-104165500D03*
D19*
X85841500Y-104165500D03*
D16*
X255564000Y-65565500D03*
D15*
X260784000Y-61365500D03*
D14*
X255284000Y-61365500D03*
X266284000Y-61365500D03*
D17*
X265784000Y-57565500D03*
X260784000Y-55465500D03*
D18*
X259514000Y-66065500D03*
D19*
X262054000Y-66065500D03*
D15*
X279834000Y-61365500D03*
D14*
X274334000Y-61365500D03*
X285334000Y-61365500D03*
D16*
X274614000Y-65565500D03*
D17*
X284834000Y-57565500D03*
X279834000Y-55465500D03*
D18*
X278564000Y-66065500D03*
D19*
X281104000Y-66065500D03*
D15*
X327459000Y-118515500D03*
D16*
X322239000Y-122715500D03*
D14*
X321959000Y-118515500D03*
X332959000Y-118515500D03*
D17*
X332459000Y-114715500D03*
X327459000Y-112615500D03*
D18*
X326189000Y-123215500D03*
D19*
X328729000Y-123215500D03*
D16*
X188889000Y-46515500D03*
D15*
X194109000Y-42315500D03*
D14*
X199609000Y-42315500D03*
X188609000Y-42315500D03*
D17*
X199109000Y-38515500D03*
X194109000Y-36415500D03*
D18*
X192839000Y-47015500D03*
D19*
X195379000Y-47015500D03*
D15*
X175059000Y-42315500D03*
D14*
X180559000Y-42315500D03*
X169559000Y-42315500D03*
D16*
X169839000Y-46515500D03*
D17*
X180059000Y-38515500D03*
X175059000Y-36415500D03*
D18*
X173789000Y-47015500D03*
D19*
X176329000Y-47015500D03*
D14*
X250521500Y-99465500D03*
D15*
X256021500Y-99465500D03*
D14*
X261521500Y-99465500D03*
D16*
X250801500Y-103665500D03*
D17*
X261021500Y-95665500D03*
X256021500Y-93565500D03*
D18*
X254751500Y-104165500D03*
D19*
X257291500Y-104165500D03*
D16*
X198414000Y-65565500D03*
D15*
X203634000Y-61365500D03*
D14*
X198134000Y-61365500D03*
X209134000Y-61365500D03*
D17*
X208634000Y-57565500D03*
X203634000Y-55465500D03*
D18*
X202364000Y-66065500D03*
D19*
X204904000Y-66065500D03*
D15*
X213159000Y-42315500D03*
D14*
X218659000Y-42315500D03*
D16*
X207939000Y-46515500D03*
D14*
X207659000Y-42315500D03*
D17*
X218159000Y-38515500D03*
X213159000Y-36415500D03*
D18*
X211889000Y-47015500D03*
D19*
X214429000Y-47015500D03*
D15*
X289359000Y-118515500D03*
D16*
X284139000Y-122715500D03*
D14*
X294859000Y-118515500D03*
X283859000Y-118515500D03*
D17*
X294359000Y-114715500D03*
X289359000Y-112615500D03*
D18*
X288089000Y-123215500D03*
D19*
X290629000Y-123215500D03*
D16*
X117451500Y-103665500D03*
D14*
X128171500Y-99465500D03*
X117171500Y-99465500D03*
D15*
X122671500Y-99465500D03*
D17*
X127671500Y-95665500D03*
X122671500Y-93565500D03*
D18*
X121401500Y-104165500D03*
D19*
X123941500Y-104165500D03*
D14*
X332959000Y-61365500D03*
X321959000Y-61365500D03*
D15*
X327459000Y-61365500D03*
D16*
X322239000Y-65565500D03*
D17*
X332459000Y-57565500D03*
X327459000Y-55465500D03*
D18*
X326189000Y-66065500D03*
D19*
X328729000Y-66065500D03*
D15*
X246496500Y-80415500D03*
D14*
X240996500Y-80415500D03*
D16*
X241276500Y-84615500D03*
D14*
X251996500Y-80415500D03*
D17*
X251496500Y-76615500D03*
X246496500Y-74515500D03*
D18*
X245226500Y-85115500D03*
D19*
X247766500Y-85115500D03*
D15*
X117909000Y-42315500D03*
D16*
X112689000Y-46515500D03*
D14*
X123409000Y-42315500D03*
X112409000Y-42315500D03*
D17*
X122909000Y-38515500D03*
X117909000Y-36415500D03*
D18*
X116639000Y-47015500D03*
D19*
X119179000Y-47015500D03*
D12*
X204470000Y-127000000D03*
D13*
X201930000Y-127000000D03*
X199390000Y-127000000D03*
X196850000Y-127000000D03*
X194310000Y-127000000D03*
X191770000Y-127000000D03*
X189230000Y-127000000D03*
X186690000Y-127000000D03*
X184150000Y-127000000D03*
X181610000Y-127000000D03*
X179070000Y-127000000D03*
X176530000Y-126771400D03*
X176530000Y-111760000D03*
X179070000Y-111760000D03*
X181610000Y-111760000D03*
X184150000Y-111760000D03*
X186690000Y-111760000D03*
X189230000Y-111760000D03*
X191770000Y-111760000D03*
X194310000Y-111760000D03*
X196850000Y-111760000D03*
X199390000Y-111760000D03*
X201930000Y-111760000D03*
X204470000Y-111760000D03*
X176530000Y-124460000D03*
X176530000Y-121920000D03*
X176530000Y-119380000D03*
X176530000Y-116840000D03*
X176530000Y-114300000D03*
D14*
X213896500Y-80415500D03*
X202896500Y-80415500D03*
D16*
X203176500Y-84615500D03*
D15*
X208396500Y-80415500D03*
D17*
X213396500Y-76615500D03*
X208396500Y-74515500D03*
D18*
X207126500Y-85115500D03*
D19*
X209666500Y-85115500D03*
D16*
X150789000Y-46515500D03*
D14*
X150509000Y-42315500D03*
D15*
X156009000Y-42315500D03*
D14*
X161509000Y-42315500D03*
D17*
X161009000Y-38515500D03*
X156009000Y-36415500D03*
D18*
X154739000Y-47015500D03*
D19*
X157279000Y-47015500D03*
D15*
X94096500Y-80415500D03*
D14*
X99596500Y-80415500D03*
X88596500Y-80415500D03*
D16*
X88876500Y-84615500D03*
D17*
X99096500Y-76615500D03*
X94096500Y-74515500D03*
D18*
X92826500Y-85115500D03*
D19*
X95366500Y-85115500D03*
D16*
X174601500Y-103665500D03*
D14*
X185321500Y-99465500D03*
X174321500Y-99465500D03*
D15*
X179821500Y-99465500D03*
D17*
X184821500Y-95665500D03*
X179821500Y-93565500D03*
D18*
X178551500Y-104165500D03*
D19*
X181091500Y-104165500D03*
D15*
X127434000Y-61365500D03*
D14*
X121934000Y-61365500D03*
X132934000Y-61365500D03*
D16*
X122214000Y-65565500D03*
D17*
X132434000Y-57565500D03*
X127434000Y-55465500D03*
D18*
X126164000Y-66065500D03*
D19*
X128704000Y-66065500D03*
D14*
X228184000Y-61365500D03*
X217184000Y-61365500D03*
D16*
X217464000Y-65565500D03*
D15*
X222684000Y-61365500D03*
D17*
X227684000Y-57565500D03*
X222684000Y-55465500D03*
D18*
X221414000Y-66065500D03*
D19*
X223954000Y-66065500D03*
D14*
X136221500Y-99465500D03*
X147221500Y-99465500D03*
D16*
X136501500Y-103665500D03*
D15*
X141721500Y-99465500D03*
D17*
X146721500Y-95665500D03*
X141721500Y-93565500D03*
D18*
X140451500Y-104165500D03*
D19*
X142991500Y-104165500D03*
D16*
X303189000Y-122715500D03*
D14*
X313909000Y-118515500D03*
D15*
X308409000Y-118515500D03*
D14*
X302909000Y-118515500D03*
D17*
X313409000Y-114715500D03*
X308409000Y-112615500D03*
D18*
X307139000Y-123215500D03*
D19*
X309679000Y-123215500D03*
D14*
X155271500Y-99465500D03*
D15*
X160771500Y-99465500D03*
D16*
X155551500Y-103665500D03*
D14*
X166271500Y-99465500D03*
D17*
X165771500Y-95665500D03*
X160771500Y-93565500D03*
D18*
X159501500Y-104165500D03*
D19*
X162041500Y-104165500D03*
D14*
X156746500Y-80415500D03*
D16*
X146026500Y-84615500D03*
D14*
X145746500Y-80415500D03*
D15*
X151246500Y-80415500D03*
D17*
X156246500Y-76615500D03*
X151246500Y-74515500D03*
D18*
X149976500Y-85115500D03*
D19*
X152516500Y-85115500D03*
D16*
X193651500Y-103665500D03*
D14*
X204371500Y-99465500D03*
X193371500Y-99465500D03*
D15*
X198871500Y-99465500D03*
D17*
X203871500Y-95665500D03*
X198871500Y-93565500D03*
D18*
X197601500Y-104165500D03*
D19*
X200141500Y-104165500D03*
D14*
X302909000Y-99465500D03*
D16*
X303189000Y-103665500D03*
D15*
X308409000Y-99465500D03*
D14*
X313909000Y-99465500D03*
D17*
X313409000Y-95665500D03*
X308409000Y-93565500D03*
D18*
X307139000Y-104165500D03*
D19*
X309679000Y-104165500D03*
D15*
X98859000Y-42315500D03*
D16*
X93639000Y-46515500D03*
D14*
X93359000Y-42315500D03*
X104359000Y-42315500D03*
D17*
X103859000Y-38515500D03*
X98859000Y-36415500D03*
D18*
X97589000Y-47015500D03*
D19*
X100129000Y-47015500D03*
D14*
X236234000Y-61365500D03*
D15*
X241734000Y-61365500D03*
D14*
X247234000Y-61365500D03*
D16*
X236514000Y-65565500D03*
D17*
X246734000Y-57565500D03*
X241734000Y-55465500D03*
D18*
X240464000Y-66065500D03*
D19*
X243004000Y-66065500D03*
D16*
X107926500Y-84615500D03*
D14*
X118646500Y-80415500D03*
D15*
X113146500Y-80415500D03*
D14*
X107646500Y-80415500D03*
D17*
X118146500Y-76615500D03*
X113146500Y-74515500D03*
D18*
X111876500Y-85115500D03*
D19*
X114416500Y-85115500D03*
D15*
X70284000Y-61365500D03*
D14*
X75784000Y-61365500D03*
D16*
X65064000Y-65565500D03*
D14*
X64784000Y-61365500D03*
D17*
X75284000Y-57565500D03*
X70284000Y-55465500D03*
D18*
X69014000Y-66065500D03*
D19*
X71554000Y-66065500D03*
D14*
X142459000Y-42315500D03*
X131459000Y-42315500D03*
D16*
X131739000Y-46515500D03*
D15*
X136959000Y-42315500D03*
D17*
X141959000Y-38515500D03*
X136959000Y-36415500D03*
D18*
X135689000Y-47015500D03*
D19*
X138229000Y-47015500D03*
D16*
X69826500Y-84615500D03*
D14*
X69546500Y-80415500D03*
D15*
X75046500Y-80415500D03*
D14*
X80546500Y-80415500D03*
D17*
X80046500Y-76615500D03*
X75046500Y-74515500D03*
D18*
X73776500Y-85115500D03*
D19*
X76316500Y-85115500D03*
D15*
X146484000Y-61365500D03*
D14*
X140984000Y-61365500D03*
X151984000Y-61365500D03*
D16*
X141264000Y-65565500D03*
D17*
X151484000Y-57565500D03*
X146484000Y-55465500D03*
D18*
X145214000Y-66065500D03*
D19*
X147754000Y-66065500D03*
D14*
X94834000Y-61365500D03*
D15*
X89334000Y-61365500D03*
D14*
X83834000Y-61365500D03*
D16*
X84114000Y-65565500D03*
D17*
X94334000Y-57565500D03*
X89334000Y-55465500D03*
D18*
X88064000Y-66065500D03*
D19*
X90604000Y-66065500D03*
D16*
X322239000Y-46515500D03*
D15*
X327459000Y-42315500D03*
D14*
X321959000Y-42315500D03*
X332959000Y-42315500D03*
D17*
X332459000Y-38515500D03*
X327459000Y-36415500D03*
D18*
X326189000Y-47015500D03*
D19*
X328729000Y-47015500D03*
D14*
X109121500Y-99465500D03*
D15*
X103621500Y-99465500D03*
D14*
X98121500Y-99465500D03*
D16*
X98401500Y-103665500D03*
D17*
X108621500Y-95665500D03*
X103621500Y-93565500D03*
D18*
X102351500Y-104165500D03*
D19*
X104891500Y-104165500D03*
D15*
X251259000Y-42315500D03*
D14*
X256759000Y-42315500D03*
X245759000Y-42315500D03*
D16*
X246039000Y-46515500D03*
D17*
X256259000Y-38515500D03*
X251259000Y-36415500D03*
D18*
X249989000Y-47015500D03*
D19*
X252529000Y-47015500D03*
D15*
X170296500Y-80415500D03*
D14*
X164796500Y-80415500D03*
D16*
X165076500Y-84615500D03*
D14*
X175796500Y-80415500D03*
D17*
X175296500Y-76615500D03*
X170296500Y-74515500D03*
D18*
X169026500Y-85115500D03*
D19*
X171566500Y-85115500D03*
D15*
X165534000Y-61365500D03*
D14*
X160034000Y-61365500D03*
D16*
X160314000Y-65565500D03*
D14*
X171034000Y-61365500D03*
D17*
X170534000Y-57565500D03*
X165534000Y-55465500D03*
D18*
X164264000Y-66065500D03*
D19*
X166804000Y-66065500D03*
D14*
X190084000Y-61365500D03*
X179084000Y-61365500D03*
D16*
X179364000Y-65565500D03*
D15*
X184584000Y-61365500D03*
D17*
X189584000Y-57565500D03*
X184584000Y-55465500D03*
D18*
X183314000Y-66065500D03*
D19*
X185854000Y-66065500D03*
D16*
X55539000Y-46515500D03*
D14*
X55259000Y-42315500D03*
D15*
X60759000Y-42315500D03*
D14*
X66259000Y-42315500D03*
D17*
X65759000Y-38515500D03*
X60759000Y-36415500D03*
D18*
X59489000Y-47015500D03*
D19*
X62029000Y-47015500D03*
D15*
X217921500Y-99465500D03*
D14*
X223421500Y-99465500D03*
D16*
X212701500Y-103665500D03*
D14*
X212421500Y-99465500D03*
D17*
X222921500Y-95665500D03*
X217921500Y-93565500D03*
D18*
X216651500Y-104165500D03*
D19*
X219191500Y-104165500D03*
D14*
X231471500Y-99465500D03*
D16*
X231751500Y-103665500D03*
D15*
X236971500Y-99465500D03*
D14*
X242471500Y-99465500D03*
D17*
X241971500Y-95665500D03*
X236971500Y-93565500D03*
D18*
X235701500Y-104165500D03*
D19*
X238241500Y-104165500D03*
D14*
X113884000Y-61365500D03*
X102884000Y-61365500D03*
D16*
X103164000Y-65565500D03*
D15*
X108384000Y-61365500D03*
D17*
X113384000Y-57565500D03*
X108384000Y-55465500D03*
D18*
X107114000Y-66065500D03*
D19*
X109654000Y-66065500D03*
D15*
X327459000Y-99465500D03*
D16*
X322239000Y-103665500D03*
D14*
X332959000Y-99465500D03*
X321959000Y-99465500D03*
D17*
X332459000Y-95665500D03*
X327459000Y-93565500D03*
D18*
X326189000Y-104165500D03*
D19*
X328729000Y-104165500D03*
D16*
X260326500Y-84615500D03*
D15*
X265546500Y-80415500D03*
D14*
X271046500Y-80415500D03*
X260046500Y-80415500D03*
D17*
X270546500Y-76615500D03*
X265546500Y-74515500D03*
D18*
X264276500Y-85115500D03*
D19*
X266816500Y-85115500D03*
D16*
X36489000Y-46515500D03*
D14*
X36209000Y-42315500D03*
X47209000Y-42315500D03*
D15*
X41709000Y-42315500D03*
D17*
X46709000Y-38515500D03*
X41709000Y-36415500D03*
D18*
X40439000Y-47015500D03*
D19*
X42979000Y-47015500D03*
D16*
X322239000Y-84615500D03*
D15*
X327459000Y-80415500D03*
D14*
X332959000Y-80415500D03*
X321959000Y-80415500D03*
D17*
X332459000Y-76615500D03*
X327459000Y-74515500D03*
D18*
X326189000Y-85115500D03*
D19*
X328729000Y-85115500D03*
D14*
X226709000Y-42315500D03*
X237709000Y-42315500D03*
D16*
X226989000Y-46515500D03*
D15*
X232209000Y-42315500D03*
D17*
X237209000Y-38515500D03*
X232209000Y-36415500D03*
D18*
X230939000Y-47015500D03*
D19*
X233479000Y-47015500D03*
D14*
X264809000Y-42315500D03*
D15*
X270309000Y-42315500D03*
D14*
X275809000Y-42315500D03*
D16*
X265089000Y-46515500D03*
D17*
X275309000Y-38515500D03*
X270309000Y-36415500D03*
D18*
X269039000Y-47015500D03*
D19*
X271579000Y-47015500D03*
D16*
X126976500Y-84615500D03*
D15*
X132196500Y-80415500D03*
D14*
X126696500Y-80415500D03*
X137696500Y-80415500D03*
D17*
X137196500Y-76615500D03*
X132196500Y-74515500D03*
D18*
X130926500Y-85115500D03*
D19*
X133466500Y-85115500D03*
D14*
X221946500Y-80415500D03*
X232946500Y-80415500D03*
D15*
X227446500Y-80415500D03*
D16*
X222226500Y-84615500D03*
D17*
X232446500Y-76615500D03*
X227446500Y-74515500D03*
D18*
X226176500Y-85115500D03*
D19*
X228716500Y-85115500D03*
M02*
