M48
; DRILL file {KiCad 6.0.2+dfsg-1} date do 02 feb 2023 22:32:41 CET
; FORMAT={-:-/ absolute / metric / decimal}
; #@! TF.CreationDate,2023-02-02T22:32:41+01:00
; #@! TF.GenerationSoftware,Kicad,Pcbnew,6.0.2+dfsg-1
; #@! TF.FileFunction,Plated,1,2,PTH
FMAT,2
METRIC
; #@! TA.AperFunction,Plated,PTH,ViaDrill
T1C0.400
; #@! TA.AperFunction,Plated,PTH,ComponentDrill
T2C0.700
; #@! TA.AperFunction,Plated,PTH,ComponentDrill
T3C1.040
; #@! TA.AperFunction,Plated,PTH,ComponentDrill
T4C1.092
; #@! TA.AperFunction,Plated,PTH,ComponentDrill
T5C1.200
%
G90
G05
T1
X160.02Y-114.935
X161.29Y-108.585
X167.64Y-107.95
X171.132Y-123.507
X172.085Y-115.57
X172.085Y-118.745
X182.245Y-130.175
X182.88Y-87.63
X186.69Y-104.775
X187.325Y-60.96
X189.23Y-87.63
X191.77Y-104.775
X194.31Y-87.63
X194.945Y-107.95
X199.39Y-87.63
X243.205Y-125.73
X252.095Y-125.73
X313.055Y-125.73
T2
X33.02Y-36.74
X33.02Y-44.54
X35.56Y-112.94
X35.56Y-120.74
X38.1Y-57.06
X38.1Y-64.86
X40.64Y-74.84
X40.64Y-82.64
X45.72Y-95.16
X45.72Y-102.96
X50.8Y-36.74
X50.8Y-44.54
X58.42Y-112.94
X58.42Y-120.74
X60.96Y-57.06
X60.96Y-64.86
X66.04Y-74.84
X66.04Y-82.64
X71.12Y-36.74
X71.12Y-44.54
X76.2Y-95.16
X76.2Y-102.96
X81.28Y-57.465
X81.28Y-65.266
X83.82Y-74.84
X83.82Y-82.64
X83.82Y-112.94
X83.82Y-120.74
X88.9Y-36.74
X88.9Y-44.54
X93.98Y-95.16
X93.98Y-102.96
X99.06Y-57.06
X99.06Y-64.86
X104.14Y-74.941
X104.14Y-82.74
X109.22Y-36.74
X109.22Y-44.54
X114.3Y-95.16
X114.3Y-102.96
X119.38Y-57.06
X119.38Y-64.86
X121.92Y-74.84
X121.92Y-82.64
X127.0Y-36.74
X127.0Y-44.54
X132.08Y-95.16
X132.08Y-102.96
X137.16Y-57.06
X137.16Y-64.86
X142.24Y-74.84
X142.24Y-82.64
X147.32Y-36.74
X147.32Y-44.54
X152.4Y-94.195
X152.4Y-101.995
X154.94Y-112.94
X154.94Y-120.74
X157.48Y-57.06
X157.48Y-64.86
X160.02Y-74.84
X160.02Y-82.64
X165.1Y-36.74
X165.1Y-44.54
X170.18Y-94.195
X170.18Y-101.995
X175.26Y-57.06
X175.26Y-64.86
X180.34Y-74.84
X180.34Y-82.64
X185.42Y-36.74
X185.42Y-44.54
X190.5Y-94.195
X190.5Y-101.995
X195.58Y-57.06
X195.58Y-64.86
X198.12Y-74.84
X198.12Y-82.64
X203.2Y-36.74
X203.2Y-44.54
X208.28Y-95.16
X208.28Y-102.96
X213.36Y-57.06
X213.36Y-64.86
X218.44Y-74.84
X218.44Y-82.64
X223.52Y-36.74
X223.52Y-44.54
X226.06Y-112.94
X226.06Y-120.74
X228.6Y-95.16
X228.6Y-102.96
X231.14Y-57.06
X231.14Y-64.86
X236.22Y-74.84
X236.22Y-82.64
X241.3Y-36.74
X241.3Y-44.54
X246.38Y-95.16
X246.38Y-102.96
X248.92Y-112.94
X248.92Y-120.74
X251.46Y-57.06
X251.46Y-64.86
X256.54Y-74.84
X256.54Y-82.64
X261.62Y-36.74
X261.62Y-44.54
X271.78Y-58.025
X271.78Y-65.825
X274.32Y-95.16
X274.32Y-102.96
X279.4Y-112.94
X279.4Y-120.74
X287.02Y-74.84
X287.02Y-82.64
X289.56Y-36.74
X289.56Y-44.54
X294.64Y-57.06
X294.64Y-64.86
X297.18Y-95.16
X297.18Y-102.96
X299.72Y-112.94
X299.72Y-120.74
X317.5Y-36.74
X317.5Y-44.54
X317.5Y-57.06
X317.5Y-64.86
X317.5Y-74.84
X317.5Y-82.64
X317.5Y-95.16
X317.5Y-102.96
X317.5Y-112.94
X317.5Y-120.74
T3
X40.439Y-47.015
X42.82Y-123.215
X42.979Y-47.015
X45.201Y-66.066
X45.36Y-123.215
X47.583Y-85.115
X47.741Y-66.066
X50.123Y-85.115
X52.345Y-104.165
X54.885Y-104.165
X59.489Y-47.015
X62.029Y-47.015
X66.633Y-123.215
X69.014Y-66.066
X69.173Y-123.215
X71.554Y-66.066
X73.776Y-85.115
X76.316Y-85.115
X78.539Y-47.015
X81.079Y-47.015
X83.301Y-104.165
X85.841Y-104.165
X88.064Y-66.066
X90.445Y-123.215
X90.604Y-66.066
X92.826Y-85.115
X92.985Y-123.215
X95.367Y-85.115
X97.589Y-47.015
X100.129Y-47.015
X102.352Y-104.165
X104.891Y-104.165
X107.114Y-66.066
X109.654Y-66.066
X111.876Y-85.115
X114.416Y-85.115
X116.639Y-47.015
X119.179Y-47.015
X121.401Y-104.165
X123.941Y-104.165
X126.164Y-66.066
X128.704Y-66.066
X130.927Y-85.115
X133.466Y-85.115
X135.689Y-47.015
X138.229Y-47.015
X140.451Y-104.165
X142.992Y-104.165
X145.214Y-66.066
X147.754Y-66.066
X149.976Y-85.115
X152.516Y-85.115
X154.739Y-47.015
X157.279Y-47.015
X159.501Y-104.165
X161.883Y-123.215
X162.041Y-104.165
X164.264Y-66.066
X164.423Y-123.215
X166.804Y-66.066
X169.026Y-85.115
X171.566Y-85.115
X173.789Y-47.015
X176.329Y-47.015
X178.552Y-104.165
X181.091Y-104.165
X183.314Y-66.066
X185.854Y-66.066
X188.076Y-85.115
X190.617Y-85.115
X192.839Y-47.015
X195.379Y-47.015
X197.601Y-104.165
X200.141Y-104.165
X202.364Y-66.066
X204.904Y-66.066
X207.126Y-85.115
X209.666Y-85.115
X211.889Y-47.015
X214.429Y-47.015
X216.651Y-104.165
X219.191Y-104.165
X221.414Y-66.066
X223.954Y-66.066
X226.176Y-85.115
X228.716Y-85.115
X230.939Y-47.015
X233.32Y-123.215
X233.479Y-47.015
X235.701Y-104.165
X235.86Y-123.215
X238.242Y-104.165
X240.464Y-66.066
X243.004Y-66.066
X245.226Y-85.115
X247.766Y-85.115
X249.989Y-47.015
X252.529Y-47.015
X254.751Y-104.165
X257.133Y-123.215
X257.291Y-104.165
X259.514Y-66.066
X259.673Y-123.215
X262.054Y-66.066
X264.276Y-85.115
X266.816Y-85.115
X269.039Y-47.015
X271.579Y-47.015
X278.564Y-66.066
X280.945Y-104.165
X281.104Y-66.066
X283.485Y-104.165
X288.089Y-123.215
X290.629Y-123.215
X295.233Y-85.115
X297.614Y-47.015
X297.773Y-85.115
X300.154Y-47.015
X302.376Y-66.066
X304.916Y-66.066
X307.139Y-104.165
X307.139Y-123.215
X309.679Y-104.165
X309.679Y-123.215
X326.189Y-47.015
X326.189Y-66.066
X326.189Y-85.115
X326.189Y-104.165
X326.189Y-123.215
X328.729Y-47.015
X328.729Y-66.066
X328.729Y-85.115
X328.729Y-104.165
X328.729Y-123.215
T4
X176.53Y-111.76
X176.53Y-114.3
X176.53Y-116.84
X176.53Y-119.38
X176.53Y-121.92
X176.53Y-124.46
X176.53Y-126.771
X179.07Y-111.76
X179.07Y-127.0
X181.61Y-111.76
X181.61Y-127.0
X184.15Y-111.76
X184.15Y-127.0
X186.69Y-111.76
X186.69Y-127.0
X189.23Y-111.76
X189.23Y-127.0
X191.77Y-111.76
X191.77Y-127.0
X194.31Y-111.76
X194.31Y-127.0
X196.85Y-111.76
X196.85Y-127.0
X199.39Y-111.76
X199.39Y-127.0
X201.93Y-111.76
X201.93Y-127.0
X204.47Y-111.76
X204.47Y-127.0
T5
X41.709Y-36.416
X44.09Y-112.615
X46.471Y-55.465
X46.709Y-38.515
X48.853Y-74.516
X49.09Y-114.715
X51.471Y-57.566
X53.615Y-93.566
X53.853Y-76.615
X58.615Y-95.665
X60.759Y-36.416
X65.759Y-38.515
X67.903Y-112.615
X70.284Y-55.465
X72.903Y-114.715
X75.046Y-74.516
X75.284Y-57.566
X79.809Y-36.416
X80.046Y-76.615
X84.572Y-93.566
X84.809Y-38.515
X89.334Y-55.465
X89.572Y-95.665
X91.715Y-112.615
X94.096Y-74.516
X94.334Y-57.566
X96.715Y-114.715
X98.859Y-36.416
X99.096Y-76.615
X103.621Y-93.566
X103.859Y-38.515
X108.384Y-55.465
X108.621Y-95.665
X113.146Y-74.516
X113.384Y-57.566
X117.909Y-36.416
X118.146Y-76.615
X122.671Y-93.566
X122.909Y-38.515
X127.434Y-55.465
X127.671Y-95.665
X132.196Y-74.516
X132.434Y-57.566
X136.959Y-36.416
X137.196Y-76.615
X141.721Y-93.566
X141.959Y-38.515
X146.484Y-55.465
X146.721Y-95.665
X151.246Y-74.516
X151.484Y-57.566
X156.009Y-36.416
X156.246Y-76.615
X160.772Y-93.566
X161.009Y-38.515
X163.153Y-112.615
X165.534Y-55.465
X165.772Y-95.665
X168.153Y-114.715
X170.296Y-74.516
X170.534Y-57.566
X175.059Y-36.416
X175.296Y-76.615
X179.821Y-93.566
X180.059Y-38.515
X184.584Y-55.465
X184.821Y-95.665
X189.346Y-74.516
X189.584Y-57.566
X194.109Y-36.416
X194.346Y-76.615
X198.871Y-93.566
X199.109Y-38.515
X203.634Y-55.465
X203.871Y-95.665
X208.397Y-74.516
X208.634Y-57.566
X213.159Y-36.416
X213.397Y-76.615
X217.921Y-93.566
X218.159Y-38.515
X222.684Y-55.465
X222.921Y-95.665
X227.446Y-74.516
X227.684Y-57.566
X232.209Y-36.416
X232.446Y-76.615
X234.59Y-112.615
X236.971Y-93.566
X237.209Y-38.515
X239.59Y-114.715
X241.734Y-55.465
X241.971Y-95.665
X246.496Y-74.516
X246.734Y-57.566
X251.259Y-36.416
X251.496Y-76.615
X256.022Y-93.566
X256.259Y-38.515
X258.403Y-112.615
X260.784Y-55.465
X261.022Y-95.665
X263.403Y-114.715
X265.546Y-74.516
X265.784Y-57.566
X270.309Y-36.416
X270.546Y-76.615
X275.309Y-38.515
X279.834Y-55.465
X282.215Y-93.566
X284.834Y-57.566
X287.215Y-95.665
X289.359Y-112.615
X294.359Y-114.715
X296.503Y-74.516
X298.884Y-36.416
X301.503Y-76.615
X303.647Y-55.465
X303.884Y-38.515
X308.409Y-93.566
X308.409Y-112.615
X308.647Y-57.566
X313.409Y-95.665
X313.409Y-114.715
X327.459Y-36.416
X327.459Y-55.465
X327.459Y-74.516
X327.459Y-93.566
X327.459Y-112.615
X332.459Y-38.515
X332.459Y-57.566
X332.459Y-76.615
X332.459Y-95.665
X332.459Y-114.715
T0
M30
