%FSLAX45Y45*%
G04 Gerber Fmt 4.5, Leading zero omitted, Abs format (unit mm)*
G04 Created by KiCad (PCBNEW 6.0.2+dfsg-1) date 2023-02-02 22:32:19*
%MOMM*%
%LPD*%
G01*
G04 APERTURE LIST*
%TA.AperFunction,Profile*%
%ADD10C,0.100000*%
%TD*%
%ADD11C,0.200000*%
%ADD12C,0.120000*%
%ADD13C,0.190000*%
%ADD14C,0.340000*%
G04 APERTURE END LIST*
D10*
X2538531Y-13204127D02*
X2538531Y-2879050D01*
X34098477Y-13483919D02*
X2818400Y-13483919D01*
X34378269Y-2878973D02*
X34378269Y-13204050D01*
X2818323Y-2599181D02*
X34098400Y-2599181D01*
X2818323Y-2599181D02*
G75*
G03*
X2538531Y-2879050I77J-279869D01*
G01*
X2538531Y-13204127D02*
G75*
G03*
X2818400Y-13483919I279869J77D01*
G01*
X34098477Y-13483919D02*
G75*
G03*
X34378269Y-13204050I-77J279869D01*
G01*
X34378269Y-2878973D02*
G75*
G03*
X34098400Y-2599181I-279869J-77D01*
G01*
D11*
D12*
X3588900Y-4591550D02*
X3708900Y-4711550D01*
X3708900Y-4591550D02*
X3588900Y-4711550D01*
X3827025Y-12211550D02*
X3947025Y-12331550D01*
X3947025Y-12211550D02*
X3827025Y-12331550D01*
X4065150Y-6496550D02*
X4185150Y-6616550D01*
X4185150Y-6496550D02*
X4065150Y-6616550D01*
X4303275Y-8401550D02*
X4423275Y-8521550D01*
X4423275Y-8401550D02*
X4303275Y-8521550D01*
X4779525Y-10306550D02*
X4899525Y-10426550D01*
X4899525Y-10306550D02*
X4779525Y-10426550D01*
X5493900Y-4591550D02*
X5613900Y-4711550D01*
X5613900Y-4591550D02*
X5493900Y-4711550D01*
X6208275Y-12211550D02*
X6328275Y-12331550D01*
X6328275Y-12211550D02*
X6208275Y-12331550D01*
X6446400Y-6496550D02*
X6566400Y-6616550D01*
X6566400Y-6496550D02*
X6446400Y-6616550D01*
X6922650Y-8401550D02*
X7042650Y-8521550D01*
X7042650Y-8401550D02*
X6922650Y-8521550D01*
X7398900Y-4591550D02*
X7518900Y-4711550D01*
X7518900Y-4591550D02*
X7398900Y-4711550D01*
X7875150Y-10306550D02*
X7995150Y-10426550D01*
X7995150Y-10306550D02*
X7875150Y-10426550D01*
X8351400Y-6496550D02*
X8471400Y-6616550D01*
X8471400Y-6496550D02*
X8351400Y-6616550D01*
X8589525Y-12211550D02*
X8709525Y-12331550D01*
X8709525Y-12211550D02*
X8589525Y-12331550D01*
X8827650Y-8401550D02*
X8947650Y-8521550D01*
X8947650Y-8401550D02*
X8827650Y-8521550D01*
X9303900Y-4591550D02*
X9423900Y-4711550D01*
X9423900Y-4591550D02*
X9303900Y-4711550D01*
X9780150Y-10306550D02*
X9900150Y-10426550D01*
X9900150Y-10306550D02*
X9780150Y-10426550D01*
X10256400Y-6496550D02*
X10376400Y-6616550D01*
X10376400Y-6496550D02*
X10256400Y-6616550D01*
X10732650Y-8401550D02*
X10852650Y-8521550D01*
X10852650Y-8401550D02*
X10732650Y-8521550D01*
X11208900Y-4591550D02*
X11328900Y-4711550D01*
X11328900Y-4591550D02*
X11208900Y-4711550D01*
X11685150Y-10306550D02*
X11805150Y-10426550D01*
X11805150Y-10306550D02*
X11685150Y-10426550D01*
X12161400Y-6496550D02*
X12281400Y-6616550D01*
X12281400Y-6496550D02*
X12161400Y-6616550D01*
X12637650Y-8401550D02*
X12757650Y-8521550D01*
X12757650Y-8401550D02*
X12637650Y-8521550D01*
X13113900Y-4591550D02*
X13233900Y-4711550D01*
X13233900Y-4591550D02*
X13113900Y-4711550D01*
X13590150Y-10306550D02*
X13710150Y-10426550D01*
X13710150Y-10306550D02*
X13590150Y-10426550D01*
X14066400Y-6496550D02*
X14186400Y-6616550D01*
X14186400Y-6496550D02*
X14066400Y-6616550D01*
X14542650Y-8401550D02*
X14662650Y-8521550D01*
X14662650Y-8401550D02*
X14542650Y-8521550D01*
X15018900Y-4591550D02*
X15138900Y-4711550D01*
X15138900Y-4591550D02*
X15018900Y-4711550D01*
X15495150Y-10306550D02*
X15615150Y-10426550D01*
X15615150Y-10306550D02*
X15495150Y-10426550D01*
X15733275Y-12211550D02*
X15853275Y-12331550D01*
X15853275Y-12211550D02*
X15733275Y-12331550D01*
X15971400Y-6496550D02*
X16091400Y-6616550D01*
X16091400Y-6496550D02*
X15971400Y-6616550D01*
X16447650Y-8401550D02*
X16567650Y-8521550D01*
X16567650Y-8401550D02*
X16447650Y-8521550D01*
X16923900Y-4591550D02*
X17043900Y-4711550D01*
X17043900Y-4591550D02*
X16923900Y-4711550D01*
X17400150Y-10306550D02*
X17520150Y-10426550D01*
X17520150Y-10306550D02*
X17400150Y-10426550D01*
X17876400Y-6496550D02*
X17996400Y-6616550D01*
X17996400Y-6496550D02*
X17876400Y-6616550D01*
X18352650Y-8401550D02*
X18472650Y-8521550D01*
X18472650Y-8401550D02*
X18352650Y-8521550D01*
X18828900Y-4591550D02*
X18948900Y-4711550D01*
X18948900Y-4591550D02*
X18828900Y-4711550D01*
X19305150Y-10306550D02*
X19425150Y-10426550D01*
X19425150Y-10306550D02*
X19305150Y-10426550D01*
X19781400Y-6496550D02*
X19901400Y-6616550D01*
X19901400Y-6496550D02*
X19781400Y-6616550D01*
X20257650Y-8401550D02*
X20377650Y-8521550D01*
X20377650Y-8401550D02*
X20257650Y-8521550D01*
X20733900Y-4591550D02*
X20853900Y-4711550D01*
X20853900Y-4591550D02*
X20733900Y-4711550D01*
X21210150Y-10306550D02*
X21330150Y-10426550D01*
X21330150Y-10306550D02*
X21210150Y-10426550D01*
X21686400Y-6496550D02*
X21806400Y-6616550D01*
X21806400Y-6496550D02*
X21686400Y-6616550D01*
X22162650Y-8401550D02*
X22282650Y-8521550D01*
X22282650Y-8401550D02*
X22162650Y-8521550D01*
X22638900Y-4591550D02*
X22758900Y-4711550D01*
X22758900Y-4591550D02*
X22638900Y-4711550D01*
X22877025Y-12211550D02*
X22997025Y-12331550D01*
X22997025Y-12211550D02*
X22877025Y-12331550D01*
X23115150Y-10306550D02*
X23235150Y-10426550D01*
X23235150Y-10306550D02*
X23115150Y-10426550D01*
X23591400Y-6496550D02*
X23711400Y-6616550D01*
X23711400Y-6496550D02*
X23591400Y-6616550D01*
X24067650Y-8401550D02*
X24187650Y-8521550D01*
X24187650Y-8401550D02*
X24067650Y-8521550D01*
X24543900Y-4591550D02*
X24663900Y-4711550D01*
X24663900Y-4591550D02*
X24543900Y-4711550D01*
X25020150Y-10306550D02*
X25140150Y-10426550D01*
X25140150Y-10306550D02*
X25020150Y-10426550D01*
X25258275Y-12211550D02*
X25378275Y-12331550D01*
X25378275Y-12211550D02*
X25258275Y-12331550D01*
X25496400Y-6496550D02*
X25616400Y-6616550D01*
X25616400Y-6496550D02*
X25496400Y-6616550D01*
X25972650Y-8401550D02*
X26092650Y-8521550D01*
X26092650Y-8401550D02*
X25972650Y-8521550D01*
X26448900Y-4591550D02*
X26568900Y-4711550D01*
X26568900Y-4591550D02*
X26448900Y-4711550D01*
X27401400Y-6496550D02*
X27521400Y-6616550D01*
X27521400Y-6496550D02*
X27401400Y-6616550D01*
X27639525Y-10306550D02*
X27759525Y-10426550D01*
X27759525Y-10306550D02*
X27639525Y-10426550D01*
X28353900Y-12211550D02*
X28473900Y-12331550D01*
X28473900Y-12211550D02*
X28353900Y-12331550D01*
X29068275Y-8401550D02*
X29188275Y-8521550D01*
X29188275Y-8401550D02*
X29068275Y-8521550D01*
X29306400Y-4591550D02*
X29426400Y-4711550D01*
X29426400Y-4591550D02*
X29306400Y-4711550D01*
X29782650Y-6496550D02*
X29902650Y-6616550D01*
X29902650Y-6496550D02*
X29782650Y-6616550D01*
X30258900Y-10306550D02*
X30378900Y-10426550D01*
X30378900Y-10306550D02*
X30258900Y-10426550D01*
X30258900Y-12211550D02*
X30378900Y-12331550D01*
X30378900Y-12211550D02*
X30258900Y-12331550D01*
X32163900Y-4591550D02*
X32283900Y-4711550D01*
X32283900Y-4591550D02*
X32163900Y-4711550D01*
X32163900Y-6496550D02*
X32283900Y-6616550D01*
X32283900Y-6496550D02*
X32163900Y-6616550D01*
X32163900Y-8401550D02*
X32283900Y-8521550D01*
X32283900Y-8401550D02*
X32163900Y-8521550D01*
X32163900Y-10306550D02*
X32283900Y-10426550D01*
X32283900Y-10306550D02*
X32163900Y-10426550D01*
X32163900Y-12211550D02*
X32283900Y-12331550D01*
X32283900Y-12211550D02*
X32163900Y-12331550D01*
D13*
X3715900Y-4231550D02*
G75*
G03*
X3715900Y-4231550I-95000J0D01*
G01*
X3954025Y-11851550D02*
G75*
G03*
X3954025Y-11851550I-95000J0D01*
G01*
X4192150Y-6136550D02*
G75*
G03*
X4192150Y-6136550I-95000J0D01*
G01*
X4430275Y-8041550D02*
G75*
G03*
X4430275Y-8041550I-95000J0D01*
G01*
X4815900Y-4231550D02*
G75*
G03*
X4815900Y-4231550I-95000J0D01*
G01*
X4906525Y-9946550D02*
G75*
G03*
X4906525Y-9946550I-95000J0D01*
G01*
X5054025Y-11851550D02*
G75*
G03*
X5054025Y-11851550I-95000J0D01*
G01*
X5292150Y-6136550D02*
G75*
G03*
X5292150Y-6136550I-95000J0D01*
G01*
X5530275Y-8041550D02*
G75*
G03*
X5530275Y-8041550I-95000J0D01*
G01*
X5620900Y-4231550D02*
G75*
G03*
X5620900Y-4231550I-95000J0D01*
G01*
X6006525Y-9946550D02*
G75*
G03*
X6006525Y-9946550I-95000J0D01*
G01*
X6335275Y-11851550D02*
G75*
G03*
X6335275Y-11851550I-95000J0D01*
G01*
X6573400Y-6136550D02*
G75*
G03*
X6573400Y-6136550I-95000J0D01*
G01*
X6720900Y-4231550D02*
G75*
G03*
X6720900Y-4231550I-95000J0D01*
G01*
X7049650Y-8041550D02*
G75*
G03*
X7049650Y-8041550I-95000J0D01*
G01*
X7435275Y-11851550D02*
G75*
G03*
X7435275Y-11851550I-95000J0D01*
G01*
X7525900Y-4231550D02*
G75*
G03*
X7525900Y-4231550I-95000J0D01*
G01*
X7673400Y-6136550D02*
G75*
G03*
X7673400Y-6136550I-95000J0D01*
G01*
X8002150Y-9946550D02*
G75*
G03*
X8002150Y-9946550I-95000J0D01*
G01*
X8149650Y-8041550D02*
G75*
G03*
X8149650Y-8041550I-95000J0D01*
G01*
X8478400Y-6136550D02*
G75*
G03*
X8478400Y-6136550I-95000J0D01*
G01*
X8625900Y-4231550D02*
G75*
G03*
X8625900Y-4231550I-95000J0D01*
G01*
X8716525Y-11851550D02*
G75*
G03*
X8716525Y-11851550I-95000J0D01*
G01*
X8954650Y-8041550D02*
G75*
G03*
X8954650Y-8041550I-95000J0D01*
G01*
X9102150Y-9946550D02*
G75*
G03*
X9102150Y-9946550I-95000J0D01*
G01*
X9430900Y-4231550D02*
G75*
G03*
X9430900Y-4231550I-95000J0D01*
G01*
X9578400Y-6136550D02*
G75*
G03*
X9578400Y-6136550I-95000J0D01*
G01*
X9816525Y-11851550D02*
G75*
G03*
X9816525Y-11851550I-95000J0D01*
G01*
X9907150Y-9946550D02*
G75*
G03*
X9907150Y-9946550I-95000J0D01*
G01*
X10054650Y-8041550D02*
G75*
G03*
X10054650Y-8041550I-95000J0D01*
G01*
X10383400Y-6136550D02*
G75*
G03*
X10383400Y-6136550I-95000J0D01*
G01*
X10530900Y-4231550D02*
G75*
G03*
X10530900Y-4231550I-95000J0D01*
G01*
X10859650Y-8041550D02*
G75*
G03*
X10859650Y-8041550I-95000J0D01*
G01*
X11007150Y-9946550D02*
G75*
G03*
X11007150Y-9946550I-95000J0D01*
G01*
X11335900Y-4231550D02*
G75*
G03*
X11335900Y-4231550I-95000J0D01*
G01*
X11483400Y-6136550D02*
G75*
G03*
X11483400Y-6136550I-95000J0D01*
G01*
X11812150Y-9946550D02*
G75*
G03*
X11812150Y-9946550I-95000J0D01*
G01*
X11959650Y-8041550D02*
G75*
G03*
X11959650Y-8041550I-95000J0D01*
G01*
X12288400Y-6136550D02*
G75*
G03*
X12288400Y-6136550I-95000J0D01*
G01*
X12435900Y-4231550D02*
G75*
G03*
X12435900Y-4231550I-95000J0D01*
G01*
X12764650Y-8041550D02*
G75*
G03*
X12764650Y-8041550I-95000J0D01*
G01*
X12912150Y-9946550D02*
G75*
G03*
X12912150Y-9946550I-95000J0D01*
G01*
X13240900Y-4231550D02*
G75*
G03*
X13240900Y-4231550I-95000J0D01*
G01*
X13388400Y-6136550D02*
G75*
G03*
X13388400Y-6136550I-95000J0D01*
G01*
X13717150Y-9946550D02*
G75*
G03*
X13717150Y-9946550I-95000J0D01*
G01*
X13864650Y-8041550D02*
G75*
G03*
X13864650Y-8041550I-95000J0D01*
G01*
X14193400Y-6136550D02*
G75*
G03*
X14193400Y-6136550I-95000J0D01*
G01*
X14340900Y-4231550D02*
G75*
G03*
X14340900Y-4231550I-95000J0D01*
G01*
X14669650Y-8041550D02*
G75*
G03*
X14669650Y-8041550I-95000J0D01*
G01*
X14817150Y-9946550D02*
G75*
G03*
X14817150Y-9946550I-95000J0D01*
G01*
X15145900Y-4231550D02*
G75*
G03*
X15145900Y-4231550I-95000J0D01*
G01*
X15293400Y-6136550D02*
G75*
G03*
X15293400Y-6136550I-95000J0D01*
G01*
X15622150Y-9946550D02*
G75*
G03*
X15622150Y-9946550I-95000J0D01*
G01*
X15769650Y-8041550D02*
G75*
G03*
X15769650Y-8041550I-95000J0D01*
G01*
X15860275Y-11851550D02*
G75*
G03*
X15860275Y-11851550I-95000J0D01*
G01*
X16098400Y-6136550D02*
G75*
G03*
X16098400Y-6136550I-95000J0D01*
G01*
X16245900Y-4231550D02*
G75*
G03*
X16245900Y-4231550I-95000J0D01*
G01*
X16574650Y-8041550D02*
G75*
G03*
X16574650Y-8041550I-95000J0D01*
G01*
X16722150Y-9946550D02*
G75*
G03*
X16722150Y-9946550I-95000J0D01*
G01*
X16960275Y-11851550D02*
G75*
G03*
X16960275Y-11851550I-95000J0D01*
G01*
X17050900Y-4231550D02*
G75*
G03*
X17050900Y-4231550I-95000J0D01*
G01*
X17198400Y-6136550D02*
G75*
G03*
X17198400Y-6136550I-95000J0D01*
G01*
X17527150Y-9946550D02*
G75*
G03*
X17527150Y-9946550I-95000J0D01*
G01*
X17674650Y-8041550D02*
G75*
G03*
X17674650Y-8041550I-95000J0D01*
G01*
X18003400Y-6136550D02*
G75*
G03*
X18003400Y-6136550I-95000J0D01*
G01*
X18150900Y-4231550D02*
G75*
G03*
X18150900Y-4231550I-95000J0D01*
G01*
X18479650Y-8041550D02*
G75*
G03*
X18479650Y-8041550I-95000J0D01*
G01*
X18627150Y-9946550D02*
G75*
G03*
X18627150Y-9946550I-95000J0D01*
G01*
X18955900Y-4231550D02*
G75*
G03*
X18955900Y-4231550I-95000J0D01*
G01*
X19103400Y-6136550D02*
G75*
G03*
X19103400Y-6136550I-95000J0D01*
G01*
X19432150Y-9946550D02*
G75*
G03*
X19432150Y-9946550I-95000J0D01*
G01*
X19579650Y-8041550D02*
G75*
G03*
X19579650Y-8041550I-95000J0D01*
G01*
X19908400Y-6136550D02*
G75*
G03*
X19908400Y-6136550I-95000J0D01*
G01*
X20055900Y-4231550D02*
G75*
G03*
X20055900Y-4231550I-95000J0D01*
G01*
X20384650Y-8041550D02*
G75*
G03*
X20384650Y-8041550I-95000J0D01*
G01*
X20532150Y-9946550D02*
G75*
G03*
X20532150Y-9946550I-95000J0D01*
G01*
X20860900Y-4231550D02*
G75*
G03*
X20860900Y-4231550I-95000J0D01*
G01*
X21008400Y-6136550D02*
G75*
G03*
X21008400Y-6136550I-95000J0D01*
G01*
X21337150Y-9946550D02*
G75*
G03*
X21337150Y-9946550I-95000J0D01*
G01*
X21484650Y-8041550D02*
G75*
G03*
X21484650Y-8041550I-95000J0D01*
G01*
X21813400Y-6136550D02*
G75*
G03*
X21813400Y-6136550I-95000J0D01*
G01*
X21960900Y-4231550D02*
G75*
G03*
X21960900Y-4231550I-95000J0D01*
G01*
X22289650Y-8041550D02*
G75*
G03*
X22289650Y-8041550I-95000J0D01*
G01*
X22437150Y-9946550D02*
G75*
G03*
X22437150Y-9946550I-95000J0D01*
G01*
X22765900Y-4231550D02*
G75*
G03*
X22765900Y-4231550I-95000J0D01*
G01*
X22913400Y-6136550D02*
G75*
G03*
X22913400Y-6136550I-95000J0D01*
G01*
X23004025Y-11851550D02*
G75*
G03*
X23004025Y-11851550I-95000J0D01*
G01*
X23242150Y-9946550D02*
G75*
G03*
X23242150Y-9946550I-95000J0D01*
G01*
X23389650Y-8041550D02*
G75*
G03*
X23389650Y-8041550I-95000J0D01*
G01*
X23718400Y-6136550D02*
G75*
G03*
X23718400Y-6136550I-95000J0D01*
G01*
X23865900Y-4231550D02*
G75*
G03*
X23865900Y-4231550I-95000J0D01*
G01*
X24104025Y-11851550D02*
G75*
G03*
X24104025Y-11851550I-95000J0D01*
G01*
X24194650Y-8041550D02*
G75*
G03*
X24194650Y-8041550I-95000J0D01*
G01*
X24342150Y-9946550D02*
G75*
G03*
X24342150Y-9946550I-95000J0D01*
G01*
X24670900Y-4231550D02*
G75*
G03*
X24670900Y-4231550I-95000J0D01*
G01*
X24818400Y-6136550D02*
G75*
G03*
X24818400Y-6136550I-95000J0D01*
G01*
X25147150Y-9946550D02*
G75*
G03*
X25147150Y-9946550I-95000J0D01*
G01*
X25294650Y-8041550D02*
G75*
G03*
X25294650Y-8041550I-95000J0D01*
G01*
X25385275Y-11851550D02*
G75*
G03*
X25385275Y-11851550I-95000J0D01*
G01*
X25623400Y-6136550D02*
G75*
G03*
X25623400Y-6136550I-95000J0D01*
G01*
X25770900Y-4231550D02*
G75*
G03*
X25770900Y-4231550I-95000J0D01*
G01*
X26099650Y-8041550D02*
G75*
G03*
X26099650Y-8041550I-95000J0D01*
G01*
X26247150Y-9946550D02*
G75*
G03*
X26247150Y-9946550I-95000J0D01*
G01*
X26485275Y-11851550D02*
G75*
G03*
X26485275Y-11851550I-95000J0D01*
G01*
X26575900Y-4231550D02*
G75*
G03*
X26575900Y-4231550I-95000J0D01*
G01*
X26723400Y-6136550D02*
G75*
G03*
X26723400Y-6136550I-95000J0D01*
G01*
X27199650Y-8041550D02*
G75*
G03*
X27199650Y-8041550I-95000J0D01*
G01*
X27528400Y-6136550D02*
G75*
G03*
X27528400Y-6136550I-95000J0D01*
G01*
X27675900Y-4231550D02*
G75*
G03*
X27675900Y-4231550I-95000J0D01*
G01*
X27766525Y-9946550D02*
G75*
G03*
X27766525Y-9946550I-95000J0D01*
G01*
X28480900Y-11851550D02*
G75*
G03*
X28480900Y-11851550I-95000J0D01*
G01*
X28628400Y-6136550D02*
G75*
G03*
X28628400Y-6136550I-95000J0D01*
G01*
X28866525Y-9946550D02*
G75*
G03*
X28866525Y-9946550I-95000J0D01*
G01*
X29195275Y-8041550D02*
G75*
G03*
X29195275Y-8041550I-95000J0D01*
G01*
X29433400Y-4231550D02*
G75*
G03*
X29433400Y-4231550I-95000J0D01*
G01*
X29580900Y-11851550D02*
G75*
G03*
X29580900Y-11851550I-95000J0D01*
G01*
X29909650Y-6136550D02*
G75*
G03*
X29909650Y-6136550I-95000J0D01*
G01*
X30295275Y-8041550D02*
G75*
G03*
X30295275Y-8041550I-95000J0D01*
G01*
X30385900Y-9946550D02*
G75*
G03*
X30385900Y-9946550I-95000J0D01*
G01*
X30385900Y-11851550D02*
G75*
G03*
X30385900Y-11851550I-95000J0D01*
G01*
X30533400Y-4231550D02*
G75*
G03*
X30533400Y-4231550I-95000J0D01*
G01*
X31009650Y-6136550D02*
G75*
G03*
X31009650Y-6136550I-95000J0D01*
G01*
X31485900Y-9946550D02*
G75*
G03*
X31485900Y-9946550I-95000J0D01*
G01*
X31485900Y-11851550D02*
G75*
G03*
X31485900Y-11851550I-95000J0D01*
G01*
X32290900Y-4231550D02*
G75*
G03*
X32290900Y-4231550I-95000J0D01*
G01*
X32290900Y-6136550D02*
G75*
G03*
X32290900Y-6136550I-95000J0D01*
G01*
X32290900Y-8041550D02*
G75*
G03*
X32290900Y-8041550I-95000J0D01*
G01*
X32290900Y-9946550D02*
G75*
G03*
X32290900Y-9946550I-95000J0D01*
G01*
X32290900Y-11851550D02*
G75*
G03*
X32290900Y-11851550I-95000J0D01*
G01*
X33390900Y-4231550D02*
G75*
G03*
X33390900Y-4231550I-95000J0D01*
G01*
X33390900Y-6136550D02*
G75*
G03*
X33390900Y-6136550I-95000J0D01*
G01*
X33390900Y-8041550D02*
G75*
G03*
X33390900Y-8041550I-95000J0D01*
G01*
X33390900Y-9946550D02*
G75*
G03*
X33390900Y-9946550I-95000J0D01*
G01*
X33390900Y-11851550D02*
G75*
G03*
X33390900Y-11851550I-95000J0D01*
G01*
D14*
X4170900Y-4061550D02*
X4170900Y-4401550D01*
X4000900Y-4231550D02*
X4340900Y-4231550D01*
X4409025Y-11681550D02*
X4409025Y-12021550D01*
X4239025Y-11851550D02*
X4579025Y-11851550D01*
X4647150Y-5966550D02*
X4647150Y-6306550D01*
X4477150Y-6136550D02*
X4817150Y-6136550D01*
X4885275Y-7871550D02*
X4885275Y-8211550D01*
X4715275Y-8041550D02*
X5055275Y-8041550D01*
X5361525Y-9776550D02*
X5361525Y-10116550D01*
X5191525Y-9946550D02*
X5531525Y-9946550D01*
X6075900Y-4061550D02*
X6075900Y-4401550D01*
X5905900Y-4231550D02*
X6245900Y-4231550D01*
X6790275Y-11681550D02*
X6790275Y-12021550D01*
X6620275Y-11851550D02*
X6960275Y-11851550D01*
X7028400Y-5966550D02*
X7028400Y-6306550D01*
X6858400Y-6136550D02*
X7198400Y-6136550D01*
X7504650Y-7871550D02*
X7504650Y-8211550D01*
X7334650Y-8041550D02*
X7674650Y-8041550D01*
X7980900Y-4061550D02*
X7980900Y-4401550D01*
X7810900Y-4231550D02*
X8150900Y-4231550D01*
X8457150Y-9776550D02*
X8457150Y-10116550D01*
X8287150Y-9946550D02*
X8627150Y-9946550D01*
X8933400Y-5966550D02*
X8933400Y-6306550D01*
X8763400Y-6136550D02*
X9103400Y-6136550D01*
X9171525Y-11681550D02*
X9171525Y-12021550D01*
X9001525Y-11851550D02*
X9341525Y-11851550D01*
X9409650Y-7871550D02*
X9409650Y-8211550D01*
X9239650Y-8041550D02*
X9579650Y-8041550D01*
X9885900Y-4061550D02*
X9885900Y-4401550D01*
X9715900Y-4231550D02*
X10055900Y-4231550D01*
X10362150Y-9776550D02*
X10362150Y-10116550D01*
X10192150Y-9946550D02*
X10532150Y-9946550D01*
X10838400Y-5966550D02*
X10838400Y-6306550D01*
X10668400Y-6136550D02*
X11008400Y-6136550D01*
X11314650Y-7871550D02*
X11314650Y-8211550D01*
X11144650Y-8041550D02*
X11484650Y-8041550D01*
X11790900Y-4061550D02*
X11790900Y-4401550D01*
X11620900Y-4231550D02*
X11960900Y-4231550D01*
X12267150Y-9776550D02*
X12267150Y-10116550D01*
X12097150Y-9946550D02*
X12437150Y-9946550D01*
X12743400Y-5966550D02*
X12743400Y-6306550D01*
X12573400Y-6136550D02*
X12913400Y-6136550D01*
X13219650Y-7871550D02*
X13219650Y-8211550D01*
X13049650Y-8041550D02*
X13389650Y-8041550D01*
X13695900Y-4061550D02*
X13695900Y-4401550D01*
X13525900Y-4231550D02*
X13865900Y-4231550D01*
X14172150Y-9776550D02*
X14172150Y-10116550D01*
X14002150Y-9946550D02*
X14342150Y-9946550D01*
X14648400Y-5966550D02*
X14648400Y-6306550D01*
X14478400Y-6136550D02*
X14818400Y-6136550D01*
X15124650Y-7871550D02*
X15124650Y-8211550D01*
X14954650Y-8041550D02*
X15294650Y-8041550D01*
X15600900Y-4061550D02*
X15600900Y-4401550D01*
X15430900Y-4231550D02*
X15770900Y-4231550D01*
X16077150Y-9776550D02*
X16077150Y-10116550D01*
X15907150Y-9946550D02*
X16247150Y-9946550D01*
X16315275Y-11681550D02*
X16315275Y-12021550D01*
X16145275Y-11851550D02*
X16485275Y-11851550D01*
X16553400Y-5966550D02*
X16553400Y-6306550D01*
X16383400Y-6136550D02*
X16723400Y-6136550D01*
X17029650Y-7871550D02*
X17029650Y-8211550D01*
X16859650Y-8041550D02*
X17199650Y-8041550D01*
X17505900Y-4061550D02*
X17505900Y-4401550D01*
X17335900Y-4231550D02*
X17675900Y-4231550D01*
X17982150Y-9776550D02*
X17982150Y-10116550D01*
X17812150Y-9946550D02*
X18152150Y-9946550D01*
X18458400Y-5966550D02*
X18458400Y-6306550D01*
X18288400Y-6136550D02*
X18628400Y-6136550D01*
X18934650Y-7871550D02*
X18934650Y-8211550D01*
X18764650Y-8041550D02*
X19104650Y-8041550D01*
X19410900Y-4061550D02*
X19410900Y-4401550D01*
X19240900Y-4231550D02*
X19580900Y-4231550D01*
X19887150Y-9776550D02*
X19887150Y-10116550D01*
X19717150Y-9946550D02*
X20057150Y-9946550D01*
X20363400Y-5966550D02*
X20363400Y-6306550D01*
X20193400Y-6136550D02*
X20533400Y-6136550D01*
X20839650Y-7871550D02*
X20839650Y-8211550D01*
X20669650Y-8041550D02*
X21009650Y-8041550D01*
X21315900Y-4061550D02*
X21315900Y-4401550D01*
X21145900Y-4231550D02*
X21485900Y-4231550D01*
X21792150Y-9776550D02*
X21792150Y-10116550D01*
X21622150Y-9946550D02*
X21962150Y-9946550D01*
X22268400Y-5966550D02*
X22268400Y-6306550D01*
X22098400Y-6136550D02*
X22438400Y-6136550D01*
X22744650Y-7871550D02*
X22744650Y-8211550D01*
X22574650Y-8041550D02*
X22914650Y-8041550D01*
X23220900Y-4061550D02*
X23220900Y-4401550D01*
X23050900Y-4231550D02*
X23390900Y-4231550D01*
X23459025Y-11681550D02*
X23459025Y-12021550D01*
X23289025Y-11851550D02*
X23629025Y-11851550D01*
X23697150Y-9776550D02*
X23697150Y-10116550D01*
X23527150Y-9946550D02*
X23867150Y-9946550D01*
X24173400Y-5966550D02*
X24173400Y-6306550D01*
X24003400Y-6136550D02*
X24343400Y-6136550D01*
X24649650Y-7871550D02*
X24649650Y-8211550D01*
X24479650Y-8041550D02*
X24819650Y-8041550D01*
X25125900Y-4061550D02*
X25125900Y-4401550D01*
X24955900Y-4231550D02*
X25295900Y-4231550D01*
X25602150Y-9776550D02*
X25602150Y-10116550D01*
X25432150Y-9946550D02*
X25772150Y-9946550D01*
X25840275Y-11681550D02*
X25840275Y-12021550D01*
X25670275Y-11851550D02*
X26010275Y-11851550D01*
X26078400Y-5966550D02*
X26078400Y-6306550D01*
X25908400Y-6136550D02*
X26248400Y-6136550D01*
X26554650Y-7871550D02*
X26554650Y-8211550D01*
X26384650Y-8041550D02*
X26724650Y-8041550D01*
X27030900Y-4061550D02*
X27030900Y-4401550D01*
X26860900Y-4231550D02*
X27200900Y-4231550D01*
X27983400Y-5966550D02*
X27983400Y-6306550D01*
X27813400Y-6136550D02*
X28153400Y-6136550D01*
X28221525Y-9776550D02*
X28221525Y-10116550D01*
X28051525Y-9946550D02*
X28391525Y-9946550D01*
X28935900Y-11681550D02*
X28935900Y-12021550D01*
X28765900Y-11851550D02*
X29105900Y-11851550D01*
X29650275Y-7871550D02*
X29650275Y-8211550D01*
X29480275Y-8041550D02*
X29820275Y-8041550D01*
X29888400Y-4061550D02*
X29888400Y-4401550D01*
X29718400Y-4231550D02*
X30058400Y-4231550D01*
X30364650Y-5966550D02*
X30364650Y-6306550D01*
X30194650Y-6136550D02*
X30534650Y-6136550D01*
X30840900Y-9776550D02*
X30840900Y-10116550D01*
X30670900Y-9946550D02*
X31010900Y-9946550D01*
X30840900Y-11681550D02*
X30840900Y-12021550D01*
X30670900Y-11851550D02*
X31010900Y-11851550D01*
X32745900Y-4061550D02*
X32745900Y-4401550D01*
X32575900Y-4231550D02*
X32915900Y-4231550D01*
X32745900Y-5966550D02*
X32745900Y-6306550D01*
X32575900Y-6136550D02*
X32915900Y-6136550D01*
X32745900Y-7871550D02*
X32745900Y-8211550D01*
X32575900Y-8041550D02*
X32915900Y-8041550D01*
X32745900Y-9776550D02*
X32745900Y-10116550D01*
X32575900Y-9946550D02*
X32915900Y-9946550D01*
X32745900Y-11681550D02*
X32745900Y-12021550D01*
X32575900Y-11851550D02*
X32915900Y-11851550D01*
D11*
X2791150Y-13799395D02*
X2791150Y-13599395D01*
X2838769Y-13599395D01*
X2867340Y-13608919D01*
X2886388Y-13627967D01*
X2895912Y-13647014D01*
X2905435Y-13685110D01*
X2905435Y-13713681D01*
X2895912Y-13751776D01*
X2886388Y-13770824D01*
X2867340Y-13789871D01*
X2838769Y-13799395D01*
X2791150Y-13799395D01*
X2991150Y-13799395D02*
X2991150Y-13666062D01*
X2991150Y-13704157D02*
X3000674Y-13685110D01*
X3010197Y-13675586D01*
X3029245Y-13666062D01*
X3048293Y-13666062D01*
X3114959Y-13799395D02*
X3114959Y-13666062D01*
X3114959Y-13599395D02*
X3105435Y-13608919D01*
X3114959Y-13618443D01*
X3124483Y-13608919D01*
X3114959Y-13599395D01*
X3114959Y-13618443D01*
X3238769Y-13799395D02*
X3219721Y-13789871D01*
X3210197Y-13770824D01*
X3210197Y-13599395D01*
X3343531Y-13799395D02*
X3324483Y-13789871D01*
X3314959Y-13770824D01*
X3314959Y-13599395D01*
X3572102Y-13799395D02*
X3572102Y-13599395D01*
X3638769Y-13742252D01*
X3705435Y-13599395D01*
X3705435Y-13799395D01*
X3886388Y-13799395D02*
X3886388Y-13694633D01*
X3876864Y-13675586D01*
X3857816Y-13666062D01*
X3819721Y-13666062D01*
X3800674Y-13675586D01*
X3886388Y-13789871D02*
X3867340Y-13799395D01*
X3819721Y-13799395D01*
X3800674Y-13789871D01*
X3791150Y-13770824D01*
X3791150Y-13751776D01*
X3800674Y-13732729D01*
X3819721Y-13723205D01*
X3867340Y-13723205D01*
X3886388Y-13713681D01*
X3981626Y-13666062D02*
X3981626Y-13866062D01*
X3981626Y-13675586D02*
X4000674Y-13666062D01*
X4038769Y-13666062D01*
X4057816Y-13675586D01*
X4067340Y-13685110D01*
X4076864Y-13704157D01*
X4076864Y-13761300D01*
X4067340Y-13780348D01*
X4057816Y-13789871D01*
X4038769Y-13799395D01*
X4000674Y-13799395D01*
X3981626Y-13789871D01*
X4162578Y-13780348D02*
X4172102Y-13789871D01*
X4162578Y-13799395D01*
X4153055Y-13789871D01*
X4162578Y-13780348D01*
X4162578Y-13799395D01*
X4162578Y-13675586D02*
X4172102Y-13685110D01*
X4162578Y-13694633D01*
X4153055Y-13685110D01*
X4162578Y-13675586D01*
X4162578Y-13694633D01*
D12*
X2413531Y-14068919D02*
X2533531Y-14188919D01*
X2533531Y-14068919D02*
X2413531Y-14188919D01*
D11*
X2895912Y-14219395D02*
X2781626Y-14219395D01*
X2838769Y-14219395D02*
X2838769Y-14019395D01*
X2819721Y-14047967D01*
X2800674Y-14067014D01*
X2781626Y-14076538D01*
X2981626Y-14200348D02*
X2991150Y-14209871D01*
X2981626Y-14219395D01*
X2972102Y-14209871D01*
X2981626Y-14200348D01*
X2981626Y-14219395D01*
X3067340Y-14038443D02*
X3076864Y-14028919D01*
X3095912Y-14019395D01*
X3143531Y-14019395D01*
X3162578Y-14028919D01*
X3172102Y-14038443D01*
X3181626Y-14057491D01*
X3181626Y-14076538D01*
X3172102Y-14105110D01*
X3057816Y-14219395D01*
X3181626Y-14219395D01*
X3305435Y-14019395D02*
X3324483Y-14019395D01*
X3343531Y-14028919D01*
X3353055Y-14038443D01*
X3362578Y-14057491D01*
X3372102Y-14095586D01*
X3372102Y-14143205D01*
X3362578Y-14181300D01*
X3353055Y-14200348D01*
X3343531Y-14209871D01*
X3324483Y-14219395D01*
X3305435Y-14219395D01*
X3286388Y-14209871D01*
X3276864Y-14200348D01*
X3267340Y-14181300D01*
X3257816Y-14143205D01*
X3257816Y-14095586D01*
X3267340Y-14057491D01*
X3276864Y-14038443D01*
X3286388Y-14028919D01*
X3305435Y-14019395D01*
X3495912Y-14019395D02*
X3514959Y-14019395D01*
X3534007Y-14028919D01*
X3543531Y-14038443D01*
X3553055Y-14057491D01*
X3562578Y-14095586D01*
X3562578Y-14143205D01*
X3553055Y-14181300D01*
X3543531Y-14200348D01*
X3534007Y-14209871D01*
X3514959Y-14219395D01*
X3495912Y-14219395D01*
X3476864Y-14209871D01*
X3467340Y-14200348D01*
X3457816Y-14181300D01*
X3448293Y-14143205D01*
X3448293Y-14095586D01*
X3457816Y-14057491D01*
X3467340Y-14038443D01*
X3476864Y-14028919D01*
X3495912Y-14019395D01*
X3648293Y-14219395D02*
X3648293Y-14086062D01*
X3648293Y-14105110D02*
X3657816Y-14095586D01*
X3676864Y-14086062D01*
X3705435Y-14086062D01*
X3724483Y-14095586D01*
X3734007Y-14114633D01*
X3734007Y-14219395D01*
X3734007Y-14114633D02*
X3743531Y-14095586D01*
X3762578Y-14086062D01*
X3791150Y-14086062D01*
X3810197Y-14095586D01*
X3819721Y-14114633D01*
X3819721Y-14219395D01*
X3914959Y-14219395D02*
X3914959Y-14086062D01*
X3914959Y-14105110D02*
X3924483Y-14095586D01*
X3943531Y-14086062D01*
X3972102Y-14086062D01*
X3991150Y-14095586D01*
X4000674Y-14114633D01*
X4000674Y-14219395D01*
X4000674Y-14114633D02*
X4010197Y-14095586D01*
X4029245Y-14086062D01*
X4057816Y-14086062D01*
X4076864Y-14095586D01*
X4086388Y-14114633D01*
X4086388Y-14219395D01*
X4476864Y-14009871D02*
X4305436Y-14267014D01*
X4734007Y-14019395D02*
X4753055Y-14019395D01*
X4772102Y-14028919D01*
X4781626Y-14038443D01*
X4791150Y-14057491D01*
X4800674Y-14095586D01*
X4800674Y-14143205D01*
X4791150Y-14181300D01*
X4781626Y-14200348D01*
X4772102Y-14209871D01*
X4753055Y-14219395D01*
X4734007Y-14219395D01*
X4714959Y-14209871D01*
X4705436Y-14200348D01*
X4695912Y-14181300D01*
X4686388Y-14143205D01*
X4686388Y-14095586D01*
X4695912Y-14057491D01*
X4705436Y-14038443D01*
X4714959Y-14028919D01*
X4734007Y-14019395D01*
X4886388Y-14200348D02*
X4895912Y-14209871D01*
X4886388Y-14219395D01*
X4876864Y-14209871D01*
X4886388Y-14200348D01*
X4886388Y-14219395D01*
X5019721Y-14019395D02*
X5038769Y-14019395D01*
X5057817Y-14028919D01*
X5067340Y-14038443D01*
X5076864Y-14057491D01*
X5086388Y-14095586D01*
X5086388Y-14143205D01*
X5076864Y-14181300D01*
X5067340Y-14200348D01*
X5057817Y-14209871D01*
X5038769Y-14219395D01*
X5019721Y-14219395D01*
X5000674Y-14209871D01*
X4991150Y-14200348D01*
X4981626Y-14181300D01*
X4972102Y-14143205D01*
X4972102Y-14095586D01*
X4981626Y-14057491D01*
X4991150Y-14038443D01*
X5000674Y-14028919D01*
X5019721Y-14019395D01*
X5257817Y-14086062D02*
X5257817Y-14219395D01*
X5210197Y-14009871D02*
X5162578Y-14152729D01*
X5286388Y-14152729D01*
X5343531Y-14019395D02*
X5476864Y-14019395D01*
X5391150Y-14219395D01*
X5543531Y-14038443D02*
X5553055Y-14028919D01*
X5572102Y-14019395D01*
X5619721Y-14019395D01*
X5638769Y-14028919D01*
X5648293Y-14038443D01*
X5657816Y-14057491D01*
X5657816Y-14076538D01*
X5648293Y-14105110D01*
X5534007Y-14219395D01*
X5657816Y-14219395D01*
X5734007Y-14019395D02*
X5734007Y-14057491D01*
X5810197Y-14019395D02*
X5810197Y-14057491D01*
X6105435Y-14295586D02*
X6095912Y-14286062D01*
X6076864Y-14257491D01*
X6067340Y-14238443D01*
X6057816Y-14209871D01*
X6048293Y-14162252D01*
X6048293Y-14124157D01*
X6057816Y-14076538D01*
X6067340Y-14047967D01*
X6076864Y-14028919D01*
X6095912Y-14000348D01*
X6105435Y-13990824D01*
X6267340Y-14019395D02*
X6229245Y-14019395D01*
X6210197Y-14028919D01*
X6200674Y-14038443D01*
X6181626Y-14067014D01*
X6172102Y-14105110D01*
X6172102Y-14181300D01*
X6181626Y-14200348D01*
X6191150Y-14209871D01*
X6210197Y-14219395D01*
X6248293Y-14219395D01*
X6267340Y-14209871D01*
X6276864Y-14200348D01*
X6286388Y-14181300D01*
X6286388Y-14133681D01*
X6276864Y-14114633D01*
X6267340Y-14105110D01*
X6248293Y-14095586D01*
X6210197Y-14095586D01*
X6191150Y-14105110D01*
X6181626Y-14114633D01*
X6172102Y-14133681D01*
X6353055Y-14019395D02*
X6486388Y-14019395D01*
X6400674Y-14219395D01*
X6714959Y-14219395D02*
X6714959Y-14019395D01*
X6800674Y-14219395D02*
X6800674Y-14114633D01*
X6791150Y-14095586D01*
X6772102Y-14086062D01*
X6743531Y-14086062D01*
X6724483Y-14095586D01*
X6714959Y-14105110D01*
X6924483Y-14219395D02*
X6905435Y-14209871D01*
X6895912Y-14200348D01*
X6886388Y-14181300D01*
X6886388Y-14124157D01*
X6895912Y-14105110D01*
X6905435Y-14095586D01*
X6924483Y-14086062D01*
X6953055Y-14086062D01*
X6972102Y-14095586D01*
X6981626Y-14105110D01*
X6991150Y-14124157D01*
X6991150Y-14181300D01*
X6981626Y-14200348D01*
X6972102Y-14209871D01*
X6953055Y-14219395D01*
X6924483Y-14219395D01*
X7105435Y-14219395D02*
X7086388Y-14209871D01*
X7076864Y-14190824D01*
X7076864Y-14019395D01*
X7257816Y-14209871D02*
X7238769Y-14219395D01*
X7200674Y-14219395D01*
X7181626Y-14209871D01*
X7172102Y-14190824D01*
X7172102Y-14114633D01*
X7181626Y-14095586D01*
X7200674Y-14086062D01*
X7238769Y-14086062D01*
X7257816Y-14095586D01*
X7267340Y-14114633D01*
X7267340Y-14133681D01*
X7172102Y-14152729D01*
X7343531Y-14209871D02*
X7362578Y-14219395D01*
X7400674Y-14219395D01*
X7419721Y-14209871D01*
X7429245Y-14190824D01*
X7429245Y-14181300D01*
X7419721Y-14162252D01*
X7400674Y-14152729D01*
X7372102Y-14152729D01*
X7353055Y-14143205D01*
X7343531Y-14124157D01*
X7343531Y-14114633D01*
X7353055Y-14095586D01*
X7372102Y-14086062D01*
X7400674Y-14086062D01*
X7419721Y-14095586D01*
X7495912Y-14295586D02*
X7505435Y-14286062D01*
X7524483Y-14257491D01*
X7534007Y-14238443D01*
X7543531Y-14209871D01*
X7553055Y-14162252D01*
X7553055Y-14124157D01*
X7543531Y-14076538D01*
X7534007Y-14047967D01*
X7524483Y-14028919D01*
X7505435Y-14000348D01*
X7495912Y-13990824D01*
X7857816Y-14295586D02*
X7848293Y-14286062D01*
X7829245Y-14257491D01*
X7819721Y-14238443D01*
X7810197Y-14209871D01*
X7800674Y-14162252D01*
X7800674Y-14124157D01*
X7810197Y-14076538D01*
X7819721Y-14047967D01*
X7829245Y-14028919D01*
X7848293Y-14000348D01*
X7857816Y-13990824D01*
X7934007Y-14086062D02*
X7934007Y-14219395D01*
X7934007Y-14105110D02*
X7943531Y-14095586D01*
X7962578Y-14086062D01*
X7991150Y-14086062D01*
X8010197Y-14095586D01*
X8019721Y-14114633D01*
X8019721Y-14219395D01*
X8143531Y-14219395D02*
X8124483Y-14209871D01*
X8114959Y-14200348D01*
X8105435Y-14181300D01*
X8105435Y-14124157D01*
X8114959Y-14105110D01*
X8124483Y-14095586D01*
X8143531Y-14086062D01*
X8172102Y-14086062D01*
X8191150Y-14095586D01*
X8200674Y-14105110D01*
X8210197Y-14124157D01*
X8210197Y-14181300D01*
X8200674Y-14200348D01*
X8191150Y-14209871D01*
X8172102Y-14219395D01*
X8143531Y-14219395D01*
X8267340Y-14086062D02*
X8343531Y-14086062D01*
X8295912Y-14019395D02*
X8295912Y-14190824D01*
X8305435Y-14209871D01*
X8324483Y-14219395D01*
X8343531Y-14219395D01*
X8562578Y-14086062D02*
X8562578Y-14286062D01*
X8562578Y-14095586D02*
X8581626Y-14086062D01*
X8619721Y-14086062D01*
X8638769Y-14095586D01*
X8648293Y-14105110D01*
X8657817Y-14124157D01*
X8657817Y-14181300D01*
X8648293Y-14200348D01*
X8638769Y-14209871D01*
X8619721Y-14219395D01*
X8581626Y-14219395D01*
X8562578Y-14209871D01*
X8772102Y-14219395D02*
X8753055Y-14209871D01*
X8743531Y-14190824D01*
X8743531Y-14019395D01*
X8934007Y-14219395D02*
X8934007Y-14114633D01*
X8924483Y-14095586D01*
X8905436Y-14086062D01*
X8867340Y-14086062D01*
X8848293Y-14095586D01*
X8934007Y-14209871D02*
X8914959Y-14219395D01*
X8867340Y-14219395D01*
X8848293Y-14209871D01*
X8838769Y-14190824D01*
X8838769Y-14171776D01*
X8848293Y-14152729D01*
X8867340Y-14143205D01*
X8914959Y-14143205D01*
X8934007Y-14133681D01*
X9000674Y-14086062D02*
X9076864Y-14086062D01*
X9029245Y-14019395D02*
X9029245Y-14190824D01*
X9038769Y-14209871D01*
X9057817Y-14219395D01*
X9076864Y-14219395D01*
X9219721Y-14209871D02*
X9200674Y-14219395D01*
X9162578Y-14219395D01*
X9143531Y-14209871D01*
X9134007Y-14190824D01*
X9134007Y-14114633D01*
X9143531Y-14095586D01*
X9162578Y-14086062D01*
X9200674Y-14086062D01*
X9219721Y-14095586D01*
X9229245Y-14114633D01*
X9229245Y-14133681D01*
X9134007Y-14152729D01*
X9400674Y-14219395D02*
X9400674Y-14019395D01*
X9400674Y-14209871D02*
X9381626Y-14219395D01*
X9343531Y-14219395D01*
X9324483Y-14209871D01*
X9314959Y-14200348D01*
X9305436Y-14181300D01*
X9305436Y-14124157D01*
X9314959Y-14105110D01*
X9324483Y-14095586D01*
X9343531Y-14086062D01*
X9381626Y-14086062D01*
X9400674Y-14095586D01*
X9476864Y-14295586D02*
X9486388Y-14286062D01*
X9505436Y-14257491D01*
X9514959Y-14238443D01*
X9524483Y-14209871D01*
X9534007Y-14162252D01*
X9534007Y-14124157D01*
X9524483Y-14076538D01*
X9514959Y-14047967D01*
X9505436Y-14028919D01*
X9486388Y-14000348D01*
X9476864Y-13990824D01*
D13*
X2533531Y-14392919D02*
G75*
G03*
X2533531Y-14392919I-95000J0D01*
G01*
D11*
X2895912Y-14483395D02*
X2781626Y-14483395D01*
X2838769Y-14483395D02*
X2838769Y-14283395D01*
X2819721Y-14311967D01*
X2800674Y-14331014D01*
X2781626Y-14340538D01*
X2981626Y-14464348D02*
X2991150Y-14473871D01*
X2981626Y-14483395D01*
X2972102Y-14473871D01*
X2981626Y-14464348D01*
X2981626Y-14483395D01*
X3086388Y-14483395D02*
X3124483Y-14483395D01*
X3143531Y-14473871D01*
X3153055Y-14464348D01*
X3172102Y-14435776D01*
X3181626Y-14397681D01*
X3181626Y-14321491D01*
X3172102Y-14302443D01*
X3162578Y-14292919D01*
X3143531Y-14283395D01*
X3105435Y-14283395D01*
X3086388Y-14292919D01*
X3076864Y-14302443D01*
X3067340Y-14321491D01*
X3067340Y-14369110D01*
X3076864Y-14388157D01*
X3086388Y-14397681D01*
X3105435Y-14407205D01*
X3143531Y-14407205D01*
X3162578Y-14397681D01*
X3172102Y-14388157D01*
X3181626Y-14369110D01*
X3305435Y-14283395D02*
X3324483Y-14283395D01*
X3343531Y-14292919D01*
X3353055Y-14302443D01*
X3362578Y-14321491D01*
X3372102Y-14359586D01*
X3372102Y-14407205D01*
X3362578Y-14445300D01*
X3353055Y-14464348D01*
X3343531Y-14473871D01*
X3324483Y-14483395D01*
X3305435Y-14483395D01*
X3286388Y-14473871D01*
X3276864Y-14464348D01*
X3267340Y-14445300D01*
X3257816Y-14407205D01*
X3257816Y-14359586D01*
X3267340Y-14321491D01*
X3276864Y-14302443D01*
X3286388Y-14292919D01*
X3305435Y-14283395D01*
X3495912Y-14283395D02*
X3514959Y-14283395D01*
X3534007Y-14292919D01*
X3543531Y-14302443D01*
X3553055Y-14321491D01*
X3562578Y-14359586D01*
X3562578Y-14407205D01*
X3553055Y-14445300D01*
X3543531Y-14464348D01*
X3534007Y-14473871D01*
X3514959Y-14483395D01*
X3495912Y-14483395D01*
X3476864Y-14473871D01*
X3467340Y-14464348D01*
X3457816Y-14445300D01*
X3448293Y-14407205D01*
X3448293Y-14359586D01*
X3457816Y-14321491D01*
X3467340Y-14302443D01*
X3476864Y-14292919D01*
X3495912Y-14283395D01*
X3648293Y-14483395D02*
X3648293Y-14350062D01*
X3648293Y-14369110D02*
X3657816Y-14359586D01*
X3676864Y-14350062D01*
X3705435Y-14350062D01*
X3724483Y-14359586D01*
X3734007Y-14378633D01*
X3734007Y-14483395D01*
X3734007Y-14378633D02*
X3743531Y-14359586D01*
X3762578Y-14350062D01*
X3791150Y-14350062D01*
X3810197Y-14359586D01*
X3819721Y-14378633D01*
X3819721Y-14483395D01*
X3914959Y-14483395D02*
X3914959Y-14350062D01*
X3914959Y-14369110D02*
X3924483Y-14359586D01*
X3943531Y-14350062D01*
X3972102Y-14350062D01*
X3991150Y-14359586D01*
X4000674Y-14378633D01*
X4000674Y-14483395D01*
X4000674Y-14378633D02*
X4010197Y-14359586D01*
X4029245Y-14350062D01*
X4057816Y-14350062D01*
X4076864Y-14359586D01*
X4086388Y-14378633D01*
X4086388Y-14483395D01*
X4476864Y-14273871D02*
X4305436Y-14531014D01*
X4734007Y-14283395D02*
X4753055Y-14283395D01*
X4772102Y-14292919D01*
X4781626Y-14302443D01*
X4791150Y-14321491D01*
X4800674Y-14359586D01*
X4800674Y-14407205D01*
X4791150Y-14445300D01*
X4781626Y-14464348D01*
X4772102Y-14473871D01*
X4753055Y-14483395D01*
X4734007Y-14483395D01*
X4714959Y-14473871D01*
X4705436Y-14464348D01*
X4695912Y-14445300D01*
X4686388Y-14407205D01*
X4686388Y-14359586D01*
X4695912Y-14321491D01*
X4705436Y-14302443D01*
X4714959Y-14292919D01*
X4734007Y-14283395D01*
X4886388Y-14464348D02*
X4895912Y-14473871D01*
X4886388Y-14483395D01*
X4876864Y-14473871D01*
X4886388Y-14464348D01*
X4886388Y-14483395D01*
X5019721Y-14283395D02*
X5038769Y-14283395D01*
X5057817Y-14292919D01*
X5067340Y-14302443D01*
X5076864Y-14321491D01*
X5086388Y-14359586D01*
X5086388Y-14407205D01*
X5076864Y-14445300D01*
X5067340Y-14464348D01*
X5057817Y-14473871D01*
X5038769Y-14483395D01*
X5019721Y-14483395D01*
X5000674Y-14473871D01*
X4991150Y-14464348D01*
X4981626Y-14445300D01*
X4972102Y-14407205D01*
X4972102Y-14359586D01*
X4981626Y-14321491D01*
X4991150Y-14302443D01*
X5000674Y-14292919D01*
X5019721Y-14283395D01*
X5153055Y-14283395D02*
X5286388Y-14283395D01*
X5200674Y-14483395D01*
X5448293Y-14350062D02*
X5448293Y-14483395D01*
X5400674Y-14273871D02*
X5353055Y-14416729D01*
X5476864Y-14416729D01*
X5581626Y-14369110D02*
X5562578Y-14359586D01*
X5553055Y-14350062D01*
X5543531Y-14331014D01*
X5543531Y-14321491D01*
X5553055Y-14302443D01*
X5562578Y-14292919D01*
X5581626Y-14283395D01*
X5619721Y-14283395D01*
X5638769Y-14292919D01*
X5648293Y-14302443D01*
X5657816Y-14321491D01*
X5657816Y-14331014D01*
X5648293Y-14350062D01*
X5638769Y-14359586D01*
X5619721Y-14369110D01*
X5581626Y-14369110D01*
X5562578Y-14378633D01*
X5553055Y-14388157D01*
X5543531Y-14407205D01*
X5543531Y-14445300D01*
X5553055Y-14464348D01*
X5562578Y-14473871D01*
X5581626Y-14483395D01*
X5619721Y-14483395D01*
X5638769Y-14473871D01*
X5648293Y-14464348D01*
X5657816Y-14445300D01*
X5657816Y-14407205D01*
X5648293Y-14388157D01*
X5638769Y-14378633D01*
X5619721Y-14369110D01*
X5734007Y-14283395D02*
X5734007Y-14321491D01*
X5810197Y-14283395D02*
X5810197Y-14321491D01*
X6105435Y-14559586D02*
X6095912Y-14550062D01*
X6076864Y-14521491D01*
X6067340Y-14502443D01*
X6057816Y-14473871D01*
X6048293Y-14426252D01*
X6048293Y-14388157D01*
X6057816Y-14340538D01*
X6067340Y-14311967D01*
X6076864Y-14292919D01*
X6095912Y-14264348D01*
X6105435Y-14254824D01*
X6286388Y-14483395D02*
X6172102Y-14483395D01*
X6229245Y-14483395D02*
X6229245Y-14283395D01*
X6210197Y-14311967D01*
X6191150Y-14331014D01*
X6172102Y-14340538D01*
X6353055Y-14283395D02*
X6476864Y-14283395D01*
X6410197Y-14359586D01*
X6438769Y-14359586D01*
X6457816Y-14369110D01*
X6467340Y-14378633D01*
X6476864Y-14397681D01*
X6476864Y-14445300D01*
X6467340Y-14464348D01*
X6457816Y-14473871D01*
X6438769Y-14483395D01*
X6381626Y-14483395D01*
X6362578Y-14473871D01*
X6353055Y-14464348D01*
X6648293Y-14350062D02*
X6648293Y-14483395D01*
X6600674Y-14273871D02*
X6553055Y-14416729D01*
X6676864Y-14416729D01*
X6905435Y-14483395D02*
X6905435Y-14283395D01*
X6991150Y-14483395D02*
X6991150Y-14378633D01*
X6981626Y-14359586D01*
X6962578Y-14350062D01*
X6934007Y-14350062D01*
X6914959Y-14359586D01*
X6905435Y-14369110D01*
X7114959Y-14483395D02*
X7095912Y-14473871D01*
X7086388Y-14464348D01*
X7076864Y-14445300D01*
X7076864Y-14388157D01*
X7086388Y-14369110D01*
X7095912Y-14359586D01*
X7114959Y-14350062D01*
X7143531Y-14350062D01*
X7162578Y-14359586D01*
X7172102Y-14369110D01*
X7181626Y-14388157D01*
X7181626Y-14445300D01*
X7172102Y-14464348D01*
X7162578Y-14473871D01*
X7143531Y-14483395D01*
X7114959Y-14483395D01*
X7295912Y-14483395D02*
X7276864Y-14473871D01*
X7267340Y-14454824D01*
X7267340Y-14283395D01*
X7448293Y-14473871D02*
X7429245Y-14483395D01*
X7391150Y-14483395D01*
X7372102Y-14473871D01*
X7362578Y-14454824D01*
X7362578Y-14378633D01*
X7372102Y-14359586D01*
X7391150Y-14350062D01*
X7429245Y-14350062D01*
X7448293Y-14359586D01*
X7457816Y-14378633D01*
X7457816Y-14397681D01*
X7362578Y-14416729D01*
X7534007Y-14473871D02*
X7553055Y-14483395D01*
X7591150Y-14483395D01*
X7610197Y-14473871D01*
X7619721Y-14454824D01*
X7619721Y-14445300D01*
X7610197Y-14426252D01*
X7591150Y-14416729D01*
X7562578Y-14416729D01*
X7543531Y-14407205D01*
X7534007Y-14388157D01*
X7534007Y-14378633D01*
X7543531Y-14359586D01*
X7562578Y-14350062D01*
X7591150Y-14350062D01*
X7610197Y-14359586D01*
X7686388Y-14559586D02*
X7695912Y-14550062D01*
X7714959Y-14521491D01*
X7724483Y-14502443D01*
X7734007Y-14473871D01*
X7743531Y-14426252D01*
X7743531Y-14388157D01*
X7734007Y-14340538D01*
X7724483Y-14311967D01*
X7714959Y-14292919D01*
X7695912Y-14264348D01*
X7686388Y-14254824D01*
X8048293Y-14559586D02*
X8038769Y-14550062D01*
X8019721Y-14521491D01*
X8010197Y-14502443D01*
X8000674Y-14473871D01*
X7991150Y-14426252D01*
X7991150Y-14388157D01*
X8000674Y-14340538D01*
X8010197Y-14311967D01*
X8019721Y-14292919D01*
X8038769Y-14264348D01*
X8048293Y-14254824D01*
X8124483Y-14350062D02*
X8124483Y-14483395D01*
X8124483Y-14369110D02*
X8134007Y-14359586D01*
X8153055Y-14350062D01*
X8181626Y-14350062D01*
X8200674Y-14359586D01*
X8210197Y-14378633D01*
X8210197Y-14483395D01*
X8334007Y-14483395D02*
X8314959Y-14473871D01*
X8305435Y-14464348D01*
X8295912Y-14445300D01*
X8295912Y-14388157D01*
X8305435Y-14369110D01*
X8314959Y-14359586D01*
X8334007Y-14350062D01*
X8362578Y-14350062D01*
X8381626Y-14359586D01*
X8391150Y-14369110D01*
X8400674Y-14388157D01*
X8400674Y-14445300D01*
X8391150Y-14464348D01*
X8381626Y-14473871D01*
X8362578Y-14483395D01*
X8334007Y-14483395D01*
X8457817Y-14350062D02*
X8534007Y-14350062D01*
X8486388Y-14283395D02*
X8486388Y-14454824D01*
X8495912Y-14473871D01*
X8514959Y-14483395D01*
X8534007Y-14483395D01*
X8753055Y-14350062D02*
X8753055Y-14550062D01*
X8753055Y-14359586D02*
X8772102Y-14350062D01*
X8810197Y-14350062D01*
X8829245Y-14359586D01*
X8838769Y-14369110D01*
X8848293Y-14388157D01*
X8848293Y-14445300D01*
X8838769Y-14464348D01*
X8829245Y-14473871D01*
X8810197Y-14483395D01*
X8772102Y-14483395D01*
X8753055Y-14473871D01*
X8962578Y-14483395D02*
X8943531Y-14473871D01*
X8934007Y-14454824D01*
X8934007Y-14283395D01*
X9124483Y-14483395D02*
X9124483Y-14378633D01*
X9114959Y-14359586D01*
X9095912Y-14350062D01*
X9057817Y-14350062D01*
X9038769Y-14359586D01*
X9124483Y-14473871D02*
X9105436Y-14483395D01*
X9057817Y-14483395D01*
X9038769Y-14473871D01*
X9029245Y-14454824D01*
X9029245Y-14435776D01*
X9038769Y-14416729D01*
X9057817Y-14407205D01*
X9105436Y-14407205D01*
X9124483Y-14397681D01*
X9191150Y-14350062D02*
X9267340Y-14350062D01*
X9219721Y-14283395D02*
X9219721Y-14454824D01*
X9229245Y-14473871D01*
X9248293Y-14483395D01*
X9267340Y-14483395D01*
X9410197Y-14473871D02*
X9391150Y-14483395D01*
X9353055Y-14483395D01*
X9334007Y-14473871D01*
X9324483Y-14454824D01*
X9324483Y-14378633D01*
X9334007Y-14359586D01*
X9353055Y-14350062D01*
X9391150Y-14350062D01*
X9410197Y-14359586D01*
X9419721Y-14378633D01*
X9419721Y-14397681D01*
X9324483Y-14416729D01*
X9591150Y-14483395D02*
X9591150Y-14283395D01*
X9591150Y-14473871D02*
X9572102Y-14483395D01*
X9534007Y-14483395D01*
X9514959Y-14473871D01*
X9505436Y-14464348D01*
X9495912Y-14445300D01*
X9495912Y-14388157D01*
X9505436Y-14369110D01*
X9514959Y-14359586D01*
X9534007Y-14350062D01*
X9572102Y-14350062D01*
X9591150Y-14359586D01*
X9667340Y-14559586D02*
X9676864Y-14550062D01*
X9695912Y-14521491D01*
X9705436Y-14502443D01*
X9714959Y-14473871D01*
X9724483Y-14426252D01*
X9724483Y-14388157D01*
X9714959Y-14340538D01*
X9705436Y-14311967D01*
X9695912Y-14292919D01*
X9676864Y-14264348D01*
X9667340Y-14254824D01*
X2433531Y-14602919D02*
X2433531Y-14802919D01*
X2333531Y-14702919D02*
X2533531Y-14702919D01*
X2772102Y-14593395D02*
X2895912Y-14593395D01*
X2829245Y-14669586D01*
X2857816Y-14669586D01*
X2876864Y-14679110D01*
X2886388Y-14688633D01*
X2895912Y-14707681D01*
X2895912Y-14755300D01*
X2886388Y-14774348D01*
X2876864Y-14783871D01*
X2857816Y-14793395D01*
X2800674Y-14793395D01*
X2781626Y-14783871D01*
X2772102Y-14774348D01*
X2981626Y-14774348D02*
X2991150Y-14783871D01*
X2981626Y-14793395D01*
X2972102Y-14783871D01*
X2981626Y-14774348D01*
X2981626Y-14793395D01*
X3162578Y-14660062D02*
X3162578Y-14793395D01*
X3114959Y-14583871D02*
X3067340Y-14726729D01*
X3191150Y-14726729D01*
X3305435Y-14593395D02*
X3324483Y-14593395D01*
X3343531Y-14602919D01*
X3353055Y-14612443D01*
X3362578Y-14631491D01*
X3372102Y-14669586D01*
X3372102Y-14717205D01*
X3362578Y-14755300D01*
X3353055Y-14774348D01*
X3343531Y-14783871D01*
X3324483Y-14793395D01*
X3305435Y-14793395D01*
X3286388Y-14783871D01*
X3276864Y-14774348D01*
X3267340Y-14755300D01*
X3257816Y-14717205D01*
X3257816Y-14669586D01*
X3267340Y-14631491D01*
X3276864Y-14612443D01*
X3286388Y-14602919D01*
X3305435Y-14593395D01*
X3495912Y-14593395D02*
X3514959Y-14593395D01*
X3534007Y-14602919D01*
X3543531Y-14612443D01*
X3553055Y-14631491D01*
X3562578Y-14669586D01*
X3562578Y-14717205D01*
X3553055Y-14755300D01*
X3543531Y-14774348D01*
X3534007Y-14783871D01*
X3514959Y-14793395D01*
X3495912Y-14793395D01*
X3476864Y-14783871D01*
X3467340Y-14774348D01*
X3457816Y-14755300D01*
X3448293Y-14717205D01*
X3448293Y-14669586D01*
X3457816Y-14631491D01*
X3467340Y-14612443D01*
X3476864Y-14602919D01*
X3495912Y-14593395D01*
X3648293Y-14793395D02*
X3648293Y-14660062D01*
X3648293Y-14679110D02*
X3657816Y-14669586D01*
X3676864Y-14660062D01*
X3705435Y-14660062D01*
X3724483Y-14669586D01*
X3734007Y-14688633D01*
X3734007Y-14793395D01*
X3734007Y-14688633D02*
X3743531Y-14669586D01*
X3762578Y-14660062D01*
X3791150Y-14660062D01*
X3810197Y-14669586D01*
X3819721Y-14688633D01*
X3819721Y-14793395D01*
X3914959Y-14793395D02*
X3914959Y-14660062D01*
X3914959Y-14679110D02*
X3924483Y-14669586D01*
X3943531Y-14660062D01*
X3972102Y-14660062D01*
X3991150Y-14669586D01*
X4000674Y-14688633D01*
X4000674Y-14793395D01*
X4000674Y-14688633D02*
X4010197Y-14669586D01*
X4029245Y-14660062D01*
X4057816Y-14660062D01*
X4076864Y-14669586D01*
X4086388Y-14688633D01*
X4086388Y-14793395D01*
X4476864Y-14583871D02*
X4305436Y-14841014D01*
X4734007Y-14593395D02*
X4753055Y-14593395D01*
X4772102Y-14602919D01*
X4781626Y-14612443D01*
X4791150Y-14631491D01*
X4800674Y-14669586D01*
X4800674Y-14717205D01*
X4791150Y-14755300D01*
X4781626Y-14774348D01*
X4772102Y-14783871D01*
X4753055Y-14793395D01*
X4734007Y-14793395D01*
X4714959Y-14783871D01*
X4705436Y-14774348D01*
X4695912Y-14755300D01*
X4686388Y-14717205D01*
X4686388Y-14669586D01*
X4695912Y-14631491D01*
X4705436Y-14612443D01*
X4714959Y-14602919D01*
X4734007Y-14593395D01*
X4886388Y-14774348D02*
X4895912Y-14783871D01*
X4886388Y-14793395D01*
X4876864Y-14783871D01*
X4886388Y-14774348D01*
X4886388Y-14793395D01*
X5086388Y-14793395D02*
X4972102Y-14793395D01*
X5029245Y-14793395D02*
X5029245Y-14593395D01*
X5010197Y-14621967D01*
X4991150Y-14641014D01*
X4972102Y-14650538D01*
X5153055Y-14593395D02*
X5276864Y-14593395D01*
X5210197Y-14669586D01*
X5238769Y-14669586D01*
X5257817Y-14679110D01*
X5267340Y-14688633D01*
X5276864Y-14707681D01*
X5276864Y-14755300D01*
X5267340Y-14774348D01*
X5257817Y-14783871D01*
X5238769Y-14793395D01*
X5181626Y-14793395D01*
X5162578Y-14783871D01*
X5153055Y-14774348D01*
X5343531Y-14593395D02*
X5467340Y-14593395D01*
X5400674Y-14669586D01*
X5429245Y-14669586D01*
X5448293Y-14679110D01*
X5457817Y-14688633D01*
X5467340Y-14707681D01*
X5467340Y-14755300D01*
X5457817Y-14774348D01*
X5448293Y-14783871D01*
X5429245Y-14793395D01*
X5372102Y-14793395D01*
X5353055Y-14783871D01*
X5343531Y-14774348D01*
X5562578Y-14793395D02*
X5600674Y-14793395D01*
X5619721Y-14783871D01*
X5629245Y-14774348D01*
X5648293Y-14745776D01*
X5657816Y-14707681D01*
X5657816Y-14631491D01*
X5648293Y-14612443D01*
X5638769Y-14602919D01*
X5619721Y-14593395D01*
X5581626Y-14593395D01*
X5562578Y-14602919D01*
X5553055Y-14612443D01*
X5543531Y-14631491D01*
X5543531Y-14679110D01*
X5553055Y-14698157D01*
X5562578Y-14707681D01*
X5581626Y-14717205D01*
X5619721Y-14717205D01*
X5638769Y-14707681D01*
X5648293Y-14698157D01*
X5657816Y-14679110D01*
X5734007Y-14593395D02*
X5734007Y-14631491D01*
X5810197Y-14593395D02*
X5810197Y-14631491D01*
X6105435Y-14869586D02*
X6095912Y-14860062D01*
X6076864Y-14831491D01*
X6067340Y-14812443D01*
X6057816Y-14783871D01*
X6048293Y-14736252D01*
X6048293Y-14698157D01*
X6057816Y-14650538D01*
X6067340Y-14621967D01*
X6076864Y-14602919D01*
X6095912Y-14574348D01*
X6105435Y-14564824D01*
X6267340Y-14593395D02*
X6229245Y-14593395D01*
X6210197Y-14602919D01*
X6200674Y-14612443D01*
X6181626Y-14641014D01*
X6172102Y-14679110D01*
X6172102Y-14755300D01*
X6181626Y-14774348D01*
X6191150Y-14783871D01*
X6210197Y-14793395D01*
X6248293Y-14793395D01*
X6267340Y-14783871D01*
X6276864Y-14774348D01*
X6286388Y-14755300D01*
X6286388Y-14707681D01*
X6276864Y-14688633D01*
X6267340Y-14679110D01*
X6248293Y-14669586D01*
X6210197Y-14669586D01*
X6191150Y-14679110D01*
X6181626Y-14688633D01*
X6172102Y-14707681D01*
X6353055Y-14593395D02*
X6486388Y-14593395D01*
X6400674Y-14793395D01*
X6714959Y-14793395D02*
X6714959Y-14593395D01*
X6800674Y-14793395D02*
X6800674Y-14688633D01*
X6791150Y-14669586D01*
X6772102Y-14660062D01*
X6743531Y-14660062D01*
X6724483Y-14669586D01*
X6714959Y-14679110D01*
X6924483Y-14793395D02*
X6905435Y-14783871D01*
X6895912Y-14774348D01*
X6886388Y-14755300D01*
X6886388Y-14698157D01*
X6895912Y-14679110D01*
X6905435Y-14669586D01*
X6924483Y-14660062D01*
X6953055Y-14660062D01*
X6972102Y-14669586D01*
X6981626Y-14679110D01*
X6991150Y-14698157D01*
X6991150Y-14755300D01*
X6981626Y-14774348D01*
X6972102Y-14783871D01*
X6953055Y-14793395D01*
X6924483Y-14793395D01*
X7105435Y-14793395D02*
X7086388Y-14783871D01*
X7076864Y-14764824D01*
X7076864Y-14593395D01*
X7257816Y-14783871D02*
X7238769Y-14793395D01*
X7200674Y-14793395D01*
X7181626Y-14783871D01*
X7172102Y-14764824D01*
X7172102Y-14688633D01*
X7181626Y-14669586D01*
X7200674Y-14660062D01*
X7238769Y-14660062D01*
X7257816Y-14669586D01*
X7267340Y-14688633D01*
X7267340Y-14707681D01*
X7172102Y-14726729D01*
X7343531Y-14783871D02*
X7362578Y-14793395D01*
X7400674Y-14793395D01*
X7419721Y-14783871D01*
X7429245Y-14764824D01*
X7429245Y-14755300D01*
X7419721Y-14736252D01*
X7400674Y-14726729D01*
X7372102Y-14726729D01*
X7353055Y-14717205D01*
X7343531Y-14698157D01*
X7343531Y-14688633D01*
X7353055Y-14669586D01*
X7372102Y-14660062D01*
X7400674Y-14660062D01*
X7419721Y-14669586D01*
X7495912Y-14869586D02*
X7505435Y-14860062D01*
X7524483Y-14831491D01*
X7534007Y-14812443D01*
X7543531Y-14783871D01*
X7553055Y-14736252D01*
X7553055Y-14698157D01*
X7543531Y-14650538D01*
X7534007Y-14621967D01*
X7524483Y-14602919D01*
X7505435Y-14574348D01*
X7495912Y-14564824D01*
X7857816Y-14869586D02*
X7848293Y-14860062D01*
X7829245Y-14831491D01*
X7819721Y-14812443D01*
X7810197Y-14783871D01*
X7800674Y-14736252D01*
X7800674Y-14698157D01*
X7810197Y-14650538D01*
X7819721Y-14621967D01*
X7829245Y-14602919D01*
X7848293Y-14574348D01*
X7857816Y-14564824D01*
X7934007Y-14660062D02*
X7934007Y-14793395D01*
X7934007Y-14679110D02*
X7943531Y-14669586D01*
X7962578Y-14660062D01*
X7991150Y-14660062D01*
X8010197Y-14669586D01*
X8019721Y-14688633D01*
X8019721Y-14793395D01*
X8143531Y-14793395D02*
X8124483Y-14783871D01*
X8114959Y-14774348D01*
X8105435Y-14755300D01*
X8105435Y-14698157D01*
X8114959Y-14679110D01*
X8124483Y-14669586D01*
X8143531Y-14660062D01*
X8172102Y-14660062D01*
X8191150Y-14669586D01*
X8200674Y-14679110D01*
X8210197Y-14698157D01*
X8210197Y-14755300D01*
X8200674Y-14774348D01*
X8191150Y-14783871D01*
X8172102Y-14793395D01*
X8143531Y-14793395D01*
X8267340Y-14660062D02*
X8343531Y-14660062D01*
X8295912Y-14593395D02*
X8295912Y-14764824D01*
X8305435Y-14783871D01*
X8324483Y-14793395D01*
X8343531Y-14793395D01*
X8562578Y-14660062D02*
X8562578Y-14860062D01*
X8562578Y-14669586D02*
X8581626Y-14660062D01*
X8619721Y-14660062D01*
X8638769Y-14669586D01*
X8648293Y-14679110D01*
X8657817Y-14698157D01*
X8657817Y-14755300D01*
X8648293Y-14774348D01*
X8638769Y-14783871D01*
X8619721Y-14793395D01*
X8581626Y-14793395D01*
X8562578Y-14783871D01*
X8772102Y-14793395D02*
X8753055Y-14783871D01*
X8743531Y-14764824D01*
X8743531Y-14593395D01*
X8934007Y-14793395D02*
X8934007Y-14688633D01*
X8924483Y-14669586D01*
X8905436Y-14660062D01*
X8867340Y-14660062D01*
X8848293Y-14669586D01*
X8934007Y-14783871D02*
X8914959Y-14793395D01*
X8867340Y-14793395D01*
X8848293Y-14783871D01*
X8838769Y-14764824D01*
X8838769Y-14745776D01*
X8848293Y-14726729D01*
X8867340Y-14717205D01*
X8914959Y-14717205D01*
X8934007Y-14707681D01*
X9000674Y-14660062D02*
X9076864Y-14660062D01*
X9029245Y-14593395D02*
X9029245Y-14764824D01*
X9038769Y-14783871D01*
X9057817Y-14793395D01*
X9076864Y-14793395D01*
X9219721Y-14783871D02*
X9200674Y-14793395D01*
X9162578Y-14793395D01*
X9143531Y-14783871D01*
X9134007Y-14764824D01*
X9134007Y-14688633D01*
X9143531Y-14669586D01*
X9162578Y-14660062D01*
X9200674Y-14660062D01*
X9219721Y-14669586D01*
X9229245Y-14688633D01*
X9229245Y-14707681D01*
X9134007Y-14726729D01*
X9400674Y-14793395D02*
X9400674Y-14593395D01*
X9400674Y-14783871D02*
X9381626Y-14793395D01*
X9343531Y-14793395D01*
X9324483Y-14783871D01*
X9314959Y-14774348D01*
X9305436Y-14755300D01*
X9305436Y-14698157D01*
X9314959Y-14679110D01*
X9324483Y-14669586D01*
X9343531Y-14660062D01*
X9381626Y-14660062D01*
X9400674Y-14669586D01*
X9476864Y-14869586D02*
X9486388Y-14860062D01*
X9505436Y-14831491D01*
X9514959Y-14812443D01*
X9524483Y-14783871D01*
X9534007Y-14736252D01*
X9534007Y-14698157D01*
X9524483Y-14650538D01*
X9514959Y-14621967D01*
X9505436Y-14602919D01*
X9486388Y-14574348D01*
X9476864Y-14564824D01*
M02*
