M48
; DRILL file {KiCad 6.0.2+dfsg-1} date do 02 feb 2023 22:32:41 CET
; FORMAT={-:-/ absolute / metric / decimal}
; #@! TF.CreationDate,2023-02-02T22:32:41+01:00
; #@! TF.GenerationSoftware,Kicad,Pcbnew,6.0.2+dfsg-1
; #@! TF.FileFunction,NonPlated,1,2,NPTH
FMAT,2
METRIC
; #@! TA.AperFunction,NonPlated,NPTH,ComponentDrill
T1C1.200
; #@! TA.AperFunction,NonPlated,NPTH,ComponentDrill
T2C1.900
; #@! TA.AperFunction,NonPlated,NPTH,ComponentDrill
T3C3.400
%
G90
G05
T1
X36.489Y-46.515
X38.87Y-122.715
X41.252Y-65.566
X43.633Y-84.615
X48.395Y-103.665
X55.539Y-46.515
X62.683Y-122.715
X65.064Y-65.566
X69.826Y-84.615
X74.589Y-46.515
X79.352Y-103.665
X84.114Y-65.566
X86.495Y-122.715
X88.876Y-84.615
X93.639Y-46.515
X98.401Y-103.665
X103.164Y-65.566
X107.926Y-84.615
X112.689Y-46.515
X117.451Y-103.665
X122.214Y-65.566
X126.976Y-84.615
X131.739Y-46.515
X136.501Y-103.665
X141.264Y-65.566
X146.026Y-84.615
X150.789Y-46.515
X155.552Y-103.665
X157.933Y-122.715
X160.314Y-65.566
X165.076Y-84.615
X169.839Y-46.515
X174.601Y-103.665
X179.364Y-65.566
X184.126Y-84.615
X188.889Y-46.515
X193.651Y-103.665
X198.414Y-65.566
X203.177Y-84.615
X207.939Y-46.515
X212.701Y-103.665
X217.464Y-65.566
X222.226Y-84.615
X226.989Y-46.515
X229.37Y-122.715
X231.751Y-103.665
X236.514Y-65.566
X241.276Y-84.615
X246.039Y-46.515
X250.801Y-103.665
X253.183Y-122.715
X255.564Y-65.566
X260.327Y-84.615
X265.089Y-46.515
X274.614Y-65.566
X276.995Y-103.665
X284.139Y-122.715
X291.283Y-84.615
X293.664Y-46.515
X298.426Y-65.566
X303.189Y-103.665
X303.189Y-122.715
X322.239Y-46.515
X322.239Y-65.566
X322.239Y-84.615
X322.239Y-103.665
X322.239Y-122.715
T2
X36.209Y-42.316
X38.59Y-118.515
X40.971Y-61.365
X43.353Y-80.415
X47.209Y-42.316
X48.115Y-99.465
X49.59Y-118.515
X51.971Y-61.365
X54.353Y-80.415
X55.259Y-42.316
X59.115Y-99.465
X62.403Y-118.515
X64.784Y-61.365
X66.259Y-42.316
X69.546Y-80.415
X73.403Y-118.515
X74.309Y-42.316
X75.784Y-61.365
X79.072Y-99.465
X80.546Y-80.415
X83.834Y-61.365
X85.309Y-42.316
X86.215Y-118.515
X88.596Y-80.415
X90.072Y-99.465
X93.359Y-42.316
X94.834Y-61.365
X97.215Y-118.515
X98.121Y-99.465
X99.596Y-80.415
X102.884Y-61.365
X104.359Y-42.316
X107.646Y-80.415
X109.121Y-99.465
X112.409Y-42.316
X113.884Y-61.365
X117.171Y-99.465
X118.646Y-80.415
X121.934Y-61.365
X123.409Y-42.316
X126.697Y-80.415
X128.171Y-99.465
X131.459Y-42.316
X132.934Y-61.365
X136.221Y-99.465
X137.696Y-80.415
X140.984Y-61.365
X142.459Y-42.316
X145.746Y-80.415
X147.221Y-99.465
X150.509Y-42.316
X151.984Y-61.365
X155.272Y-99.465
X156.746Y-80.415
X157.653Y-118.515
X160.034Y-61.365
X161.509Y-42.316
X164.796Y-80.415
X166.272Y-99.465
X168.653Y-118.515
X169.559Y-42.316
X171.034Y-61.365
X174.321Y-99.465
X175.796Y-80.415
X179.084Y-61.365
X180.559Y-42.316
X183.846Y-80.415
X185.321Y-99.465
X188.609Y-42.316
X190.084Y-61.365
X193.371Y-99.465
X194.846Y-80.415
X198.134Y-61.365
X199.609Y-42.316
X202.897Y-80.415
X204.371Y-99.465
X207.659Y-42.316
X209.134Y-61.365
X212.421Y-99.465
X213.897Y-80.415
X217.184Y-61.365
X218.659Y-42.316
X221.946Y-80.415
X223.421Y-99.465
X226.709Y-42.316
X228.184Y-61.365
X229.09Y-118.515
X231.471Y-99.465
X232.946Y-80.415
X236.234Y-61.365
X237.709Y-42.316
X240.09Y-118.515
X240.996Y-80.415
X242.471Y-99.465
X245.759Y-42.316
X247.234Y-61.365
X250.521Y-99.465
X251.996Y-80.415
X252.903Y-118.515
X255.284Y-61.365
X256.759Y-42.316
X260.046Y-80.415
X261.522Y-99.465
X263.903Y-118.515
X264.809Y-42.316
X266.284Y-61.365
X271.046Y-80.415
X274.334Y-61.365
X275.809Y-42.316
X276.715Y-99.465
X283.859Y-118.515
X285.334Y-61.365
X287.715Y-99.465
X291.003Y-80.415
X293.384Y-42.316
X294.859Y-118.515
X298.147Y-61.365
X302.003Y-80.415
X302.909Y-99.465
X302.909Y-118.515
X304.384Y-42.316
X309.147Y-61.365
X313.909Y-99.465
X313.909Y-118.515
X321.959Y-42.316
X321.959Y-61.365
X321.959Y-80.415
X321.959Y-99.465
X321.959Y-118.515
X332.959Y-42.316
X332.959Y-61.365
X332.959Y-80.415
X332.959Y-99.465
X332.959Y-118.515
T3
X41.709Y-42.316
X44.09Y-118.515
X46.471Y-61.365
X48.853Y-80.415
X53.615Y-99.465
X60.759Y-42.316
X67.903Y-118.515
X70.284Y-61.365
X75.046Y-80.415
X79.809Y-42.316
X84.572Y-99.465
X89.334Y-61.365
X91.715Y-118.515
X94.096Y-80.415
X98.859Y-42.316
X103.621Y-99.465
X108.384Y-61.365
X113.146Y-80.415
X117.909Y-42.316
X122.671Y-99.465
X127.434Y-61.365
X132.196Y-80.415
X136.959Y-42.316
X141.721Y-99.465
X146.484Y-61.365
X151.246Y-80.415
X156.009Y-42.316
X160.772Y-99.465
X163.153Y-118.515
X165.534Y-61.365
X170.296Y-80.415
X175.059Y-42.316
X179.821Y-99.465
X184.584Y-61.365
X189.346Y-80.415
X194.109Y-42.316
X198.871Y-99.465
X203.634Y-61.365
X208.397Y-80.415
X213.159Y-42.316
X217.921Y-99.465
X222.684Y-61.365
X227.446Y-80.415
X232.209Y-42.316
X234.59Y-118.515
X236.971Y-99.465
X241.734Y-61.365
X246.496Y-80.415
X251.259Y-42.316
X256.022Y-99.465
X258.403Y-118.515
X260.784Y-61.365
X265.546Y-80.415
X270.309Y-42.316
X279.834Y-61.365
X282.215Y-99.465
X289.359Y-118.515
X296.503Y-80.415
X298.884Y-42.316
X303.647Y-61.365
X308.409Y-99.465
X308.409Y-118.515
X327.459Y-42.316
X327.459Y-61.365
X327.459Y-80.415
X327.459Y-99.465
X327.459Y-118.515
T0
M30
