G04 #@! TF.GenerationSoftware,KiCad,Pcbnew,6.0.2+dfsg-1*
G04 #@! TF.CreationDate,2023-02-02T22:31:43+01:00*
G04 #@! TF.ProjectId,keyboard,6b657962-6f61-4726-942e-6b696361645f,rev?*
G04 #@! TF.SameCoordinates,Original*
G04 #@! TF.FileFunction,Paste,Top*
G04 #@! TF.FilePolarity,Positive*
%FSLAX46Y46*%
G04 Gerber Fmt 4.6, Leading zero omitted, Abs format (unit mm)*
G04 Created by KiCad (PCBNEW 6.0.2+dfsg-1) date 2023-02-02 22:31:43*
%MOMM*%
%LPD*%
G01*
G04 APERTURE LIST*
%ADD10R,1.200000X1.200000*%
G04 APERTURE END LIST*
D10*
X317500000Y-39065000D03*
X317500000Y-42215000D03*
X317500000Y-115265000D03*
X317500000Y-118415000D03*
X299720000Y-115265000D03*
X299720000Y-118415000D03*
X279400000Y-115265000D03*
X279400000Y-118415000D03*
X248920000Y-115265000D03*
X248920000Y-118415000D03*
X226060000Y-115265000D03*
X226060000Y-118415000D03*
X154940000Y-115265000D03*
X154940000Y-118415000D03*
X83820000Y-115265000D03*
X83820000Y-118415000D03*
X58420000Y-115265000D03*
X58420000Y-118415000D03*
X35560000Y-115265000D03*
X35560000Y-118415000D03*
X317500000Y-97485000D03*
X317500000Y-100635000D03*
X297180000Y-97485000D03*
X297180000Y-100635000D03*
X274320000Y-97485000D03*
X274320000Y-100635000D03*
X246380000Y-97485000D03*
X246380000Y-100635000D03*
X228600000Y-97485000D03*
X228600000Y-100635000D03*
X208280000Y-97485000D03*
X208280000Y-100635000D03*
X190500000Y-96520000D03*
X190500000Y-99670000D03*
X170180000Y-96520000D03*
X170180000Y-99670000D03*
X152400000Y-96520000D03*
X152400000Y-99670000D03*
X132080000Y-97485000D03*
X132080000Y-100635000D03*
X114300000Y-97485000D03*
X114300000Y-100635000D03*
X93980000Y-97485000D03*
X93980000Y-100635000D03*
X76200000Y-97485000D03*
X76200000Y-100635000D03*
X45720000Y-97485000D03*
X45720000Y-100635000D03*
X317500000Y-77165000D03*
X317500000Y-80315000D03*
X287020000Y-77165000D03*
X287020000Y-80315000D03*
X256540000Y-77165000D03*
X256540000Y-80315000D03*
X236220000Y-77165000D03*
X236220000Y-80315000D03*
X218440000Y-77165000D03*
X218440000Y-80315000D03*
X198120000Y-77165000D03*
X198120000Y-80315000D03*
X180340000Y-77165000D03*
X180340000Y-80315000D03*
X160020000Y-77165000D03*
X160020000Y-80315000D03*
X142240000Y-77165000D03*
X142240000Y-80315000D03*
X121920000Y-77165000D03*
X121920000Y-80315000D03*
X104140000Y-77265500D03*
X104140000Y-80415500D03*
X83820000Y-77165000D03*
X83820000Y-80315000D03*
X66040000Y-77165000D03*
X66040000Y-80315000D03*
X40640000Y-77165000D03*
X40640000Y-80315000D03*
X317500000Y-59385000D03*
X317500000Y-62535000D03*
X294640000Y-59385000D03*
X294640000Y-62535000D03*
X271780000Y-60350000D03*
X271780000Y-63500000D03*
X251460000Y-59385000D03*
X251460000Y-62535000D03*
X231140000Y-62535000D03*
X231140000Y-59385000D03*
X213360000Y-59385000D03*
X213360000Y-62535000D03*
X195580000Y-59385000D03*
X195580000Y-62535000D03*
X175260000Y-59385000D03*
X175260000Y-62535000D03*
X157480000Y-59385000D03*
X157480000Y-62535000D03*
X137160000Y-59385000D03*
X137160000Y-62535000D03*
X119380000Y-62535000D03*
X119380000Y-59385000D03*
X99060000Y-59385000D03*
X99060000Y-62535000D03*
X81280000Y-59790500D03*
X81280000Y-62940500D03*
X60960000Y-59385000D03*
X60960000Y-62535000D03*
X38100000Y-59385000D03*
X38100000Y-62535000D03*
X289560000Y-39065000D03*
X289560000Y-42215000D03*
X261620000Y-39065000D03*
X261620000Y-42215000D03*
X241300000Y-39065000D03*
X241300000Y-42215000D03*
X223520000Y-39065000D03*
X223520000Y-42215000D03*
X203200000Y-39065000D03*
X203200000Y-42215000D03*
X185420000Y-39065000D03*
X185420000Y-42215000D03*
X165100000Y-39065000D03*
X165100000Y-42215000D03*
X147320000Y-39065000D03*
X147320000Y-42215000D03*
X127000000Y-39065000D03*
X127000000Y-42215000D03*
X109220000Y-39065000D03*
X109220000Y-42215000D03*
X88900000Y-39065000D03*
X88900000Y-42215000D03*
X71120000Y-39065000D03*
X71120000Y-42215000D03*
X50800000Y-39065000D03*
X50800000Y-42215000D03*
X33020000Y-39065000D03*
X33020000Y-42215000D03*
M02*
