%FSLAX45Y45*%
G04 Gerber Fmt 4.5, Leading zero omitted, Abs format (unit mm)*
G04 Created by KiCad (PCBNEW 6.0.2+dfsg-1) date 2023-02-02 22:32:19*
%MOMM*%
%LPD*%
G01*
G04 APERTURE LIST*
%TA.AperFunction,Profile*%
%ADD10C,0.100000*%
%TD*%
%ADD11C,0.200000*%
%ADD12C,0.040000*%
%ADD13C,0.070000*%
%ADD14C,0.104000*%
%ADD15C,0.109220*%
%ADD16C,0.120000*%
G04 APERTURE END LIST*
D10*
X2538531Y-13204127D02*
X2538531Y-2879050D01*
X34098477Y-13483919D02*
X2818400Y-13483919D01*
X34378269Y-2878973D02*
X34378269Y-13204050D01*
X2818323Y-2599181D02*
X34098400Y-2599181D01*
X2818323Y-2599181D02*
G75*
G03*
X2538531Y-2879050I77J-279869D01*
G01*
X2538531Y-13204127D02*
G75*
G03*
X2818400Y-13483919I279869J77D01*
G01*
X34098477Y-13483919D02*
G75*
G03*
X34378269Y-13204050I-77J279869D01*
G01*
X34378269Y-2878973D02*
G75*
G03*
X34098400Y-2599181I-279869J-77D01*
G01*
D11*
D12*
X15982000Y-11473500D02*
X16022000Y-11513500D01*
X16022000Y-11473500D02*
X15982000Y-11513500D01*
X16109000Y-10838500D02*
X16149000Y-10878500D01*
X16149000Y-10838500D02*
X16109000Y-10878500D01*
X16744000Y-10775000D02*
X16784000Y-10815000D01*
X16784000Y-10775000D02*
X16744000Y-10815000D01*
X17093250Y-12330750D02*
X17133250Y-12370750D01*
X17133250Y-12330750D02*
X17093250Y-12370750D01*
X17188500Y-11537000D02*
X17228500Y-11577000D01*
X17228500Y-11537000D02*
X17188500Y-11577000D01*
X17188500Y-11854500D02*
X17228500Y-11894500D01*
X17228500Y-11854500D02*
X17188500Y-11894500D01*
X18204500Y-12997500D02*
X18244500Y-13037500D01*
X18244500Y-12997500D02*
X18204500Y-13037500D01*
X18268000Y-8743000D02*
X18308000Y-8783000D01*
X18308000Y-8743000D02*
X18268000Y-8783000D01*
X18649000Y-10457500D02*
X18689000Y-10497500D01*
X18689000Y-10457500D02*
X18649000Y-10497500D01*
X18712500Y-6076000D02*
X18752500Y-6116000D01*
X18752500Y-6076000D02*
X18712500Y-6116000D01*
X18903000Y-8743000D02*
X18943000Y-8783000D01*
X18943000Y-8743000D02*
X18903000Y-8783000D01*
X19157000Y-10457500D02*
X19197000Y-10497500D01*
X19197000Y-10457500D02*
X19157000Y-10497500D01*
X19411000Y-8743000D02*
X19451000Y-8783000D01*
X19451000Y-8743000D02*
X19411000Y-8783000D01*
X19474500Y-10775000D02*
X19514500Y-10815000D01*
X19514500Y-10775000D02*
X19474500Y-10815000D01*
X19919000Y-8743000D02*
X19959000Y-8783000D01*
X19959000Y-8743000D02*
X19919000Y-8783000D01*
X24300500Y-12553000D02*
X24340500Y-12593000D01*
X24340500Y-12553000D02*
X24300500Y-12593000D01*
X25189500Y-12553000D02*
X25229500Y-12593000D01*
X25229500Y-12553000D02*
X25189500Y-12593000D01*
X31285500Y-12553000D02*
X31325500Y-12593000D01*
X31325500Y-12553000D02*
X31285500Y-12593000D01*
D13*
X3337000Y-3674000D02*
G75*
G03*
X3337000Y-3674000I-35000J0D01*
G01*
X3337000Y-4454000D02*
G75*
G03*
X3337000Y-4454000I-35000J0D01*
G01*
X3591000Y-11294000D02*
G75*
G03*
X3591000Y-11294000I-35000J0D01*
G01*
X3591000Y-12074000D02*
G75*
G03*
X3591000Y-12074000I-35000J0D01*
G01*
X3845000Y-5706000D02*
G75*
G03*
X3845000Y-5706000I-35000J0D01*
G01*
X3845000Y-6486000D02*
G75*
G03*
X3845000Y-6486000I-35000J0D01*
G01*
X4099000Y-7484000D02*
G75*
G03*
X4099000Y-7484000I-35000J0D01*
G01*
X4099000Y-8264000D02*
G75*
G03*
X4099000Y-8264000I-35000J0D01*
G01*
X4607000Y-9516000D02*
G75*
G03*
X4607000Y-9516000I-35000J0D01*
G01*
X4607000Y-10296000D02*
G75*
G03*
X4607000Y-10296000I-35000J0D01*
G01*
X5115000Y-3674000D02*
G75*
G03*
X5115000Y-3674000I-35000J0D01*
G01*
X5115000Y-4454000D02*
G75*
G03*
X5115000Y-4454000I-35000J0D01*
G01*
X5877000Y-11294000D02*
G75*
G03*
X5877000Y-11294000I-35000J0D01*
G01*
X5877000Y-12074000D02*
G75*
G03*
X5877000Y-12074000I-35000J0D01*
G01*
X6131000Y-5706000D02*
G75*
G03*
X6131000Y-5706000I-35000J0D01*
G01*
X6131000Y-6486000D02*
G75*
G03*
X6131000Y-6486000I-35000J0D01*
G01*
X6639000Y-7484000D02*
G75*
G03*
X6639000Y-7484000I-35000J0D01*
G01*
X6639000Y-8264000D02*
G75*
G03*
X6639000Y-8264000I-35000J0D01*
G01*
X7147000Y-3674000D02*
G75*
G03*
X7147000Y-3674000I-35000J0D01*
G01*
X7147000Y-4454000D02*
G75*
G03*
X7147000Y-4454000I-35000J0D01*
G01*
X7655000Y-9516000D02*
G75*
G03*
X7655000Y-9516000I-35000J0D01*
G01*
X7655000Y-10296000D02*
G75*
G03*
X7655000Y-10296000I-35000J0D01*
G01*
X8163000Y-5746550D02*
G75*
G03*
X8163000Y-5746550I-35000J0D01*
G01*
X8163000Y-6526550D02*
G75*
G03*
X8163000Y-6526550I-35000J0D01*
G01*
X8417000Y-7484000D02*
G75*
G03*
X8417000Y-7484000I-35000J0D01*
G01*
X8417000Y-8264000D02*
G75*
G03*
X8417000Y-8264000I-35000J0D01*
G01*
X8417000Y-11294000D02*
G75*
G03*
X8417000Y-11294000I-35000J0D01*
G01*
X8417000Y-12074000D02*
G75*
G03*
X8417000Y-12074000I-35000J0D01*
G01*
X8925000Y-3674000D02*
G75*
G03*
X8925000Y-3674000I-35000J0D01*
G01*
X8925000Y-4454000D02*
G75*
G03*
X8925000Y-4454000I-35000J0D01*
G01*
X9433000Y-9516000D02*
G75*
G03*
X9433000Y-9516000I-35000J0D01*
G01*
X9433000Y-10296000D02*
G75*
G03*
X9433000Y-10296000I-35000J0D01*
G01*
X9941000Y-5706000D02*
G75*
G03*
X9941000Y-5706000I-35000J0D01*
G01*
X9941000Y-6486000D02*
G75*
G03*
X9941000Y-6486000I-35000J0D01*
G01*
X10449000Y-7494050D02*
G75*
G03*
X10449000Y-7494050I-35000J0D01*
G01*
X10449000Y-8274050D02*
G75*
G03*
X10449000Y-8274050I-35000J0D01*
G01*
X10957000Y-3674000D02*
G75*
G03*
X10957000Y-3674000I-35000J0D01*
G01*
X10957000Y-4454000D02*
G75*
G03*
X10957000Y-4454000I-35000J0D01*
G01*
X11465000Y-9516000D02*
G75*
G03*
X11465000Y-9516000I-35000J0D01*
G01*
X11465000Y-10296000D02*
G75*
G03*
X11465000Y-10296000I-35000J0D01*
G01*
X11973000Y-5706000D02*
G75*
G03*
X11973000Y-5706000I-35000J0D01*
G01*
X11973000Y-6486000D02*
G75*
G03*
X11973000Y-6486000I-35000J0D01*
G01*
X12227000Y-7484000D02*
G75*
G03*
X12227000Y-7484000I-35000J0D01*
G01*
X12227000Y-8264000D02*
G75*
G03*
X12227000Y-8264000I-35000J0D01*
G01*
X12735000Y-3674000D02*
G75*
G03*
X12735000Y-3674000I-35000J0D01*
G01*
X12735000Y-4454000D02*
G75*
G03*
X12735000Y-4454000I-35000J0D01*
G01*
X13243000Y-9516000D02*
G75*
G03*
X13243000Y-9516000I-35000J0D01*
G01*
X13243000Y-10296000D02*
G75*
G03*
X13243000Y-10296000I-35000J0D01*
G01*
X13751000Y-5706000D02*
G75*
G03*
X13751000Y-5706000I-35000J0D01*
G01*
X13751000Y-6486000D02*
G75*
G03*
X13751000Y-6486000I-35000J0D01*
G01*
X14259000Y-7484000D02*
G75*
G03*
X14259000Y-7484000I-35000J0D01*
G01*
X14259000Y-8264000D02*
G75*
G03*
X14259000Y-8264000I-35000J0D01*
G01*
X14767000Y-3674000D02*
G75*
G03*
X14767000Y-3674000I-35000J0D01*
G01*
X14767000Y-4454000D02*
G75*
G03*
X14767000Y-4454000I-35000J0D01*
G01*
X15275000Y-9419500D02*
G75*
G03*
X15275000Y-9419500I-35000J0D01*
G01*
X15275000Y-10199500D02*
G75*
G03*
X15275000Y-10199500I-35000J0D01*
G01*
X15529000Y-11294000D02*
G75*
G03*
X15529000Y-11294000I-35000J0D01*
G01*
X15529000Y-12074000D02*
G75*
G03*
X15529000Y-12074000I-35000J0D01*
G01*
X15783000Y-5706000D02*
G75*
G03*
X15783000Y-5706000I-35000J0D01*
G01*
X15783000Y-6486000D02*
G75*
G03*
X15783000Y-6486000I-35000J0D01*
G01*
X16037000Y-7484000D02*
G75*
G03*
X16037000Y-7484000I-35000J0D01*
G01*
X16037000Y-8264000D02*
G75*
G03*
X16037000Y-8264000I-35000J0D01*
G01*
X16545000Y-3674000D02*
G75*
G03*
X16545000Y-3674000I-35000J0D01*
G01*
X16545000Y-4454000D02*
G75*
G03*
X16545000Y-4454000I-35000J0D01*
G01*
X17053000Y-9419500D02*
G75*
G03*
X17053000Y-9419500I-35000J0D01*
G01*
X17053000Y-10199500D02*
G75*
G03*
X17053000Y-10199500I-35000J0D01*
G01*
X17561000Y-5706000D02*
G75*
G03*
X17561000Y-5706000I-35000J0D01*
G01*
X17561000Y-6486000D02*
G75*
G03*
X17561000Y-6486000I-35000J0D01*
G01*
X18069000Y-7484000D02*
G75*
G03*
X18069000Y-7484000I-35000J0D01*
G01*
X18069000Y-8264000D02*
G75*
G03*
X18069000Y-8264000I-35000J0D01*
G01*
X18577000Y-3674000D02*
G75*
G03*
X18577000Y-3674000I-35000J0D01*
G01*
X18577000Y-4454000D02*
G75*
G03*
X18577000Y-4454000I-35000J0D01*
G01*
X19085000Y-9419500D02*
G75*
G03*
X19085000Y-9419500I-35000J0D01*
G01*
X19085000Y-10199500D02*
G75*
G03*
X19085000Y-10199500I-35000J0D01*
G01*
X19593000Y-5706000D02*
G75*
G03*
X19593000Y-5706000I-35000J0D01*
G01*
X19593000Y-6486000D02*
G75*
G03*
X19593000Y-6486000I-35000J0D01*
G01*
X19847000Y-7484000D02*
G75*
G03*
X19847000Y-7484000I-35000J0D01*
G01*
X19847000Y-8264000D02*
G75*
G03*
X19847000Y-8264000I-35000J0D01*
G01*
X20355000Y-3674000D02*
G75*
G03*
X20355000Y-3674000I-35000J0D01*
G01*
X20355000Y-4454000D02*
G75*
G03*
X20355000Y-4454000I-35000J0D01*
G01*
X20863000Y-9516000D02*
G75*
G03*
X20863000Y-9516000I-35000J0D01*
G01*
X20863000Y-10296000D02*
G75*
G03*
X20863000Y-10296000I-35000J0D01*
G01*
X21371000Y-5706000D02*
G75*
G03*
X21371000Y-5706000I-35000J0D01*
G01*
X21371000Y-6486000D02*
G75*
G03*
X21371000Y-6486000I-35000J0D01*
G01*
X21879000Y-7484000D02*
G75*
G03*
X21879000Y-7484000I-35000J0D01*
G01*
X21879000Y-8264000D02*
G75*
G03*
X21879000Y-8264000I-35000J0D01*
G01*
X22387000Y-3674000D02*
G75*
G03*
X22387000Y-3674000I-35000J0D01*
G01*
X22387000Y-4454000D02*
G75*
G03*
X22387000Y-4454000I-35000J0D01*
G01*
X22641000Y-11294000D02*
G75*
G03*
X22641000Y-11294000I-35000J0D01*
G01*
X22641000Y-12074000D02*
G75*
G03*
X22641000Y-12074000I-35000J0D01*
G01*
X22895000Y-9516000D02*
G75*
G03*
X22895000Y-9516000I-35000J0D01*
G01*
X22895000Y-10296000D02*
G75*
G03*
X22895000Y-10296000I-35000J0D01*
G01*
X23149000Y-5706000D02*
G75*
G03*
X23149000Y-5706000I-35000J0D01*
G01*
X23149000Y-6486000D02*
G75*
G03*
X23149000Y-6486000I-35000J0D01*
G01*
X23657000Y-7484000D02*
G75*
G03*
X23657000Y-7484000I-35000J0D01*
G01*
X23657000Y-8264000D02*
G75*
G03*
X23657000Y-8264000I-35000J0D01*
G01*
X24165000Y-3674000D02*
G75*
G03*
X24165000Y-3674000I-35000J0D01*
G01*
X24165000Y-4454000D02*
G75*
G03*
X24165000Y-4454000I-35000J0D01*
G01*
X24673000Y-9516000D02*
G75*
G03*
X24673000Y-9516000I-35000J0D01*
G01*
X24673000Y-10296000D02*
G75*
G03*
X24673000Y-10296000I-35000J0D01*
G01*
X24927000Y-11294000D02*
G75*
G03*
X24927000Y-11294000I-35000J0D01*
G01*
X24927000Y-12074000D02*
G75*
G03*
X24927000Y-12074000I-35000J0D01*
G01*
X25181000Y-5706000D02*
G75*
G03*
X25181000Y-5706000I-35000J0D01*
G01*
X25181000Y-6486000D02*
G75*
G03*
X25181000Y-6486000I-35000J0D01*
G01*
X25689000Y-7484000D02*
G75*
G03*
X25689000Y-7484000I-35000J0D01*
G01*
X25689000Y-8264000D02*
G75*
G03*
X25689000Y-8264000I-35000J0D01*
G01*
X26197000Y-3674000D02*
G75*
G03*
X26197000Y-3674000I-35000J0D01*
G01*
X26197000Y-4454000D02*
G75*
G03*
X26197000Y-4454000I-35000J0D01*
G01*
X27213000Y-5802500D02*
G75*
G03*
X27213000Y-5802500I-35000J0D01*
G01*
X27213000Y-6582500D02*
G75*
G03*
X27213000Y-6582500I-35000J0D01*
G01*
X27467000Y-9516000D02*
G75*
G03*
X27467000Y-9516000I-35000J0D01*
G01*
X27467000Y-10296000D02*
G75*
G03*
X27467000Y-10296000I-35000J0D01*
G01*
X27975000Y-11294000D02*
G75*
G03*
X27975000Y-11294000I-35000J0D01*
G01*
X27975000Y-12074000D02*
G75*
G03*
X27975000Y-12074000I-35000J0D01*
G01*
X28737000Y-7484000D02*
G75*
G03*
X28737000Y-7484000I-35000J0D01*
G01*
X28737000Y-8264000D02*
G75*
G03*
X28737000Y-8264000I-35000J0D01*
G01*
X28991000Y-3674000D02*
G75*
G03*
X28991000Y-3674000I-35000J0D01*
G01*
X28991000Y-4454000D02*
G75*
G03*
X28991000Y-4454000I-35000J0D01*
G01*
X29499000Y-5706000D02*
G75*
G03*
X29499000Y-5706000I-35000J0D01*
G01*
X29499000Y-6486000D02*
G75*
G03*
X29499000Y-6486000I-35000J0D01*
G01*
X29753000Y-9516000D02*
G75*
G03*
X29753000Y-9516000I-35000J0D01*
G01*
X29753000Y-10296000D02*
G75*
G03*
X29753000Y-10296000I-35000J0D01*
G01*
X30007000Y-11294000D02*
G75*
G03*
X30007000Y-11294000I-35000J0D01*
G01*
X30007000Y-12074000D02*
G75*
G03*
X30007000Y-12074000I-35000J0D01*
G01*
X31785000Y-3674000D02*
G75*
G03*
X31785000Y-3674000I-35000J0D01*
G01*
X31785000Y-4454000D02*
G75*
G03*
X31785000Y-4454000I-35000J0D01*
G01*
X31785000Y-5706000D02*
G75*
G03*
X31785000Y-5706000I-35000J0D01*
G01*
X31785000Y-6486000D02*
G75*
G03*
X31785000Y-6486000I-35000J0D01*
G01*
X31785000Y-7484000D02*
G75*
G03*
X31785000Y-7484000I-35000J0D01*
G01*
X31785000Y-8264000D02*
G75*
G03*
X31785000Y-8264000I-35000J0D01*
G01*
X31785000Y-9516000D02*
G75*
G03*
X31785000Y-9516000I-35000J0D01*
G01*
X31785000Y-10296000D02*
G75*
G03*
X31785000Y-10296000I-35000J0D01*
G01*
X31785000Y-11294000D02*
G75*
G03*
X31785000Y-11294000I-35000J0D01*
G01*
X31785000Y-12074000D02*
G75*
G03*
X31785000Y-12074000I-35000J0D01*
G01*
D14*
X4043900Y-4649550D02*
X4043900Y-4753550D01*
X3991900Y-4701550D02*
X4095900Y-4701550D01*
X4282025Y-12269550D02*
X4282025Y-12373550D01*
X4230025Y-12321550D02*
X4334025Y-12321550D01*
X4297900Y-4649550D02*
X4297900Y-4753550D01*
X4245900Y-4701550D02*
X4349900Y-4701550D01*
X4520150Y-6554550D02*
X4520150Y-6658550D01*
X4468150Y-6606550D02*
X4572150Y-6606550D01*
X4536025Y-12269550D02*
X4536025Y-12373550D01*
X4484025Y-12321550D02*
X4588025Y-12321550D01*
X4758275Y-8459550D02*
X4758275Y-8563550D01*
X4706275Y-8511550D02*
X4810275Y-8511550D01*
X4774150Y-6554550D02*
X4774150Y-6658550D01*
X4722150Y-6606550D02*
X4826150Y-6606550D01*
X5012275Y-8459550D02*
X5012275Y-8563550D01*
X4960275Y-8511550D02*
X5064275Y-8511550D01*
X5234525Y-10364550D02*
X5234525Y-10468550D01*
X5182525Y-10416550D02*
X5286525Y-10416550D01*
X5488525Y-10364550D02*
X5488525Y-10468550D01*
X5436525Y-10416550D02*
X5540525Y-10416550D01*
X5948900Y-4649550D02*
X5948900Y-4753550D01*
X5896900Y-4701550D02*
X6000900Y-4701550D01*
X6202900Y-4649550D02*
X6202900Y-4753550D01*
X6150900Y-4701550D02*
X6254900Y-4701550D01*
X6663275Y-12269550D02*
X6663275Y-12373550D01*
X6611275Y-12321550D02*
X6715275Y-12321550D01*
X6901400Y-6554550D02*
X6901400Y-6658550D01*
X6849400Y-6606550D02*
X6953400Y-6606550D01*
X6917275Y-12269550D02*
X6917275Y-12373550D01*
X6865275Y-12321550D02*
X6969275Y-12321550D01*
X7155400Y-6554550D02*
X7155400Y-6658550D01*
X7103400Y-6606550D02*
X7207400Y-6606550D01*
X7377650Y-8459550D02*
X7377650Y-8563550D01*
X7325650Y-8511550D02*
X7429650Y-8511550D01*
X7631650Y-8459550D02*
X7631650Y-8563550D01*
X7579650Y-8511550D02*
X7683650Y-8511550D01*
X7853900Y-4649550D02*
X7853900Y-4753550D01*
X7801900Y-4701550D02*
X7905900Y-4701550D01*
X8107900Y-4649550D02*
X8107900Y-4753550D01*
X8055900Y-4701550D02*
X8159900Y-4701550D01*
X8330150Y-10364550D02*
X8330150Y-10468550D01*
X8278150Y-10416550D02*
X8382150Y-10416550D01*
X8584150Y-10364550D02*
X8584150Y-10468550D01*
X8532150Y-10416550D02*
X8636150Y-10416550D01*
X8806400Y-6554550D02*
X8806400Y-6658550D01*
X8754400Y-6606550D02*
X8858400Y-6606550D01*
X9044525Y-12269550D02*
X9044525Y-12373550D01*
X8992525Y-12321550D02*
X9096525Y-12321550D01*
X9060400Y-6554550D02*
X9060400Y-6658550D01*
X9008400Y-6606550D02*
X9112400Y-6606550D01*
X9282650Y-8459550D02*
X9282650Y-8563550D01*
X9230650Y-8511550D02*
X9334650Y-8511550D01*
X9298525Y-12269550D02*
X9298525Y-12373550D01*
X9246525Y-12321550D02*
X9350525Y-12321550D01*
X9536650Y-8459550D02*
X9536650Y-8563550D01*
X9484650Y-8511550D02*
X9588650Y-8511550D01*
X9758900Y-4649550D02*
X9758900Y-4753550D01*
X9706900Y-4701550D02*
X9810900Y-4701550D01*
X10012900Y-4649550D02*
X10012900Y-4753550D01*
X9960900Y-4701550D02*
X10064900Y-4701550D01*
X10235150Y-10364550D02*
X10235150Y-10468550D01*
X10183150Y-10416550D02*
X10287150Y-10416550D01*
X10489150Y-10364550D02*
X10489150Y-10468550D01*
X10437150Y-10416550D02*
X10541150Y-10416550D01*
X10711400Y-6554550D02*
X10711400Y-6658550D01*
X10659400Y-6606550D02*
X10763400Y-6606550D01*
X10965400Y-6554550D02*
X10965400Y-6658550D01*
X10913400Y-6606550D02*
X11017400Y-6606550D01*
X11187650Y-8459550D02*
X11187650Y-8563550D01*
X11135650Y-8511550D02*
X11239650Y-8511550D01*
X11441650Y-8459550D02*
X11441650Y-8563550D01*
X11389650Y-8511550D02*
X11493650Y-8511550D01*
X11663900Y-4649550D02*
X11663900Y-4753550D01*
X11611900Y-4701550D02*
X11715900Y-4701550D01*
X11917900Y-4649550D02*
X11917900Y-4753550D01*
X11865900Y-4701550D02*
X11969900Y-4701550D01*
X12140150Y-10364550D02*
X12140150Y-10468550D01*
X12088150Y-10416550D02*
X12192150Y-10416550D01*
X12394150Y-10364550D02*
X12394150Y-10468550D01*
X12342150Y-10416550D02*
X12446150Y-10416550D01*
X12616400Y-6554550D02*
X12616400Y-6658550D01*
X12564400Y-6606550D02*
X12668400Y-6606550D01*
X12870400Y-6554550D02*
X12870400Y-6658550D01*
X12818400Y-6606550D02*
X12922400Y-6606550D01*
X13092650Y-8459550D02*
X13092650Y-8563550D01*
X13040650Y-8511550D02*
X13144650Y-8511550D01*
X13346650Y-8459550D02*
X13346650Y-8563550D01*
X13294650Y-8511550D02*
X13398650Y-8511550D01*
X13568900Y-4649550D02*
X13568900Y-4753550D01*
X13516900Y-4701550D02*
X13620900Y-4701550D01*
X13822900Y-4649550D02*
X13822900Y-4753550D01*
X13770900Y-4701550D02*
X13874900Y-4701550D01*
X14045150Y-10364550D02*
X14045150Y-10468550D01*
X13993150Y-10416550D02*
X14097150Y-10416550D01*
X14299150Y-10364550D02*
X14299150Y-10468550D01*
X14247150Y-10416550D02*
X14351150Y-10416550D01*
X14521400Y-6554550D02*
X14521400Y-6658550D01*
X14469400Y-6606550D02*
X14573400Y-6606550D01*
X14775400Y-6554550D02*
X14775400Y-6658550D01*
X14723400Y-6606550D02*
X14827400Y-6606550D01*
X14997650Y-8459550D02*
X14997650Y-8563550D01*
X14945650Y-8511550D02*
X15049650Y-8511550D01*
X15251650Y-8459550D02*
X15251650Y-8563550D01*
X15199650Y-8511550D02*
X15303650Y-8511550D01*
X15473900Y-4649550D02*
X15473900Y-4753550D01*
X15421900Y-4701550D02*
X15525900Y-4701550D01*
X15727900Y-4649550D02*
X15727900Y-4753550D01*
X15675900Y-4701550D02*
X15779900Y-4701550D01*
X15950150Y-10364550D02*
X15950150Y-10468550D01*
X15898150Y-10416550D02*
X16002150Y-10416550D01*
X16188275Y-12269550D02*
X16188275Y-12373550D01*
X16136275Y-12321550D02*
X16240275Y-12321550D01*
X16204150Y-10364550D02*
X16204150Y-10468550D01*
X16152150Y-10416550D02*
X16256150Y-10416550D01*
X16426400Y-6554550D02*
X16426400Y-6658550D01*
X16374400Y-6606550D02*
X16478400Y-6606550D01*
X16442275Y-12269550D02*
X16442275Y-12373550D01*
X16390275Y-12321550D02*
X16494275Y-12321550D01*
X16680400Y-6554550D02*
X16680400Y-6658550D01*
X16628400Y-6606550D02*
X16732400Y-6606550D01*
X16902650Y-8459550D02*
X16902650Y-8563550D01*
X16850650Y-8511550D02*
X16954650Y-8511550D01*
X17156650Y-8459550D02*
X17156650Y-8563550D01*
X17104650Y-8511550D02*
X17208650Y-8511550D01*
X17378900Y-4649550D02*
X17378900Y-4753550D01*
X17326900Y-4701550D02*
X17430900Y-4701550D01*
X17632900Y-4649550D02*
X17632900Y-4753550D01*
X17580900Y-4701550D02*
X17684900Y-4701550D01*
X17855150Y-10364550D02*
X17855150Y-10468550D01*
X17803150Y-10416550D02*
X17907150Y-10416550D01*
X18109150Y-10364550D02*
X18109150Y-10468550D01*
X18057150Y-10416550D02*
X18161150Y-10416550D01*
X18331400Y-6554550D02*
X18331400Y-6658550D01*
X18279400Y-6606550D02*
X18383400Y-6606550D01*
X18585400Y-6554550D02*
X18585400Y-6658550D01*
X18533400Y-6606550D02*
X18637400Y-6606550D01*
X18807650Y-8459550D02*
X18807650Y-8563550D01*
X18755650Y-8511550D02*
X18859650Y-8511550D01*
X19061650Y-8459550D02*
X19061650Y-8563550D01*
X19009650Y-8511550D02*
X19113650Y-8511550D01*
X19283900Y-4649550D02*
X19283900Y-4753550D01*
X19231900Y-4701550D02*
X19335900Y-4701550D01*
X19537900Y-4649550D02*
X19537900Y-4753550D01*
X19485900Y-4701550D02*
X19589900Y-4701550D01*
X19760150Y-10364550D02*
X19760150Y-10468550D01*
X19708150Y-10416550D02*
X19812150Y-10416550D01*
X20014150Y-10364550D02*
X20014150Y-10468550D01*
X19962150Y-10416550D02*
X20066150Y-10416550D01*
X20236400Y-6554550D02*
X20236400Y-6658550D01*
X20184400Y-6606550D02*
X20288400Y-6606550D01*
X20490400Y-6554550D02*
X20490400Y-6658550D01*
X20438400Y-6606550D02*
X20542400Y-6606550D01*
X20712650Y-8459550D02*
X20712650Y-8563550D01*
X20660650Y-8511550D02*
X20764650Y-8511550D01*
X20966650Y-8459550D02*
X20966650Y-8563550D01*
X20914650Y-8511550D02*
X21018650Y-8511550D01*
X21188900Y-4649550D02*
X21188900Y-4753550D01*
X21136900Y-4701550D02*
X21240900Y-4701550D01*
X21442900Y-4649550D02*
X21442900Y-4753550D01*
X21390900Y-4701550D02*
X21494900Y-4701550D01*
X21665150Y-10364550D02*
X21665150Y-10468550D01*
X21613150Y-10416550D02*
X21717150Y-10416550D01*
X21919150Y-10364550D02*
X21919150Y-10468550D01*
X21867150Y-10416550D02*
X21971150Y-10416550D01*
X22141400Y-6554550D02*
X22141400Y-6658550D01*
X22089400Y-6606550D02*
X22193400Y-6606550D01*
X22395400Y-6554550D02*
X22395400Y-6658550D01*
X22343400Y-6606550D02*
X22447400Y-6606550D01*
X22617650Y-8459550D02*
X22617650Y-8563550D01*
X22565650Y-8511550D02*
X22669650Y-8511550D01*
X22871650Y-8459550D02*
X22871650Y-8563550D01*
X22819650Y-8511550D02*
X22923650Y-8511550D01*
X23093900Y-4649550D02*
X23093900Y-4753550D01*
X23041900Y-4701550D02*
X23145900Y-4701550D01*
X23332025Y-12269550D02*
X23332025Y-12373550D01*
X23280025Y-12321550D02*
X23384025Y-12321550D01*
X23347900Y-4649550D02*
X23347900Y-4753550D01*
X23295900Y-4701550D02*
X23399900Y-4701550D01*
X23570150Y-10364550D02*
X23570150Y-10468550D01*
X23518150Y-10416550D02*
X23622150Y-10416550D01*
X23586025Y-12269550D02*
X23586025Y-12373550D01*
X23534025Y-12321550D02*
X23638025Y-12321550D01*
X23824150Y-10364550D02*
X23824150Y-10468550D01*
X23772150Y-10416550D02*
X23876150Y-10416550D01*
X24046400Y-6554550D02*
X24046400Y-6658550D01*
X23994400Y-6606550D02*
X24098400Y-6606550D01*
X24300400Y-6554550D02*
X24300400Y-6658550D01*
X24248400Y-6606550D02*
X24352400Y-6606550D01*
X24522650Y-8459550D02*
X24522650Y-8563550D01*
X24470650Y-8511550D02*
X24574650Y-8511550D01*
X24776650Y-8459550D02*
X24776650Y-8563550D01*
X24724650Y-8511550D02*
X24828650Y-8511550D01*
X24998900Y-4649550D02*
X24998900Y-4753550D01*
X24946900Y-4701550D02*
X25050900Y-4701550D01*
X25252900Y-4649550D02*
X25252900Y-4753550D01*
X25200900Y-4701550D02*
X25304900Y-4701550D01*
X25475150Y-10364550D02*
X25475150Y-10468550D01*
X25423150Y-10416550D02*
X25527150Y-10416550D01*
X25713275Y-12269550D02*
X25713275Y-12373550D01*
X25661275Y-12321550D02*
X25765275Y-12321550D01*
X25729150Y-10364550D02*
X25729150Y-10468550D01*
X25677150Y-10416550D02*
X25781150Y-10416550D01*
X25951400Y-6554550D02*
X25951400Y-6658550D01*
X25899400Y-6606550D02*
X26003400Y-6606550D01*
X25967275Y-12269550D02*
X25967275Y-12373550D01*
X25915275Y-12321550D02*
X26019275Y-12321550D01*
X26205400Y-6554550D02*
X26205400Y-6658550D01*
X26153400Y-6606550D02*
X26257400Y-6606550D01*
X26427650Y-8459550D02*
X26427650Y-8563550D01*
X26375650Y-8511550D02*
X26479650Y-8511550D01*
X26681650Y-8459550D02*
X26681650Y-8563550D01*
X26629650Y-8511550D02*
X26733650Y-8511550D01*
X26903900Y-4649550D02*
X26903900Y-4753550D01*
X26851900Y-4701550D02*
X26955900Y-4701550D01*
X27157900Y-4649550D02*
X27157900Y-4753550D01*
X27105900Y-4701550D02*
X27209900Y-4701550D01*
X27856400Y-6554550D02*
X27856400Y-6658550D01*
X27804400Y-6606550D02*
X27908400Y-6606550D01*
X28094525Y-10364550D02*
X28094525Y-10468550D01*
X28042525Y-10416550D02*
X28146525Y-10416550D01*
X28110400Y-6554550D02*
X28110400Y-6658550D01*
X28058400Y-6606550D02*
X28162400Y-6606550D01*
X28348525Y-10364550D02*
X28348525Y-10468550D01*
X28296525Y-10416550D02*
X28400525Y-10416550D01*
X28808900Y-12269550D02*
X28808900Y-12373550D01*
X28756900Y-12321550D02*
X28860900Y-12321550D01*
X29062900Y-12269550D02*
X29062900Y-12373550D01*
X29010900Y-12321550D02*
X29114900Y-12321550D01*
X29523275Y-8459550D02*
X29523275Y-8563550D01*
X29471275Y-8511550D02*
X29575275Y-8511550D01*
X29761400Y-4649550D02*
X29761400Y-4753550D01*
X29709400Y-4701550D02*
X29813400Y-4701550D01*
X29777275Y-8459550D02*
X29777275Y-8563550D01*
X29725275Y-8511550D02*
X29829275Y-8511550D01*
X30015400Y-4649550D02*
X30015400Y-4753550D01*
X29963400Y-4701550D02*
X30067400Y-4701550D01*
X30237650Y-6554550D02*
X30237650Y-6658550D01*
X30185650Y-6606550D02*
X30289650Y-6606550D01*
X30491650Y-6554550D02*
X30491650Y-6658550D01*
X30439650Y-6606550D02*
X30543650Y-6606550D01*
X30713900Y-10364550D02*
X30713900Y-10468550D01*
X30661900Y-10416550D02*
X30765900Y-10416550D01*
X30713900Y-12269550D02*
X30713900Y-12373550D01*
X30661900Y-12321550D02*
X30765900Y-12321550D01*
X30967900Y-10364550D02*
X30967900Y-10468550D01*
X30915900Y-10416550D02*
X31019900Y-10416550D01*
X30967900Y-12269550D02*
X30967900Y-12373550D01*
X30915900Y-12321550D02*
X31019900Y-12321550D01*
X32618900Y-4649550D02*
X32618900Y-4753550D01*
X32566900Y-4701550D02*
X32670900Y-4701550D01*
X32618900Y-6554550D02*
X32618900Y-6658550D01*
X32566900Y-6606550D02*
X32670900Y-6606550D01*
X32618900Y-8459550D02*
X32618900Y-8563550D01*
X32566900Y-8511550D02*
X32670900Y-8511550D01*
X32618900Y-10364550D02*
X32618900Y-10468550D01*
X32566900Y-10416550D02*
X32670900Y-10416550D01*
X32618900Y-12269550D02*
X32618900Y-12373550D01*
X32566900Y-12321550D02*
X32670900Y-12321550D01*
X32872900Y-4649550D02*
X32872900Y-4753550D01*
X32820900Y-4701550D02*
X32924900Y-4701550D01*
X32872900Y-6554550D02*
X32872900Y-6658550D01*
X32820900Y-6606550D02*
X32924900Y-6606550D01*
X32872900Y-8459550D02*
X32872900Y-8563550D01*
X32820900Y-8511550D02*
X32924900Y-8511550D01*
X32872900Y-10364550D02*
X32872900Y-10468550D01*
X32820900Y-10416550D02*
X32924900Y-10416550D01*
X32872900Y-12269550D02*
X32872900Y-12373550D01*
X32820900Y-12321550D02*
X32924900Y-12321550D01*
D15*
X17691616Y-11214615D02*
X17691616Y-11137385D01*
X17614385Y-11137385D01*
X17614385Y-11214615D01*
X17691616Y-11214615D01*
X17691616Y-11468615D02*
X17691616Y-11391384D01*
X17614385Y-11391384D01*
X17614385Y-11468615D01*
X17691616Y-11468615D01*
X17691616Y-11722615D02*
X17691616Y-11645384D01*
X17614385Y-11645384D01*
X17614385Y-11722615D01*
X17691616Y-11722615D01*
X17691616Y-11976615D02*
X17691616Y-11899384D01*
X17614385Y-11899384D01*
X17614385Y-11976615D01*
X17691616Y-11976615D01*
X17691616Y-12230615D02*
X17691616Y-12153384D01*
X17614385Y-12153384D01*
X17614385Y-12230615D01*
X17691616Y-12230615D01*
X17691616Y-12484615D02*
X17691616Y-12407384D01*
X17614385Y-12407384D01*
X17614385Y-12484615D01*
X17691616Y-12484615D01*
X17691616Y-12715755D02*
X17691616Y-12638524D01*
X17614385Y-12638524D01*
X17614385Y-12715755D01*
X17691616Y-12715755D01*
X17945616Y-11214615D02*
X17945616Y-11137385D01*
X17868385Y-11137385D01*
X17868385Y-11214615D01*
X17945616Y-11214615D01*
X17945616Y-12738615D02*
X17945616Y-12661384D01*
X17868385Y-12661384D01*
X17868385Y-12738615D01*
X17945616Y-12738615D01*
X18199616Y-11214615D02*
X18199616Y-11137385D01*
X18122385Y-11137385D01*
X18122385Y-11214615D01*
X18199616Y-11214615D01*
X18199616Y-12738615D02*
X18199616Y-12661384D01*
X18122385Y-12661384D01*
X18122385Y-12738615D01*
X18199616Y-12738615D01*
X18453616Y-11214615D02*
X18453616Y-11137385D01*
X18376385Y-11137385D01*
X18376385Y-11214615D01*
X18453616Y-11214615D01*
X18453616Y-12738615D02*
X18453616Y-12661384D01*
X18376385Y-12661384D01*
X18376385Y-12738615D01*
X18453616Y-12738615D01*
X18707616Y-11214615D02*
X18707616Y-11137385D01*
X18630385Y-11137385D01*
X18630385Y-11214615D01*
X18707616Y-11214615D01*
X18707616Y-12738615D02*
X18707616Y-12661384D01*
X18630385Y-12661384D01*
X18630385Y-12738615D01*
X18707616Y-12738615D01*
X18961616Y-11214615D02*
X18961616Y-11137385D01*
X18884385Y-11137385D01*
X18884385Y-11214615D01*
X18961616Y-11214615D01*
X18961616Y-12738615D02*
X18961616Y-12661384D01*
X18884385Y-12661384D01*
X18884385Y-12738615D01*
X18961616Y-12738615D01*
X19215616Y-11214615D02*
X19215616Y-11137385D01*
X19138385Y-11137385D01*
X19138385Y-11214615D01*
X19215616Y-11214615D01*
X19215616Y-12738615D02*
X19215616Y-12661384D01*
X19138385Y-12661384D01*
X19138385Y-12738615D01*
X19215616Y-12738615D01*
X19469616Y-11214615D02*
X19469616Y-11137385D01*
X19392385Y-11137385D01*
X19392385Y-11214615D01*
X19469616Y-11214615D01*
X19469616Y-12738615D02*
X19469616Y-12661384D01*
X19392385Y-12661384D01*
X19392385Y-12738615D01*
X19469616Y-12738615D01*
X19723616Y-11214615D02*
X19723616Y-11137385D01*
X19646385Y-11137385D01*
X19646385Y-11214615D01*
X19723616Y-11214615D01*
X19723616Y-12738615D02*
X19723616Y-12661384D01*
X19646385Y-12661384D01*
X19646385Y-12738615D01*
X19723616Y-12738615D01*
X19977616Y-11214615D02*
X19977616Y-11137385D01*
X19900385Y-11137385D01*
X19900385Y-11214615D01*
X19977616Y-11214615D01*
X19977616Y-12738615D02*
X19977616Y-12661384D01*
X19900385Y-12661384D01*
X19900385Y-12738615D01*
X19977616Y-12738615D01*
X20231616Y-11214615D02*
X20231616Y-11137385D01*
X20154385Y-11137385D01*
X20154385Y-11214615D01*
X20231616Y-11214615D01*
X20231616Y-12738615D02*
X20231616Y-12661384D01*
X20154385Y-12661384D01*
X20154385Y-12738615D01*
X20231616Y-12738615D01*
X20485616Y-11214615D02*
X20485616Y-11137385D01*
X20408385Y-11137385D01*
X20408385Y-11214615D01*
X20485616Y-11214615D01*
X20485616Y-12738615D02*
X20485616Y-12661384D01*
X20408385Y-12661384D01*
X20408385Y-12738615D01*
X20485616Y-12738615D01*
D16*
X4170900Y-3701550D02*
X4230900Y-3641550D01*
X4170900Y-3581550D01*
X4110900Y-3641550D01*
X4170900Y-3701550D01*
X4409025Y-11321550D02*
X4469025Y-11261550D01*
X4409025Y-11201550D01*
X4349025Y-11261550D01*
X4409025Y-11321550D01*
X4647150Y-5606550D02*
X4707150Y-5546550D01*
X4647150Y-5486550D01*
X4587150Y-5546550D01*
X4647150Y-5606550D01*
X4670900Y-3911550D02*
X4730900Y-3851550D01*
X4670900Y-3791550D01*
X4610900Y-3851550D01*
X4670900Y-3911550D01*
X4885275Y-7511550D02*
X4945275Y-7451550D01*
X4885275Y-7391550D01*
X4825275Y-7451550D01*
X4885275Y-7511550D01*
X4909025Y-11531550D02*
X4969025Y-11471550D01*
X4909025Y-11411550D01*
X4849025Y-11471550D01*
X4909025Y-11531550D01*
X5147150Y-5816550D02*
X5207150Y-5756550D01*
X5147150Y-5696550D01*
X5087150Y-5756550D01*
X5147150Y-5816550D01*
X5361525Y-9416550D02*
X5421525Y-9356550D01*
X5361525Y-9296550D01*
X5301525Y-9356550D01*
X5361525Y-9416550D01*
X5385275Y-7721550D02*
X5445275Y-7661550D01*
X5385275Y-7601550D01*
X5325275Y-7661550D01*
X5385275Y-7721550D01*
X5861525Y-9626550D02*
X5921525Y-9566550D01*
X5861525Y-9506550D01*
X5801525Y-9566550D01*
X5861525Y-9626550D01*
X6075900Y-3701550D02*
X6135900Y-3641550D01*
X6075900Y-3581550D01*
X6015900Y-3641550D01*
X6075900Y-3701550D01*
X6575900Y-3911550D02*
X6635900Y-3851550D01*
X6575900Y-3791550D01*
X6515900Y-3851550D01*
X6575900Y-3911550D01*
X6790275Y-11321550D02*
X6850275Y-11261550D01*
X6790275Y-11201550D01*
X6730275Y-11261550D01*
X6790275Y-11321550D01*
X7028400Y-5606550D02*
X7088400Y-5546550D01*
X7028400Y-5486550D01*
X6968400Y-5546550D01*
X7028400Y-5606550D01*
X7290275Y-11531550D02*
X7350275Y-11471550D01*
X7290275Y-11411550D01*
X7230275Y-11471550D01*
X7290275Y-11531550D01*
X7504650Y-7511550D02*
X7564650Y-7451550D01*
X7504650Y-7391550D01*
X7444650Y-7451550D01*
X7504650Y-7511550D01*
X7528400Y-5816550D02*
X7588400Y-5756550D01*
X7528400Y-5696550D01*
X7468400Y-5756550D01*
X7528400Y-5816550D01*
X7980900Y-3701550D02*
X8040900Y-3641550D01*
X7980900Y-3581550D01*
X7920900Y-3641550D01*
X7980900Y-3701550D01*
X8004650Y-7721550D02*
X8064650Y-7661550D01*
X8004650Y-7601550D01*
X7944650Y-7661550D01*
X8004650Y-7721550D01*
X8457150Y-9416550D02*
X8517150Y-9356550D01*
X8457150Y-9296550D01*
X8397150Y-9356550D01*
X8457150Y-9416550D01*
X8480900Y-3911550D02*
X8540900Y-3851550D01*
X8480900Y-3791550D01*
X8420900Y-3851550D01*
X8480900Y-3911550D01*
X8933400Y-5606550D02*
X8993400Y-5546550D01*
X8933400Y-5486550D01*
X8873400Y-5546550D01*
X8933400Y-5606550D01*
X8957150Y-9626550D02*
X9017150Y-9566550D01*
X8957150Y-9506550D01*
X8897150Y-9566550D01*
X8957150Y-9626550D01*
X9171525Y-11321550D02*
X9231525Y-11261550D01*
X9171525Y-11201550D01*
X9111525Y-11261550D01*
X9171525Y-11321550D01*
X9409650Y-7511550D02*
X9469650Y-7451550D01*
X9409650Y-7391550D01*
X9349650Y-7451550D01*
X9409650Y-7511550D01*
X9433400Y-5816550D02*
X9493400Y-5756550D01*
X9433400Y-5696550D01*
X9373400Y-5756550D01*
X9433400Y-5816550D01*
X9671525Y-11531550D02*
X9731525Y-11471550D01*
X9671525Y-11411550D01*
X9611525Y-11471550D01*
X9671525Y-11531550D01*
X9885900Y-3701550D02*
X9945900Y-3641550D01*
X9885900Y-3581550D01*
X9825900Y-3641550D01*
X9885900Y-3701550D01*
X9909650Y-7721550D02*
X9969650Y-7661550D01*
X9909650Y-7601550D01*
X9849650Y-7661550D01*
X9909650Y-7721550D01*
X10362150Y-9416550D02*
X10422150Y-9356550D01*
X10362150Y-9296550D01*
X10302150Y-9356550D01*
X10362150Y-9416550D01*
X10385900Y-3911550D02*
X10445900Y-3851550D01*
X10385900Y-3791550D01*
X10325900Y-3851550D01*
X10385900Y-3911550D01*
X10838400Y-5606550D02*
X10898400Y-5546550D01*
X10838400Y-5486550D01*
X10778400Y-5546550D01*
X10838400Y-5606550D01*
X10862150Y-9626550D02*
X10922150Y-9566550D01*
X10862150Y-9506550D01*
X10802150Y-9566550D01*
X10862150Y-9626550D01*
X11314650Y-7511550D02*
X11374650Y-7451550D01*
X11314650Y-7391550D01*
X11254650Y-7451550D01*
X11314650Y-7511550D01*
X11338400Y-5816550D02*
X11398400Y-5756550D01*
X11338400Y-5696550D01*
X11278400Y-5756550D01*
X11338400Y-5816550D01*
X11790900Y-3701550D02*
X11850900Y-3641550D01*
X11790900Y-3581550D01*
X11730900Y-3641550D01*
X11790900Y-3701550D01*
X11814650Y-7721550D02*
X11874650Y-7661550D01*
X11814650Y-7601550D01*
X11754650Y-7661550D01*
X11814650Y-7721550D01*
X12267150Y-9416550D02*
X12327150Y-9356550D01*
X12267150Y-9296550D01*
X12207150Y-9356550D01*
X12267150Y-9416550D01*
X12290900Y-3911550D02*
X12350900Y-3851550D01*
X12290900Y-3791550D01*
X12230900Y-3851550D01*
X12290900Y-3911550D01*
X12743400Y-5606550D02*
X12803400Y-5546550D01*
X12743400Y-5486550D01*
X12683400Y-5546550D01*
X12743400Y-5606550D01*
X12767150Y-9626550D02*
X12827150Y-9566550D01*
X12767150Y-9506550D01*
X12707150Y-9566550D01*
X12767150Y-9626550D01*
X13219650Y-7511550D02*
X13279650Y-7451550D01*
X13219650Y-7391550D01*
X13159650Y-7451550D01*
X13219650Y-7511550D01*
X13243400Y-5816550D02*
X13303400Y-5756550D01*
X13243400Y-5696550D01*
X13183400Y-5756550D01*
X13243400Y-5816550D01*
X13695900Y-3701550D02*
X13755900Y-3641550D01*
X13695900Y-3581550D01*
X13635900Y-3641550D01*
X13695900Y-3701550D01*
X13719650Y-7721550D02*
X13779650Y-7661550D01*
X13719650Y-7601550D01*
X13659650Y-7661550D01*
X13719650Y-7721550D01*
X14172150Y-9416550D02*
X14232150Y-9356550D01*
X14172150Y-9296550D01*
X14112150Y-9356550D01*
X14172150Y-9416550D01*
X14195900Y-3911550D02*
X14255900Y-3851550D01*
X14195900Y-3791550D01*
X14135900Y-3851550D01*
X14195900Y-3911550D01*
X14648400Y-5606550D02*
X14708400Y-5546550D01*
X14648400Y-5486550D01*
X14588400Y-5546550D01*
X14648400Y-5606550D01*
X14672150Y-9626550D02*
X14732150Y-9566550D01*
X14672150Y-9506550D01*
X14612150Y-9566550D01*
X14672150Y-9626550D01*
X15124650Y-7511550D02*
X15184650Y-7451550D01*
X15124650Y-7391550D01*
X15064650Y-7451550D01*
X15124650Y-7511550D01*
X15148400Y-5816550D02*
X15208400Y-5756550D01*
X15148400Y-5696550D01*
X15088400Y-5756550D01*
X15148400Y-5816550D01*
X15600900Y-3701550D02*
X15660900Y-3641550D01*
X15600900Y-3581550D01*
X15540900Y-3641550D01*
X15600900Y-3701550D01*
X15624650Y-7721550D02*
X15684650Y-7661550D01*
X15624650Y-7601550D01*
X15564650Y-7661550D01*
X15624650Y-7721550D01*
X16077150Y-9416550D02*
X16137150Y-9356550D01*
X16077150Y-9296550D01*
X16017150Y-9356550D01*
X16077150Y-9416550D01*
X16100900Y-3911550D02*
X16160900Y-3851550D01*
X16100900Y-3791550D01*
X16040900Y-3851550D01*
X16100900Y-3911550D01*
X16315275Y-11321550D02*
X16375275Y-11261550D01*
X16315275Y-11201550D01*
X16255275Y-11261550D01*
X16315275Y-11321550D01*
X16553400Y-5606550D02*
X16613400Y-5546550D01*
X16553400Y-5486550D01*
X16493400Y-5546550D01*
X16553400Y-5606550D01*
X16577150Y-9626550D02*
X16637150Y-9566550D01*
X16577150Y-9506550D01*
X16517150Y-9566550D01*
X16577150Y-9626550D01*
X16815275Y-11531550D02*
X16875275Y-11471550D01*
X16815275Y-11411550D01*
X16755275Y-11471550D01*
X16815275Y-11531550D01*
X17029650Y-7511550D02*
X17089650Y-7451550D01*
X17029650Y-7391550D01*
X16969650Y-7451550D01*
X17029650Y-7511550D01*
X17053400Y-5816550D02*
X17113400Y-5756550D01*
X17053400Y-5696550D01*
X16993400Y-5756550D01*
X17053400Y-5816550D01*
X17505900Y-3701550D02*
X17565900Y-3641550D01*
X17505900Y-3581550D01*
X17445900Y-3641550D01*
X17505900Y-3701550D01*
X17529650Y-7721550D02*
X17589650Y-7661550D01*
X17529650Y-7601550D01*
X17469650Y-7661550D01*
X17529650Y-7721550D01*
X17982150Y-9416550D02*
X18042150Y-9356550D01*
X17982150Y-9296550D01*
X17922150Y-9356550D01*
X17982150Y-9416550D01*
X18005900Y-3911550D02*
X18065900Y-3851550D01*
X18005900Y-3791550D01*
X17945900Y-3851550D01*
X18005900Y-3911550D01*
X18458400Y-5606550D02*
X18518400Y-5546550D01*
X18458400Y-5486550D01*
X18398400Y-5546550D01*
X18458400Y-5606550D01*
X18482150Y-9626550D02*
X18542150Y-9566550D01*
X18482150Y-9506550D01*
X18422150Y-9566550D01*
X18482150Y-9626550D01*
X18934650Y-7511550D02*
X18994650Y-7451550D01*
X18934650Y-7391550D01*
X18874650Y-7451550D01*
X18934650Y-7511550D01*
X18958400Y-5816550D02*
X19018400Y-5756550D01*
X18958400Y-5696550D01*
X18898400Y-5756550D01*
X18958400Y-5816550D01*
X19410900Y-3701550D02*
X19470900Y-3641550D01*
X19410900Y-3581550D01*
X19350900Y-3641550D01*
X19410900Y-3701550D01*
X19434650Y-7721550D02*
X19494650Y-7661550D01*
X19434650Y-7601550D01*
X19374650Y-7661550D01*
X19434650Y-7721550D01*
X19887150Y-9416550D02*
X19947150Y-9356550D01*
X19887150Y-9296550D01*
X19827150Y-9356550D01*
X19887150Y-9416550D01*
X19910900Y-3911550D02*
X19970900Y-3851550D01*
X19910900Y-3791550D01*
X19850900Y-3851550D01*
X19910900Y-3911550D01*
X20363400Y-5606550D02*
X20423400Y-5546550D01*
X20363400Y-5486550D01*
X20303400Y-5546550D01*
X20363400Y-5606550D01*
X20387150Y-9626550D02*
X20447150Y-9566550D01*
X20387150Y-9506550D01*
X20327150Y-9566550D01*
X20387150Y-9626550D01*
X20839650Y-7511550D02*
X20899650Y-7451550D01*
X20839650Y-7391550D01*
X20779650Y-7451550D01*
X20839650Y-7511550D01*
X20863400Y-5816550D02*
X20923400Y-5756550D01*
X20863400Y-5696550D01*
X20803400Y-5756550D01*
X20863400Y-5816550D01*
X21315900Y-3701550D02*
X21375900Y-3641550D01*
X21315900Y-3581550D01*
X21255900Y-3641550D01*
X21315900Y-3701550D01*
X21339650Y-7721550D02*
X21399650Y-7661550D01*
X21339650Y-7601550D01*
X21279650Y-7661550D01*
X21339650Y-7721550D01*
X21792150Y-9416550D02*
X21852150Y-9356550D01*
X21792150Y-9296550D01*
X21732150Y-9356550D01*
X21792150Y-9416550D01*
X21815900Y-3911550D02*
X21875900Y-3851550D01*
X21815900Y-3791550D01*
X21755900Y-3851550D01*
X21815900Y-3911550D01*
X22268400Y-5606550D02*
X22328400Y-5546550D01*
X22268400Y-5486550D01*
X22208400Y-5546550D01*
X22268400Y-5606550D01*
X22292150Y-9626550D02*
X22352150Y-9566550D01*
X22292150Y-9506550D01*
X22232150Y-9566550D01*
X22292150Y-9626550D01*
X22744650Y-7511550D02*
X22804650Y-7451550D01*
X22744650Y-7391550D01*
X22684650Y-7451550D01*
X22744650Y-7511550D01*
X22768400Y-5816550D02*
X22828400Y-5756550D01*
X22768400Y-5696550D01*
X22708400Y-5756550D01*
X22768400Y-5816550D01*
X23220900Y-3701550D02*
X23280900Y-3641550D01*
X23220900Y-3581550D01*
X23160900Y-3641550D01*
X23220900Y-3701550D01*
X23244650Y-7721550D02*
X23304650Y-7661550D01*
X23244650Y-7601550D01*
X23184650Y-7661550D01*
X23244650Y-7721550D01*
X23459025Y-11321550D02*
X23519025Y-11261550D01*
X23459025Y-11201550D01*
X23399025Y-11261550D01*
X23459025Y-11321550D01*
X23697150Y-9416550D02*
X23757150Y-9356550D01*
X23697150Y-9296550D01*
X23637150Y-9356550D01*
X23697150Y-9416550D01*
X23720900Y-3911550D02*
X23780900Y-3851550D01*
X23720900Y-3791550D01*
X23660900Y-3851550D01*
X23720900Y-3911550D01*
X23959025Y-11531550D02*
X24019025Y-11471550D01*
X23959025Y-11411550D01*
X23899025Y-11471550D01*
X23959025Y-11531550D01*
X24173400Y-5606550D02*
X24233400Y-5546550D01*
X24173400Y-5486550D01*
X24113400Y-5546550D01*
X24173400Y-5606550D01*
X24197150Y-9626550D02*
X24257150Y-9566550D01*
X24197150Y-9506550D01*
X24137150Y-9566550D01*
X24197150Y-9626550D01*
X24649650Y-7511550D02*
X24709650Y-7451550D01*
X24649650Y-7391550D01*
X24589650Y-7451550D01*
X24649650Y-7511550D01*
X24673400Y-5816550D02*
X24733400Y-5756550D01*
X24673400Y-5696550D01*
X24613400Y-5756550D01*
X24673400Y-5816550D01*
X25125900Y-3701550D02*
X25185900Y-3641550D01*
X25125900Y-3581550D01*
X25065900Y-3641550D01*
X25125900Y-3701550D01*
X25149650Y-7721550D02*
X25209650Y-7661550D01*
X25149650Y-7601550D01*
X25089650Y-7661550D01*
X25149650Y-7721550D01*
X25602150Y-9416550D02*
X25662150Y-9356550D01*
X25602150Y-9296550D01*
X25542150Y-9356550D01*
X25602150Y-9416550D01*
X25625900Y-3911550D02*
X25685900Y-3851550D01*
X25625900Y-3791550D01*
X25565900Y-3851550D01*
X25625900Y-3911550D01*
X25840275Y-11321550D02*
X25900275Y-11261550D01*
X25840275Y-11201550D01*
X25780275Y-11261550D01*
X25840275Y-11321550D01*
X26078400Y-5606550D02*
X26138400Y-5546550D01*
X26078400Y-5486550D01*
X26018400Y-5546550D01*
X26078400Y-5606550D01*
X26102150Y-9626550D02*
X26162150Y-9566550D01*
X26102150Y-9506550D01*
X26042150Y-9566550D01*
X26102150Y-9626550D01*
X26340275Y-11531550D02*
X26400275Y-11471550D01*
X26340275Y-11411550D01*
X26280275Y-11471550D01*
X26340275Y-11531550D01*
X26554650Y-7511550D02*
X26614650Y-7451550D01*
X26554650Y-7391550D01*
X26494650Y-7451550D01*
X26554650Y-7511550D01*
X26578400Y-5816550D02*
X26638400Y-5756550D01*
X26578400Y-5696550D01*
X26518400Y-5756550D01*
X26578400Y-5816550D01*
X27030900Y-3701550D02*
X27090900Y-3641550D01*
X27030900Y-3581550D01*
X26970900Y-3641550D01*
X27030900Y-3701550D01*
X27054650Y-7721550D02*
X27114650Y-7661550D01*
X27054650Y-7601550D01*
X26994650Y-7661550D01*
X27054650Y-7721550D01*
X27530900Y-3911550D02*
X27590900Y-3851550D01*
X27530900Y-3791550D01*
X27470900Y-3851550D01*
X27530900Y-3911550D01*
X27983400Y-5606550D02*
X28043400Y-5546550D01*
X27983400Y-5486550D01*
X27923400Y-5546550D01*
X27983400Y-5606550D01*
X28221525Y-9416550D02*
X28281525Y-9356550D01*
X28221525Y-9296550D01*
X28161525Y-9356550D01*
X28221525Y-9416550D01*
X28483400Y-5816550D02*
X28543400Y-5756550D01*
X28483400Y-5696550D01*
X28423400Y-5756550D01*
X28483400Y-5816550D01*
X28721525Y-9626550D02*
X28781525Y-9566550D01*
X28721525Y-9506550D01*
X28661525Y-9566550D01*
X28721525Y-9626550D01*
X28935900Y-11321550D02*
X28995900Y-11261550D01*
X28935900Y-11201550D01*
X28875900Y-11261550D01*
X28935900Y-11321550D01*
X29435900Y-11531550D02*
X29495900Y-11471550D01*
X29435900Y-11411550D01*
X29375900Y-11471550D01*
X29435900Y-11531550D01*
X29650275Y-7511550D02*
X29710275Y-7451550D01*
X29650275Y-7391550D01*
X29590275Y-7451550D01*
X29650275Y-7511550D01*
X29888400Y-3701550D02*
X29948400Y-3641550D01*
X29888400Y-3581550D01*
X29828400Y-3641550D01*
X29888400Y-3701550D01*
X30150275Y-7721550D02*
X30210275Y-7661550D01*
X30150275Y-7601550D01*
X30090275Y-7661550D01*
X30150275Y-7721550D01*
X30364650Y-5606550D02*
X30424650Y-5546550D01*
X30364650Y-5486550D01*
X30304650Y-5546550D01*
X30364650Y-5606550D01*
X30388400Y-3911550D02*
X30448400Y-3851550D01*
X30388400Y-3791550D01*
X30328400Y-3851550D01*
X30388400Y-3911550D01*
X30840900Y-9416550D02*
X30900900Y-9356550D01*
X30840900Y-9296550D01*
X30780900Y-9356550D01*
X30840900Y-9416550D01*
X30840900Y-11321550D02*
X30900900Y-11261550D01*
X30840900Y-11201550D01*
X30780900Y-11261550D01*
X30840900Y-11321550D01*
X30864650Y-5816550D02*
X30924650Y-5756550D01*
X30864650Y-5696550D01*
X30804650Y-5756550D01*
X30864650Y-5816550D01*
X31340900Y-9626550D02*
X31400900Y-9566550D01*
X31340900Y-9506550D01*
X31280900Y-9566550D01*
X31340900Y-9626550D01*
X31340900Y-11531550D02*
X31400900Y-11471550D01*
X31340900Y-11411550D01*
X31280900Y-11471550D01*
X31340900Y-11531550D01*
X32745900Y-3701550D02*
X32805900Y-3641550D01*
X32745900Y-3581550D01*
X32685900Y-3641550D01*
X32745900Y-3701550D01*
X32745900Y-5606550D02*
X32805900Y-5546550D01*
X32745900Y-5486550D01*
X32685900Y-5546550D01*
X32745900Y-5606550D01*
X32745900Y-7511550D02*
X32805900Y-7451550D01*
X32745900Y-7391550D01*
X32685900Y-7451550D01*
X32745900Y-7511550D01*
X32745900Y-9416550D02*
X32805900Y-9356550D01*
X32745900Y-9296550D01*
X32685900Y-9356550D01*
X32745900Y-9416550D01*
X32745900Y-11321550D02*
X32805900Y-11261550D01*
X32745900Y-11201550D01*
X32685900Y-11261550D01*
X32745900Y-11321550D01*
X33245900Y-3911550D02*
X33305900Y-3851550D01*
X33245900Y-3791550D01*
X33185900Y-3851550D01*
X33245900Y-3911550D01*
X33245900Y-5816550D02*
X33305900Y-5756550D01*
X33245900Y-5696550D01*
X33185900Y-5756550D01*
X33245900Y-5816550D01*
X33245900Y-7721550D02*
X33305900Y-7661550D01*
X33245900Y-7601550D01*
X33185900Y-7661550D01*
X33245900Y-7721550D01*
X33245900Y-9626550D02*
X33305900Y-9566550D01*
X33245900Y-9506550D01*
X33185900Y-9566550D01*
X33245900Y-9626550D01*
X33245900Y-11531550D02*
X33305900Y-11471550D01*
X33245900Y-11411550D01*
X33185900Y-11471550D01*
X33245900Y-11531550D01*
D11*
X2791150Y-13799395D02*
X2791150Y-13599395D01*
X2838769Y-13599395D01*
X2867340Y-13608919D01*
X2886388Y-13627967D01*
X2895912Y-13647014D01*
X2905435Y-13685110D01*
X2905435Y-13713681D01*
X2895912Y-13751776D01*
X2886388Y-13770824D01*
X2867340Y-13789871D01*
X2838769Y-13799395D01*
X2791150Y-13799395D01*
X2991150Y-13799395D02*
X2991150Y-13666062D01*
X2991150Y-13704157D02*
X3000674Y-13685110D01*
X3010197Y-13675586D01*
X3029245Y-13666062D01*
X3048293Y-13666062D01*
X3114959Y-13799395D02*
X3114959Y-13666062D01*
X3114959Y-13599395D02*
X3105435Y-13608919D01*
X3114959Y-13618443D01*
X3124483Y-13608919D01*
X3114959Y-13599395D01*
X3114959Y-13618443D01*
X3238769Y-13799395D02*
X3219721Y-13789871D01*
X3210197Y-13770824D01*
X3210197Y-13599395D01*
X3343531Y-13799395D02*
X3324483Y-13789871D01*
X3314959Y-13770824D01*
X3314959Y-13599395D01*
X3572102Y-13799395D02*
X3572102Y-13599395D01*
X3638769Y-13742252D01*
X3705435Y-13599395D01*
X3705435Y-13799395D01*
X3886388Y-13799395D02*
X3886388Y-13694633D01*
X3876864Y-13675586D01*
X3857816Y-13666062D01*
X3819721Y-13666062D01*
X3800674Y-13675586D01*
X3886388Y-13789871D02*
X3867340Y-13799395D01*
X3819721Y-13799395D01*
X3800674Y-13789871D01*
X3791150Y-13770824D01*
X3791150Y-13751776D01*
X3800674Y-13732729D01*
X3819721Y-13723205D01*
X3867340Y-13723205D01*
X3886388Y-13713681D01*
X3981626Y-13666062D02*
X3981626Y-13866062D01*
X3981626Y-13675586D02*
X4000674Y-13666062D01*
X4038769Y-13666062D01*
X4057816Y-13675586D01*
X4067340Y-13685110D01*
X4076864Y-13704157D01*
X4076864Y-13761300D01*
X4067340Y-13780348D01*
X4057816Y-13789871D01*
X4038769Y-13799395D01*
X4000674Y-13799395D01*
X3981626Y-13789871D01*
X4162578Y-13780348D02*
X4172102Y-13789871D01*
X4162578Y-13799395D01*
X4153055Y-13789871D01*
X4162578Y-13780348D01*
X4162578Y-13799395D01*
X4162578Y-13675586D02*
X4172102Y-13685110D01*
X4162578Y-13694633D01*
X4153055Y-13685110D01*
X4162578Y-13675586D01*
X4162578Y-13694633D01*
D12*
X2493531Y-14108919D02*
X2533531Y-14148919D01*
X2533531Y-14108919D02*
X2493531Y-14148919D01*
D11*
X2829245Y-14019395D02*
X2848293Y-14019395D01*
X2867340Y-14028919D01*
X2876864Y-14038443D01*
X2886388Y-14057491D01*
X2895912Y-14095586D01*
X2895912Y-14143205D01*
X2886388Y-14181300D01*
X2876864Y-14200348D01*
X2867340Y-14209871D01*
X2848293Y-14219395D01*
X2829245Y-14219395D01*
X2810197Y-14209871D01*
X2800674Y-14200348D01*
X2791150Y-14181300D01*
X2781626Y-14143205D01*
X2781626Y-14095586D01*
X2791150Y-14057491D01*
X2800674Y-14038443D01*
X2810197Y-14028919D01*
X2829245Y-14019395D01*
X2981626Y-14200348D02*
X2991150Y-14209871D01*
X2981626Y-14219395D01*
X2972102Y-14209871D01*
X2981626Y-14200348D01*
X2981626Y-14219395D01*
X3162578Y-14086062D02*
X3162578Y-14219395D01*
X3114959Y-14009871D02*
X3067340Y-14152729D01*
X3191150Y-14152729D01*
X3305435Y-14019395D02*
X3324483Y-14019395D01*
X3343531Y-14028919D01*
X3353055Y-14038443D01*
X3362578Y-14057491D01*
X3372102Y-14095586D01*
X3372102Y-14143205D01*
X3362578Y-14181300D01*
X3353055Y-14200348D01*
X3343531Y-14209871D01*
X3324483Y-14219395D01*
X3305435Y-14219395D01*
X3286388Y-14209871D01*
X3276864Y-14200348D01*
X3267340Y-14181300D01*
X3257816Y-14143205D01*
X3257816Y-14095586D01*
X3267340Y-14057491D01*
X3276864Y-14038443D01*
X3286388Y-14028919D01*
X3305435Y-14019395D01*
X3495912Y-14019395D02*
X3514959Y-14019395D01*
X3534007Y-14028919D01*
X3543531Y-14038443D01*
X3553055Y-14057491D01*
X3562578Y-14095586D01*
X3562578Y-14143205D01*
X3553055Y-14181300D01*
X3543531Y-14200348D01*
X3534007Y-14209871D01*
X3514959Y-14219395D01*
X3495912Y-14219395D01*
X3476864Y-14209871D01*
X3467340Y-14200348D01*
X3457816Y-14181300D01*
X3448293Y-14143205D01*
X3448293Y-14095586D01*
X3457816Y-14057491D01*
X3467340Y-14038443D01*
X3476864Y-14028919D01*
X3495912Y-14019395D01*
X3648293Y-14219395D02*
X3648293Y-14086062D01*
X3648293Y-14105110D02*
X3657816Y-14095586D01*
X3676864Y-14086062D01*
X3705435Y-14086062D01*
X3724483Y-14095586D01*
X3734007Y-14114633D01*
X3734007Y-14219395D01*
X3734007Y-14114633D02*
X3743531Y-14095586D01*
X3762578Y-14086062D01*
X3791150Y-14086062D01*
X3810197Y-14095586D01*
X3819721Y-14114633D01*
X3819721Y-14219395D01*
X3914959Y-14219395D02*
X3914959Y-14086062D01*
X3914959Y-14105110D02*
X3924483Y-14095586D01*
X3943531Y-14086062D01*
X3972102Y-14086062D01*
X3991150Y-14095586D01*
X4000674Y-14114633D01*
X4000674Y-14219395D01*
X4000674Y-14114633D02*
X4010197Y-14095586D01*
X4029245Y-14086062D01*
X4057816Y-14086062D01*
X4076864Y-14095586D01*
X4086388Y-14114633D01*
X4086388Y-14219395D01*
X4476864Y-14009871D02*
X4305436Y-14267014D01*
X4734007Y-14019395D02*
X4753055Y-14019395D01*
X4772102Y-14028919D01*
X4781626Y-14038443D01*
X4791150Y-14057491D01*
X4800674Y-14095586D01*
X4800674Y-14143205D01*
X4791150Y-14181300D01*
X4781626Y-14200348D01*
X4772102Y-14209871D01*
X4753055Y-14219395D01*
X4734007Y-14219395D01*
X4714959Y-14209871D01*
X4705436Y-14200348D01*
X4695912Y-14181300D01*
X4686388Y-14143205D01*
X4686388Y-14095586D01*
X4695912Y-14057491D01*
X4705436Y-14038443D01*
X4714959Y-14028919D01*
X4734007Y-14019395D01*
X4886388Y-14200348D02*
X4895912Y-14209871D01*
X4886388Y-14219395D01*
X4876864Y-14209871D01*
X4886388Y-14200348D01*
X4886388Y-14219395D01*
X5019721Y-14019395D02*
X5038769Y-14019395D01*
X5057817Y-14028919D01*
X5067340Y-14038443D01*
X5076864Y-14057491D01*
X5086388Y-14095586D01*
X5086388Y-14143205D01*
X5076864Y-14181300D01*
X5067340Y-14200348D01*
X5057817Y-14209871D01*
X5038769Y-14219395D01*
X5019721Y-14219395D01*
X5000674Y-14209871D01*
X4991150Y-14200348D01*
X4981626Y-14181300D01*
X4972102Y-14143205D01*
X4972102Y-14095586D01*
X4981626Y-14057491D01*
X4991150Y-14038443D01*
X5000674Y-14028919D01*
X5019721Y-14019395D01*
X5276864Y-14219395D02*
X5162578Y-14219395D01*
X5219721Y-14219395D02*
X5219721Y-14019395D01*
X5200674Y-14047967D01*
X5181626Y-14067014D01*
X5162578Y-14076538D01*
X5457817Y-14019395D02*
X5362578Y-14019395D01*
X5353055Y-14114633D01*
X5362578Y-14105110D01*
X5381626Y-14095586D01*
X5429245Y-14095586D01*
X5448293Y-14105110D01*
X5457817Y-14114633D01*
X5467340Y-14133681D01*
X5467340Y-14181300D01*
X5457817Y-14200348D01*
X5448293Y-14209871D01*
X5429245Y-14219395D01*
X5381626Y-14219395D01*
X5362578Y-14209871D01*
X5353055Y-14200348D01*
X5534007Y-14019395D02*
X5667340Y-14019395D01*
X5581626Y-14219395D01*
X5734007Y-14019395D02*
X5734007Y-14057491D01*
X5810197Y-14019395D02*
X5810197Y-14057491D01*
X6105435Y-14295586D02*
X6095912Y-14286062D01*
X6076864Y-14257491D01*
X6067340Y-14238443D01*
X6057816Y-14209871D01*
X6048293Y-14162252D01*
X6048293Y-14124157D01*
X6057816Y-14076538D01*
X6067340Y-14047967D01*
X6076864Y-14028919D01*
X6095912Y-14000348D01*
X6105435Y-13990824D01*
X6286388Y-14219395D02*
X6172102Y-14219395D01*
X6229245Y-14219395D02*
X6229245Y-14019395D01*
X6210197Y-14047967D01*
X6191150Y-14067014D01*
X6172102Y-14076538D01*
X6400674Y-14105110D02*
X6381626Y-14095586D01*
X6372102Y-14086062D01*
X6362578Y-14067014D01*
X6362578Y-14057491D01*
X6372102Y-14038443D01*
X6381626Y-14028919D01*
X6400674Y-14019395D01*
X6438769Y-14019395D01*
X6457816Y-14028919D01*
X6467340Y-14038443D01*
X6476864Y-14057491D01*
X6476864Y-14067014D01*
X6467340Y-14086062D01*
X6457816Y-14095586D01*
X6438769Y-14105110D01*
X6400674Y-14105110D01*
X6381626Y-14114633D01*
X6372102Y-14124157D01*
X6362578Y-14143205D01*
X6362578Y-14181300D01*
X6372102Y-14200348D01*
X6381626Y-14209871D01*
X6400674Y-14219395D01*
X6438769Y-14219395D01*
X6457816Y-14209871D01*
X6467340Y-14200348D01*
X6476864Y-14181300D01*
X6476864Y-14143205D01*
X6467340Y-14124157D01*
X6457816Y-14114633D01*
X6438769Y-14105110D01*
X6714959Y-14219395D02*
X6714959Y-14019395D01*
X6800674Y-14219395D02*
X6800674Y-14114633D01*
X6791150Y-14095586D01*
X6772102Y-14086062D01*
X6743531Y-14086062D01*
X6724483Y-14095586D01*
X6714959Y-14105110D01*
X6924483Y-14219395D02*
X6905435Y-14209871D01*
X6895912Y-14200348D01*
X6886388Y-14181300D01*
X6886388Y-14124157D01*
X6895912Y-14105110D01*
X6905435Y-14095586D01*
X6924483Y-14086062D01*
X6953055Y-14086062D01*
X6972102Y-14095586D01*
X6981626Y-14105110D01*
X6991150Y-14124157D01*
X6991150Y-14181300D01*
X6981626Y-14200348D01*
X6972102Y-14209871D01*
X6953055Y-14219395D01*
X6924483Y-14219395D01*
X7105435Y-14219395D02*
X7086388Y-14209871D01*
X7076864Y-14190824D01*
X7076864Y-14019395D01*
X7257816Y-14209871D02*
X7238769Y-14219395D01*
X7200674Y-14219395D01*
X7181626Y-14209871D01*
X7172102Y-14190824D01*
X7172102Y-14114633D01*
X7181626Y-14095586D01*
X7200674Y-14086062D01*
X7238769Y-14086062D01*
X7257816Y-14095586D01*
X7267340Y-14114633D01*
X7267340Y-14133681D01*
X7172102Y-14152729D01*
X7343531Y-14209871D02*
X7362578Y-14219395D01*
X7400674Y-14219395D01*
X7419721Y-14209871D01*
X7429245Y-14190824D01*
X7429245Y-14181300D01*
X7419721Y-14162252D01*
X7400674Y-14152729D01*
X7372102Y-14152729D01*
X7353055Y-14143205D01*
X7343531Y-14124157D01*
X7343531Y-14114633D01*
X7353055Y-14095586D01*
X7372102Y-14086062D01*
X7400674Y-14086062D01*
X7419721Y-14095586D01*
X7495912Y-14295586D02*
X7505435Y-14286062D01*
X7524483Y-14257491D01*
X7534007Y-14238443D01*
X7543531Y-14209871D01*
X7553055Y-14162252D01*
X7553055Y-14124157D01*
X7543531Y-14076538D01*
X7534007Y-14047967D01*
X7524483Y-14028919D01*
X7505435Y-14000348D01*
X7495912Y-13990824D01*
D13*
X2533531Y-14392919D02*
G75*
G03*
X2533531Y-14392919I-35000J0D01*
G01*
D11*
X2829245Y-14283395D02*
X2848293Y-14283395D01*
X2867340Y-14292919D01*
X2876864Y-14302443D01*
X2886388Y-14321491D01*
X2895912Y-14359586D01*
X2895912Y-14407205D01*
X2886388Y-14445300D01*
X2876864Y-14464348D01*
X2867340Y-14473871D01*
X2848293Y-14483395D01*
X2829245Y-14483395D01*
X2810197Y-14473871D01*
X2800674Y-14464348D01*
X2791150Y-14445300D01*
X2781626Y-14407205D01*
X2781626Y-14359586D01*
X2791150Y-14321491D01*
X2800674Y-14302443D01*
X2810197Y-14292919D01*
X2829245Y-14283395D01*
X2981626Y-14464348D02*
X2991150Y-14473871D01*
X2981626Y-14483395D01*
X2972102Y-14473871D01*
X2981626Y-14464348D01*
X2981626Y-14483395D01*
X3057816Y-14283395D02*
X3191150Y-14283395D01*
X3105435Y-14483395D01*
X3305435Y-14283395D02*
X3324483Y-14283395D01*
X3343531Y-14292919D01*
X3353055Y-14302443D01*
X3362578Y-14321491D01*
X3372102Y-14359586D01*
X3372102Y-14407205D01*
X3362578Y-14445300D01*
X3353055Y-14464348D01*
X3343531Y-14473871D01*
X3324483Y-14483395D01*
X3305435Y-14483395D01*
X3286388Y-14473871D01*
X3276864Y-14464348D01*
X3267340Y-14445300D01*
X3257816Y-14407205D01*
X3257816Y-14359586D01*
X3267340Y-14321491D01*
X3276864Y-14302443D01*
X3286388Y-14292919D01*
X3305435Y-14283395D01*
X3495912Y-14283395D02*
X3514959Y-14283395D01*
X3534007Y-14292919D01*
X3543531Y-14302443D01*
X3553055Y-14321491D01*
X3562578Y-14359586D01*
X3562578Y-14407205D01*
X3553055Y-14445300D01*
X3543531Y-14464348D01*
X3534007Y-14473871D01*
X3514959Y-14483395D01*
X3495912Y-14483395D01*
X3476864Y-14473871D01*
X3467340Y-14464348D01*
X3457816Y-14445300D01*
X3448293Y-14407205D01*
X3448293Y-14359586D01*
X3457816Y-14321491D01*
X3467340Y-14302443D01*
X3476864Y-14292919D01*
X3495912Y-14283395D01*
X3648293Y-14483395D02*
X3648293Y-14350062D01*
X3648293Y-14369110D02*
X3657816Y-14359586D01*
X3676864Y-14350062D01*
X3705435Y-14350062D01*
X3724483Y-14359586D01*
X3734007Y-14378633D01*
X3734007Y-14483395D01*
X3734007Y-14378633D02*
X3743531Y-14359586D01*
X3762578Y-14350062D01*
X3791150Y-14350062D01*
X3810197Y-14359586D01*
X3819721Y-14378633D01*
X3819721Y-14483395D01*
X3914959Y-14483395D02*
X3914959Y-14350062D01*
X3914959Y-14369110D02*
X3924483Y-14359586D01*
X3943531Y-14350062D01*
X3972102Y-14350062D01*
X3991150Y-14359586D01*
X4000674Y-14378633D01*
X4000674Y-14483395D01*
X4000674Y-14378633D02*
X4010197Y-14359586D01*
X4029245Y-14350062D01*
X4057816Y-14350062D01*
X4076864Y-14359586D01*
X4086388Y-14378633D01*
X4086388Y-14483395D01*
X4476864Y-14273871D02*
X4305436Y-14531014D01*
X4734007Y-14283395D02*
X4753055Y-14283395D01*
X4772102Y-14292919D01*
X4781626Y-14302443D01*
X4791150Y-14321491D01*
X4800674Y-14359586D01*
X4800674Y-14407205D01*
X4791150Y-14445300D01*
X4781626Y-14464348D01*
X4772102Y-14473871D01*
X4753055Y-14483395D01*
X4734007Y-14483395D01*
X4714959Y-14473871D01*
X4705436Y-14464348D01*
X4695912Y-14445300D01*
X4686388Y-14407205D01*
X4686388Y-14359586D01*
X4695912Y-14321491D01*
X4705436Y-14302443D01*
X4714959Y-14292919D01*
X4734007Y-14283395D01*
X4886388Y-14464348D02*
X4895912Y-14473871D01*
X4886388Y-14483395D01*
X4876864Y-14473871D01*
X4886388Y-14464348D01*
X4886388Y-14483395D01*
X5019721Y-14283395D02*
X5038769Y-14283395D01*
X5057817Y-14292919D01*
X5067340Y-14302443D01*
X5076864Y-14321491D01*
X5086388Y-14359586D01*
X5086388Y-14407205D01*
X5076864Y-14445300D01*
X5067340Y-14464348D01*
X5057817Y-14473871D01*
X5038769Y-14483395D01*
X5019721Y-14483395D01*
X5000674Y-14473871D01*
X4991150Y-14464348D01*
X4981626Y-14445300D01*
X4972102Y-14407205D01*
X4972102Y-14359586D01*
X4981626Y-14321491D01*
X4991150Y-14302443D01*
X5000674Y-14292919D01*
X5019721Y-14283395D01*
X5162578Y-14302443D02*
X5172102Y-14292919D01*
X5191150Y-14283395D01*
X5238769Y-14283395D01*
X5257817Y-14292919D01*
X5267340Y-14302443D01*
X5276864Y-14321491D01*
X5276864Y-14340538D01*
X5267340Y-14369110D01*
X5153055Y-14483395D01*
X5276864Y-14483395D01*
X5343531Y-14283395D02*
X5476864Y-14283395D01*
X5391150Y-14483395D01*
X5638769Y-14283395D02*
X5600674Y-14283395D01*
X5581626Y-14292919D01*
X5572102Y-14302443D01*
X5553055Y-14331014D01*
X5543531Y-14369110D01*
X5543531Y-14445300D01*
X5553055Y-14464348D01*
X5562578Y-14473871D01*
X5581626Y-14483395D01*
X5619721Y-14483395D01*
X5638769Y-14473871D01*
X5648293Y-14464348D01*
X5657816Y-14445300D01*
X5657816Y-14397681D01*
X5648293Y-14378633D01*
X5638769Y-14369110D01*
X5619721Y-14359586D01*
X5581626Y-14359586D01*
X5562578Y-14369110D01*
X5553055Y-14378633D01*
X5543531Y-14397681D01*
X5734007Y-14283395D02*
X5734007Y-14321491D01*
X5810197Y-14283395D02*
X5810197Y-14321491D01*
X6105435Y-14559586D02*
X6095912Y-14550062D01*
X6076864Y-14521491D01*
X6067340Y-14502443D01*
X6057816Y-14473871D01*
X6048293Y-14426252D01*
X6048293Y-14388157D01*
X6057816Y-14340538D01*
X6067340Y-14311967D01*
X6076864Y-14292919D01*
X6095912Y-14264348D01*
X6105435Y-14254824D01*
X6286388Y-14483395D02*
X6172102Y-14483395D01*
X6229245Y-14483395D02*
X6229245Y-14283395D01*
X6210197Y-14311967D01*
X6191150Y-14331014D01*
X6172102Y-14340538D01*
X6353055Y-14283395D02*
X6476864Y-14283395D01*
X6410197Y-14359586D01*
X6438769Y-14359586D01*
X6457816Y-14369110D01*
X6467340Y-14378633D01*
X6476864Y-14397681D01*
X6476864Y-14445300D01*
X6467340Y-14464348D01*
X6457816Y-14473871D01*
X6438769Y-14483395D01*
X6381626Y-14483395D01*
X6362578Y-14473871D01*
X6353055Y-14464348D01*
X6648293Y-14350062D02*
X6648293Y-14483395D01*
X6600674Y-14273871D02*
X6553055Y-14416729D01*
X6676864Y-14416729D01*
X6905435Y-14483395D02*
X6905435Y-14283395D01*
X6991150Y-14483395D02*
X6991150Y-14378633D01*
X6981626Y-14359586D01*
X6962578Y-14350062D01*
X6934007Y-14350062D01*
X6914959Y-14359586D01*
X6905435Y-14369110D01*
X7114959Y-14483395D02*
X7095912Y-14473871D01*
X7086388Y-14464348D01*
X7076864Y-14445300D01*
X7076864Y-14388157D01*
X7086388Y-14369110D01*
X7095912Y-14359586D01*
X7114959Y-14350062D01*
X7143531Y-14350062D01*
X7162578Y-14359586D01*
X7172102Y-14369110D01*
X7181626Y-14388157D01*
X7181626Y-14445300D01*
X7172102Y-14464348D01*
X7162578Y-14473871D01*
X7143531Y-14483395D01*
X7114959Y-14483395D01*
X7295912Y-14483395D02*
X7276864Y-14473871D01*
X7267340Y-14454824D01*
X7267340Y-14283395D01*
X7448293Y-14473871D02*
X7429245Y-14483395D01*
X7391150Y-14483395D01*
X7372102Y-14473871D01*
X7362578Y-14454824D01*
X7362578Y-14378633D01*
X7372102Y-14359586D01*
X7391150Y-14350062D01*
X7429245Y-14350062D01*
X7448293Y-14359586D01*
X7457816Y-14378633D01*
X7457816Y-14397681D01*
X7362578Y-14416729D01*
X7534007Y-14473871D02*
X7553055Y-14483395D01*
X7591150Y-14483395D01*
X7610197Y-14473871D01*
X7619721Y-14454824D01*
X7619721Y-14445300D01*
X7610197Y-14426252D01*
X7591150Y-14416729D01*
X7562578Y-14416729D01*
X7543531Y-14407205D01*
X7534007Y-14388157D01*
X7534007Y-14378633D01*
X7543531Y-14359586D01*
X7562578Y-14350062D01*
X7591150Y-14350062D01*
X7610197Y-14359586D01*
X7686388Y-14559586D02*
X7695912Y-14550062D01*
X7714959Y-14521491D01*
X7724483Y-14502443D01*
X7734007Y-14473871D01*
X7743531Y-14426252D01*
X7743531Y-14388157D01*
X7734007Y-14340538D01*
X7724483Y-14311967D01*
X7714959Y-14292919D01*
X7695912Y-14264348D01*
X7686388Y-14254824D01*
D14*
X2481531Y-14604919D02*
X2481531Y-14708919D01*
X2429531Y-14656919D02*
X2533531Y-14656919D01*
D11*
X2895912Y-14747395D02*
X2781626Y-14747395D01*
X2838769Y-14747395D02*
X2838769Y-14547395D01*
X2819721Y-14575967D01*
X2800674Y-14595014D01*
X2781626Y-14604538D01*
X2981626Y-14728348D02*
X2991150Y-14737871D01*
X2981626Y-14747395D01*
X2972102Y-14737871D01*
X2981626Y-14728348D01*
X2981626Y-14747395D01*
X3114959Y-14547395D02*
X3134007Y-14547395D01*
X3153055Y-14556919D01*
X3162578Y-14566443D01*
X3172102Y-14585491D01*
X3181626Y-14623586D01*
X3181626Y-14671205D01*
X3172102Y-14709300D01*
X3162578Y-14728348D01*
X3153055Y-14737871D01*
X3134007Y-14747395D01*
X3114959Y-14747395D01*
X3095912Y-14737871D01*
X3086388Y-14728348D01*
X3076864Y-14709300D01*
X3067340Y-14671205D01*
X3067340Y-14623586D01*
X3076864Y-14585491D01*
X3086388Y-14566443D01*
X3095912Y-14556919D01*
X3114959Y-14547395D01*
X3353055Y-14614062D02*
X3353055Y-14747395D01*
X3305435Y-14537871D02*
X3257816Y-14680729D01*
X3381626Y-14680729D01*
X3495912Y-14547395D02*
X3514959Y-14547395D01*
X3534007Y-14556919D01*
X3543531Y-14566443D01*
X3553055Y-14585491D01*
X3562578Y-14623586D01*
X3562578Y-14671205D01*
X3553055Y-14709300D01*
X3543531Y-14728348D01*
X3534007Y-14737871D01*
X3514959Y-14747395D01*
X3495912Y-14747395D01*
X3476864Y-14737871D01*
X3467340Y-14728348D01*
X3457816Y-14709300D01*
X3448293Y-14671205D01*
X3448293Y-14623586D01*
X3457816Y-14585491D01*
X3467340Y-14566443D01*
X3476864Y-14556919D01*
X3495912Y-14547395D01*
X3648293Y-14747395D02*
X3648293Y-14614062D01*
X3648293Y-14633110D02*
X3657816Y-14623586D01*
X3676864Y-14614062D01*
X3705435Y-14614062D01*
X3724483Y-14623586D01*
X3734007Y-14642633D01*
X3734007Y-14747395D01*
X3734007Y-14642633D02*
X3743531Y-14623586D01*
X3762578Y-14614062D01*
X3791150Y-14614062D01*
X3810197Y-14623586D01*
X3819721Y-14642633D01*
X3819721Y-14747395D01*
X3914959Y-14747395D02*
X3914959Y-14614062D01*
X3914959Y-14633110D02*
X3924483Y-14623586D01*
X3943531Y-14614062D01*
X3972102Y-14614062D01*
X3991150Y-14623586D01*
X4000674Y-14642633D01*
X4000674Y-14747395D01*
X4000674Y-14642633D02*
X4010197Y-14623586D01*
X4029245Y-14614062D01*
X4057816Y-14614062D01*
X4076864Y-14623586D01*
X4086388Y-14642633D01*
X4086388Y-14747395D01*
X4476864Y-14537871D02*
X4305436Y-14795014D01*
X4734007Y-14547395D02*
X4753055Y-14547395D01*
X4772102Y-14556919D01*
X4781626Y-14566443D01*
X4791150Y-14585491D01*
X4800674Y-14623586D01*
X4800674Y-14671205D01*
X4791150Y-14709300D01*
X4781626Y-14728348D01*
X4772102Y-14737871D01*
X4753055Y-14747395D01*
X4734007Y-14747395D01*
X4714959Y-14737871D01*
X4705436Y-14728348D01*
X4695912Y-14709300D01*
X4686388Y-14671205D01*
X4686388Y-14623586D01*
X4695912Y-14585491D01*
X4705436Y-14566443D01*
X4714959Y-14556919D01*
X4734007Y-14547395D01*
X4886388Y-14728348D02*
X4895912Y-14737871D01*
X4886388Y-14747395D01*
X4876864Y-14737871D01*
X4886388Y-14728348D01*
X4886388Y-14747395D01*
X5019721Y-14547395D02*
X5038769Y-14547395D01*
X5057817Y-14556919D01*
X5067340Y-14566443D01*
X5076864Y-14585491D01*
X5086388Y-14623586D01*
X5086388Y-14671205D01*
X5076864Y-14709300D01*
X5067340Y-14728348D01*
X5057817Y-14737871D01*
X5038769Y-14747395D01*
X5019721Y-14747395D01*
X5000674Y-14737871D01*
X4991150Y-14728348D01*
X4981626Y-14709300D01*
X4972102Y-14671205D01*
X4972102Y-14623586D01*
X4981626Y-14585491D01*
X4991150Y-14566443D01*
X5000674Y-14556919D01*
X5019721Y-14547395D01*
X5257817Y-14614062D02*
X5257817Y-14747395D01*
X5210197Y-14537871D02*
X5162578Y-14680729D01*
X5286388Y-14680729D01*
X5400674Y-14547395D02*
X5419721Y-14547395D01*
X5438769Y-14556919D01*
X5448293Y-14566443D01*
X5457817Y-14585491D01*
X5467340Y-14623586D01*
X5467340Y-14671205D01*
X5457817Y-14709300D01*
X5448293Y-14728348D01*
X5438769Y-14737871D01*
X5419721Y-14747395D01*
X5400674Y-14747395D01*
X5381626Y-14737871D01*
X5372102Y-14728348D01*
X5362578Y-14709300D01*
X5353055Y-14671205D01*
X5353055Y-14623586D01*
X5362578Y-14585491D01*
X5372102Y-14566443D01*
X5381626Y-14556919D01*
X5400674Y-14547395D01*
X5562578Y-14747395D02*
X5600674Y-14747395D01*
X5619721Y-14737871D01*
X5629245Y-14728348D01*
X5648293Y-14699776D01*
X5657816Y-14661681D01*
X5657816Y-14585491D01*
X5648293Y-14566443D01*
X5638769Y-14556919D01*
X5619721Y-14547395D01*
X5581626Y-14547395D01*
X5562578Y-14556919D01*
X5553055Y-14566443D01*
X5543531Y-14585491D01*
X5543531Y-14633110D01*
X5553055Y-14652157D01*
X5562578Y-14661681D01*
X5581626Y-14671205D01*
X5619721Y-14671205D01*
X5638769Y-14661681D01*
X5648293Y-14652157D01*
X5657816Y-14633110D01*
X5734007Y-14547395D02*
X5734007Y-14585491D01*
X5810197Y-14547395D02*
X5810197Y-14585491D01*
X6105435Y-14823586D02*
X6095912Y-14814062D01*
X6076864Y-14785491D01*
X6067340Y-14766443D01*
X6057816Y-14737871D01*
X6048293Y-14690252D01*
X6048293Y-14652157D01*
X6057816Y-14604538D01*
X6067340Y-14575967D01*
X6076864Y-14556919D01*
X6095912Y-14528348D01*
X6105435Y-14518824D01*
X6286388Y-14747395D02*
X6172102Y-14747395D01*
X6229245Y-14747395D02*
X6229245Y-14547395D01*
X6210197Y-14575967D01*
X6191150Y-14595014D01*
X6172102Y-14604538D01*
X6353055Y-14547395D02*
X6476864Y-14547395D01*
X6410197Y-14623586D01*
X6438769Y-14623586D01*
X6457816Y-14633110D01*
X6467340Y-14642633D01*
X6476864Y-14661681D01*
X6476864Y-14709300D01*
X6467340Y-14728348D01*
X6457816Y-14737871D01*
X6438769Y-14747395D01*
X6381626Y-14747395D01*
X6362578Y-14737871D01*
X6353055Y-14728348D01*
X6648293Y-14614062D02*
X6648293Y-14747395D01*
X6600674Y-14537871D02*
X6553055Y-14680729D01*
X6676864Y-14680729D01*
X6905435Y-14747395D02*
X6905435Y-14547395D01*
X6991150Y-14747395D02*
X6991150Y-14642633D01*
X6981626Y-14623586D01*
X6962578Y-14614062D01*
X6934007Y-14614062D01*
X6914959Y-14623586D01*
X6905435Y-14633110D01*
X7114959Y-14747395D02*
X7095912Y-14737871D01*
X7086388Y-14728348D01*
X7076864Y-14709300D01*
X7076864Y-14652157D01*
X7086388Y-14633110D01*
X7095912Y-14623586D01*
X7114959Y-14614062D01*
X7143531Y-14614062D01*
X7162578Y-14623586D01*
X7172102Y-14633110D01*
X7181626Y-14652157D01*
X7181626Y-14709300D01*
X7172102Y-14728348D01*
X7162578Y-14737871D01*
X7143531Y-14747395D01*
X7114959Y-14747395D01*
X7295912Y-14747395D02*
X7276864Y-14737871D01*
X7267340Y-14718824D01*
X7267340Y-14547395D01*
X7448293Y-14737871D02*
X7429245Y-14747395D01*
X7391150Y-14747395D01*
X7372102Y-14737871D01*
X7362578Y-14718824D01*
X7362578Y-14642633D01*
X7372102Y-14623586D01*
X7391150Y-14614062D01*
X7429245Y-14614062D01*
X7448293Y-14623586D01*
X7457816Y-14642633D01*
X7457816Y-14661681D01*
X7362578Y-14680729D01*
X7534007Y-14737871D02*
X7553055Y-14747395D01*
X7591150Y-14747395D01*
X7610197Y-14737871D01*
X7619721Y-14718824D01*
X7619721Y-14709300D01*
X7610197Y-14690252D01*
X7591150Y-14680729D01*
X7562578Y-14680729D01*
X7543531Y-14671205D01*
X7534007Y-14652157D01*
X7534007Y-14642633D01*
X7543531Y-14623586D01*
X7562578Y-14614062D01*
X7591150Y-14614062D01*
X7610197Y-14623586D01*
X7686388Y-14823586D02*
X7695912Y-14814062D01*
X7714959Y-14785491D01*
X7724483Y-14766443D01*
X7734007Y-14737871D01*
X7743531Y-14690252D01*
X7743531Y-14652157D01*
X7734007Y-14604538D01*
X7724483Y-14575967D01*
X7714959Y-14556919D01*
X7695912Y-14528348D01*
X7686388Y-14518824D01*
D15*
X2517536Y-14959535D02*
X2517536Y-14882304D01*
X2440305Y-14882304D01*
X2440305Y-14959535D01*
X2517536Y-14959535D01*
D11*
X2895912Y-15011395D02*
X2781626Y-15011395D01*
X2838769Y-15011395D02*
X2838769Y-14811395D01*
X2819721Y-14839967D01*
X2800674Y-14859014D01*
X2781626Y-14868538D01*
X2981626Y-14992348D02*
X2991150Y-15001871D01*
X2981626Y-15011395D01*
X2972102Y-15001871D01*
X2981626Y-14992348D01*
X2981626Y-15011395D01*
X3114959Y-14811395D02*
X3134007Y-14811395D01*
X3153055Y-14820919D01*
X3162578Y-14830443D01*
X3172102Y-14849491D01*
X3181626Y-14887586D01*
X3181626Y-14935205D01*
X3172102Y-14973300D01*
X3162578Y-14992348D01*
X3153055Y-15001871D01*
X3134007Y-15011395D01*
X3114959Y-15011395D01*
X3095912Y-15001871D01*
X3086388Y-14992348D01*
X3076864Y-14973300D01*
X3067340Y-14935205D01*
X3067340Y-14887586D01*
X3076864Y-14849491D01*
X3086388Y-14830443D01*
X3095912Y-14820919D01*
X3114959Y-14811395D01*
X3276864Y-15011395D02*
X3314959Y-15011395D01*
X3334007Y-15001871D01*
X3343531Y-14992348D01*
X3362578Y-14963776D01*
X3372102Y-14925681D01*
X3372102Y-14849491D01*
X3362578Y-14830443D01*
X3353055Y-14820919D01*
X3334007Y-14811395D01*
X3295912Y-14811395D01*
X3276864Y-14820919D01*
X3267340Y-14830443D01*
X3257816Y-14849491D01*
X3257816Y-14897110D01*
X3267340Y-14916157D01*
X3276864Y-14925681D01*
X3295912Y-14935205D01*
X3334007Y-14935205D01*
X3353055Y-14925681D01*
X3362578Y-14916157D01*
X3372102Y-14897110D01*
X3448293Y-14830443D02*
X3457816Y-14820919D01*
X3476864Y-14811395D01*
X3524483Y-14811395D01*
X3543531Y-14820919D01*
X3553055Y-14830443D01*
X3562578Y-14849491D01*
X3562578Y-14868538D01*
X3553055Y-14897110D01*
X3438769Y-15011395D01*
X3562578Y-15011395D01*
X3648293Y-15011395D02*
X3648293Y-14878062D01*
X3648293Y-14897110D02*
X3657816Y-14887586D01*
X3676864Y-14878062D01*
X3705435Y-14878062D01*
X3724483Y-14887586D01*
X3734007Y-14906633D01*
X3734007Y-15011395D01*
X3734007Y-14906633D02*
X3743531Y-14887586D01*
X3762578Y-14878062D01*
X3791150Y-14878062D01*
X3810197Y-14887586D01*
X3819721Y-14906633D01*
X3819721Y-15011395D01*
X3914959Y-15011395D02*
X3914959Y-14878062D01*
X3914959Y-14897110D02*
X3924483Y-14887586D01*
X3943531Y-14878062D01*
X3972102Y-14878062D01*
X3991150Y-14887586D01*
X4000674Y-14906633D01*
X4000674Y-15011395D01*
X4000674Y-14906633D02*
X4010197Y-14887586D01*
X4029245Y-14878062D01*
X4057816Y-14878062D01*
X4076864Y-14887586D01*
X4086388Y-14906633D01*
X4086388Y-15011395D01*
X4476864Y-14801871D02*
X4305436Y-15059014D01*
X4734007Y-14811395D02*
X4753055Y-14811395D01*
X4772102Y-14820919D01*
X4781626Y-14830443D01*
X4791150Y-14849491D01*
X4800674Y-14887586D01*
X4800674Y-14935205D01*
X4791150Y-14973300D01*
X4781626Y-14992348D01*
X4772102Y-15001871D01*
X4753055Y-15011395D01*
X4734007Y-15011395D01*
X4714959Y-15001871D01*
X4705436Y-14992348D01*
X4695912Y-14973300D01*
X4686388Y-14935205D01*
X4686388Y-14887586D01*
X4695912Y-14849491D01*
X4705436Y-14830443D01*
X4714959Y-14820919D01*
X4734007Y-14811395D01*
X4886388Y-14992348D02*
X4895912Y-15001871D01*
X4886388Y-15011395D01*
X4876864Y-15001871D01*
X4886388Y-14992348D01*
X4886388Y-15011395D01*
X5019721Y-14811395D02*
X5038769Y-14811395D01*
X5057817Y-14820919D01*
X5067340Y-14830443D01*
X5076864Y-14849491D01*
X5086388Y-14887586D01*
X5086388Y-14935205D01*
X5076864Y-14973300D01*
X5067340Y-14992348D01*
X5057817Y-15001871D01*
X5038769Y-15011395D01*
X5019721Y-15011395D01*
X5000674Y-15001871D01*
X4991150Y-14992348D01*
X4981626Y-14973300D01*
X4972102Y-14935205D01*
X4972102Y-14887586D01*
X4981626Y-14849491D01*
X4991150Y-14830443D01*
X5000674Y-14820919D01*
X5019721Y-14811395D01*
X5257817Y-14878062D02*
X5257817Y-15011395D01*
X5210197Y-14801871D02*
X5162578Y-14944729D01*
X5286388Y-14944729D01*
X5343531Y-14811395D02*
X5467340Y-14811395D01*
X5400674Y-14887586D01*
X5429245Y-14887586D01*
X5448293Y-14897110D01*
X5457817Y-14906633D01*
X5467340Y-14925681D01*
X5467340Y-14973300D01*
X5457817Y-14992348D01*
X5448293Y-15001871D01*
X5429245Y-15011395D01*
X5372102Y-15011395D01*
X5353055Y-15001871D01*
X5343531Y-14992348D01*
X5591150Y-14811395D02*
X5610197Y-14811395D01*
X5629245Y-14820919D01*
X5638769Y-14830443D01*
X5648293Y-14849491D01*
X5657816Y-14887586D01*
X5657816Y-14935205D01*
X5648293Y-14973300D01*
X5638769Y-14992348D01*
X5629245Y-15001871D01*
X5610197Y-15011395D01*
X5591150Y-15011395D01*
X5572102Y-15001871D01*
X5562578Y-14992348D01*
X5553055Y-14973300D01*
X5543531Y-14935205D01*
X5543531Y-14887586D01*
X5553055Y-14849491D01*
X5562578Y-14830443D01*
X5572102Y-14820919D01*
X5591150Y-14811395D01*
X5734007Y-14811395D02*
X5734007Y-14849491D01*
X5810197Y-14811395D02*
X5810197Y-14849491D01*
X6105435Y-15087586D02*
X6095912Y-15078062D01*
X6076864Y-15049491D01*
X6067340Y-15030443D01*
X6057816Y-15001871D01*
X6048293Y-14954252D01*
X6048293Y-14916157D01*
X6057816Y-14868538D01*
X6067340Y-14839967D01*
X6076864Y-14820919D01*
X6095912Y-14792348D01*
X6105435Y-14782824D01*
X6172102Y-14830443D02*
X6181626Y-14820919D01*
X6200674Y-14811395D01*
X6248293Y-14811395D01*
X6267340Y-14820919D01*
X6276864Y-14830443D01*
X6286388Y-14849491D01*
X6286388Y-14868538D01*
X6276864Y-14897110D01*
X6162578Y-15011395D01*
X6286388Y-15011395D01*
X6381626Y-15011395D02*
X6419721Y-15011395D01*
X6438769Y-15001871D01*
X6448293Y-14992348D01*
X6467340Y-14963776D01*
X6476864Y-14925681D01*
X6476864Y-14849491D01*
X6467340Y-14830443D01*
X6457816Y-14820919D01*
X6438769Y-14811395D01*
X6400674Y-14811395D01*
X6381626Y-14820919D01*
X6372102Y-14830443D01*
X6362578Y-14849491D01*
X6362578Y-14897110D01*
X6372102Y-14916157D01*
X6381626Y-14925681D01*
X6400674Y-14935205D01*
X6438769Y-14935205D01*
X6457816Y-14925681D01*
X6467340Y-14916157D01*
X6476864Y-14897110D01*
X6714959Y-15011395D02*
X6714959Y-14811395D01*
X6800674Y-15011395D02*
X6800674Y-14906633D01*
X6791150Y-14887586D01*
X6772102Y-14878062D01*
X6743531Y-14878062D01*
X6724483Y-14887586D01*
X6714959Y-14897110D01*
X6924483Y-15011395D02*
X6905435Y-15001871D01*
X6895912Y-14992348D01*
X6886388Y-14973300D01*
X6886388Y-14916157D01*
X6895912Y-14897110D01*
X6905435Y-14887586D01*
X6924483Y-14878062D01*
X6953055Y-14878062D01*
X6972102Y-14887586D01*
X6981626Y-14897110D01*
X6991150Y-14916157D01*
X6991150Y-14973300D01*
X6981626Y-14992348D01*
X6972102Y-15001871D01*
X6953055Y-15011395D01*
X6924483Y-15011395D01*
X7105435Y-15011395D02*
X7086388Y-15001871D01*
X7076864Y-14982824D01*
X7076864Y-14811395D01*
X7257816Y-15001871D02*
X7238769Y-15011395D01*
X7200674Y-15011395D01*
X7181626Y-15001871D01*
X7172102Y-14982824D01*
X7172102Y-14906633D01*
X7181626Y-14887586D01*
X7200674Y-14878062D01*
X7238769Y-14878062D01*
X7257816Y-14887586D01*
X7267340Y-14906633D01*
X7267340Y-14925681D01*
X7172102Y-14944729D01*
X7343531Y-15001871D02*
X7362578Y-15011395D01*
X7400674Y-15011395D01*
X7419721Y-15001871D01*
X7429245Y-14982824D01*
X7429245Y-14973300D01*
X7419721Y-14954252D01*
X7400674Y-14944729D01*
X7372102Y-14944729D01*
X7353055Y-14935205D01*
X7343531Y-14916157D01*
X7343531Y-14906633D01*
X7353055Y-14887586D01*
X7372102Y-14878062D01*
X7400674Y-14878062D01*
X7419721Y-14887586D01*
X7495912Y-15087586D02*
X7505435Y-15078062D01*
X7524483Y-15049491D01*
X7534007Y-15030443D01*
X7543531Y-15001871D01*
X7553055Y-14954252D01*
X7553055Y-14916157D01*
X7543531Y-14868538D01*
X7534007Y-14839967D01*
X7524483Y-14820919D01*
X7505435Y-14792348D01*
X7495912Y-14782824D01*
D16*
X2473531Y-15244919D02*
X2533531Y-15184919D01*
X2473531Y-15124919D01*
X2413531Y-15184919D01*
X2473531Y-15244919D01*
D11*
X2895912Y-15275395D02*
X2781626Y-15275395D01*
X2838769Y-15275395D02*
X2838769Y-15075395D01*
X2819721Y-15103967D01*
X2800674Y-15123014D01*
X2781626Y-15132538D01*
X2981626Y-15256348D02*
X2991150Y-15265871D01*
X2981626Y-15275395D01*
X2972102Y-15265871D01*
X2981626Y-15256348D01*
X2981626Y-15275395D01*
X3067340Y-15094443D02*
X3076864Y-15084919D01*
X3095912Y-15075395D01*
X3143531Y-15075395D01*
X3162578Y-15084919D01*
X3172102Y-15094443D01*
X3181626Y-15113491D01*
X3181626Y-15132538D01*
X3172102Y-15161110D01*
X3057816Y-15275395D01*
X3181626Y-15275395D01*
X3305435Y-15075395D02*
X3324483Y-15075395D01*
X3343531Y-15084919D01*
X3353055Y-15094443D01*
X3362578Y-15113491D01*
X3372102Y-15151586D01*
X3372102Y-15199205D01*
X3362578Y-15237300D01*
X3353055Y-15256348D01*
X3343531Y-15265871D01*
X3324483Y-15275395D01*
X3305435Y-15275395D01*
X3286388Y-15265871D01*
X3276864Y-15256348D01*
X3267340Y-15237300D01*
X3257816Y-15199205D01*
X3257816Y-15151586D01*
X3267340Y-15113491D01*
X3276864Y-15094443D01*
X3286388Y-15084919D01*
X3305435Y-15075395D01*
X3495912Y-15075395D02*
X3514959Y-15075395D01*
X3534007Y-15084919D01*
X3543531Y-15094443D01*
X3553055Y-15113491D01*
X3562578Y-15151586D01*
X3562578Y-15199205D01*
X3553055Y-15237300D01*
X3543531Y-15256348D01*
X3534007Y-15265871D01*
X3514959Y-15275395D01*
X3495912Y-15275395D01*
X3476864Y-15265871D01*
X3467340Y-15256348D01*
X3457816Y-15237300D01*
X3448293Y-15199205D01*
X3448293Y-15151586D01*
X3457816Y-15113491D01*
X3467340Y-15094443D01*
X3476864Y-15084919D01*
X3495912Y-15075395D01*
X3648293Y-15275395D02*
X3648293Y-15142062D01*
X3648293Y-15161110D02*
X3657816Y-15151586D01*
X3676864Y-15142062D01*
X3705435Y-15142062D01*
X3724483Y-15151586D01*
X3734007Y-15170633D01*
X3734007Y-15275395D01*
X3734007Y-15170633D02*
X3743531Y-15151586D01*
X3762578Y-15142062D01*
X3791150Y-15142062D01*
X3810197Y-15151586D01*
X3819721Y-15170633D01*
X3819721Y-15275395D01*
X3914959Y-15275395D02*
X3914959Y-15142062D01*
X3914959Y-15161110D02*
X3924483Y-15151586D01*
X3943531Y-15142062D01*
X3972102Y-15142062D01*
X3991150Y-15151586D01*
X4000674Y-15170633D01*
X4000674Y-15275395D01*
X4000674Y-15170633D02*
X4010197Y-15151586D01*
X4029245Y-15142062D01*
X4057816Y-15142062D01*
X4076864Y-15151586D01*
X4086388Y-15170633D01*
X4086388Y-15275395D01*
X4476864Y-15065871D02*
X4305436Y-15323014D01*
X4734007Y-15075395D02*
X4753055Y-15075395D01*
X4772102Y-15084919D01*
X4781626Y-15094443D01*
X4791150Y-15113491D01*
X4800674Y-15151586D01*
X4800674Y-15199205D01*
X4791150Y-15237300D01*
X4781626Y-15256348D01*
X4772102Y-15265871D01*
X4753055Y-15275395D01*
X4734007Y-15275395D01*
X4714959Y-15265871D01*
X4705436Y-15256348D01*
X4695912Y-15237300D01*
X4686388Y-15199205D01*
X4686388Y-15151586D01*
X4695912Y-15113491D01*
X4705436Y-15094443D01*
X4714959Y-15084919D01*
X4734007Y-15075395D01*
X4886388Y-15256348D02*
X4895912Y-15265871D01*
X4886388Y-15275395D01*
X4876864Y-15265871D01*
X4886388Y-15256348D01*
X4886388Y-15275395D01*
X5019721Y-15075395D02*
X5038769Y-15075395D01*
X5057817Y-15084919D01*
X5067340Y-15094443D01*
X5076864Y-15113491D01*
X5086388Y-15151586D01*
X5086388Y-15199205D01*
X5076864Y-15237300D01*
X5067340Y-15256348D01*
X5057817Y-15265871D01*
X5038769Y-15275395D01*
X5019721Y-15275395D01*
X5000674Y-15265871D01*
X4991150Y-15256348D01*
X4981626Y-15237300D01*
X4972102Y-15199205D01*
X4972102Y-15151586D01*
X4981626Y-15113491D01*
X4991150Y-15094443D01*
X5000674Y-15084919D01*
X5019721Y-15075395D01*
X5257817Y-15142062D02*
X5257817Y-15275395D01*
X5210197Y-15065871D02*
X5162578Y-15208729D01*
X5286388Y-15208729D01*
X5343531Y-15075395D02*
X5476864Y-15075395D01*
X5391150Y-15275395D01*
X5543531Y-15094443D02*
X5553055Y-15084919D01*
X5572102Y-15075395D01*
X5619721Y-15075395D01*
X5638769Y-15084919D01*
X5648293Y-15094443D01*
X5657816Y-15113491D01*
X5657816Y-15132538D01*
X5648293Y-15161110D01*
X5534007Y-15275395D01*
X5657816Y-15275395D01*
X5734007Y-15075395D02*
X5734007Y-15113491D01*
X5810197Y-15075395D02*
X5810197Y-15113491D01*
X6105435Y-15351586D02*
X6095912Y-15342062D01*
X6076864Y-15313491D01*
X6067340Y-15294443D01*
X6057816Y-15265871D01*
X6048293Y-15218252D01*
X6048293Y-15180157D01*
X6057816Y-15132538D01*
X6067340Y-15103967D01*
X6076864Y-15084919D01*
X6095912Y-15056348D01*
X6105435Y-15046824D01*
X6286388Y-15275395D02*
X6172102Y-15275395D01*
X6229245Y-15275395D02*
X6229245Y-15075395D01*
X6210197Y-15103967D01*
X6191150Y-15123014D01*
X6172102Y-15132538D01*
X6353055Y-15075395D02*
X6476864Y-15075395D01*
X6410197Y-15151586D01*
X6438769Y-15151586D01*
X6457816Y-15161110D01*
X6467340Y-15170633D01*
X6476864Y-15189681D01*
X6476864Y-15237300D01*
X6467340Y-15256348D01*
X6457816Y-15265871D01*
X6438769Y-15275395D01*
X6381626Y-15275395D01*
X6362578Y-15265871D01*
X6353055Y-15256348D01*
X6648293Y-15142062D02*
X6648293Y-15275395D01*
X6600674Y-15065871D02*
X6553055Y-15208729D01*
X6676864Y-15208729D01*
X6905435Y-15275395D02*
X6905435Y-15075395D01*
X6991150Y-15275395D02*
X6991150Y-15170633D01*
X6981626Y-15151586D01*
X6962578Y-15142062D01*
X6934007Y-15142062D01*
X6914959Y-15151586D01*
X6905435Y-15161110D01*
X7114959Y-15275395D02*
X7095912Y-15265871D01*
X7086388Y-15256348D01*
X7076864Y-15237300D01*
X7076864Y-15180157D01*
X7086388Y-15161110D01*
X7095912Y-15151586D01*
X7114959Y-15142062D01*
X7143531Y-15142062D01*
X7162578Y-15151586D01*
X7172102Y-15161110D01*
X7181626Y-15180157D01*
X7181626Y-15237300D01*
X7172102Y-15256348D01*
X7162578Y-15265871D01*
X7143531Y-15275395D01*
X7114959Y-15275395D01*
X7295912Y-15275395D02*
X7276864Y-15265871D01*
X7267340Y-15246824D01*
X7267340Y-15075395D01*
X7448293Y-15265871D02*
X7429245Y-15275395D01*
X7391150Y-15275395D01*
X7372102Y-15265871D01*
X7362578Y-15246824D01*
X7362578Y-15170633D01*
X7372102Y-15151586D01*
X7391150Y-15142062D01*
X7429245Y-15142062D01*
X7448293Y-15151586D01*
X7457816Y-15170633D01*
X7457816Y-15189681D01*
X7362578Y-15208729D01*
X7534007Y-15265871D02*
X7553055Y-15275395D01*
X7591150Y-15275395D01*
X7610197Y-15265871D01*
X7619721Y-15246824D01*
X7619721Y-15237300D01*
X7610197Y-15218252D01*
X7591150Y-15208729D01*
X7562578Y-15208729D01*
X7543531Y-15199205D01*
X7534007Y-15180157D01*
X7534007Y-15170633D01*
X7543531Y-15151586D01*
X7562578Y-15142062D01*
X7591150Y-15142062D01*
X7610197Y-15151586D01*
X7686388Y-15351586D02*
X7695912Y-15342062D01*
X7714959Y-15313491D01*
X7724483Y-15294443D01*
X7734007Y-15265871D01*
X7743531Y-15218252D01*
X7743531Y-15180157D01*
X7734007Y-15132538D01*
X7724483Y-15103967D01*
X7714959Y-15084919D01*
X7695912Y-15056348D01*
X7686388Y-15046824D01*
M02*
